<svg width="343" height="270" viewBox="0 0 343 270" fill="none" xmlns="http://www.w3.org/2000/svg">
<g clip-path="url(#clip0_2_1377)">
<path fill-rule="evenodd" clip-rule="evenodd" d="M205.87 0C281.604 0 343 60.4318 343 134.978C343 209.524 281.604 269.956 205.87 269.956C179.119 269.956 154.158 262.41 133.06 249.371C118.825 240.391 102.898 235.036 85.2806 233.302C37.5846 229.769 0 190.556 0 142.701C0 103.664 25.0105 70.3801 60.1177 57.5234L60.1914 57.4989C81.0679 49.8694 100.455 44.7306 118.716 30.7735C142.405 11.5499 172.768 0 205.87 0Z" fill="url(#paint0_linear_2_1377)"/>
<path fill-rule="evenodd" clip-rule="evenodd" d="M272.147 45.9785H286.358C286.51 45.9785 286.633 46.1013 286.633 46.2536V74.664C286.633 74.8163 286.51 74.9392 286.358 74.9392H272.147C271.994 74.9392 271.871 74.8163 271.871 74.664V46.2536C271.871 46.1013 271.994 45.9785 272.147 45.9785ZM214.86 9.39321C234.139 9.39321 243.361 5.28615 253.187 8.25346C256.191 9.16231 259.135 10.4347 262.492 12.0068L262.173 190.192L13.798 190.512C12.2644 187.991 9.58046 184.037 8.4892 180.804C5.45136 171.799 8.99059 162.106 8.99059 152.094C8.99059 113.057 34.0011 79.7782 69.1082 66.9166L69.182 66.8921C90.0585 59.2626 109.446 54.1238 127.707 40.1667C151.4 20.9431 189.997 9.39321 214.865 9.39321H214.86Z" fill="url(#paint1_linear_2_1377)"/>
<path fill-rule="evenodd" clip-rule="evenodd" d="M205.87 0C222.499 0 238.436 2.91326 253.182 8.25342V180.804H8.48922C3.04275 169.215 0 156.309 0 142.701C0 103.664 25.0105 70.3801 60.1177 57.5234L60.1914 57.4989C81.0679 49.8694 100.455 44.7306 118.716 30.7735C142.405 11.5499 172.768 0 205.87 0Z" fill="white"/>
<path fill-rule="evenodd" clip-rule="evenodd" d="M205.87 0C217.648 0 229.076 1.464 239.979 4.21023V167.726H3.54906C1.23873 159.777 0 151.382 0 142.701C0 111.225 16.2903 83.5365 40.996 67.2359C41.7874 67.2016 42.5788 67.0591 43.3555 66.8134C44.26 66.5875 45.1153 66.2239 45.8919 65.7523C46.182 65.7032 46.4621 65.6442 46.7423 65.5705C47.347 65.5558 47.9368 65.4821 48.512 65.3544C48.6938 65.32 48.8757 65.2856 49.0527 65.2414C49.2493 65.2266 49.441 65.207 49.6327 65.1775C50.1636 65.148 50.6797 65.0694 51.1811 64.9564C51.4416 64.9466 51.7022 64.922 51.9578 64.8876H52.7492C53.2457 64.8876 53.7323 64.8483 54.2042 64.7747C54.3566 64.7599 54.5041 64.7452 54.6515 64.7206C55.1185 64.696 55.5707 64.6322 56.0181 64.5388C56.3769 64.5044 56.7357 64.4455 57.0798 64.3718C57.3944 64.3374 57.709 64.2834 58.0138 64.2146C58.5152 64.1262 58.9969 63.9984 59.4639 63.8314C59.5966 63.7872 59.7293 63.743 59.8571 63.6938C60.157 63.6251 60.4716 63.5514 60.7665 63.4679C64.8465 62.5934 67.9236 59.0169 68.0268 54.6986C79.3868 50.7193 90.2994 47.0543 100.833 41.8075C100.932 42.343 101.399 42.7508 101.964 42.7508C102.229 42.7508 102.406 42.6967 102.638 42.569C102.741 42.5248 102.844 42.4707 102.932 42.402C103.1 42.3234 103.262 42.1907 103.409 42.0826C103.483 42.0483 103.562 42.0089 103.63 41.9647C103.798 41.9058 103.945 41.8075 104.068 41.6798C104.304 41.6208 104.466 41.5177 104.638 41.3506C104.727 41.3064 104.815 41.2573 104.889 41.2033C104.987 41.1296 105.085 41.0952 105.184 41.0313C105.326 40.992 105.459 40.9281 105.572 40.8397L105.587 40.8299C105.729 40.7709 105.862 40.6825 105.97 40.5744C106.039 40.5302 106.098 40.4811 106.157 40.427C106.088 40.4958 106.191 40.4123 106.211 40.3976C106.28 40.3583 106.344 40.3091 106.403 40.26C106.437 40.2404 106.467 40.2158 106.501 40.1912C106.629 40.1421 106.742 40.0684 106.84 39.98C106.944 39.9161 107.052 39.8179 107.15 39.7442C107.18 39.7196 107.209 39.695 107.238 39.6656L107.229 39.6754L107.293 39.6263C107.479 39.5526 107.617 39.4838 107.764 39.3364C107.868 39.2676 107.976 39.2185 108.069 39.1399L108.256 38.9925C108.462 38.8402 108.694 38.742 108.9 38.5897C109.043 38.5307 109.165 38.4521 109.274 38.3489C109.382 38.2949 109.48 38.236 109.583 38.1721C109.775 38.0738 109.986 37.9854 110.158 37.8577C110.257 37.8184 110.345 37.7791 110.429 37.725C110.586 37.6857 110.729 37.617 110.851 37.5187C110.979 37.4696 111.092 37.3959 111.196 37.3074C111.259 37.2681 111.314 37.2239 111.368 37.1748L111.358 37.1846L111.377 37.1748C111.545 37.1158 111.682 37.0225 111.81 36.8997C111.948 36.767 112.071 36.7376 112.213 36.6344C112.479 36.5509 112.606 36.4231 112.788 36.2463C112.896 36.1873 113 36.1382 113.108 36.0449L113.427 35.7648C113.83 35.4111 113.929 34.8363 113.698 34.3794C115.384 33.2446 117.06 32.0459 118.721 30.7735C142.405 11.5499 172.768 0 205.87 0Z" fill="#45140D"/>
<path fill-rule="evenodd" clip-rule="evenodd" d="M205.87 0C217.648 0 229.076 1.464 239.979 4.21023V167.726H3.54906C1.23873 159.777 0 151.382 0 142.701C0 111.225 16.2903 83.5365 40.996 67.2359C41.7874 67.2016 42.5788 67.0591 43.3555 66.8134C44.26 66.5875 45.1153 66.2239 45.8919 65.7523C46.182 65.7032 46.4621 65.6442 46.7423 65.5705C47.347 65.5558 47.9368 65.4821 48.512 65.3544C48.6938 65.32 48.8757 65.2856 49.0527 65.2414C49.2493 65.2266 49.441 65.207 49.6327 65.1775C50.1636 65.148 50.6797 65.0694 51.1811 64.9564C51.4416 64.9466 51.7022 64.922 51.9578 64.8876H52.7492C53.2457 64.8876 53.7323 64.8483 54.2042 64.7747C54.3566 64.7599 54.5041 64.7452 54.6515 64.7206C55.1185 64.696 55.5707 64.6322 56.0181 64.5388C56.3769 64.5044 56.7357 64.4455 57.0798 64.3718C57.3944 64.3374 57.709 64.2834 58.0138 64.2146C58.5152 64.1262 58.9969 63.9984 59.4639 63.8314C59.5966 63.7872 59.7293 63.743 59.8571 63.6938C60.157 63.6251 60.4716 63.5514 60.7665 63.4679C64.8465 62.5934 67.9236 59.0169 68.0268 54.6986C79.3868 50.7193 90.2994 47.0543 100.833 41.8075C100.932 42.343 101.399 42.7508 101.964 42.7508C102.229 42.7508 102.406 42.6967 102.638 42.569C102.741 42.5248 102.844 42.4707 102.932 42.402C103.1 42.3234 103.262 42.1907 103.409 42.0826C103.483 42.0483 103.562 42.0089 103.63 41.9647C103.798 41.9058 103.945 41.8075 104.068 41.6798C104.304 41.6208 104.466 41.5177 104.638 41.3506C104.727 41.3064 104.815 41.2573 104.889 41.2033C104.987 41.1296 105.085 41.0952 105.184 41.0313C105.326 40.992 105.459 40.9281 105.572 40.8397L105.587 40.8299C105.729 40.7709 105.862 40.6825 105.97 40.5744C106.039 40.5302 106.098 40.4811 106.157 40.427C106.088 40.4958 106.191 40.4123 106.211 40.3976C106.28 40.3583 106.344 40.3091 106.403 40.26C106.437 40.2404 106.467 40.2158 106.501 40.1912C106.629 40.1421 106.742 40.0684 106.84 39.98C106.944 39.9161 107.052 39.8179 107.15 39.7442C107.18 39.7196 107.209 39.695 107.238 39.6656L107.229 39.6754L107.293 39.6263C107.479 39.5526 107.617 39.4838 107.764 39.3364C107.868 39.2676 107.976 39.2185 108.069 39.1399L108.256 38.9925C108.462 38.8402 108.694 38.742 108.9 38.5897C109.043 38.5307 109.165 38.4521 109.274 38.3489C109.382 38.2949 109.48 38.236 109.583 38.1721C109.775 38.0738 109.986 37.9854 110.158 37.8577C110.257 37.8184 110.345 37.7791 110.429 37.725C110.586 37.6857 110.729 37.617 110.851 37.5187C110.979 37.4696 111.092 37.3959 111.196 37.3074C111.259 37.2681 111.314 37.2239 111.368 37.1748L111.358 37.1846L111.377 37.1748C111.545 37.1158 111.682 37.0225 111.81 36.8997C111.948 36.767 112.071 36.7376 112.213 36.6344C112.479 36.5509 112.606 36.4231 112.788 36.2463C112.896 36.1873 113 36.1382 113.108 36.0449L113.427 35.7648C113.83 35.4111 113.929 34.8363 113.698 34.3794C115.384 33.2446 117.06 32.0459 118.721 30.7735C142.405 11.5499 172.768 0 205.87 0Z" fill="url(#paint2_linear_2_1377)"/>
<path fill-rule="evenodd" clip-rule="evenodd" d="M242.294 54.7084V67.4815H40.5242C46.5802 63.4334 53.1474 60.078 60.1177 57.5234L60.1914 57.4988C62.9393 56.4966 65.6625 55.5337 68.3612 54.5905L242.299 54.7133L242.294 54.7084Z" fill="white"/>
<path fill-rule="evenodd" clip-rule="evenodd" d="M158.901 18.3C153.317 16.6444 147.433 19.7198 145.605 25.2466C143.776 30.7735 146.671 36.7474 152.138 38.7469C157.609 40.7415 163.674 38.0345 165.837 32.6354C163.217 34.6202 159.654 34.8314 156.817 33.1709C153.981 31.5055 152.428 28.2975 152.88 25.0403C153.337 21.7831 155.711 19.1253 158.897 18.3049" fill="white"/>
<path fill-rule="evenodd" clip-rule="evenodd" d="M184.059 17.4943L184.851 20.0685L187.422 20.8595L184.851 21.6505L184.059 24.2247L183.268 21.6505L180.692 20.8595L183.268 20.0685L184.059 17.4943Z" fill="white"/>
<path fill-rule="evenodd" clip-rule="evenodd" d="M137.519 40.9625L138.084 42.7901L139.908 43.3501L138.084 43.9102L137.519 45.7328L136.958 43.9102L135.135 43.3501L136.958 42.7901L137.519 40.9625Z" fill="white"/>
<path fill-rule="evenodd" clip-rule="evenodd" d="M153.897 80.4218L154.394 82.0381L156.011 82.5342L154.394 83.0304L153.897 84.6467L153.401 83.0304L151.784 82.5342L153.401 82.0381L153.897 80.4218Z" fill="white"/>
<path fill-rule="evenodd" clip-rule="evenodd" d="M67.8991 81.5911L68.3956 83.2074L70.0128 83.7035L68.3956 84.1997L67.8991 85.816L67.4026 84.1997L65.7854 83.7035L67.4026 83.2074L67.8991 81.5911Z" fill="white"/>
<path fill-rule="evenodd" clip-rule="evenodd" d="M225.64 31.8346L226.156 33.5098L227.833 34.0257L226.156 34.5415L225.64 36.2168L225.124 34.5415L223.448 34.0257L225.124 33.5098L225.64 31.8346Z" fill="white"/>
<path fill-rule="evenodd" clip-rule="evenodd" d="M29.3656 88.3362L29.8228 89.8149L31.2975 90.2669L29.8228 90.7189L29.3656 92.1976L28.9134 90.7189L27.4387 90.2669L28.9134 89.8149L29.3656 88.3362Z" fill="white"/>
<path fill-rule="evenodd" clip-rule="evenodd" d="M106.821 149.112L137.868 151.627V151.647L137.99 151.637L138.113 151.647V151.627L145.939 150.993V193.656H169.647V148.38C174.228 141.301 175.649 132.846 173.584 124.804C168.767 106.057 151.906 104.298 139.48 91.8145V89.0928C141.259 88.6752 142.528 87.6091 142.528 86.3515C142.528 84.9513 140.955 83.7821 138.846 83.4923L138.797 82.1953C139.809 81.9546 140.527 81.3405 140.527 80.6281C140.527 79.9158 139.75 79.2525 138.674 79.0315L138.359 71.0777C138.349 70.7977 138.295 70.5422 138.226 70.3605C138.158 70.1787 138.069 70.0608 137.971 70.0608C137.872 70.0608 137.784 70.1787 137.715 70.3605C137.646 70.5422 137.592 70.8026 137.582 71.0777L137.268 78.9873C136.049 79.1494 135.139 79.8224 135.139 80.6281C135.139 81.4338 135.99 82.0577 137.14 82.2493L137.091 83.4628C134.849 83.6839 133.134 84.8924 133.134 86.3515C133.134 87.6632 134.52 88.7735 136.432 89.1468V91.8881C124.011 104.303 107.209 106.096 102.402 124.804C100.263 133.121 101.861 141.88 106.826 149.107" fill="#240C0C"/>
<path fill-rule="evenodd" clip-rule="evenodd" d="M75.5281 132.924L75.3659 127.874C75.3069 126.027 75.2479 124.18 75.189 122.337C74.9383 122.269 74.6876 122.151 74.4565 121.989C74.083 121.738 73.7634 121.389 73.5816 121.006C73.4341 120.687 73.2817 120.362 73.1293 120.043C72.9769 119.724 72.8295 119.4 72.6771 119.08C72.5001 118.697 72.51 118.348 72.6968 118.098C72.8737 117.857 73.2031 117.705 73.6356 117.69C73.5914 116.747 73.6848 115.794 73.9257 114.855C75.4839 108.798 80.9254 108.213 84.9464 104.195V103.305C84.327 103.187 83.8797 102.824 83.8797 102.401C83.8797 101.93 84.4352 101.537 85.1627 101.463L85.1774 101.07C84.8039 101.006 84.5286 100.795 84.5286 100.544C84.5286 100.294 84.8235 100.063 85.2168 100.014L85.32 97.4543C85.32 97.3658 85.3397 97.2823 85.3642 97.2234C85.3888 97.1644 85.4134 97.1251 85.4478 97.1251C85.4773 97.1251 85.5068 97.1644 85.5314 97.2234C85.5559 97.2823 85.5707 97.3658 85.5756 97.4543L85.6788 100.033C86.0278 100.102 86.2785 100.309 86.2785 100.549C86.2785 100.79 86.0475 100.977 85.7182 101.055L85.7329 101.478C86.4162 101.571 86.9274 101.949 86.9274 102.401C86.9274 102.809 86.5194 103.153 85.9394 103.291V104.17C89.9652 108.213 95.4264 108.783 96.9847 114.855C97.2255 115.803 97.3239 116.766 97.2698 117.719C97.5598 117.778 97.7859 117.911 97.9186 118.098C98.1054 118.348 98.1251 118.697 97.9432 119.08C97.7908 119.4 97.6434 119.724 97.491 120.043C97.3435 120.362 97.1911 120.687 97.0388 121.006C96.8569 121.389 96.5275 121.738 96.1589 121.989C95.9278 122.146 95.682 122.264 95.4314 122.332C95.3724 124.18 95.3134 126.027 95.2544 127.874L95.0922 132.924H96.9257C97.3878 132.924 97.7318 133.082 97.9186 133.332C98.1054 133.583 98.1251 133.931 97.9432 134.315C97.7908 134.634 97.6434 134.958 97.491 135.278C97.3435 135.597 97.1911 135.921 97.0388 136.24C96.8569 136.624 96.5275 136.972 96.1589 137.223C95.9278 137.38 95.6821 137.498 95.4412 137.567C95.3773 140.519 95.3183 143.472 95.2544 146.42C95.1708 150.374 95.0922 154.329 95.0086 158.284H94.9791V180.951H75.5625V155.906C75.4986 152.742 75.4298 149.584 75.3659 146.42C75.3069 143.472 75.243 140.519 75.184 137.567C74.9333 137.498 74.6876 137.38 74.4565 137.223C74.083 136.972 73.7634 136.624 73.5816 136.24C73.4341 135.921 73.2817 135.597 73.1293 135.278C72.9769 134.958 72.8295 134.634 72.6771 134.315C72.5001 133.931 72.51 133.583 72.6968 133.332C72.8835 133.077 73.2375 132.924 73.6995 132.924H75.5281Z" fill="#240C0C"/>
<path fill-rule="evenodd" clip-rule="evenodd" d="M79.7506 141.905C80.7682 141.905 81.6038 142.74 81.6038 143.757V152.664C81.6038 153.681 80.7682 154.516 79.7506 154.516C78.7331 154.516 77.8975 153.681 77.8975 152.664V143.757C77.8975 142.74 78.7331 141.905 79.7506 141.905Z" fill="url(#paint3_linear_2_1377)"/>
<path fill-rule="evenodd" clip-rule="evenodd" d="M85.2462 141.905C86.2638 141.905 87.0994 142.74 87.0994 143.757V152.664C87.0994 153.681 86.2638 154.516 85.2462 154.516C84.2287 154.516 83.3931 153.681 83.3931 152.664V143.757C83.3931 142.74 84.2287 141.905 85.2462 141.905Z" fill="url(#paint4_linear_2_1377)"/>
<path fill-rule="evenodd" clip-rule="evenodd" d="M90.6779 141.905C91.6954 141.905 92.5311 142.74 92.5311 143.757V152.664C92.5311 153.681 91.6954 154.516 90.6779 154.516C89.6604 154.516 88.8247 153.681 88.8247 152.664V143.757C88.8247 142.74 89.6604 141.905 90.6779 141.905Z" fill="url(#paint5_linear_2_1377)"/>
<path fill-rule="evenodd" clip-rule="evenodd" d="M81.5153 123.227C82.2772 123.227 82.8966 123.85 82.8966 124.607V131.259C82.8966 132.02 82.2723 132.639 81.5153 132.639C80.7534 132.639 80.134 132.015 80.134 131.259V124.607C80.134 123.846 80.7583 123.227 81.5153 123.227Z" fill="url(#paint6_linear_2_1377)"/>
<path fill-rule="evenodd" clip-rule="evenodd" d="M85.6149 123.227C86.3768 123.227 86.9962 123.85 86.9962 124.607V131.259C86.9962 132.02 86.3719 132.639 85.6149 132.639C84.853 132.639 84.2336 132.015 84.2336 131.259V124.607C84.2336 123.846 84.8579 123.227 85.6149 123.227Z" fill="url(#paint7_linear_2_1377)"/>
<path fill-rule="evenodd" clip-rule="evenodd" d="M89.675 123.227C90.4369 123.227 91.0563 123.85 91.0563 124.607V131.259C91.0563 132.02 90.432 132.639 89.675 132.639C88.9131 132.639 88.2937 132.015 88.2937 131.259V124.607C88.2937 123.846 88.918 123.227 89.675 123.227Z" fill="url(#paint8_linear_2_1377)"/>
<path fill-rule="evenodd" clip-rule="evenodd" d="M113.889 169.249H100.755V41.8665C105.199 39.6558 109.578 37.1601 113.889 34.2419V169.249Z" fill="white"/>
<path fill-rule="evenodd" clip-rule="evenodd" d="M157.545 196.422C156.424 204.449 154.748 208.64 152.526 208.993C119.198 194.923 101.502 158.309 111.196 123.472C112.375 119.734 112.906 118.324 117.414 119.375C133.478 123.492 147.035 134.241 154.694 148.945C162.352 163.649 163.389 180.912 157.545 196.427" fill="#00B900"/>
<path fill-rule="evenodd" clip-rule="evenodd" d="M128.528 187.274C137.327 187.087 145.113 181.526 148.131 173.263C151.15 165 148.785 155.734 142.174 149.922C138.138 151.023 134.874 153.985 133.39 157.891C131.905 161.797 132.377 166.179 134.663 169.682C135.818 172.276 135.488 175.292 133.802 177.576C131.06 181.295 125.741 181.855 122.28 178.859C124.001 181.914 126.105 184.739 128.533 187.274" fill="#0ED10E"/>
<path fill-rule="evenodd" clip-rule="evenodd" d="M143.088 201.202C148.81 202.916 155.008 201.207 159.044 196.839C164.658 192.57 164.908 185.226 159.791 174.801C159.58 173.317 159.324 171.838 159.024 170.369V170.355C158.98 170.153 158.941 169.947 158.896 169.745V169.726L158.887 169.696C158.842 169.5 158.798 169.298 158.754 169.102V169.072C158.7 168.866 158.656 168.66 158.606 168.453V168.434C158.552 168.227 158.503 168.021 158.454 167.82V167.79C158.4 167.589 158.346 167.387 158.297 167.191L158.287 167.151C158.238 166.955 158.184 166.758 158.135 166.557L158.12 166.503C158.066 166.302 158.012 166.1 157.958 165.904C157.899 165.692 157.84 165.481 157.781 165.275C157.663 164.852 157.54 164.435 157.412 164.022C157.348 163.811 157.284 163.604 157.22 163.393L157.215 163.374C157.151 163.172 157.088 162.976 157.024 162.774V162.764C156.955 162.568 156.891 162.366 156.827 162.17L156.812 162.126C156.675 161.718 156.537 161.315 156.394 160.912L156.36 160.804C153.519 152.831 149.272 145.383 143.776 138.829C136.958 143.511 135.198 152.821 139.844 159.664C143.56 164.543 144.42 171.023 142.095 176.697C139.77 182.371 134.618 186.395 128.543 187.269C132.205 192.541 136.762 197.129 142.007 200.823C142.37 200.961 142.734 201.084 143.098 201.197L143.088 201.202Z" fill="#0CAB0C"/>
<path d="M145.094 187.2L145.113 187.24L148.647 195.361C148.898 195.94 148.633 196.618 148.053 196.869C147.473 197.119 146.794 196.854 146.544 196.274L143.285 188.787L127.058 188.021C126.424 187.991 125.937 187.456 125.967 186.822C125.996 186.188 126.532 185.702 127.166 185.732L142.267 186.444L136.899 174.118L117.768 173.607C117.134 173.592 116.632 173.066 116.647 172.433C116.662 171.799 117.188 171.298 117.822 171.313L135.892 171.794L130.234 158.795H130.199L114.243 157.296C113.614 157.238 113.147 156.682 113.206 156.054C113.265 155.425 113.821 154.958 114.45 155.017L129.187 156.397L124.197 144.936C124.197 144.936 124.183 144.907 124.178 144.887L121.307 138.294L112.577 138.088C111.943 138.073 111.441 137.547 111.456 136.913C111.471 136.28 111.997 135.779 112.631 135.793L120.294 135.975L115.295 124.499C115.045 123.919 115.31 123.241 115.89 122.991C116.47 122.74 117.148 123.005 117.399 123.585L125.298 141.733L131.074 130.085C131.354 129.515 132.043 129.284 132.613 129.564C133.183 129.844 133.414 130.532 133.134 131.102L126.498 144.489L133.399 160.342L142.98 141.286C143.265 140.721 143.953 140.49 144.518 140.775C145.084 141.06 145.315 141.748 145.03 142.313L134.594 163.079L140.645 176.977L152.722 153.921C153.017 153.361 153.706 153.145 154.266 153.435C154.826 153.73 155.043 154.418 154.753 154.978L141.82 179.669L145.098 187.2H145.094Z" fill="#5B4214"/>
<path fill-rule="evenodd" clip-rule="evenodd" d="M149.547 228.875C152.27 238.45 152.472 243.987 150.152 245.485C105.72 246.207 67.6582 213.847 61.2482 169.903C60.7174 165.118 60.6092 163.27 66.1982 162.214C86.2932 158.869 106.86 164.223 122.762 176.947C138.664 189.667 148.407 208.551 149.542 228.875" fill="#00B900"/>
<path fill-rule="evenodd" clip-rule="evenodd" d="M112.41 232.987C122.202 228.414 128.184 218.303 127.471 207.52C126.758 196.741 119.498 187.5 109.19 184.253C105.203 187.49 103.006 192.437 103.276 197.566C103.547 202.695 106.255 207.382 110.561 210.177C113.147 212.521 114.278 216.068 113.516 219.472C112.282 225.009 106.585 228.281 101.207 226.63C104.658 229.209 108.423 231.342 112.41 232.982" fill="#0ED10E"/>
<path fill-rule="evenodd" clip-rule="evenodd" d="M134.269 241.54C142.808 241.103 150.024 235.075 151.97 226.758C153.917 218.441 150.117 209.838 142.66 205.663C133.95 190.703 121.007 178.647 105.469 171.008C100.136 179.65 102.78 190.978 111.397 196.368C117.999 200.003 122.177 206.861 122.384 214.388C122.59 221.914 118.795 228.993 112.41 232.987C119.139 237.094 126.537 239.988 134.269 241.54Z" fill="#0CAB0C"/>
<path fill-rule="evenodd" clip-rule="evenodd" d="M135.685 241.413C156.95 230.801 158.838 218.156 141.338 203.467C138.212 198.441 134.589 193.749 130.519 189.45C136.432 198.161 136.791 209.494 131.438 218.559C126.69 226.119 128.538 236.058 135.685 241.413Z" fill="#1C941C"/>
<path d="M142.07 233.798C142.007 233.842 141.943 233.876 141.869 233.906L128.528 239.605C127.943 239.855 127.27 239.58 127.019 239C126.768 238.416 127.043 237.743 127.624 237.492L140.148 232.142L127.619 221.354C127.52 221.428 127.407 221.487 127.279 221.526L104.914 228.635C104.309 228.826 103.665 228.492 103.473 227.888C103.282 227.284 103.616 226.64 104.22 226.448L125.633 219.644L116.465 211.749H116.455C116.372 211.69 116.293 211.627 116.229 211.558C116.21 211.538 116.19 211.519 116.17 211.494L108.979 205.304L86.7848 211.356C86.1753 211.523 85.5461 211.16 85.379 210.551C85.2118 209.942 85.5756 209.313 86.1851 209.146L106.885 203.501L95.6968 193.867C95.6968 193.867 95.6771 193.847 95.6673 193.838L83.0441 182.966L72.2887 186.346C71.6841 186.537 71.0402 186.198 70.8485 185.594C70.6568 184.99 70.996 184.346 71.6006 184.155L80.9992 181.202L68.3907 170.345C67.909 169.932 67.8549 169.205 68.2678 168.724C68.6807 168.242 69.4082 168.188 69.8899 168.601L95.3183 190.502L95.6083 169.215C95.6132 168.581 96.1343 168.07 96.7684 168.08C97.4025 168.085 97.9137 168.606 97.9039 169.239L97.5893 192.457L116.303 208.571C116.313 208.463 116.323 208.35 116.332 208.237C116.681 204.238 117.089 195.223 117.556 181.192C117.576 180.558 118.107 180.062 118.741 180.082C119.375 180.101 119.872 180.632 119.852 181.266C119.385 195.316 118.972 204.375 118.618 208.438C118.544 209.313 118.471 209.961 118.397 210.384L135.606 225.201L136.064 204.37C136.073 203.737 136.599 203.236 137.234 203.245C137.868 203.255 138.369 203.781 138.359 204.415L137.863 227.141L152.511 239.757C152.993 240.17 153.047 240.897 152.634 241.378C152.221 241.86 151.494 241.914 151.012 241.501L142.075 233.808L142.07 233.798Z" fill="#5B4214"/>
<path fill-rule="evenodd" clip-rule="evenodd" d="M143.103 255.016C147.998 256.455 153.288 254.839 156.537 250.904C159.786 246.969 160.376 241.476 158.031 236.942C155.686 232.408 150.864 229.71 145.772 230.079C130.229 239.03 122.457 243.505 122.457 243.505C126.099 245.259 129.639 247.215 133.06 249.371C136.329 251.39 139.676 253.272 143.103 255.011" fill="#755033"/>
<path fill-rule="evenodd" clip-rule="evenodd" d="M199.116 93.7648H305.204C304.806 91.387 305.273 88.8668 306.688 86.715C315.222 93.8876 320.128 97.9996 321.396 99.046C321.504 99.1344 321.607 99.2228 321.715 99.3064C327.624 104.258 330.917 112.06 329.895 120.795L320.098 204.813L319.4 210.703C311.992 221.428 303.09 231.032 292.979 239.226C292.055 238.293 290.934 237.556 289.68 237.085C289.214 236.75 288.717 236.461 288.206 236.22L288.181 235.616C288.108 235.783 288.034 235.945 287.97 236.117C284.986 234.825 281.408 235.159 278.655 237.296C275.435 239.796 274.334 244.011 275.637 247.647C275.214 247.902 274.811 248.187 274.423 248.507C273.253 248.993 272.156 249.696 271.193 250.629L271.173 250.639C270.033 251.13 268.961 251.837 268.017 252.761H180.569C165.69 252.761 154.939 240.597 156.674 225.726L168.914 120.79C170.65 105.919 184.241 93.7549 199.116 93.7549" fill="#755033"/>
<path fill-rule="evenodd" clip-rule="evenodd" d="M321.883 176.54C309.54 177.232 300.584 185.732 302.594 199.418C312.224 195.488 319.415 186.96 321.883 176.54ZM314.573 112.807C304.659 128.601 307.569 144.297 322.895 155.061C327.865 139.164 323.313 120.299 314.573 112.807Z" fill="#4F3521"/>
<path fill-rule="evenodd" clip-rule="evenodd" d="M184.31 81.3552H291.195C306.074 81.3552 316.824 93.5192 315.089 108.39L302.849 213.327C301.114 228.197 287.523 240.361 272.648 240.361H165.764C150.884 240.361 140.134 228.197 141.869 213.327L154.109 108.39C155.844 93.5192 169.435 81.3552 184.31 81.3552Z" fill="#CFAA87"/>
<path fill-rule="evenodd" clip-rule="evenodd" d="M154.384 199.595C164.495 197.021 174.897 202.582 178.367 212.418C181.832 222.253 177.217 233.105 167.73 237.433C156.488 228.35 151.326 213.715 154.389 199.595M279.363 213.538C270.475 188.232 267.162 166.935 269.423 149.657C274.83 152.718 279.063 158.294 282.125 166.37C284.141 174.187 288.653 181.133 294.984 186.149C301.286 190.993 303.051 199.743 299.113 206.645C295.176 213.548 286.746 216.49 279.363 213.538ZM304.083 118.176C278.542 109.942 259.572 99.7043 247.166 87.4519C252.877 85.0004 259.877 85.0004 268.165 87.4519C275.612 90.5764 283.88 91.1807 291.701 89.1763C299.374 87.0883 307.411 90.9743 310.532 98.2845C313.654 105.595 310.896 114.084 304.078 118.171L304.083 118.176Z" fill="#BD936B"/>
<path fill-rule="evenodd" clip-rule="evenodd" d="M148.466 190.02C157.181 184.287 168.831 186.149 175.324 194.309C181.818 202.469 181.002 214.235 173.447 221.428C159.855 216.515 150.191 204.366 148.466 190.02Z" fill="#A87C52"/>
<path fill-rule="evenodd" clip-rule="evenodd" d="M273.125 202.106C275.357 175.38 281.034 154.59 290.163 139.738C293.849 144.74 295.432 151.554 294.926 160.18C293.569 168.139 294.852 176.324 298.583 183.482C302.358 190.477 300.392 199.183 293.972 203.874C287.557 208.571 278.66 207.814 273.125 202.101M302.496 127.663C276.954 119.429 257.985 109.191 245.578 96.9385C251.29 94.487 258.29 94.487 266.578 96.9385C274.025 100.063 282.293 100.667 290.113 98.6628C297.787 96.5749 305.824 100.461 308.945 107.771C312.066 115.081 309.309 123.57 302.491 127.658L302.496 127.663Z" fill="#A87C52"/>
<path fill-rule="evenodd" clip-rule="evenodd" d="M178.298 267.229C170.94 265.75 163.719 263.672 156.709 261.02C155.19 260.44 153.676 259.845 152.177 259.212C148.485 257.664 144.858 255.95 141.313 254.088C141.5 244.778 150.157 237.134 167.287 231.155C171.594 228.271 176.74 225.397 182.732 222.528C249.048 218.868 290.197 215.675 290.197 215.675C297.821 222.641 301.852 231.386 293.446 238.858C292.222 239.86 290.983 240.838 289.725 241.791C289.258 241.717 288.781 241.678 288.299 241.678C287.587 241.678 286.894 241.658 286.186 241.747L284.411 241.968C283.182 242.096 281.958 242.479 280.813 243.132L279.564 243.845C278.999 244.085 278.404 244.321 277.854 244.596L277.156 244.945C276.699 245.078 276.227 245.196 275.779 245.353L270.475 247.195L268.278 247.794L265.29 248.482C264.788 248.6 264.297 248.757 263.82 248.954L261.74 249.818C260.866 249.995 259.941 250.138 259.096 250.418L251.791 252.85C250.71 253.208 249.81 253.773 248.832 254.333C248.124 254.648 247.377 254.952 246.689 255.296L245.082 256.097L243.253 256.829C243.002 256.912 242.766 256.991 242.525 257.079C241.542 257.212 240.564 257.502 239.625 257.974L238.509 258.534C237.988 258.74 237.453 258.941 236.951 259.192L236.076 259.629C235.152 259.939 234.174 260.214 233.299 260.651L232.758 260.921L231.421 261.422C230.708 261.658 230.015 261.879 229.322 262.159C228.546 262.287 227.872 262.42 227.125 262.7L225.871 263.166C225.326 263.274 224.81 263.378 224.279 263.559L223.153 263.933C222.524 264.09 221.875 264.237 221.251 264.414C220.4 264.655 219.476 264.876 218.655 265.205C217.599 265.628 216.576 266.06 215.524 266.507C214.865 266.787 214.207 267.146 213.568 267.465H214.767C213.224 267.465 211.685 267.848 210.299 268.62C210.053 268.693 209.807 268.782 209.562 268.865C208.918 269.067 208.293 269.342 207.703 269.686C207.595 269.73 207.487 269.779 207.379 269.833C207.212 269.867 207.05 269.902 206.887 269.946C197.327 270.015 187.746 269.111 178.303 267.219" fill="#E6E6E6"/>
<path fill-rule="evenodd" clip-rule="evenodd" d="M293.362 226.63C257.257 227.824 233.83 231.735 223.074 238.367C220.277 256.785 203.712 269.912 185.131 268.428C223.586 274.269 262.723 263.677 292.974 239.236C295.201 235.36 295.343 230.634 293.357 226.63" fill="#D6D8D9"/>
<path fill-rule="evenodd" clip-rule="evenodd" d="M294.159 228.615C268.976 240.396 255.031 246.537 252.317 247.038C248.006 261.589 235.304 269.155 214.217 269.745C241.606 268.123 267.89 258.391 289.72 241.786C291.893 240.081 292.979 239.227 292.979 239.227C294.793 236.22 295.186 232.678 294.159 228.61" fill="#B5BCBF"/>
<path fill-rule="evenodd" clip-rule="evenodd" d="M169.617 191.74C156.252 184.975 147.91 179.748 144.592 176.053C151.715 146.562 155.274 131.814 155.274 131.814C158.837 117.056 171.239 104.632 192.485 94.5459C194.284 155.081 186.66 187.48 169.612 191.74" fill="#507AC2"/>
<path fill-rule="evenodd" clip-rule="evenodd" d="M170.684 115.607C174.779 164.273 168.472 180.534 151.774 164.405C158.734 158.245 162.254 149.078 161.192 139.842C160.41 127.673 163.576 119.596 170.684 115.607Z" fill="#254F99"/>
<path fill-rule="evenodd" clip-rule="evenodd" d="M289.214 178.269C300.195 160.372 297.157 131.367 280.1 91.2592C280.1 91.2592 268.377 89.5398 244.929 86.0959C220.877 94.256 201.003 91.8733 189.698 95.2533C174.705 102.735 174.322 114.443 174.105 125.31C173.973 145.919 174.091 165.678 174.464 184.577L183.986 184.056C180.958 187.446 178.279 191.165 176.008 195.174C176.008 195.174 181.425 203.471 182.339 211.627C183.597 222.862 173.412 223.604 179.935 230.722C188.773 240.361 208.721 232.589 228.973 240.18C254.893 249.022 271.277 254.407 289.808 233.257C297.983 223.786 299.674 226.63 295.884 214.26C293.79 207.421 292.242 198.436 293.077 187.549C290.536 184.213 282.853 181.546 279.761 178.79L289.209 178.269H289.214Z" fill="url(#paint9_linear_2_1377)"/>
<path fill-rule="evenodd" clip-rule="evenodd" d="M216.374 165.069C225.168 153.199 227.361 137.69 222.194 123.851C222.553 120.299 216.104 117.862 202.842 116.545C200.266 121.458 201.736 127.515 206.273 130.704C210.402 133.16 212.565 137.926 211.695 142.647C210.825 147.368 207.109 151.052 202.375 151.883C196.673 152.9 192.19 157.321 191.094 163C201.225 167.874 209.655 168.562 216.369 165.069" fill="url(#paint10_linear_2_1377)"/>
<path fill-rule="evenodd" clip-rule="evenodd" d="M246.944 217.871C236.086 194.609 220.921 177.645 201.46 166.989C202.645 162.612 205.658 158.657 210.49 155.13C216.389 151.431 220.223 145.192 220.857 138.26C221.491 131.328 218.847 124.499 213.715 119.793C213.715 119.793 226.491 110.562 252.042 92.0994C260.536 90.0754 269.482 92.237 276.109 97.9211C276.109 97.9211 274.221 104.853 270.446 118.722C285.66 127.068 292.06 149.849 289.646 187.063C289.602 198.318 290.787 207.579 293.195 214.84C293.76 217.095 293.495 218.829 292.399 220.037C291.77 220.597 291.258 221.398 290.87 222.44C286.918 231.784 277.318 237.453 267.216 236.402C257.12 235.35 248.891 227.829 246.949 217.871" fill="url(#paint11_linear_2_1377)"/>
<path fill-rule="evenodd" clip-rule="evenodd" d="M289.808 194.516C298.44 151.573 292.959 128.611 273.375 125.639C256.997 112.438 250.577 119.709 254.126 147.446C250.714 160.765 257.881 173.076 259.877 186.68C263.878 213.921 279.358 217.198 291.868 210.133C290.496 202.631 289.813 197.429 289.808 194.52" fill="url(#paint12_linear_2_1377)"/>
<path fill-rule="evenodd" clip-rule="evenodd" d="M194.5 93.5879C197.533 92.7675 198.01 91.8733 195.935 90.9055C191.718 92.5709 185.937 95.666 179.837 100.461C174.503 104.651 170.763 107.766 168.418 114.384C159.368 139.91 170.812 201.993 163.315 237.232C162.554 240.288 161.9 241.531 163.507 242.685C170.969 248.143 179.915 250.197 188.906 248.109C190.813 247.617 191.914 246.07 192.17 243.378C194.259 214.388 194.072 189.853 191.624 169.77C188.007 124.858 188.965 99.4635 194.51 93.5879" fill="white"/>
<path fill-rule="evenodd" clip-rule="evenodd" d="M215.903 228.797C212.211 229.17 207.025 229.455 203.879 231.425C204.656 237.183 204.916 238.514 204.095 240.553C201.765 246.473 194.711 258.922 204.872 259.934C206.573 260.621 208.308 260.391 209.724 258.445C211.38 256.092 213.528 252.761 216.591 246.964C218.626 242.985 219.983 238.278 216.886 235.016C216.217 232.491 215.903 228.792 215.903 228.792" fill="#FCC197"/>
<path fill-rule="evenodd" clip-rule="evenodd" d="M239.536 230.443C245.189 230.536 248.507 231.45 249.481 233.184C249.653 236.657 249.55 242.056 249.161 249.381C248.748 257.148 246.025 258.268 236.636 256.883C232.61 258.411 232.001 253.11 234.267 245.898C237.501 235.552 239.532 230.447 239.532 230.447" fill="#FCC197"/>
<path fill-rule="evenodd" clip-rule="evenodd" d="M211.906 231.602C208.283 232.722 206.469 233.282 206.469 233.282C205.727 233.744 205.319 234.594 205.427 235.463C205.536 236.333 206.14 237.055 206.976 237.315C208.441 237.959 209.512 239.256 209.866 240.813C210.22 242.371 209.817 244.007 208.77 245.215C206.165 248.119 205.634 251.582 207.167 255.606C207.88 257.06 207.983 258.214 207.472 259.069C208.347 258.43 209.232 257.222 210.132 255.453C214.231 244.277 214.816 236.328 211.896 231.602" fill="#FAAB7B"/>
<path fill-rule="evenodd" clip-rule="evenodd" d="M238.794 237.315C242.166 238.509 244.732 241.285 245.661 244.734C246.591 248.187 245.76 251.872 243.445 254.594C242.52 254.716 241.626 254.201 241.267 253.346C240.903 252.486 241.164 251.489 241.896 250.914C242.614 250.339 242.953 249.42 242.786 248.517C242.614 247.617 241.96 246.881 241.085 246.61C239.153 246.104 237.654 244.581 237.177 242.641C236.7 240.7 237.32 238.657 238.794 237.315Z" fill="#FAAB7B"/>
<path fill-rule="evenodd" clip-rule="evenodd" d="M214.339 229.622C208.903 231.867 206.057 233.385 205.801 234.166C208.087 233.597 210.49 234.491 211.847 236.416C213.204 238.342 213.228 240.907 211.916 242.862C209.66 246.36 209.016 249.371 209.974 251.892C210.343 253.306 210.397 254.49 210.141 255.448C216.025 245.579 217.957 239.099 215.942 236.004C214.875 231.744 214.344 229.617 214.344 229.617" fill="#F28D57"/>
<path fill-rule="evenodd" clip-rule="evenodd" d="M247.868 236.181C241.508 235.822 238.332 235.645 238.332 235.645C237.895 238.111 239.237 240.548 241.552 241.501C243.425 242.277 244.777 243.958 245.126 245.952C245.475 247.952 244.777 249.985 243.277 251.351C242.437 251.916 242.098 252.992 242.456 253.935C242.815 254.883 243.784 255.458 244.791 255.321C246.305 255.198 247.254 253.69 247.637 250.786C248.203 245.937 248.281 241.044 247.868 236.176" fill="#F28D57"/>
<path fill-rule="evenodd" clip-rule="evenodd" d="M280.105 193.312C273.705 190.453 266.13 191.966 261.391 197.06C256.653 202.155 255.837 209.647 259.376 215.581C265.638 217.178 272.294 215.242 276.649 210.561C281.005 205.879 282.337 199.232 280.1 193.312" fill="#45140D"/>
<path fill-rule="evenodd" clip-rule="evenodd" d="M218.739 203.118C216.547 197.35 210.923 193.616 204.754 193.838C198.585 194.059 194.608 195.041 192.834 200.951C192.834 200.951 195.119 213.945 202.424 233.66C208.451 234.972 213.641 234.137 218.011 229.789C219.137 216.353 220.101 206.797 218.734 203.118" fill="#5C1E14"/>
<path fill-rule="evenodd" clip-rule="evenodd" d="M257.793 191.538C241.523 200.647 233.382 205.201 233.382 205.201C233.382 205.201 234.267 215.1 236.032 234.893C241.051 237.959 247.126 238.77 252.769 237.124C259.184 217.05 262.394 207.014 262.394 207.014C264.213 200.848 262.989 194.815 257.793 191.538Z" fill="#5C1E14"/>
<path fill-rule="evenodd" clip-rule="evenodd" d="M217.844 81.4436C209.212 89.9771 203.102 100.014 197.882 111.687C205.368 134.575 235.85 131.298 244.929 86.1009C243.351 85.3296 241.749 85.0348 239.188 85.3492C239.011 85.4033 238.249 85.4819 238.072 85.531C237.782 85.6096 237.492 85.6882 237.202 85.7619C235.894 86.1156 234.454 86.209 233.102 86.0419C232.728 85.9928 232.36 85.9437 231.986 85.9044C231.465 85.8602 230.939 85.7717 230.418 85.644C229.248 86.1058 227.97 86.3613 226.633 86.3613C222.917 86.3613 219.663 84.3913 217.849 81.4436" fill="white"/>
<path fill-rule="evenodd" clip-rule="evenodd" d="M229.263 73.6324C214.669 82.4262 206.445 93.9564 199.902 108.577C206.165 127.722 232.05 123.86 239.266 85.3542C235.57 85.0005 231.859 84.5288 231.859 84.5288C229.843 78.6188 229.263 73.6274 229.263 73.6274" fill="#FAA87D"/>
<path fill-rule="evenodd" clip-rule="evenodd" d="M193.571 206.974C180.913 202.916 180.363 206.424 191.924 217.502C194.274 214.52 194.898 210.531 193.571 206.974Z" fill="#375191"/>
<path fill-rule="evenodd" clip-rule="evenodd" d="M227.444 77.4594C226.746 91.0726 220.956 103.929 211.228 113.485C221.624 113.774 230.875 106.951 233.667 96.9384C235.004 96.398 236.14 95.8183 237.074 95.1993C237.158 93.2637 238.111 91.2937 238.558 88.7734L230.315 87.5894L227.444 77.4643V77.4594Z" fill="#EB8059"/>
<path fill-rule="evenodd" clip-rule="evenodd" d="M229.229 83.7526C224.254 90.5911 221.954 98.0143 222.332 106.022C228.172 101.615 232.198 95.2288 233.663 88.066C231.431 87.7466 230.315 87.5845 230.315 87.5845C229.592 85.0299 229.229 83.7526 229.229 83.7526Z" fill="#D44F31"/>
<path fill-rule="evenodd" clip-rule="evenodd" d="M233.205 143.678C234.572 149.215 233.431 155.071 230.084 159.689C226.741 164.307 221.531 167.22 215.844 167.653C218.557 153.175 224.343 145.187 233.205 143.678Z" fill="#FFB073"/>
<path fill-rule="evenodd" clip-rule="evenodd" d="M225.404 164.263C231.151 175.361 242.555 182.381 255.055 182.514C267.556 182.646 279.107 175.872 285.089 164.901C280.744 150.895 274.506 143.31 266.386 142.155C266.386 142.155 256.579 142.16 236.971 142.175C227.724 143.757 226.687 156.515 225.399 164.263" fill="#FA9750"/>
<path fill-rule="evenodd" clip-rule="evenodd" d="M233.142 162.931C234.867 165.098 235.727 166.184 235.727 166.184C252.401 162.145 253.281 157.149 238.372 151.205C237.512 153.037 237.58 155.096 238.573 157.385C239.089 158.937 238.696 160.647 237.551 161.811C236.406 162.981 234.705 163.413 233.142 162.931Z" fill="#F08A41"/>
<path fill-rule="evenodd" clip-rule="evenodd" d="M232.001 162.396C243.518 174.427 250.828 179.242 253.939 176.844C262.448 180.327 267.673 169.539 269.615 144.484C268.116 143.958 266.577 143.541 265.019 143.236C259.45 147.982 253.192 151.858 246.458 154.737C246.148 158.019 244.211 160.922 241.296 162.465C238.381 164.007 234.886 163.983 232.001 162.391" fill="#EB7434"/>
<path fill-rule="evenodd" clip-rule="evenodd" d="M247.244 161.551C249.987 173.956 252.986 179.905 256.245 179.394C266.179 181.413 269.876 169.544 267.339 143.782C266.813 143.639 266.282 143.511 265.751 143.393C262.89 144.229 260.841 146.744 260.605 149.711C262.831 153.46 262.079 158.255 258.815 161.148C255.552 164.037 250.695 164.209 247.239 161.551" fill="#DB522C"/>
<path fill-rule="evenodd" clip-rule="evenodd" d="M261.17 177.139C277.829 175.356 285.478 171.431 284.121 165.363C284.342 159.375 279.5 143.477 270.716 142.932C258.85 142.195 261.013 170.713 261.17 177.139Z" fill="#FFB073"/>
<path fill-rule="evenodd" clip-rule="evenodd" d="M270.151 174.349C276.04 171.16 278.979 169.564 278.979 169.564C280.179 165.579 279.161 161.261 276.315 158.23C273.469 155.199 269.222 153.907 265.172 154.85C264.061 155.012 263.132 155.774 262.758 156.835C262.384 157.891 262.625 159.07 263.387 159.89C264.149 160.716 265.304 161.045 266.391 160.755C268.421 160.18 270.623 160.996 271.773 162.814C273.022 164.788 272.673 167.235 270.942 168.95C269.512 170.374 269.193 172.57 270.151 174.349Z" fill="#FA9F5A"/>
<path fill-rule="evenodd" clip-rule="evenodd" d="M276.354 170.517C280.129 166.862 282.017 165.034 282.017 165.034C279.54 153.661 276.02 147.324 271.488 146.498C268.686 146.022 265.899 147.402 264.581 149.918C263.264 152.433 263.716 155.508 265.697 157.537C267.01 158.878 268.794 159.561 270.583 159.507C273.439 159.311 276.025 160.544 277.313 163.005C278.601 165.466 278.217 168.468 276.349 170.522" fill="#F28B4B"/>
<path fill-rule="evenodd" clip-rule="evenodd" d="M274.467 157.316C277.662 157.336 280.041 159.301 281.604 163.216C279.889 155.867 277.741 151.131 275.578 149.018C273.636 148.016 271.252 148.576 269.959 150.335C268.661 152.094 268.838 154.536 270.377 156.088C271.473 157.198 272.953 157.37 274.472 157.316" fill="#E86F33"/>
<path fill-rule="evenodd" clip-rule="evenodd" d="M212.934 224.641C212.816 226.841 214.507 228.723 216.709 228.841C216.709 228.841 216.954 223.157 217.446 211.784C211.08 209.17 203.928 209.269 197.636 212.049C197.735 214.157 198.727 216.127 200.359 217.463C201.991 218.799 204.115 219.389 206.204 219.074C207.866 218.755 209.581 219.192 210.884 220.268C212.186 221.344 212.938 222.951 212.934 224.641ZM234.41 209.907C246.871 203.187 255.63 199.993 260.698 200.327C260.811 201.791 260.649 203.398 260.217 205.142C260.217 205.142 257.444 214.412 251.899 232.948C247.564 231.361 245.254 226.635 246.669 222.238C247.623 219.374 246.994 216.215 245.018 213.936C243.042 211.651 240.009 210.58 237.035 211.111C235.993 211.288 234.955 210.811 234.41 209.907Z" fill="#45140D"/>
<path fill-rule="evenodd" clip-rule="evenodd" d="M217.372 213.42C217.092 219.914 216.95 223.162 216.95 223.162C215.524 222.897 214.762 221.958 214.654 220.347C214.512 218.342 213.396 216.53 211.66 215.508C209.93 214.481 207.802 214.373 205.973 215.213C204.877 215.744 203.609 215.793 202.473 215.355C201.338 214.918 200.428 214.034 199.971 212.909C201.475 209.367 204.995 207.112 208.844 207.225C212.688 207.338 216.075 209.794 217.367 213.415M260.684 202.283C253.291 198.745 244.423 201.511 240.358 208.62C242.988 205.923 247.249 205.692 250.159 208.085C253.069 210.477 253.659 214.702 251.516 217.802C250.582 219.251 250.297 221.025 250.73 222.69C251.162 224.361 252.278 225.77 253.797 226.581C258.073 212.285 260.207 205.137 260.207 205.137C260.443 204.199 260.6 203.246 260.684 202.283Z" fill="#300E09"/>
<path fill-rule="evenodd" clip-rule="evenodd" d="M256.771 174.354C259.71 185.579 263.79 195.994 266.533 199.021C270.308 199.517 274.132 198.888 277.588 197.208C281.28 193.17 282.435 187.235 280.557 181.978C278.679 176.722 276.276 176.378 270.991 175.95C266.739 174.25 260.703 173.656 256.771 174.354Z" fill="#FCC197"/>
<path fill-rule="evenodd" clip-rule="evenodd" d="M265.304 188.94C264.552 193.287 264.778 195.788 265.983 196.446C270.067 196.859 274.182 196.117 277.864 194.299C280.046 191.946 280.916 188.664 280.199 185.54C279.476 182.415 277.254 179.846 274.265 178.687C276.404 181.295 276.345 185.063 274.123 187.598C271.906 190.138 268.175 190.703 265.304 188.935" fill="#ED864E"/>
<path fill-rule="evenodd" clip-rule="evenodd" d="M262.797 182.946C259.868 183.364 258.403 183.575 258.403 183.575C258.924 187.579 261.927 190.806 265.879 191.622C269.837 192.437 273.872 190.659 275.937 187.186C278.001 183.717 277.638 179.32 275.027 176.24C273.671 175.778 272.171 176.058 271.075 176.972C269.974 177.891 269.433 179.311 269.645 180.73C269.787 182.44 268.735 184.022 267.103 184.552C265.471 185.078 263.687 184.415 262.802 182.946" fill="#F5A46A"/>
<path fill-rule="evenodd" clip-rule="evenodd" d="M268.19 175.002C284.573 180.411 274.344 200.966 279.21 198.721C287.405 195.621 297.629 191.337 307.912 186.616C329.998 176.481 330.19 169.122 321.804 149.073C321.804 149.073 313.266 128.076 297.993 104.391C280.803 77.7296 266.243 96.7518 264.085 115.406C262.227 131.48 269.532 136.57 279.196 147.53C281.811 150.492 283.851 152.767 285.173 154.221C286.923 156.28 287.002 158.029 285.139 159.92C273.951 170.404 268.185 174.997 268.185 174.997" fill="#507AC2"/>
<path fill-rule="evenodd" clip-rule="evenodd" d="M302.525 138.142C318.117 156.899 322.561 170.757 315.856 179.713C314.19 181.62 305.076 185.933 288.525 192.658C288.206 190.256 288.889 187.824 290.418 185.943C291.947 184.061 294.188 182.887 296.607 182.705C301.734 182.406 306.108 178.908 307.529 173.975C308.95 169.043 307.101 163.757 302.923 160.775C302.923 160.775 299.62 158.795 293.013 154.84C288.815 153.971 285.291 151.136 283.546 147.22C281.806 143.305 282.056 138.79 284.224 135.091C286.215 131.942 286.618 128.046 285.301 124.558C283.983 121.075 281.108 118.407 277.534 117.361C273.11 116.083 270.053 112.045 270.028 107.442C269.999 102.839 273.007 98.7659 277.416 97.4346C293.003 107.206 301.375 120.775 302.525 138.147" fill="#3F6BB8"/>
<path fill-rule="evenodd" clip-rule="evenodd" d="M284.303 94.7523C287.021 96.1868 290.271 99.6503 293.716 104.298C293.534 107.216 294.768 110.002 296.921 111.849C297 111.967 297.084 112.085 297.167 112.202C297.285 112.428 297.403 112.659 297.511 112.89C297.875 113.858 298.411 114.772 299.109 115.592C299.261 115.838 299.428 116.083 299.59 116.319C299.861 116.845 300.18 117.346 300.559 117.823C300.785 118.176 301.041 118.52 301.326 118.844C301.547 119.139 301.788 119.429 302.048 119.704C302.142 119.827 302.24 119.945 302.338 120.063C302.727 120.692 303.189 121.276 303.72 121.797C303.901 122.033 304.073 122.274 304.265 122.5C304.516 122.878 304.796 123.241 305.111 123.585C305.371 124.013 305.656 124.43 305.936 124.848C305.991 124.956 306.05 125.064 306.109 125.167L306.286 125.703C306.433 126.577 306.713 127.442 307.131 128.272C307.303 128.611 307.47 128.925 307.647 129.24L307.755 129.495C307.809 129.805 307.883 130.114 307.972 130.424C308.208 131.254 308.439 132.079 308.807 132.865C308.994 133.426 309.235 133.976 309.54 134.511C309.618 134.772 309.702 135.042 309.795 135.297C310.144 136.427 310.71 137.464 311.432 138.358C311.506 138.559 311.58 138.761 311.658 138.962C311.796 139.738 312.037 140.51 312.391 141.256C312.45 141.772 312.558 142.288 312.71 142.799C312.877 143.634 313.162 144.45 313.565 145.231C313.674 145.707 313.816 146.179 314.003 146.646L314.18 147.093C314.259 147.437 314.357 147.761 314.465 148.095C314.598 148.955 314.853 149.8 315.232 150.6C315.345 150.939 315.478 151.274 315.63 151.603C316.117 153.072 316.962 154.373 318.068 155.41C318.343 155.705 318.638 155.975 318.948 156.231C319.125 156.874 319.376 157.498 319.69 158.097C319.759 158.24 319.828 158.382 319.907 158.525C319.975 158.667 320.044 158.805 320.113 158.942C320.551 159.866 321.155 160.731 321.917 161.497L322.119 161.698C322.566 162.145 323.043 162.534 323.549 162.868C325.176 170.109 322.61 175.724 315.841 179.709C317.08 175.955 316.48 171.843 314.219 168.601C311.963 165.358 308.311 163.364 304.359 163.216C298.072 162.317 292.64 158.368 289.848 152.669C287.051 146.97 287.257 140.259 290.393 134.742C293.397 129.436 293.815 123.05 291.534 117.395C289.253 111.741 283.551 108.488 278.68 105.683C276.291 104.313 275.106 101.527 275.77 98.8594C276.703 95.106 280.818 93.1655 284.288 94.7425" fill="#335FAB"/>
<path fill-rule="evenodd" clip-rule="evenodd" d="M320.634 154.29C323.303 160.392 324.409 165.132 323.952 168.507C323.731 166.022 321.657 164.115 319.159 164.096C313.059 163.762 307.49 160.514 304.196 155.371C300.898 150.227 300.279 143.816 302.525 138.137C305.696 130.989 303.867 122.613 297.998 117.439C291.411 112.016 288.919 106.292 290.516 100.264C294.7 105.442 298.219 110.488 301.075 115.41C307.111 125.172 313.634 138.132 320.634 154.285" fill="#254F99"/>
<path fill-rule="evenodd" clip-rule="evenodd" d="M257.297 140.746C243.155 143.516 236.312 142.76 236.312 142.76C234.356 150.984 240.49 156.393 247.938 155.636C255.316 154.884 263.038 149.235 266.391 142.155C264.705 141.571 263.097 141.517 261.367 141.419C260.428 141.605 259.425 141.556 258.452 141.232C258.039 141.094 257.68 140.957 257.297 140.741" fill="white"/>
<path fill-rule="evenodd" clip-rule="evenodd" d="M255.193 140.293C243.44 142.681 237.566 143.875 237.566 143.875C237.118 149.333 241.071 152.85 246.964 152.251C252.863 151.652 259.032 147.103 261.652 141.423C259.533 140.873 257.376 140.495 255.193 140.293Z" fill="#FAA87D"/>
<path fill-rule="evenodd" clip-rule="evenodd" d="M253.856 141.089C247.628 142.092 242.461 143.256 238.352 144.577C240.962 147.879 245.101 149.593 249.289 149.102C253.472 148.611 257.1 145.982 258.875 142.16C257.208 141.767 255.537 141.409 253.856 141.089Z" fill="#EB8059"/>
<path fill-rule="evenodd" clip-rule="evenodd" d="M255.262 140.908C244.885 140.888 239.099 141.9 237.91 143.949C240.466 146.764 244.256 148.12 248.021 147.569C251.786 147.019 255.026 144.631 256.668 141.202C255.729 141.006 255.262 140.908 255.262 140.908Z" fill="#D44F31"/>
<path fill-rule="evenodd" clip-rule="evenodd" d="M228.59 109.549C235.196 102.564 245.819 101.227 253.954 106.351C262.089 111.475 265.461 121.635 262.006 130.601C254.795 154.074 225.114 147.756 228.708 126.656C228.939 125.349 228.619 123.772 227.965 121.836C226.633 117.827 226.845 113.44 228.59 109.554" fill="#FCC197"/>
<path d="M236.081 136.108C235.835 135.784 235.919 135.332 236.263 135.101C236.607 134.87 237.084 134.944 237.329 135.273C237.56 135.582 237.87 135.828 238.214 135.99C238.558 136.157 238.942 136.24 239.33 136.231C239.709 136.221 240.067 136.123 240.382 135.946C240.687 135.774 240.947 135.528 241.129 135.228C241.336 134.88 241.803 134.757 242.171 134.953C242.54 135.15 242.673 135.587 242.466 135.936C242.152 136.462 241.699 136.889 241.164 137.194C240.638 137.488 240.023 137.66 239.369 137.675C238.72 137.69 238.091 137.547 237.531 137.282C236.966 137.012 236.469 136.614 236.091 136.113" fill="#C73C20"/>
<path fill-rule="evenodd" clip-rule="evenodd" d="M230.738 120.873C231.46 120.76 232.134 121.257 232.247 121.979C232.36 122.701 231.863 123.374 231.141 123.487C230.418 123.6 229.745 123.104 229.632 122.382C229.519 121.659 230.015 120.986 230.738 120.873Z" fill="white"/>
<path fill-rule="evenodd" clip-rule="evenodd" d="M248.965 110.522C256.122 109.545 258.86 115.744 257.183 129.122C257.641 135.042 254.5 140.657 249.21 143.364C245.293 144.656 243.897 144.219 244.339 142.003C244.747 139.861 245.991 137.965 247.8 136.742C249.432 135.666 250.405 133.833 250.38 131.878C250.356 129.923 249.333 128.115 247.672 127.088C244.924 125.098 243.41 121.822 243.675 118.442C243.941 115.062 245.942 112.06 248.965 110.522Z" fill="#FAAB7B"/>
<path fill-rule="evenodd" clip-rule="evenodd" d="M244.069 121.114C244.791 121.001 245.465 121.497 245.578 122.219C245.691 122.942 245.195 123.615 244.472 123.728C243.749 123.841 243.076 123.344 242.963 122.622C242.85 121.9 243.346 121.227 244.069 121.114Z" fill="white"/>
<path fill-rule="evenodd" clip-rule="evenodd" d="M260.133 129.977C261.957 113.563 259.258 107.884 252.032 112.939C249.771 114.732 248.532 117.518 248.714 120.392C248.896 123.271 250.587 125.678 252.947 127.368C254.962 128.783 256.156 130.782 255.935 133.121C255.714 135.459 254.146 137.449 251.924 138.215C249.997 138.928 248.699 140.746 248.66 142.799C248.709 143.457 249.166 143.541 250.037 143.05C255.227 140.47 258.948 135.651 260.123 129.977" fill="#F28D57"/>
<path fill-rule="evenodd" clip-rule="evenodd" d="M255.788 115.666C257.995 120.225 258.727 123.502 257.975 125.496C255.625 125.383 253.639 123.708 253.128 121.414C252.617 119.12 253.703 116.761 255.788 115.666Z" fill="#E66D3A"/>
<path fill-rule="evenodd" clip-rule="evenodd" d="M255.493 112.158C264.316 115.73 268.73 117.513 268.73 117.513C268.327 119.159 265.732 123.153 260.939 129.495C260.04 130.999 258.58 130.561 258.585 128.331C258.555 126.97 258.24 125.536 257.066 124.027C254.362 120.682 253.753 116.103 255.488 112.163M246.556 109.692C242.221 104.828 235.565 102.731 229.224 104.224C227.7 105.433 226.643 107.132 226.24 109.034C225.935 110.488 226.338 111.126 227.577 111.603C231.475 113.308 236.056 112.954 239.694 110.493C238.883 112.34 238.976 113.2 239.979 113.077C242.52 112.821 244.87 111.608 246.556 109.687V109.692Z" fill="#4A2020"/>
<path fill-rule="evenodd" clip-rule="evenodd" d="M228.575 101.866C233.24 91.3772 245.199 86.3171 256.25 90.1588C267.3 94.0006 273.838 105.501 271.38 116.761C270.873 118.805 270.288 119.424 268.327 118.574C255.925 114.207 242.776 109.834 229.366 105.212C227.459 104.676 227.813 103.526 228.57 101.866" fill="white"/>
<path d="M235.816 120.436C235.113 119.586 234.11 119.026 232.964 118.953C231.819 118.884 230.752 119.316 229.951 120.073C229.135 120.844 228.595 121.949 228.516 123.202C228.437 124.46 228.84 125.619 229.558 126.484C230.261 127.334 231.264 127.894 232.409 127.967C233.549 128.036 234.621 127.604 235.422 126.847C236.238 126.076 236.779 124.971 236.858 123.718C236.936 122.46 236.533 121.301 235.816 120.436ZM249.638 120.996C248.871 120.068 247.775 119.454 246.527 119.38C245.278 119.301 244.113 119.778 243.238 120.603C242.348 121.443 241.758 122.647 241.675 124.018C241.591 125.388 242.029 126.656 242.81 127.599C243.577 128.527 244.673 129.142 245.922 129.215C247.171 129.294 248.336 128.817 249.211 127.992C250.1 127.152 250.69 125.948 250.774 124.578C250.857 123.207 250.42 121.939 249.638 120.996ZM233.053 117.508C234.611 117.602 235.978 118.363 236.931 119.517C237.551 120.269 237.993 121.183 238.195 122.19C238.563 122.102 238.942 122.067 239.315 122.092C239.723 122.121 240.127 122.219 240.505 122.387C240.839 121.276 241.449 120.304 242.245 119.552C243.405 118.456 244.954 117.827 246.615 117.931C248.277 118.034 249.736 118.844 250.754 120.073C251.349 120.79 251.791 121.655 252.027 122.603L263.343 121.031L263.539 122.455L252.229 124.027C252.234 124.234 252.229 124.445 252.219 124.656C252.111 126.4 251.349 127.943 250.203 129.029C249.043 130.124 247.495 130.753 245.834 130.65C244.172 130.547 242.712 129.736 241.695 128.503C240.692 127.289 240.122 125.663 240.23 123.919V123.875C239.93 123.669 239.576 123.551 239.217 123.526C238.917 123.507 238.608 123.546 238.313 123.654C238.313 123.703 238.313 123.752 238.303 123.801C238.205 125.432 237.487 126.877 236.415 127.889C235.329 128.916 233.879 129.5 232.321 129.407C230.762 129.309 229.396 128.552 228.442 127.398C227.503 126.263 226.972 124.74 227.071 123.109C227.169 121.478 227.887 120.033 228.958 119.021C230.045 117.995 231.495 117.41 233.053 117.503V117.508Z" fill="white"/>
<path fill-rule="evenodd" clip-rule="evenodd" d="M268.106 118.23C269.448 118.766 270.377 119.93 270.765 121.379C271.154 122.814 270.996 124.543 270.254 126.214C269.507 127.884 268.322 129.186 267.039 129.967C265.766 130.743 264.39 130.994 263.19 130.517C261.986 130.036 261.165 128.906 260.777 127.466C260.389 126.017 260.433 124.258 261.042 122.534C261.652 120.809 262.728 119.454 264.002 118.677C265.285 117.896 266.764 117.695 268.106 118.23Z" fill="#FCC197"/>
<path fill-rule="evenodd" clip-rule="evenodd" d="M267.585 121.276C268.362 121.586 268.902 122.264 269.128 123.104C269.355 123.939 269.266 124.941 268.833 125.909C268.401 126.877 267.713 127.633 266.97 128.09C266.233 128.542 265.432 128.69 264.739 128.409C264.041 128.129 263.564 127.476 263.338 126.641C263.112 125.801 263.136 124.779 263.49 123.777C263.844 122.775 264.468 121.989 265.206 121.541C265.948 121.089 266.808 120.972 267.585 121.281" fill="#EB6540"/>
<path fill-rule="evenodd" clip-rule="evenodd" d="M249.171 91.839C254.343 91.554 258.855 95.3221 259.489 100.461C260.123 105.6 256.668 110.35 251.58 111.333C251.58 111.333 245.848 109.559 234.38 106.002C235.963 104.74 238.219 104.774 239.763 106.086C241.12 107.575 243.224 108.135 245.146 107.52C247.068 106.906 248.449 105.226 248.69 103.227C248.926 101.227 247.977 99.2671 246.256 98.2206C244.752 97.2774 244.187 95.3614 244.924 93.75C245.662 92.1387 247.485 91.3231 249.181 91.839" fill="white"/>
<path fill-rule="evenodd" clip-rule="evenodd" d="M260.079 111.549C258.147 112.703 257.184 113.278 257.184 113.278C257.184 113.278 255.198 112.586 251.226 111.205C250.582 110.92 250.459 110.38 250.852 109.589C251.472 108.488 252.573 107.717 253.851 107.535C256.073 107.26 257.67 105.275 257.464 103.05C257.258 100.824 255.316 99.1639 253.084 99.3064C251.221 99.4833 249.407 98.6726 248.296 97.1693C247.185 95.666 246.94 93.696 247.652 91.9667C248.37 90.4487 249.098 90.1245 250.356 90.1785C252.135 90.3259 253.866 90.7386 255.517 91.3379C265.378 102.411 266.902 109.147 260.079 111.549Z" fill="#EDE3DC"/>
<path fill-rule="evenodd" clip-rule="evenodd" d="M267.226 116.732C268.479 117.174 269.069 116.811 269.315 115.597C271.09 105.398 265.506 95.3418 255.91 91.446C255.075 91.0972 254.799 91.6327 254.731 92.8068C254.613 95.2927 256.004 97.6115 258.255 98.6775C261.18 100.053 262.831 103.207 262.286 106.395C262.065 107.702 261.494 108.881 260.674 109.839C259.99 110.64 259.169 111.22 258.172 111.726C256.938 112.364 256.426 113.018 257.179 113.283C263.874 115.582 267.226 116.732 267.226 116.732Z" fill="#D9CBC3"/>
<path fill-rule="evenodd" clip-rule="evenodd" d="M187.195 150.478C186.837 161.836 182.865 164.646 175.285 158.903C175.86 156.977 177.207 155.189 179.316 153.543C182.009 151.455 183.017 147.859 181.808 144.676C180.599 141.492 177.541 140.008 174.051 139.704C169.735 139.35 166.466 135.656 166.653 131.333C166.835 127.009 170.404 123.6 174.734 123.615C184.934 123.438 189.088 132.389 187.2 150.482" fill="white"/>
<path fill-rule="evenodd" clip-rule="evenodd" d="M190.233 98.2747C187.112 107.339 186.694 128.007 188.975 160.288C188.975 160.288 187.746 160.657 185.288 161.394C184.231 158.22 184.694 153.533 186.675 147.338C189.162 139.866 185.21 131.785 177.787 129.151C174.449 128.012 171.918 125.256 171.058 121.836C170.197 118.417 171.127 114.796 173.525 112.212C174.843 110.724 176.14 108.862 177.414 106.631C179.38 101.394 184.172 97.7392 189.747 97.2283C190.071 97.9259 190.233 98.2747 190.233 98.2747Z" fill="#E0D5CE"/>
<path fill-rule="evenodd" clip-rule="evenodd" d="M253.576 166.267C244.098 179.718 227.995 187.25 211.287 186.041C194.579 184.832 179.793 175.071 172.463 160.401C174.11 157.655 177.374 156.245 180.569 156.899C180.569 156.899 187.78 158.716 202.198 162.342C207.344 162.981 211.626 166.508 213.125 171.342C214.054 165.57 217.765 162.73 224.264 162.823C241.021 161.895 249.402 161.428 249.402 161.428C250.661 161.413 251.855 161.949 252.666 162.882C253.477 163.816 253.811 165.059 253.585 166.262" fill="white"/>
<path fill-rule="evenodd" clip-rule="evenodd" d="M222.008 174.786C223.871 187.412 228.457 199.477 235.452 210.153C235.452 210.153 245.848 206.91 266.646 200.426C268.588 199.733 268.942 197.748 267.919 195.208C267.919 195.208 264.183 186.267 256.712 168.39C255.891 166.493 254.16 165.791 252.524 166.267C252.524 166.267 242.348 169.107 222.003 174.786" fill="#4D4D4D"/>
<path fill-rule="evenodd" clip-rule="evenodd" d="M202.901 175.729C213.224 191.681 217.864 204.179 216.822 213.218C216.822 213.218 205.909 209.146 184.084 200.995C182.713 200.475 181.882 199.168 181.258 197.375L169.917 164.12C168.664 160.583 171.136 159.095 175.074 161.011L202.896 175.729H202.901Z" fill="#4D4D4D"/>
<path fill-rule="evenodd" clip-rule="evenodd" d="M232.173 207.141C233.019 208.257 233.442 208.817 233.442 208.817C233.442 208.817 244.079 205.427 265.349 198.652C265.889 198.19 265.786 196.982 265.044 195.026C264.051 192.644 260.635 184.621 254.785 170.954C251.089 170.222 247.313 171.784 245.214 174.914C243.115 178.043 243.106 182.126 245.185 185.265C247.436 188.959 247.667 193.548 245.794 197.448C243.922 201.349 240.2 204.041 235.904 204.601C234.027 204.985 232.783 205.835 232.173 207.146" fill="#404040"/>
<path fill-rule="evenodd" clip-rule="evenodd" d="M178.406 182.008C173.953 189.554 175.885 199.242 182.899 204.503C189.914 209.765 199.76 208.915 205.767 202.533C211.773 196.151 212.019 186.272 206.332 179.6C204.685 176.672 201.667 174.771 198.314 174.555C194.962 174.339 191.723 175.827 189.712 178.52C187.53 182.573 182.496 184.125 178.411 182.008" fill="#363636"/>
<path fill-rule="evenodd" clip-rule="evenodd" d="M265.348 198.647C253.939 202.283 248.237 204.1 248.237 204.1C251.806 203.123 254.662 200.44 255.856 196.942C257.051 193.445 256.437 189.578 254.21 186.621C252.996 184.941 252.617 182.799 253.182 180.799C253.748 178.805 255.193 177.178 257.105 176.378C262.448 188.954 265.122 195.243 265.122 195.243C265.791 197.051 265.865 198.185 265.348 198.647Z" fill="#363636"/>
<path fill-rule="evenodd" clip-rule="evenodd" d="M216.817 213.218C223.129 215.611 230.241 214.442 235.452 210.153C235.452 210.153 230.969 198.362 222.008 174.786C216.035 177.689 209.129 178.033 202.901 175.729C212.182 200.72 216.822 213.218 216.822 213.218" fill="#999999"/>
<path fill-rule="evenodd" clip-rule="evenodd" d="M184.63 186.179C180.604 196.147 186.026 207.372 187.112 209.023C223.055 228.138 240.829 184.444 221.772 190.526C208.111 194.899 200.905 192.86 204.567 188.443C210.717 179.399 206.263 179.335 197.307 185.53C191.467 189.465 187.805 186.64 184.63 186.184" fill="#FCC197"/>
<path fill-rule="evenodd" clip-rule="evenodd" d="M185.057 188.149C182.85 197.016 183.307 202.754 186.429 205.358C195.65 213.017 208.824 213.67 218.768 206.974C221.934 204.547 222.111 202.027 219.309 199.414C217.569 197.955 215.317 197.262 213.056 197.488C210.8 197.719 208.726 198.849 207.32 200.627C205.068 203.614 201.249 204.975 197.612 204.081C193.974 203.187 191.221 200.219 190.612 196.525C190.582 192.88 188.405 189.593 185.062 188.149" fill="#F5A46A"/>
<path fill-rule="evenodd" clip-rule="evenodd" d="M186.429 205.353C184.674 203.869 183.607 201.727 183.484 199.433C183.356 197.139 184.182 194.894 185.765 193.228C186.964 194.938 187.594 196.982 187.569 199.07C187.544 203.157 189.742 206.94 193.31 208.944C196.879 210.949 201.254 210.855 204.734 208.704C206.061 207.559 207.797 207.004 209.542 207.156C211.287 207.313 212.894 208.173 213.995 209.534C204.744 213.351 194.136 211.745 186.438 205.353" fill="#ED864E"/>
<path fill-rule="evenodd" clip-rule="evenodd" d="M190.061 217.959C192.072 218.627 192.804 216.834 191.049 214.83C186.753 210.379 184.718 203.255 186.861 185.53C186.119 185.058 182.619 181.698 163.443 166.208C155.367 159.817 146.568 165.629 143.501 173.292C141.004 179.537 141.367 189.062 148.19 193.744C174.567 210.929 190.061 217.959 190.061 217.959Z" fill="#6A91D4"/>
<path fill-rule="evenodd" clip-rule="evenodd" d="M150.707 191.637C164.544 197.684 174.553 198.269 180.731 193.386C182.796 189.038 181.184 183.835 177.02 181.423C172.857 179.006 167.538 180.185 164.785 184.13C163.222 186.439 160.41 187.569 157.682 186.979C154.954 186.39 152.855 184.209 152.383 181.457C152.29 179.596 151.204 177.925 149.537 177.085C147.871 176.245 145.885 176.358 144.327 177.385C143.137 183.015 145.718 188.773 150.712 191.637" fill="url(#paint13_linear_2_1377)"/>
<path fill-rule="evenodd" clip-rule="evenodd" d="M165.852 190.178C160.194 192.909 155.053 193.341 150.432 191.47C174.179 205.913 186.055 213.135 186.055 213.135C183.563 208.851 182.599 202.464 183.16 193.975C178.854 189.043 171.829 187.505 165.847 190.178" fill="#3F6BB8"/>
<path fill-rule="evenodd" clip-rule="evenodd" d="M160.342 197.498C169.755 203.221 178.323 208.433 186.055 213.135C184.054 209.455 183.042 204.945 183.017 199.595C182.29 198.957 181.316 198.667 180.358 198.814C179.399 198.962 178.559 199.522 178.052 200.347C177.133 201.84 175.496 202.74 173.741 202.715C171.987 202.695 170.374 201.752 169.489 200.239C167.489 197.252 163.655 196.102 160.337 197.493" fill="#254F99"/>
<path fill-rule="evenodd" clip-rule="evenodd" d="M190.548 100.692C195.921 107.658 201.923 109.122 208.554 105.089C219.004 106.101 223.576 93.7157 222.263 67.9434C220.1 56.8701 210.589 48.7493 199.312 48.3366C188.031 47.9239 177.959 55.3324 174.99 66.219C175.6 71.3479 176.602 74.9883 178.008 77.1302C179.399 79.5228 180.343 81.9546 180.84 84.4257C181.439 87.9481 184.674 93.3718 190.543 100.692" fill="#FCC197"/>
<path fill-rule="evenodd" clip-rule="evenodd" d="M206.769 103.905C209.404 103.016 210.722 102.568 210.722 102.568C219.938 91.6573 219.55 78.3486 209.552 62.6327C204.474 55.7499 198.349 55.691 191.182 62.4509C190.813 69.5155 195.119 75.9905 201.78 78.3879C204.189 79.3803 206.081 81.3159 207.02 83.7428C207.959 86.1697 207.861 88.8766 206.755 91.2299C204.277 96.7518 204.282 100.977 206.769 103.9" fill="#FAAB7B"/>
<path fill-rule="evenodd" clip-rule="evenodd" d="M200.463 71.1907C201.402 71.0482 202.277 71.6918 202.419 72.6252C202.562 73.5635 201.918 74.438 200.984 74.5804C200.045 74.7229 199.17 74.0793 199.027 73.1459C198.885 72.2076 199.529 71.3331 200.463 71.1907Z" fill="white"/>
<path fill-rule="evenodd" clip-rule="evenodd" d="M181.08 77.3218C182.019 77.1793 182.894 77.8229 183.037 78.7563C183.179 79.6946 182.535 80.5691 181.601 80.7116C180.663 80.854 179.788 80.2105 179.645 79.277C179.502 78.3387 180.146 77.4642 181.08 77.3218Z" fill="white"/>
<path fill-rule="evenodd" clip-rule="evenodd" d="M193.374 82.1264C194.628 84.46 195.257 85.6243 195.257 85.6243C193.05 89.6233 188.198 91.3379 183.966 89.6184C188.267 89.0976 191.909 86.1991 193.379 82.1264M207.728 104.696C210.859 104.951 212.427 105.079 212.427 105.079C219.658 99.8025 224.298 91.6965 225.178 82.7946C226.058 73.8927 223.099 65.035 217.043 58.447C211.793 57.204 206.288 57.6511 201.308 59.7341C200.33 62.4116 200.482 65.374 201.721 67.9384C202.96 70.5078 205.182 72.4631 207.89 73.3719C211.601 74.8408 214.27 78.1373 214.934 82.0724C215.598 86.0075 214.152 89.9967 211.129 92.6004C207.433 96.1376 206.302 100.171 207.728 104.705V104.696Z" fill="#F28D57"/>
<path fill-rule="evenodd" clip-rule="evenodd" d="M222.534 92.6447C218.041 97.7048 215.794 100.235 215.794 100.235C213.597 97.4101 214.059 93.3472 216.832 91.0874C219.078 88.8029 220.297 85.7079 220.209 82.5097C220.12 79.3115 218.734 76.2852 216.369 74.1236C212.353 70.7682 211.1 65.1284 213.322 60.3876C219.004 63.2714 223.227 68.3855 224.972 74.5068C226.722 80.6281 225.837 87.2014 222.534 92.6447Z" fill="#E66D3A"/>
<path fill-rule="evenodd" clip-rule="evenodd" d="M224.008 103.055C222.666 105.703 221.064 108.135 219.186 110.222C209.414 121.09 197.459 114.443 191.418 103.546C189.648 100.171 190.745 99.1148 192.809 101.586C197.297 106.975 199.135 106.582 201.107 104.794C203.402 102.721 205.958 101.684 210.717 102.573C212.191 102.844 213.194 102.298 213.951 101.267C216.129 98.2698 217.952 95.0568 219.284 91.7014C220.425 92.5906 221.762 93.2489 223.217 93.5977C223.178 93.9711 223.153 94.3543 223.153 94.7375V96.0689C223.006 96.7665 222.927 97.4936 222.927 98.2354V98.4614C222.927 100.112 223.315 101.669 223.999 103.055" fill="#4A2020"/>
<path fill-rule="evenodd" clip-rule="evenodd" d="M218.758 110.684C218.606 110.846 218.449 111.004 218.296 111.156L218.321 110.935C218.468 110.856 218.616 110.773 218.758 110.684ZM208.706 57.2139C223.566 44.652 232.026 49.5156 229.184 72.5073C230.217 82.264 228.575 94.6245 223.531 103.969C217.997 100.323 222.529 95.2582 218.758 92.9787C221.472 86.8132 222.558 80.1319 221.211 73.426C220.081 67.9875 218.213 64.3128 214.787 63.3696C211.803 62.5491 209.488 60.2057 208.706 57.2139Z" fill="#2E1212"/>
<path fill-rule="evenodd" clip-rule="evenodd" d="M211.311 68.8228C214.03 72.0063 214.28 76.6095 211.926 80.0632C209.571 83.5218 205.191 84.9759 201.234 83.6151C205.118 85.7423 209.925 85.1872 213.223 82.2346C216.527 79.2821 217.603 74.5707 215.922 70.4784C218.36 68.8818 219.579 68.081 219.579 68.081C219.368 66.6415 218.773 65.2807 217.859 64.1459C213.494 67.2606 211.316 68.8179 211.316 68.8179" fill="#D14D22"/>
<path fill-rule="evenodd" clip-rule="evenodd" d="M228.177 51.8639C229.263 55.8629 228.649 57.4546 225.807 57.5529C221.044 57.715 215.229 58.5698 208.372 60.1223C196.343 62.8881 185.996 65.6786 177.33 68.4838C175.595 69.088 174.385 68.7098 173.786 67.0787C170.104 57.209 172.144 46.342 179.095 38.796C186.05 31.25 196.786 28.2434 207.05 30.9749C217.308 33.7064 225.429 41.7289 228.182 51.859" fill="white"/>
<path fill-rule="evenodd" clip-rule="evenodd" d="M201.76 59.7489C206.435 54.5463 208.77 51.9426 208.77 51.9426C211.002 45.5756 208.416 38.5209 202.596 35.1066C196.776 31.6922 189.348 32.8713 184.875 37.9216C184.443 39.0417 184.615 40.3043 185.332 41.2672C187.092 43.64 190.061 41.6553 191.487 45.6641C193.129 50.2919 186.375 52.6844 189.147 61.0901C189.53 62.3478 190.037 62.7015 191.182 62.451C193.886 61.7533 197.415 60.8543 201.765 59.7489" fill="white"/>
<path fill-rule="evenodd" clip-rule="evenodd" d="M185.922 35.3177C193.832 30.6064 203.599 30.2674 211.813 34.4236C220.027 38.5798 225.537 46.6564 226.407 55.8138C219.874 55.8629 211.882 57.1353 202.434 59.631C201.343 59.9159 200.704 59.6997 200.517 58.9825C198.03 49.2159 208.018 49.6433 205.457 41.6601C204.641 39.1202 202.522 37.219 199.907 36.6835C197.292 36.148 194.598 37.0667 192.849 39.0809C191.531 40.5154 189.486 41.0264 187.648 40.3877C186.414 39.9554 185.426 39.0613 184.871 37.9264C184.374 37.0176 184.723 36.148 185.918 35.3177" fill="#EDE3DC"/>
<path fill-rule="evenodd" clip-rule="evenodd" d="M223.876 55.8923C225.468 56.2657 226.279 55.9218 226.304 54.8508C224.741 43.0209 215.549 33.6425 203.741 31.8346C203.102 35.2342 205.255 38.2408 208.637 39.302C213.027 40.7119 215.858 44.9664 215.465 49.5549C215.096 53.829 212.024 57.3367 207.92 58.3192C213.155 57.0272 218.493 56.2117 223.876 55.8874" fill="#D9CBC3"/>
<path d="M188.665 74.6493C187.166 73.6372 185.332 73.2049 183.528 73.593C183.45 73.6078 183.396 73.6225 183.371 73.6274C181.651 74.045 180.274 75.1454 179.424 76.6094C178.564 78.0931 178.239 79.9501 178.647 81.8464C178.667 81.9398 178.682 82.0086 178.691 82.0429C179.168 84.013 180.348 85.6293 181.867 86.656C183.366 87.6681 185.2 88.1004 187.004 87.7123C187.082 87.6975 187.136 87.6828 187.161 87.6779C188.877 87.2603 190.258 86.1598 191.108 84.6958C191.968 83.2122 192.293 81.3552 191.885 79.4588C191.865 79.3655 191.85 79.2967 191.841 79.2623C191.364 77.2923 190.184 75.676 188.665 74.6493ZM209.075 68.1595C207.467 67.0492 205.486 66.5727 203.5 67.0001C201.515 67.4275 199.902 68.6753 198.899 70.3457C197.882 72.0357 197.489 74.1629 197.956 76.3245C198.423 78.4812 199.656 80.2547 201.279 81.3797C202.886 82.49 204.867 82.9665 206.853 82.5391C208.839 82.1117 210.451 80.8639 211.454 79.1936C212.471 77.5036 212.865 75.3763 212.398 73.2147C211.931 71.058 210.697 69.2845 209.075 68.1595ZM183.125 71.6918C185.47 71.1858 187.83 71.736 189.756 73.0379C190.725 73.6913 191.585 74.5412 192.273 75.5385C192.775 75.1012 193.355 74.777 193.969 74.5756C194.559 74.3791 195.188 74.3005 195.822 74.3398C195.857 72.5368 196.363 70.8173 197.243 69.3533C198.516 67.231 200.571 65.6491 203.097 65.1038C205.624 64.5585 208.151 65.1578 210.181 66.5678C210.554 66.8282 210.908 67.1131 211.247 67.4226L223.32 59.5327L224.446 61.2571L212.619 68.9849C213.405 70.0951 213.99 71.3872 214.3 72.8168C214.87 75.4697 214.379 78.098 213.115 80.2007C211.842 82.323 209.787 83.9049 207.261 84.4502C204.734 84.9955 202.208 84.3962 200.178 82.9862C198.162 81.591 196.628 79.3999 196.058 76.7421C196.034 76.6389 196.014 76.5308 195.994 76.4277C195.527 76.3491 195.051 76.3884 194.608 76.5357C194.097 76.7028 193.64 77.0074 193.281 77.4299C193.463 77.872 193.61 78.3338 193.728 78.8153C193.758 78.9283 193.777 79.0118 193.787 79.0658C194.303 81.4485 193.89 83.7919 192.789 85.6784C191.678 87.5894 189.874 89.0289 187.623 89.5742C187.525 89.5988 187.456 89.6135 187.417 89.6233C185.072 90.1293 182.712 89.5791 180.786 88.2772C178.883 86.9901 177.404 84.966 176.809 82.5097C176.779 82.3967 176.76 82.3132 176.75 82.2591C176.234 79.8764 176.647 77.533 177.748 75.6465C178.859 73.7355 180.663 72.296 182.914 71.7507C183.012 71.7262 183.081 71.7114 183.12 71.7016L183.125 71.6918Z" fill="#1A1A1A"/>
<path fill-rule="evenodd" clip-rule="evenodd" d="M227.415 54.7428C229.504 54.7281 231.387 55.7843 232.699 57.5136C234.002 59.2282 234.739 61.6256 234.646 64.2687C234.552 66.9117 233.682 69.3042 232.389 71.0532C231.106 72.7825 229.406 73.8731 227.533 73.8878C225.66 73.8976 223.939 72.8316 222.637 71.117C221.324 69.3877 220.425 67.0051 220.302 64.362C220.179 61.7189 220.882 59.3166 222.165 57.5824C223.458 55.8384 225.331 54.7576 227.42 54.7477" fill="#FCC197"/>
<path fill-rule="evenodd" clip-rule="evenodd" d="M228.373 59.1053C229.588 59.0955 230.679 59.7096 231.441 60.7118C232.198 61.7091 232.625 63.0994 232.571 64.6322C232.517 66.165 232.011 67.5553 231.259 68.5673C230.517 69.5744 229.529 70.2032 228.442 70.2131C227.356 70.218 226.358 69.599 225.601 68.6066C224.839 67.6044 224.318 66.219 224.244 64.6862C224.171 63.1534 224.579 61.7582 225.326 60.7511C226.078 59.7391 227.164 59.1103 228.373 59.1053Z" fill="#EB6540"/>
<path fill-rule="evenodd" clip-rule="evenodd" d="M226.589 61.5519C227.282 61.5519 227.906 61.8958 228.339 62.4706C228.771 63.0404 229.012 63.8314 228.983 64.7108C228.953 65.5852 228.663 66.3811 228.236 66.9608C227.813 67.5356 227.248 67.8942 226.623 67.8992C226.004 67.8992 225.434 67.5503 225.001 66.9805C224.564 66.4057 224.269 65.6196 224.225 64.7403C224.185 63.8658 224.416 63.065 224.839 62.4951C225.267 61.9154 225.886 61.5568 226.579 61.5568" fill="#C73721"/>
<path fill-rule="evenodd" clip-rule="evenodd" d="M195.626 88.857C196.569 88.6851 197.548 89.4465 197.803 90.5568C198.059 91.6671 197.503 92.7037 196.555 92.8756C195.611 93.0476 194.633 92.2812 194.377 91.1709C194.121 90.0606 194.677 89.024 195.626 88.8521" fill="#FAAB7B"/>
<path fill-rule="evenodd" clip-rule="evenodd" d="M237.634 129.358C238.17 129.382 238.603 129.918 238.608 130.556C238.608 131.19 238.175 131.686 237.639 131.662C237.104 131.637 236.671 131.102 236.666 130.463C236.666 129.829 237.099 129.333 237.634 129.358Z" fill="#FAAB7B"/>
<path fill-rule="evenodd" clip-rule="evenodd" d="M178.839 156.741C200.448 169.067 211.252 175.233 211.252 175.233C211.252 175.233 225.335 171.647 253.507 164.474C253.507 164.474 262.778 148.552 281.319 116.707C247.126 135.813 205.29 135.037 171.834 114.669C171.834 114.669 174.169 128.694 178.839 156.746" fill="white" fill-opacity="0.5"/>
<path fill-rule="evenodd" clip-rule="evenodd" d="M121.725 52.7581L122.221 54.3744L123.838 54.8705L122.221 55.3667L121.725 56.983L121.228 55.3667L119.611 54.8705L121.228 54.3744L121.725 52.7581Z" fill="white"/>
<path fill-rule="evenodd" clip-rule="evenodd" d="M267.501 42.5543H281.712C281.865 42.5543 281.988 42.6771 281.988 42.8294V71.2399C281.988 71.3922 281.865 71.515 281.712 71.515H267.501C267.349 71.515 267.226 71.3922 267.226 71.2399V42.8294C267.226 42.6771 267.349 42.5543 267.501 42.5543Z" fill="white"/>
<path fill-rule="evenodd" clip-rule="evenodd" d="M269.615 56.3198H279.599C279.707 56.3198 279.79 56.4083 279.79 56.5114V68.7245C279.79 68.8326 279.702 68.9161 279.599 68.9161H269.615C269.507 68.9161 269.423 68.8277 269.423 68.7245V56.5114C269.423 56.4033 269.512 56.3198 269.615 56.3198Z" fill="url(#paint14_linear_2_1377)"/>
<path fill-rule="evenodd" clip-rule="evenodd" d="M39.4574 157.351C40.5831 157.351 41.4925 158.264 41.4925 159.384C41.4925 160.505 40.5782 161.418 39.4574 161.418C38.3367 161.418 37.4224 160.505 37.4224 159.384C37.4224 158.264 38.3367 157.351 39.4574 157.351Z" fill="white"/>
<path fill-rule="evenodd" clip-rule="evenodd" d="M63.6666 166.508C64.5662 166.508 65.2937 167.235 65.2937 168.134C65.2937 169.033 64.5662 169.76 63.6666 169.76C62.7671 169.76 62.0396 169.033 62.0396 168.134C62.0396 167.235 62.7671 166.508 63.6666 166.508Z" fill="white"/>
<path fill-rule="evenodd" clip-rule="evenodd" d="M68.1498 178.112C68.7495 178.112 69.2362 178.598 69.2362 179.198C69.2362 179.797 68.7495 180.288 68.1498 180.288C67.5501 180.288 67.0635 179.802 67.0635 179.198C67.0635 178.593 67.5501 178.112 68.1498 178.112Z" fill="white"/>
<path fill-rule="evenodd" clip-rule="evenodd" d="M88.2495 172.531C88.6722 172.531 89.0114 172.87 89.0114 173.292C89.0114 173.715 88.6722 174.054 88.2495 174.054C87.8267 174.054 87.4875 173.715 87.4875 173.292C87.4875 172.87 87.8267 172.531 88.2495 172.531Z" fill="white"/>
<path fill-rule="evenodd" clip-rule="evenodd" d="M86.9223 202.489C87.3451 202.489 87.6842 202.828 87.6842 203.25C87.6842 203.673 87.3451 204.012 86.9223 204.012C86.4996 204.012 86.1604 203.673 86.1604 203.25C86.1604 202.828 86.4996 202.489 86.9223 202.489Z" fill="white"/>
<path fill-rule="evenodd" clip-rule="evenodd" d="M107.258 183.226C107.991 183.226 108.585 183.821 108.585 184.553C108.585 185.285 107.991 185.879 107.258 185.879C106.526 185.879 105.931 185.285 105.931 184.553C105.931 183.821 106.526 183.226 107.258 183.226Z" fill="white"/>
<path fill-rule="evenodd" clip-rule="evenodd" d="M120.579 187.417C121.061 187.417 121.454 187.81 121.454 188.291C121.454 188.773 121.061 189.166 120.579 189.166C120.098 189.166 119.704 188.773 119.704 188.291C119.704 187.81 120.098 187.417 120.579 187.417Z" fill="white"/>
<path fill-rule="evenodd" clip-rule="evenodd" d="M125.077 170.615C125.559 170.615 125.952 171.008 125.952 171.489C125.952 171.971 125.559 172.364 125.077 172.364C124.595 172.364 124.202 171.971 124.202 171.489C124.202 171.008 124.595 170.615 125.077 170.615Z" fill="white"/>
<path fill-rule="evenodd" clip-rule="evenodd" d="M138.394 144.111C139.126 144.111 139.721 144.705 139.721 145.437C139.721 146.169 139.126 146.764 138.394 146.764C137.661 146.764 137.066 146.169 137.066 145.437C137.066 144.705 137.661 144.111 138.394 144.111Z" fill="white"/>
<path fill-rule="evenodd" clip-rule="evenodd" d="M125.185 131.141C126.08 131.141 126.808 131.868 126.808 132.762C126.808 133.656 126.08 134.383 125.185 134.383C124.291 134.383 123.563 133.656 123.563 132.762C123.563 131.868 124.291 131.141 125.185 131.141Z" fill="white"/>
<path fill-rule="evenodd" clip-rule="evenodd" d="M156.64 157.503C157.087 157.503 157.451 157.866 157.451 158.314C157.451 158.761 157.087 159.124 156.64 159.124C156.193 159.124 155.829 158.761 155.829 158.314C155.829 157.866 156.193 157.503 156.64 157.503Z" fill="white"/>
<path fill-rule="evenodd" clip-rule="evenodd" d="M162.18 164.44C162.519 164.44 162.8 164.715 162.8 165.059C162.8 165.403 162.524 165.678 162.18 165.678C161.836 165.678 161.561 165.403 161.561 165.059C161.561 164.715 161.836 164.44 162.18 164.44Z" fill="white"/>
<path fill-rule="evenodd" clip-rule="evenodd" d="M179.989 166.424C180.328 166.424 180.609 166.7 180.609 167.043C180.609 167.387 180.333 167.662 179.989 167.662C179.645 167.662 179.37 167.387 179.37 167.043C179.37 166.7 179.645 166.424 179.989 166.424Z" fill="white"/>
<path fill-rule="evenodd" clip-rule="evenodd" d="M194.456 131.721C194.825 131.721 195.119 132.02 195.119 132.384C195.119 132.747 194.82 133.047 194.456 133.047C194.092 133.047 193.792 132.752 193.792 132.384C193.792 132.015 194.087 131.721 194.456 131.721Z" fill="white"/>
<path fill-rule="evenodd" clip-rule="evenodd" d="M202.999 142.755C203.274 142.755 203.496 142.976 203.496 143.251C203.496 143.526 203.274 143.747 202.999 143.747C202.724 143.747 202.503 143.526 202.503 143.251C202.503 142.976 202.724 142.755 202.999 142.755Z" fill="white"/>
<path fill-rule="evenodd" clip-rule="evenodd" d="M298.979 69.6816C315.274 69.6816 328.484 56.4288 328.484 40.0808C328.484 23.7328 315.274 10.4801 298.979 10.4801C282.684 10.4801 269.475 23.7328 269.475 40.0808C269.475 56.4288 282.684 69.6816 298.979 69.6816ZM298.979 71.1617C316.089 71.1617 329.959 57.2463 329.959 40.0808C329.959 22.9154 316.089 9 298.979 9C281.869 9 268 22.9154 268 40.0808C268 57.2463 281.869 71.1617 298.979 71.1617Z" fill="#ECECEC"/>
<path fill-rule="evenodd" clip-rule="evenodd" d="M298.979 56.3611C307.942 56.3611 315.207 49.0721 315.207 40.0805C315.207 31.0892 307.942 23.8002 298.979 23.8002C290.017 23.8002 282.752 31.0892 282.752 40.0805C282.752 49.0721 290.017 56.3611 298.979 56.3611ZM298.979 60.0611C309.979 60.0611 318.894 51.1156 318.894 40.0805C318.894 29.0457 309.979 20.1 298.979 20.1C287.98 20.1 279.065 29.0457 279.065 40.0805C279.065 51.1156 287.98 60.0611 298.979 60.0611Z" fill="#E2E0E5"/>
<path d="M125.006 20.4731L135.012 15.0951V26.9267L125.006 32.6634V20.4731Z" fill="#D7D7D7"/>
<path d="M125.006 20.4731L115 15.0951V26.9267L125.006 32.6634V20.4731Z" fill="#E2E2E2"/>
<path d="M115 15.0951L125.006 20.4732L135.012 15.0951L125.006 9L115 15.0951Z" fill="#ECECEC"/>
<path d="M10.1556 89.7218C7.33862 87.2987 3.09033 87.6199 0.669726 90.439C-1.74787 93.2546 -1.42715 97.4964 1.3863 99.9165L12.8476 109.775L12.9374 109.88L12.9534 109.866L12.9694 109.88L13.0592 109.775L24.5205 99.9165C27.3339 97.4964 27.6547 93.2546 25.2371 90.439C22.8165 87.6199 18.5682 87.2987 15.7513 89.7218L12.9534 92.1284L10.1556 89.7218Z" fill="#D7D7D7"/>
<g clip-path="url(#clip1_2_1377)">
<path d="M29.3023 186.199C28.6879 185.934 28.312 185.934 27.6977 186.199C25.5848 187.113 26.5797 194.889 27.4166 199.7C25.5907 195.171 22.3353 188.039 20.0584 188.377C19.3963 188.475 19.0769 188.674 18.695 189.223C17.492 190.955 21.5405 196.204 24.7255 199.876C20.9273 196.842 15.5187 193.01 13.8374 194.282C13.3036 194.686 13.1185 195.013 13.0472 195.679C12.8165 197.832 19.2279 200.583 23.8177 202.267C18.9936 201.473 12.0588 200.71 11.1992 202.698C10.9336 203.312 10.9336 203.688 11.1992 204.302C12.0588 206.29 18.9936 205.527 23.8177 204.733C19.2279 206.417 12.8164 209.168 13.0472 211.321C13.1185 211.987 13.3036 212.314 13.8374 212.718C15.5187 213.99 20.9272 210.158 24.7255 207.124C21.5404 210.796 17.492 216.045 18.6949 217.777C19.0769 218.326 19.3963 218.525 20.0584 218.623C22.3353 218.961 25.5908 211.829 27.4166 207.3C26.5797 212.111 25.5848 219.887 27.6977 220.801C28.312 221.066 28.6879 221.066 29.3023 220.801C31.4151 219.887 30.4202 212.11 29.5833 207.299C31.4091 211.828 34.6647 218.961 36.9416 218.623C37.6037 218.525 37.9232 218.326 38.3051 217.777C39.5081 216.045 35.4596 210.796 32.2746 207.124C36.0728 210.158 41.4814 213.99 43.1627 212.718C43.6964 212.314 43.8816 211.987 43.9528 211.321C44.1836 209.168 37.7722 206.417 33.1824 204.733C38.0065 205.527 44.9411 206.29 45.8007 204.302C46.0664 203.688 46.0664 203.312 45.8007 202.698C44.9411 200.71 38.0065 201.473 33.1824 202.267C37.7722 200.583 44.1836 197.832 43.9528 195.679C43.8816 195.013 43.6964 194.686 43.1627 194.282C41.4814 193.01 36.0727 196.842 32.2745 199.876C35.4595 196.204 39.5081 190.955 38.3051 189.223C37.9232 188.674 37.6037 188.475 36.9416 188.377C34.6647 188.039 31.4091 195.171 29.5833 199.7C30.4202 194.89 31.4151 187.113 29.3023 186.199Z" fill="#ECECEC"/>
</g>
<path d="M83 238H92.7639C97.8649 238 102 242.135 102 247.236V257H92.2361C87.1351 257 83 252.865 83 247.764V238Z" fill="#ECECEC"/>
<g clip-path="url(#clip2_2_1377)">
<path d="M19.2 31C28.517 31 36.07 21.598 36.07 10C36.07 21.598 43.6229 31 52.9399 31C43.6229 31 36.07 40.402 36.07 52C36.07 40.402 28.517 31 19.2 31Z" fill="white"/>
</g>
<g clip-path="url(#clip3_2_1377)">
<path d="M279.9 165.5C286.333 165.5 291.548 159.008 291.548 151C291.548 159.008 296.763 165.5 303.197 165.5C296.763 165.5 291.548 171.992 291.548 180C291.548 171.992 286.333 165.5 279.9 165.5Z" fill="white"/>
</g>
<g clip-path="url(#clip4_2_1377)">
<path fill-rule="evenodd" clip-rule="evenodd" d="M320 233.38C311.926 233.38 305.38 239.926 305.38 248C305.38 256.074 311.926 262.62 320 262.62C328.074 262.62 334.62 256.074 334.62 248C334.62 239.926 328.074 233.38 320 233.38ZM303.113 248C303.113 238.674 310.674 231.113 320 231.113C329.326 231.113 336.887 238.674 336.887 248C336.887 257.326 329.326 264.887 320 264.887C310.674 264.887 303.113 257.326 303.113 248Z" fill="#E2E0E5"/>
<path fill-rule="evenodd" clip-rule="evenodd" d="M320 237.12C313.991 237.12 309.12 241.991 309.12 248C309.12 254.009 313.991 258.88 320 258.88C326.009 258.88 330.88 254.009 330.88 248C330.88 241.991 326.009 237.12 320 237.12ZM306.854 248C306.854 240.739 312.739 234.853 320 234.853C327.261 234.853 333.147 240.739 333.147 248C333.147 255.261 327.261 261.147 320 261.147C312.739 261.147 306.854 255.261 306.854 248Z" fill="#E2E0E5"/>
<path fill-rule="evenodd" clip-rule="evenodd" d="M320 241.313C316.307 241.313 313.314 244.307 313.314 248C313.314 251.693 316.307 254.687 320 254.687C323.693 254.687 326.687 251.693 326.687 248C326.687 244.307 323.693 241.313 320 241.313ZM311.047 248C311.047 243.055 315.055 239.047 320 239.047C324.945 239.047 328.954 243.055 328.954 248C328.954 252.945 324.945 256.953 320 256.953C315.055 256.953 311.047 252.945 311.047 248Z" fill="#E2E0E5"/>
<path fill-rule="evenodd" clip-rule="evenodd" d="M320 245.507C318.623 245.507 317.507 246.623 317.507 248C317.507 249.377 318.623 250.493 320 250.493C321.377 250.493 322.494 249.377 322.494 248C322.494 246.623 321.377 245.507 320 245.507ZM315.24 248C315.24 245.371 317.371 243.24 320 243.24C322.629 243.24 324.76 245.371 324.76 248C324.76 250.629 322.629 252.76 320 252.76C317.371 252.76 315.24 250.629 315.24 248Z" fill="#E2E0E5"/>
</g>
</g>
<defs>
<linearGradient id="paint0_linear_2_1377" x1="-12.5647" y1="134.953" x2="374.016" y2="134.953" gradientUnits="userSpaceOnUse">
<stop stop-color="#7D441C"/>
<stop offset="0.03" stop-color="#F7E683"/>
<stop offset="0.07" stop-color="#895422"/>
<stop offset="0.08" stop-color="#895422"/>
<stop offset="0.16" stop-color="#E8B75B"/>
<stop offset="0.31" stop-color="#F7E683"/>
<stop offset="0.72" stop-color="#E8B55B"/>
<stop offset="1" stop-color="#503010"/>
</linearGradient>
<linearGradient id="paint1_linear_2_1377" x1="-2.97622" y1="98.8273" x2="311.896" y2="98.8273" gradientUnits="userSpaceOnUse">
<stop stop-color="#7D441C"/>
<stop offset="0.03" stop-color="#F7E683"/>
<stop offset="0.07" stop-color="#895422"/>
<stop offset="0.08" stop-color="#895422"/>
<stop offset="0.16" stop-color="#E8B75B"/>
<stop offset="0.31" stop-color="#F7E683"/>
<stop offset="0.72" stop-color="#E8B55B"/>
<stop offset="1" stop-color="#503010"/>
</linearGradient>
<linearGradient id="paint2_linear_2_1377" x1="-8.79088" y1="83.8476" x2="261.679" y2="83.8476" gradientUnits="userSpaceOnUse">
<stop stop-color="#7D441C"/>
<stop offset="0.03" stop-color="#F7E683"/>
<stop offset="0.07" stop-color="#895422"/>
<stop offset="0.08" stop-color="#895422"/>
<stop offset="0.16" stop-color="#E8B75B"/>
<stop offset="0.31" stop-color="#F7E683"/>
<stop offset="0.72" stop-color="#E8B55B"/>
<stop offset="1" stop-color="#503010"/>
</linearGradient>
<linearGradient id="paint3_linear_2_1377" x1="77.7617" y1="148.209" x2="81.939" y2="148.209" gradientUnits="userSpaceOnUse">
<stop stop-color="#7D441C"/>
<stop offset="0.03" stop-color="#F7E683"/>
<stop offset="0.07" stop-color="#895422"/>
<stop offset="0.08" stop-color="#895422"/>
<stop offset="0.16" stop-color="#E8B75B"/>
<stop offset="0.31" stop-color="#F7E683"/>
<stop offset="0.72" stop-color="#E8B55B"/>
<stop offset="1" stop-color="#503010"/>
</linearGradient>
<linearGradient id="paint4_linear_2_1377" x1="83.2573" y1="148.209" x2="87.4346" y2="148.209" gradientUnits="userSpaceOnUse">
<stop stop-color="#7D441C"/>
<stop offset="0.03" stop-color="#F7E683"/>
<stop offset="0.07" stop-color="#895422"/>
<stop offset="0.08" stop-color="#895422"/>
<stop offset="0.16" stop-color="#E8B75B"/>
<stop offset="0.31" stop-color="#F7E683"/>
<stop offset="0.72" stop-color="#E8B55B"/>
<stop offset="1" stop-color="#503010"/>
</linearGradient>
<linearGradient id="paint5_linear_2_1377" x1="88.6889" y1="148.209" x2="92.8662" y2="148.209" gradientUnits="userSpaceOnUse">
<stop stop-color="#7D441C"/>
<stop offset="0.03" stop-color="#F7E683"/>
<stop offset="0.07" stop-color="#895422"/>
<stop offset="0.08" stop-color="#895422"/>
<stop offset="0.16" stop-color="#E8B75B"/>
<stop offset="0.31" stop-color="#F7E683"/>
<stop offset="0.72" stop-color="#E8B55B"/>
<stop offset="1" stop-color="#503010"/>
</linearGradient>
<linearGradient id="paint6_linear_2_1377" x1="80.0328" y1="127.932" x2="83.1464" y2="127.932" gradientUnits="userSpaceOnUse">
<stop stop-color="#7D441C"/>
<stop offset="0.03" stop-color="#F7E683"/>
<stop offset="0.07" stop-color="#895422"/>
<stop offset="0.08" stop-color="#895422"/>
<stop offset="0.16" stop-color="#E8B75B"/>
<stop offset="0.31" stop-color="#F7E683"/>
<stop offset="0.72" stop-color="#E8B55B"/>
<stop offset="1" stop-color="#503010"/>
</linearGradient>
<linearGradient id="paint7_linear_2_1377" x1="84.1324" y1="127.932" x2="87.246" y2="127.932" gradientUnits="userSpaceOnUse">
<stop stop-color="#7D441C"/>
<stop offset="0.03" stop-color="#F7E683"/>
<stop offset="0.07" stop-color="#895422"/>
<stop offset="0.08" stop-color="#895422"/>
<stop offset="0.16" stop-color="#E8B75B"/>
<stop offset="0.31" stop-color="#F7E683"/>
<stop offset="0.72" stop-color="#E8B55B"/>
<stop offset="1" stop-color="#503010"/>
</linearGradient>
<linearGradient id="paint8_linear_2_1377" x1="88.1925" y1="127.932" x2="91.3061" y2="127.932" gradientUnits="userSpaceOnUse">
<stop stop-color="#7D441C"/>
<stop offset="0.03" stop-color="#F7E683"/>
<stop offset="0.07" stop-color="#895422"/>
<stop offset="0.08" stop-color="#895422"/>
<stop offset="0.16" stop-color="#E8B75B"/>
<stop offset="0.31" stop-color="#F7E683"/>
<stop offset="0.72" stop-color="#E8B55B"/>
<stop offset="1" stop-color="#503010"/>
</linearGradient>
<linearGradient id="paint9_linear_2_1377" x1="169.519" y1="167.02" x2="309.001" y2="167.02" gradientUnits="userSpaceOnUse">
<stop stop-color="#7D441C"/>
<stop offset="0.03" stop-color="#F7E683"/>
<stop offset="0.07" stop-color="#895422"/>
<stop offset="0.08" stop-color="#895422"/>
<stop offset="0.16" stop-color="#E8B75B"/>
<stop offset="0.31" stop-color="#F7E683"/>
<stop offset="0.72" stop-color="#E8B55B"/>
<stop offset="1" stop-color="#503010"/>
</linearGradient>
<linearGradient id="paint10_linear_2_1377" x1="189.853" y1="141.896" x2="228.01" y2="141.896" gradientUnits="userSpaceOnUse">
<stop stop-color="#7D441C"/>
<stop offset="0.03" stop-color="#F7E683"/>
<stop offset="0.07" stop-color="#895422"/>
<stop offset="0.08" stop-color="#895422"/>
<stop offset="0.16" stop-color="#E8B75B"/>
<stop offset="0.31" stop-color="#F7E683"/>
<stop offset="0.72" stop-color="#E8B55B"/>
<stop offset="1" stop-color="#503010"/>
</linearGradient>
<linearGradient id="paint11_linear_2_1377" x1="198.089" y1="163.928" x2="301.805" y2="163.928" gradientUnits="userSpaceOnUse">
<stop stop-color="#7D441C"/>
<stop offset="0.03" stop-color="#F7E683"/>
<stop offset="0.07" stop-color="#895422"/>
<stop offset="0.08" stop-color="#895422"/>
<stop offset="0.16" stop-color="#E8B75B"/>
<stop offset="0.31" stop-color="#F7E683"/>
<stop offset="0.72" stop-color="#E8B55B"/>
<stop offset="1" stop-color="#503010"/>
</linearGradient>
<linearGradient id="paint12_linear_2_1377" x1="251.691" y1="166.288" x2="297.438" y2="166.288" gradientUnits="userSpaceOnUse">
<stop stop-color="#7D441C"/>
<stop offset="0.03" stop-color="#F7E683"/>
<stop offset="0.07" stop-color="#895422"/>
<stop offset="0.08" stop-color="#895422"/>
<stop offset="0.16" stop-color="#E8B75B"/>
<stop offset="0.31" stop-color="#F7E683"/>
<stop offset="0.72" stop-color="#E8B55B"/>
<stop offset="1" stop-color="#503010"/>
</linearGradient>
<linearGradient id="paint13_linear_2_1377" x1="142.663" y1="186.59" x2="185.026" y2="186.59" gradientUnits="userSpaceOnUse">
<stop stop-color="#7D441C"/>
<stop offset="0.03" stop-color="#F7E683"/>
<stop offset="0.07" stop-color="#895422"/>
<stop offset="0.08" stop-color="#895422"/>
<stop offset="0.16" stop-color="#E8B75B"/>
<stop offset="0.31" stop-color="#F7E683"/>
<stop offset="0.72" stop-color="#E8B55B"/>
<stop offset="1" stop-color="#503010"/>
</linearGradient>
<linearGradient id="paint14_linear_2_1377" x1="269.044" y1="62.6168" x2="280.728" y2="62.6168" gradientUnits="userSpaceOnUse">
<stop stop-color="#7D441C"/>
<stop offset="0.03" stop-color="#F7E683"/>
<stop offset="0.07" stop-color="#895422"/>
<stop offset="0.08" stop-color="#895422"/>
<stop offset="0.16" stop-color="#E8B75B"/>
<stop offset="0.31" stop-color="#F7E683"/>
<stop offset="0.72" stop-color="#E8B55B"/>
<stop offset="1" stop-color="#503010"/>
</linearGradient>
<clipPath id="clip0_2_1377">
<rect width="343" height="270" fill="white"/>
</clipPath>
<clipPath id="clip1_2_1377">
<rect width="35" height="35" fill="white" transform="translate(11 186)"/>
</clipPath>
<clipPath id="clip2_2_1377">
<rect width="42" height="42" fill="white" transform="translate(15 10)"/>
</clipPath>
<clipPath id="clip3_2_1377">
<rect width="29" height="29" fill="white" transform="translate(277 151)"/>
</clipPath>
<clipPath id="clip4_2_1377">
<rect width="34" height="34" fill="white" transform="translate(303 231)"/>
</clipPath>
</defs>
</svg>
