<svg width="228" height="327" viewBox="0 0 228 327" fill="none" xmlns="http://www.w3.org/2000/svg">
<g clip-path="url(#clip0_21_773)">
<mask id="mask0_21_773" style="mask-type:luminance" maskUnits="userSpaceOnUse" x="0" y="0" width="228" height="227">
<path d="M227.5 0H0.5V227H227.5V0Z" fill="white"/>
</mask>
<g mask="url(#mask0_21_773)">
<path d="M108.534 43.1934C148.033 43.1934 180.102 75.263 180.102 114.761C180.102 154.26 148.033 186.329 108.534 186.329C69.036 186.329 36.9663 154.26 36.9663 114.761C36.9663 75.263 69.036 43.1934 108.534 43.1934Z" fill="#FF9900"/>
<path d="M68.8101 114.552L94.6628 140.825L150.099 85.3096" stroke="white" stroke-width="15.9741" stroke-linecap="round" stroke-linejoin="round"/>
<g opacity="0.793607">
<path d="M168.723 46.5293C172.435 46.5293 175.448 49.5432 175.448 53.2552C175.448 56.9673 172.435 59.9811 168.723 59.9811C165.01 59.9811 161.997 56.9673 161.997 53.2552C161.997 49.5432 165.01 46.5293 168.723 46.5293Z" stroke="white" stroke-width="0.840741" stroke-linecap="round"/>
<path d="M170.615 49.8921C171.508 50.3125 172.139 51.6787 172.033 52.5194" stroke="white" stroke-width="0.840741" stroke-linecap="round"/>
</g>
<g opacity="0.793607">
<path d="M190.028 152.167C191.418 155.609 189.753 159.532 186.311 160.923C182.87 162.313 178.946 160.648 177.556 157.206C176.165 153.764 177.83 149.841 181.272 148.45C184.714 147.06 188.637 148.725 190.028 152.167Z" stroke="white" stroke-width="0.840741" stroke-linecap="round"/>
<path d="M187.618 155.181C187.563 156.166 186.533 157.263 185.714 157.48" stroke="white" stroke-width="0.840741" stroke-linecap="round"/>
</g>
<g opacity="0.991743">
<path d="M31.7315 161.22C28.0842 161.909 24.5627 159.508 23.8729 155.861C23.1832 152.213 25.5845 148.692 29.2319 148.002C32.8793 147.312 36.4007 149.714 37.0905 153.361C37.7803 157.008 35.3789 160.53 31.7315 161.22Z" stroke="white" stroke-width="0.840741" stroke-linecap="round"/>
<path d="M29.2485 158.267C28.2927 158.02 27.4192 156.794 27.3663 155.949" stroke="white" stroke-width="0.840741" stroke-linecap="round"/>
</g>
<g opacity="0.793607">
<path d="M21.3514 55.1741C18.7952 52.4823 18.9053 48.2215 21.5971 45.6653C24.2888 43.1092 28.5496 43.2193 31.1058 45.911C33.6619 48.6027 33.5518 52.8636 30.8601 55.4197C28.1684 57.9759 23.9075 57.8658 21.3514 55.1741Z" stroke="white" stroke-width="0.840741" stroke-linecap="round"/>
<path d="M22.4878 51.4868C22.1775 50.5496 22.734 49.1516 23.416 48.6488" stroke="white" stroke-width="0.840741" stroke-linecap="round"/>
</g>
<path d="M197.784 24.1978V37.3869" stroke="white" stroke-width="1.68148" stroke-linecap="round"/>
<path d="M191.111 30.6611H204.667" stroke="white" stroke-width="1.68148" stroke-linecap="round"/>
<path d="M193.264 25.8794L203.143 35.8632L193.264 25.8794Z" fill="white"/>
<path d="M193.264 25.8794L203.143 35.8632" stroke="white" stroke-width="1.68148" stroke-linecap="round"/>
<path d="M193.318 35.18L202.908 25.5903L193.318 35.18Z" fill="white"/>
<path d="M193.318 35.18L202.908 25.5903" stroke="white" stroke-width="1.68148" stroke-linecap="round"/>
<path d="M29.1992 196.774L29.8639 209.946" stroke="white" stroke-width="1.68148" stroke-linecap="round"/>
<path d="M22.8597 203.565L36.3994 202.882" stroke="white" stroke-width="1.68148" stroke-linecap="round"/>
<path d="M24.7706 198.681L35.1399 208.154L24.7706 198.681Z" fill="white"/>
<path d="M24.7706 198.681L35.1399 208.154" stroke="white" stroke-width="1.68148" stroke-linecap="round"/>
<path d="M25.2915 207.967L34.3857 197.906L25.2915 207.967Z" fill="white"/>
<path d="M25.2915 207.967L34.3857 197.906" stroke="white" stroke-width="1.68148" stroke-linecap="round"/>
</g>
</g>
<path d="M42.2018 276.32C40.5804 276.32 39.0764 276.032 37.6898 275.456C36.3244 274.859 35.1298 274.037 34.1058 272.992C33.0818 271.925 32.2924 270.699 31.7378 269.312C31.1831 267.904 30.9058 266.4 30.9058 264.8C30.9058 263.2 31.1831 261.707 31.7378 260.32C32.2924 258.912 33.0818 257.685 34.1058 256.64C35.1298 255.595 36.3244 254.773 37.6898 254.176C39.0764 253.579 40.5804 253.28 42.2018 253.28C44.0151 253.28 45.5831 253.579 46.9058 254.176C48.2284 254.773 49.4018 255.584 50.4258 256.608L47.9298 259.104C47.2684 258.379 46.4578 257.813 45.4978 257.408C44.5591 257.003 43.4604 256.8 42.2018 256.8C41.0924 256.8 40.0791 256.992 39.1618 257.376C38.2444 257.76 37.4444 258.315 36.7618 259.04C36.1004 259.744 35.5884 260.587 35.2258 261.568C34.8631 262.549 34.6818 263.627 34.6818 264.8C34.6818 265.973 34.8631 267.051 35.2258 268.032C35.5884 269.013 36.1004 269.867 36.7618 270.592C37.4444 271.296 38.2444 271.84 39.1618 272.224C40.0791 272.608 41.0924 272.8 42.2018 272.8C43.5671 272.8 44.7191 272.597 45.6578 272.192C46.6178 271.765 47.4284 271.189 48.0898 270.464L50.5858 272.96C49.5618 274.005 48.3564 274.827 46.9698 275.424C45.5831 276.021 43.9938 276.32 42.2018 276.32ZM59.3528 276.32C57.9661 276.32 56.7074 275.968 55.5768 275.264C54.4674 274.56 53.5821 273.611 52.9208 272.416C52.2808 271.2 51.9608 269.845 51.9608 268.352C51.9608 266.837 52.2808 265.483 52.9208 264.288C53.5821 263.072 54.4674 262.112 55.5768 261.408C56.7074 260.683 57.9661 260.32 59.3528 260.32C60.5261 260.32 61.5608 260.576 62.4568 261.088C63.3741 261.579 64.0994 262.261 64.6328 263.136C65.1661 264.011 65.4328 265.003 65.4328 266.112V270.528C65.4328 271.637 65.1661 272.629 64.6328 273.504C64.1208 274.379 63.4061 275.072 62.4888 275.584C61.5714 276.075 60.5261 276.32 59.3528 276.32ZM59.9288 272.992C61.2301 272.992 62.2754 272.555 63.0648 271.68C63.8754 270.805 64.2808 269.685 64.2808 268.32C64.2808 267.403 64.0994 266.592 63.7368 265.888C63.3741 265.184 62.8621 264.64 62.2008 264.256C61.5608 263.851 60.8034 263.648 59.9288 263.648C59.0754 263.648 58.3181 263.851 57.6568 264.256C57.0168 264.64 56.5048 265.184 56.1208 265.888C55.7581 266.592 55.5768 267.403 55.5768 268.32C55.5768 269.237 55.7581 270.048 56.1208 270.752C56.5048 271.456 57.0168 272.011 57.6568 272.416C58.3181 272.8 59.0754 272.992 59.9288 272.992ZM64.0568 276V271.872L64.6648 268.128L64.0568 264.416V260.64H67.5768V276H64.0568ZM71.4833 276V260.64H75.0033V276H71.4833ZM75.0033 267.456L73.7873 266.848C73.7873 264.907 74.2139 263.339 75.0673 262.144C75.9419 260.928 77.2539 260.32 79.0033 260.32C79.7713 260.32 80.4646 260.459 81.0833 260.736C81.7019 261.013 82.2779 261.461 82.8113 262.08L80.5073 264.448C80.2299 264.149 79.9206 263.936 79.5793 263.808C79.2379 263.68 78.8433 263.616 78.3953 263.616C77.4139 263.616 76.6033 263.925 75.9633 264.544C75.3233 265.163 75.0033 266.133 75.0033 267.456ZM90.4778 276.32C89.0911 276.32 87.8324 275.968 86.7018 275.264C85.5924 274.56 84.7071 273.611 84.0458 272.416C83.4058 271.2 83.0858 269.845 83.0858 268.352C83.0858 266.837 83.4058 265.483 84.0458 264.288C84.7071 263.072 85.5924 262.112 86.7018 261.408C87.8324 260.683 89.0911 260.32 90.4778 260.32C91.6511 260.32 92.6858 260.576 93.5818 261.088C94.4991 261.579 95.2244 262.261 95.7578 263.136C96.2911 264.011 96.5578 265.003 96.5578 266.112V270.528C96.5578 271.637 96.2911 272.629 95.7578 273.504C95.2458 274.379 94.5311 275.072 93.6138 275.584C92.6964 276.075 91.6511 276.32 90.4778 276.32ZM91.0538 272.992C91.9284 272.992 92.6858 272.8 93.3258 272.416C93.9871 272.011 94.4991 271.456 94.8618 270.752C95.2244 270.048 95.4058 269.237 95.4058 268.32C95.4058 267.403 95.2244 266.592 94.8618 265.888C94.4991 265.184 93.9871 264.64 93.3258 264.256C92.6858 263.851 91.9284 263.648 91.0538 263.648C90.2004 263.648 89.4431 263.851 88.7818 264.256C88.1418 264.64 87.6298 265.184 87.2458 265.888C86.8831 266.592 86.7018 267.403 86.7018 268.32C86.7018 269.237 86.8831 270.048 87.2458 270.752C87.6298 271.456 88.1418 272.011 88.7818 272.416C89.4431 272.8 90.2004 272.992 91.0538 272.992ZM98.7018 276H95.1818V271.872L95.7898 268.128L95.1818 264.416V252.96H98.7018V276ZM115.447 276.32C114.06 276.32 112.801 275.968 111.671 275.264C110.561 274.56 109.676 273.611 109.015 272.416C108.375 271.2 108.055 269.845 108.055 268.352C108.055 266.837 108.375 265.483 109.015 264.288C109.676 263.072 110.561 262.112 111.671 261.408C112.801 260.683 114.06 260.32 115.447 260.32C116.62 260.32 117.655 260.576 118.551 261.088C119.468 261.579 120.193 262.261 120.727 263.136C121.26 264.011 121.527 265.003 121.527 266.112V270.528C121.527 271.637 121.26 272.629 120.727 273.504C120.215 274.379 119.5 275.072 118.583 275.584C117.665 276.075 116.62 276.32 115.447 276.32ZM116.023 272.992C117.324 272.992 118.369 272.555 119.159 271.68C119.969 270.805 120.375 269.685 120.375 268.32C120.375 267.403 120.193 266.592 119.831 265.888C119.468 265.184 118.956 264.64 118.295 264.256C117.655 263.851 116.897 263.648 116.023 263.648C115.169 263.648 114.412 263.851 113.751 264.256C113.111 264.64 112.599 265.184 112.215 265.888C111.852 266.592 111.671 267.403 111.671 268.32C111.671 269.237 111.852 270.048 112.215 270.752C112.599 271.456 113.111 272.011 113.751 272.416C114.412 272.8 115.169 272.992 116.023 272.992ZM120.151 276V271.872L120.759 268.128L120.151 264.416V260.64H123.671V276H120.151ZM134.009 276.32C132.622 276.32 131.364 275.968 130.233 275.264C129.124 274.56 128.238 273.611 127.577 272.416C126.937 271.2 126.617 269.845 126.617 268.352C126.617 266.837 126.937 265.483 127.577 264.288C128.238 263.072 129.124 262.112 130.233 261.408C131.364 260.683 132.622 260.32 134.009 260.32C135.182 260.32 136.217 260.576 137.113 261.088C138.03 261.579 138.756 262.261 139.289 263.136C139.822 264.011 140.089 265.003 140.089 266.112V270.528C140.089 271.637 139.822 272.629 139.289 273.504C138.777 274.379 138.062 275.072 137.145 275.584C136.228 276.075 135.182 276.32 134.009 276.32ZM134.585 272.992C135.46 272.992 136.217 272.8 136.857 272.416C137.518 272.011 138.03 271.456 138.393 270.752C138.756 270.048 138.937 269.237 138.937 268.32C138.937 267.403 138.756 266.592 138.393 265.888C138.03 265.184 137.518 264.64 136.857 264.256C136.217 263.851 135.46 263.648 134.585 263.648C133.732 263.648 132.974 263.851 132.313 264.256C131.673 264.64 131.161 265.184 130.777 265.888C130.414 266.592 130.233 267.403 130.233 268.32C130.233 269.237 130.414 270.048 130.777 270.752C131.161 271.456 131.673 272.011 132.313 272.416C132.974 272.8 133.732 272.992 134.585 272.992ZM142.233 276H138.713V271.872L139.321 268.128L138.713 264.416V252.96H142.233V276ZM152.572 276.32C151.185 276.32 149.926 275.968 148.796 275.264C147.686 274.56 146.801 273.611 146.14 272.416C145.5 271.2 145.18 269.845 145.18 268.352C145.18 266.837 145.5 265.483 146.14 264.288C146.801 263.072 147.686 262.112 148.796 261.408C149.926 260.683 151.185 260.32 152.572 260.32C153.745 260.32 154.78 260.576 155.676 261.088C156.593 261.579 157.318 262.261 157.852 263.136C158.385 264.011 158.652 265.003 158.652 266.112V270.528C158.652 271.637 158.385 272.629 157.852 273.504C157.34 274.379 156.625 275.072 155.708 275.584C154.79 276.075 153.745 276.32 152.572 276.32ZM153.148 272.992C154.022 272.992 154.78 272.8 155.42 272.416C156.081 272.011 156.593 271.456 156.956 270.752C157.318 270.048 157.5 269.237 157.5 268.32C157.5 267.403 157.318 266.592 156.956 265.888C156.593 265.184 156.081 264.64 155.42 264.256C154.78 263.851 154.022 263.648 153.148 263.648C152.294 263.648 151.537 263.851 150.876 264.256C150.236 264.64 149.724 265.184 149.34 265.888C148.977 266.592 148.796 267.403 148.796 268.32C148.796 269.237 148.977 270.048 149.34 270.752C149.724 271.456 150.236 272.011 150.876 272.416C151.537 272.8 152.294 272.992 153.148 272.992ZM160.796 276H157.276V271.872L157.884 268.128L157.276 264.416V252.96H160.796V276ZM171.838 276.32C170.302 276.32 168.915 275.979 167.678 275.296C166.462 274.592 165.491 273.632 164.766 272.416C164.062 271.2 163.71 269.835 163.71 268.32C163.71 266.805 164.062 265.451 164.766 264.256C165.47 263.04 166.419 262.08 167.614 261.376C168.83 260.672 170.174 260.32 171.646 260.32C173.075 260.32 174.334 260.651 175.422 261.312C176.531 261.973 177.395 262.88 178.014 264.032C178.654 265.184 178.974 266.496 178.974 267.968C178.974 268.224 178.953 268.491 178.91 268.768C178.889 269.024 178.846 269.312 178.782 269.632H166.174V266.752H176.958L175.646 267.904C175.603 266.965 175.422 266.176 175.102 265.536C174.782 264.896 174.323 264.405 173.726 264.064C173.15 263.723 172.435 263.552 171.582 263.552C170.686 263.552 169.907 263.744 169.246 264.128C168.585 264.512 168.073 265.056 167.71 265.76C167.347 266.443 167.166 267.264 167.166 268.224C167.166 269.184 167.358 270.027 167.742 270.752C168.126 271.477 168.67 272.043 169.374 272.448C170.078 272.832 170.889 273.024 171.806 273.024C172.595 273.024 173.321 272.885 173.982 272.608C174.665 272.331 175.241 271.925 175.71 271.392L177.95 273.664C177.203 274.539 176.297 275.2 175.23 275.648C174.163 276.096 173.033 276.32 171.838 276.32ZM188.228 276.32C186.841 276.32 185.582 275.968 184.452 275.264C183.342 274.56 182.457 273.611 181.796 272.416C181.156 271.2 180.836 269.845 180.836 268.352C180.836 266.837 181.156 265.483 181.796 264.288C182.457 263.072 183.342 262.112 184.452 261.408C185.582 260.683 186.841 260.32 188.228 260.32C189.401 260.32 190.436 260.576 191.332 261.088C192.249 261.579 192.974 262.261 193.508 263.136C194.041 264.011 194.308 265.003 194.308 266.112V270.528C194.308 271.637 194.041 272.629 193.508 273.504C192.996 274.379 192.281 275.072 191.364 275.584C190.446 276.075 189.401 276.32 188.228 276.32ZM188.804 272.992C189.678 272.992 190.436 272.8 191.076 272.416C191.737 272.011 192.249 271.456 192.612 270.752C192.974 270.048 193.156 269.237 193.156 268.32C193.156 267.403 192.974 266.592 192.612 265.888C192.249 265.184 191.737 264.64 191.076 264.256C190.436 263.851 189.678 263.648 188.804 263.648C187.95 263.648 187.193 263.851 186.532 264.256C185.892 264.64 185.38 265.184 184.996 265.888C184.633 266.592 184.452 267.403 184.452 268.32C184.452 269.237 184.633 270.048 184.996 270.752C185.38 271.456 185.892 272.011 186.532 272.416C187.193 272.8 187.95 272.992 188.804 272.992ZM196.452 276H192.932V271.872L193.54 268.128L192.932 264.416V252.96H196.452V276ZM40.7033 318.32C38.9326 318.32 37.4286 318 36.1913 317.36C34.9539 316.72 33.8446 315.781 32.8633 314.544L35.3593 312.048C35.9779 312.944 36.7139 313.648 37.5673 314.16C38.4206 314.651 39.5086 314.896 40.8313 314.896C42.0686 314.896 43.0499 314.64 43.7753 314.128C44.5219 313.616 44.8953 312.912 44.8953 312.016C44.8953 311.269 44.7033 310.661 44.3193 310.192C43.9353 309.723 43.4233 309.339 42.7833 309.04C42.1646 308.72 41.4713 308.443 40.7033 308.208C39.9566 307.952 39.1993 307.675 38.4313 307.376C37.6846 307.056 36.9913 306.661 36.3513 306.192C35.7326 305.723 35.2313 305.115 34.8473 304.368C34.4633 303.621 34.2713 302.672 34.2713 301.52C34.2713 300.197 34.5913 299.077 35.2313 298.16C35.8926 297.221 36.7779 296.507 37.8873 296.016C38.9966 295.525 40.2339 295.28 41.5993 295.28C43.0713 295.28 44.3833 295.568 45.5353 296.144C46.7086 296.72 47.6579 297.456 48.3833 298.352L45.8873 300.848C45.2473 300.123 44.5753 299.589 43.8713 299.248C43.1886 298.885 42.3993 298.704 41.5033 298.704C40.3939 298.704 39.5193 298.928 38.8793 299.376C38.2606 299.824 37.9513 300.453 37.9513 301.264C37.9513 301.947 38.1433 302.501 38.5273 302.928C38.9113 303.333 39.4126 303.685 40.0312 303.984C40.6713 304.261 41.3646 304.528 42.1113 304.784C42.8793 305.04 43.6366 305.328 44.3833 305.648C45.1513 305.968 45.8446 306.384 46.4633 306.896C47.1033 307.387 47.6153 308.027 47.9993 308.816C48.3833 309.605 48.5753 310.597 48.5753 311.792C48.5753 313.797 47.8606 315.387 46.4313 316.56C45.0233 317.733 43.1139 318.32 40.7033 318.32ZM58.0685 318.32C56.7672 318.32 55.6045 318.032 54.5805 317.456C53.5778 316.88 52.7885 316.091 52.2125 315.088C51.6578 314.064 51.3805 312.891 51.3805 311.568V302.64H54.9005V311.408C54.9005 312.155 55.0178 312.795 55.2525 313.328C55.5085 313.84 55.8712 314.235 56.3405 314.512C56.8312 314.789 57.4072 314.928 58.0685 314.928C59.0925 314.928 59.8712 314.629 60.4045 314.032C60.9592 313.413 61.2365 312.539 61.2365 311.408V302.64H64.7565V311.568C64.7565 312.912 64.4685 314.096 63.8925 315.12C63.3378 316.123 62.5592 316.912 61.5565 317.488C60.5538 318.043 59.3912 318.32 58.0685 318.32ZM75.3678 318.32C73.8531 318.32 72.4771 317.968 71.2398 317.264C70.0238 316.56 69.0638 315.6 68.3598 314.384C67.6558 313.168 67.3038 311.813 67.3038 310.32C67.3038 308.805 67.6558 307.451 68.3598 306.256C69.0638 305.04 70.0238 304.08 71.2398 303.376C72.4771 302.672 73.8531 302.32 75.3678 302.32C76.5624 302.32 77.6718 302.555 78.6958 303.024C79.7411 303.472 80.6264 304.123 81.3518 304.976L79.0478 307.312C78.5998 306.779 78.0558 306.384 77.4158 306.128C76.7971 305.851 76.1144 305.712 75.3678 305.712C74.4931 305.712 73.7144 305.915 73.0318 306.32C72.3704 306.704 71.8478 307.237 71.4638 307.92C71.1011 308.603 70.9198 309.403 70.9198 310.32C70.9198 311.216 71.1011 312.016 71.4638 312.72C71.8478 313.403 72.3704 313.947 73.0318 314.352C73.7144 314.736 74.4931 314.928 75.3678 314.928C76.1144 314.928 76.7971 314.8 77.4158 314.544C78.0558 314.267 78.5998 313.861 79.0478 313.328L81.3518 315.664C80.6264 316.517 79.7411 317.179 78.6958 317.648C77.6718 318.096 76.5624 318.32 75.3678 318.32ZM90.649 318.32C89.1343 318.32 87.7583 317.968 86.521 317.264C85.305 316.56 84.345 315.6 83.641 314.384C82.937 313.168 82.585 311.813 82.585 310.32C82.585 308.805 82.937 307.451 83.641 306.256C84.345 305.04 85.305 304.08 86.521 303.376C87.7583 302.672 89.1343 302.32 90.649 302.32C91.8437 302.32 92.953 302.555 93.977 303.024C95.0223 303.472 95.9077 304.123 96.633 304.976L94.329 307.312C93.881 306.779 93.337 306.384 92.697 306.128C92.0783 305.851 91.3957 305.712 90.649 305.712C89.7743 305.712 88.9957 305.915 88.313 306.32C87.6517 306.704 87.129 307.237 86.745 307.92C86.3823 308.603 86.201 309.403 86.201 310.32C86.201 311.216 86.3823 312.016 86.745 312.72C87.129 313.403 87.6517 313.947 88.313 314.352C88.9957 314.736 89.7743 314.928 90.649 314.928C91.3957 314.928 92.0783 314.8 92.697 314.544C93.337 314.267 93.881 313.861 94.329 313.328L96.633 315.664C95.9077 316.517 95.0223 317.179 93.977 317.648C92.953 318.096 91.8437 318.32 90.649 318.32ZM105.994 318.32C104.458 318.32 103.072 317.979 101.834 317.296C100.618 316.592 99.6476 315.632 98.9223 314.416C98.2183 313.2 97.8663 311.835 97.8663 310.32C97.8663 308.805 98.2183 307.451 98.9223 306.256C99.6263 305.04 100.576 304.08 101.77 303.376C102.986 302.672 104.33 302.32 105.802 302.32C107.232 302.32 108.49 302.651 109.578 303.312C110.688 303.973 111.552 304.88 112.17 306.032C112.81 307.184 113.13 308.496 113.13 309.968C113.13 310.224 113.109 310.491 113.066 310.768C113.045 311.024 113.002 311.312 112.938 311.632H100.33V308.752H111.114L109.802 309.904C109.76 308.965 109.578 308.176 109.258 307.536C108.938 306.896 108.48 306.405 107.882 306.064C107.306 305.723 106.592 305.552 105.738 305.552C104.842 305.552 104.064 305.744 103.402 306.128C102.741 306.512 102.229 307.056 101.866 307.76C101.504 308.443 101.322 309.264 101.322 310.224C101.322 311.184 101.514 312.027 101.898 312.752C102.282 313.477 102.826 314.043 103.53 314.448C104.234 314.832 105.045 315.024 105.962 315.024C106.752 315.024 107.477 314.885 108.138 314.608C108.821 314.331 109.397 313.925 109.866 313.392L112.106 315.664C111.36 316.539 110.453 317.2 109.386 317.648C108.32 318.096 107.189 318.32 105.994 318.32ZM120.976 318.32C120.123 318.32 119.301 318.213 118.512 318C117.723 317.765 116.997 317.445 116.336 317.04C115.675 316.613 115.099 316.101 114.608 315.504L116.848 313.264C117.381 313.883 117.989 314.352 118.672 314.672C119.376 314.971 120.165 315.12 121.04 315.12C121.829 315.12 122.427 315.003 122.832 314.768C123.237 314.533 123.44 314.192 123.44 313.744C123.44 313.275 123.248 312.912 122.864 312.656C122.48 312.4 121.979 312.187 121.36 312.016C120.763 311.824 120.123 311.632 119.44 311.44C118.779 311.248 118.139 310.992 117.52 310.672C116.923 310.331 116.432 309.872 116.048 309.296C115.664 308.72 115.472 307.973 115.472 307.056C115.472 306.075 115.696 305.232 116.144 304.528C116.613 303.824 117.264 303.28 118.096 302.896C118.949 302.512 119.963 302.32 121.136 302.32C122.373 302.32 123.461 302.544 124.4 302.992C125.36 303.419 126.16 304.069 126.8 304.944L124.56 307.184C124.112 306.629 123.6 306.213 123.024 305.936C122.448 305.659 121.787 305.52 121.04 305.52C120.336 305.52 119.792 305.627 119.408 305.84C119.024 306.053 118.832 306.363 118.832 306.768C118.832 307.195 119.024 307.525 119.408 307.76C119.792 307.995 120.283 308.197 120.88 308.368C121.499 308.539 122.139 308.731 122.8 308.944C123.483 309.136 124.123 309.413 124.72 309.776C125.339 310.117 125.84 310.587 126.224 311.184C126.608 311.76 126.8 312.517 126.8 313.456C126.8 314.949 126.277 316.133 125.232 317.008C124.187 317.883 122.768 318.32 120.976 318.32ZM134.726 318.32C133.873 318.32 133.051 318.213 132.262 318C131.473 317.765 130.747 317.445 130.086 317.04C129.425 316.613 128.849 316.101 128.358 315.504L130.598 313.264C131.131 313.883 131.739 314.352 132.422 314.672C133.126 314.971 133.915 315.12 134.79 315.12C135.579 315.12 136.177 315.003 136.582 314.768C136.987 314.533 137.19 314.192 137.19 313.744C137.19 313.275 136.998 312.912 136.614 312.656C136.23 312.4 135.729 312.187 135.11 312.016C134.513 311.824 133.873 311.632 133.19 311.44C132.529 311.248 131.889 310.992 131.27 310.672C130.673 310.331 130.182 309.872 129.798 309.296C129.414 308.72 129.222 307.973 129.222 307.056C129.222 306.075 129.446 305.232 129.894 304.528C130.363 303.824 131.014 303.28 131.846 302.896C132.699 302.512 133.713 302.32 134.886 302.32C136.123 302.32 137.211 302.544 138.15 302.992C139.11 303.419 139.91 304.069 140.55 304.944L138.31 307.184C137.862 306.629 137.35 306.213 136.774 305.936C136.198 305.659 135.537 305.52 134.79 305.52C134.086 305.52 133.542 305.627 133.158 305.84C132.774 306.053 132.582 306.363 132.582 306.768C132.582 307.195 132.774 307.525 133.158 307.76C133.542 307.995 134.033 308.197 134.63 308.368C135.249 308.539 135.889 308.731 136.55 308.944C137.233 309.136 137.873 309.413 138.47 309.776C139.089 310.117 139.59 310.587 139.974 311.184C140.358 311.76 140.55 312.517 140.55 313.456C140.55 314.949 140.027 316.133 138.982 317.008C137.937 317.883 136.518 318.32 134.726 318.32ZM145.564 318V300.624C145.564 299.451 145.82 298.416 146.332 297.52C146.865 296.624 147.591 295.92 148.508 295.408C149.447 294.896 150.524 294.64 151.74 294.64C152.679 294.64 153.479 294.8 154.14 295.12C154.801 295.44 155.42 295.899 155.996 296.496L153.724 298.768C153.468 298.512 153.191 298.309 152.892 298.16C152.593 298.011 152.209 297.936 151.74 297.936C150.887 297.936 150.225 298.171 149.756 298.64C149.308 299.088 149.084 299.739 149.084 300.592V318H145.564ZM141.884 305.84V302.64H153.724V305.84H141.884ZM162.662 318.32C161.361 318.32 160.198 318.032 159.174 317.456C158.172 316.88 157.382 316.091 156.806 315.088C156.252 314.064 155.974 312.891 155.974 311.568V302.64H159.494V311.408C159.494 312.155 159.612 312.795 159.846 313.328C160.102 313.84 160.465 314.235 160.934 314.512C161.425 314.789 162.001 314.928 162.662 314.928C163.686 314.928 164.465 314.629 164.998 314.032C165.553 313.413 165.83 312.539 165.83 311.408V302.64H169.35V311.568C169.35 312.912 169.062 314.096 168.486 315.12C167.932 316.123 167.153 316.912 166.15 317.488C165.148 318.043 163.985 318.32 162.662 318.32ZM172.89 318V294.96H176.41V318H172.89ZM180.327 318V294.96H183.847V318H180.327ZM192.725 318.16L186.165 302.64H190.036L194.517 314.032H193.397L198.133 302.64H202.037L194.901 318.16H192.725ZM188.149 324.4L192.917 314.576L194.901 318.16L192.053 324.4H188.149Z" fill="white"/>
<defs>
<clipPath id="clip0_21_773">
<rect width="227" height="227" fill="white" transform="translate(0.5)"/>
</clipPath>
</defs>
</svg>
