<svg width="18" height="18" viewBox="0 0 18 18" fill="none" xmlns="http://www.w3.org/2000/svg">
<path d="M11.25 3.75C11.6478 3.75 12.0294 3.90804 12.3107 4.18934C12.592 4.47064 12.75 4.85218 12.75 5.25V17.25L7.5 15L2.25 17.25V5.25C2.25 4.85218 2.40804 4.47064 2.68934 4.18934C2.97064 3.90804 3.35218 3.75 3.75 3.75H11.25ZM6.75 0.75H14.25C14.6478 0.75 15.0294 0.908035 15.3107 1.18934C15.592 1.47064 15.75 1.85218 15.75 2.25V14.25L14.25 13.5975V2.25H5.25C5.25 1.85218 5.40804 1.47064 5.68934 1.18934C5.97064 0.908035 6.35218 0.75 6.75 0.75Z" fill="#6C6C6C"/>
</svg>
