<svg width="252" height="195" viewBox="0 0 252 195" fill="none" xmlns="http://www.w3.org/2000/svg">
<g clip-path="url(#clip0_45_2029)">
<path d="M20.9 194.957C18.0775 194.957 15.2843 194.384 12.6887 193.273C10.0932 192.162 7.74914 190.535 5.798 188.491C3.84686 186.448 2.32903 184.029 1.33606 181.382C0.3431 178.735 -0.104427 175.913 0.0204752 173.088C0.708087 157.504 10.5922 135.17 37.5328 115C74.913 87.0128 50.2676 23.1108 99.3359 16.4363C179.989 5.46824 164.731 77.1992 214.533 103.351C246.234 119.998 251.997 152.57 252 174.046C251.994 179.596 249.79 184.916 245.871 188.837C241.951 192.758 236.638 194.959 231.1 194.956L20.9 194.957Z" fill="#F3F5FD"/>
<path d="M29.5631 192.846C22.9923 190.804 16.6133 188.137 10.8028 180.672C9.6104 179.143 8.49005 177.183 9.14348 175.352C9.63496 173.974 11.0576 173.091 12.5032 172.866C13.0416 172.787 13.5874 172.772 14.1293 172.821C14.132 172.821 14.1346 172.823 14.1356 172.821C14.9687 172.907 15.7921 173.069 16.5957 173.305L16.8253 173.371C20.6604 174.463 24.3135 176.117 27.6668 178.278C27.9707 178.472 28.3311 178.557 28.6895 178.52C29.0479 178.482 29.3832 178.325 29.6408 178.072C29.8984 177.82 30.0633 177.488 30.1086 177.13C30.1539 176.771 30.077 176.408 29.8903 176.1C29.5483 175.54 29.1503 175.016 28.7022 174.537C28.0418 173.844 27.3181 173.215 26.5405 172.658C25.5074 171.903 24.4047 171.228 23.3261 170.539C19.3152 167.98 15.5153 165.102 11.963 161.935C9.42755 159.671 6.9479 157.16 5.74292 153.978C5.18938 152.515 4.93717 150.828 5.59757 149.41C6.68739 147.083 9.77467 146.43 12.2991 146.913C16.7228 147.762 20.2568 151.011 23.3905 154.25C25.9893 156.941 28.901 159.92 32.6348 160.086C33.2713 160.146 33.9113 160.017 34.4756 159.716C35.5405 159.07 35.8143 157.572 35.435 156.383C35.0557 155.194 34.1769 154.244 33.3287 153.331C28.4003 148.031 23.5501 142.521 20.35 136.028C17.1499 129.536 15.7322 121.872 17.956 114.98C18.6081 112.964 19.5877 111.004 21.1159 109.54C22.6442 108.076 24.7873 107.158 26.8853 107.438C29.7436 107.816 31.8964 110.232 33.3446 112.728C38.3225 121.292 38.0185 131.785 39.4203 141.595C39.8129 144.341 40.3827 147.157 42.0154 149.418C42.1661 149.635 42.3614 149.818 42.5882 149.953C43.9316 150.733 45.1372 149.161 45.6413 147.827C47.6325 142.55 48.1303 136.516 51.6954 132.148C53.056 130.486 54.9808 129.096 57.1263 129.11C59.746 129.128 61.9893 131.321 62.7539 133.832C63.5186 136.343 63.0612 139.071 62.2419 141.565C60.7213 146.189 57.9961 150.343 54.7847 153.995C53.0922 155.923 51.1771 157.87 50.6696 160.385C50.5141 161.24 50.5792 162.12 50.8587 162.943C51.1383 163.766 51.623 164.503 52.2669 165.085C52.5679 165.347 52.9185 165.547 53.2978 165.671C53.6771 165.795 54.0774 165.842 54.4751 165.809C55.3352 165.729 56.1135 165.29 56.8628 164.863C57.1777 164.683 57.4933 164.501 57.8109 164.322C59.0633 163.608 60.3158 162.893 61.5682 162.177C64.7524 160.356 68.5973 158.497 71.9142 160.064C73.6067 160.866 74.7155 162.441 75.2368 164.249C75.7038 165.89 75.7038 167.629 75.2368 169.27C74.2485 172.683 68.0215 182.18 65.4533 184.629C62.4563 187.49 52.0525 199.829 29.5631 192.846Z" fill="#8DDBE0"/>
<path d="M69.8934 192.066H151.331C157.568 192.066 162.623 187 162.623 180.751L162.623 14.2486C162.623 7.99973 157.568 2.93402 151.331 2.93402H69.8934C63.6571 2.93402 58.6016 7.99973 58.6016 14.2486L58.6016 180.751C58.6016 187 63.6571 192.066 69.8934 192.066Z" fill="white"/>
<path d="M55.6729 180.751V14.2488C55.6772 10.4711 57.1768 6.84944 59.8427 4.17823C62.5085 1.50702 66.1229 0.00440031 69.893 0H151.331C155.101 0.00440031 158.716 1.50702 161.381 4.17823C164.047 6.84944 165.547 10.4711 165.551 14.2488V180.751C165.547 184.529 164.047 188.151 161.381 190.822C158.716 193.493 155.101 194.996 151.331 195H69.893C66.1229 194.996 62.5085 193.493 59.8427 190.822C57.1768 188.151 55.6772 184.529 55.6729 180.751ZM69.893 5.86777C67.6759 5.87058 65.5504 6.75434 63.9827 8.32523C62.415 9.89611 61.533 12.0259 61.5302 14.2474V180.751C61.5329 182.973 62.4148 185.103 63.9826 186.674C65.5503 188.244 67.6759 189.128 69.893 189.131H151.331C153.548 189.128 155.674 188.244 157.242 186.674C158.809 185.103 159.691 182.973 159.694 180.751V14.2488C159.691 12.0272 158.809 9.89744 157.241 8.32656C155.674 6.75567 153.548 5.87191 151.331 5.8691L69.893 5.86777Z" fill="#DEE8F5"/>
<path d="M123.264 15.0566L97.9598 15.0566C96.5862 15.0566 95.2689 14.5097 94.2977 13.5365C93.3264 12.5632 92.7808 11.2432 92.7808 9.8669V2.93404L128.443 2.93404V9.8669C128.443 11.2433 127.898 12.5633 126.926 13.5366C125.955 14.5099 124.638 15.0566 123.264 15.0566Z" fill="#DEE8F5"/>
<path d="M217.941 58.3441C217.941 58.3441 215.314 56.9475 215.901 49.7815L210.473 48.7729C210.473 48.7729 211.083 55.199 208.338 57.2391L217.941 58.3441Z" fill="#FF9900"/>
<path opacity="0.15" d="M209.45 55.8975L213.959 52.4393L210.418 52.4023C210.316 53.6177 209.987 54.8031 209.45 55.8975Z" fill="black"/>
<path d="M218.98 47.0024C218.605 49.1768 217.421 51.2362 215.506 51.9385C213.42 52.7684 211.162 53.074 208.93 52.8286C202.99 52.3405 204.165 38.8047 206.985 36.1754C209.806 33.5461 218.084 35.211 219.091 39.6087C219.612 41.8832 219.338 44.9328 218.98 47.0024Z" fill="#FF9900"/>
<path d="M215.583 51.6788C215.696 52.0402 215.774 52.1979 216.099 52.0043C217.375 51.2448 219.907 49.5918 220.886 43.3989C221.762 37.85 218.346 35.5612 215.622 34.7449C213.273 34.0409 207.793 33.8959 205.22 35.4495C203.004 36.7882 205.22 39.902 205.22 39.902C206.2 39.9472 206.398 40.7909 208.709 40.7909C210.495 40.7909 209.87 40.7244 211.544 40.7377C214.52 40.7619 213.559 42.9553 213.505 43.5538C213.349 45.2663 214.631 46.1731 214.825 47.6047C214.976 48.9798 215.229 50.3417 215.583 51.6788Z" fill="#0F1011"/>
<path d="M213.042 46.0411C213.02 46.3147 213.051 46.5902 213.135 46.8516C213.219 47.113 213.353 47.3553 213.531 47.5647C213.708 47.7741 213.925 47.9464 214.168 48.0719C214.412 48.1974 214.678 48.2735 214.951 48.2959C215.224 48.3184 215.499 48.2867 215.76 48.2027C216.021 48.1187 216.263 47.9841 216.472 47.8064C216.681 47.6288 216.853 47.4116 216.978 47.1674C217.103 46.9231 217.179 46.6566 217.202 46.3829C217.229 46.1084 217.2 45.8312 217.118 45.5678C217.036 45.3044 216.902 45.0603 216.724 44.8499C216.546 44.6395 216.327 44.4672 216.082 44.3432C215.836 44.2192 215.567 44.146 215.292 44.128C213.805 44.0795 213.136 44.8909 213.042 46.0411Z" fill="#FF9900"/>
<path d="M213.959 39.4087L215.495 39.9723C215.495 39.9723 214.95 47.664 214.52 49.7669C214.091 51.8698 212.887 53.2385 211.524 53.3555C209.43 53.5354 207.913 53.5497 206.378 52.9997C204.646 52.3796 204.889 47.7222 204.889 47.7222C204.889 47.7222 210.461 48.3271 212.003 47.5852C213.545 46.8433 213.959 39.4087 213.959 39.4087Z" fill="#0F1011"/>
<path d="M210.481 45.3276C210.753 45.3276 210.974 45.1068 210.974 44.8344C210.974 44.5621 210.753 44.3413 210.481 44.3413C210.21 44.3413 209.989 44.5621 209.989 44.8344C209.989 45.1068 210.21 45.3276 210.481 45.3276Z" fill="#0F1011"/>
<path d="M206.598 45.0082C206.869 45.0082 207.09 44.7875 207.09 44.5151C207.09 44.2428 206.869 44.022 206.598 44.022C206.326 44.022 206.105 44.2428 206.105 44.5151C206.105 44.7875 206.326 45.0082 206.598 45.0082Z" fill="#0F1011"/>
<path d="M207.049 43.2158L205.745 43.2324" stroke="#0F1011" stroke-width="1.394" stroke-miterlimit="10" stroke-linecap="round"/>
<path d="M211.543 43.7088L210.258 43.3989" stroke="#0F1011" stroke-width="1.394" stroke-miterlimit="10" stroke-linecap="round"/>
<g opacity="0.15">
<path d="M208.296 47.5699C208.279 47.5699 208.263 47.5674 208.246 47.5626L207.062 47.1968C207.039 47.1897 207.017 47.1778 206.999 47.1619C206.981 47.1459 206.966 47.1263 206.957 47.1042C206.947 47.0822 206.941 47.0583 206.941 47.0342C206.941 47.01 206.947 46.9861 206.956 46.964L207.736 45.2256C207.755 45.1855 207.789 45.1546 207.83 45.1393C207.872 45.124 207.918 45.1256 207.958 45.1438C207.999 45.162 208.031 45.1953 208.047 45.2366C208.063 45.2779 208.063 45.324 208.046 45.3649L207.345 46.9278L208.346 47.2357C208.385 47.248 208.418 47.2736 208.439 47.308C208.46 47.3424 208.469 47.3833 208.463 47.4234C208.457 47.4635 208.437 47.5001 208.406 47.5266C208.376 47.5532 208.337 47.5679 208.296 47.5682V47.5699Z" fill="black"/>
</g>
<path d="M218.582 36.2695C218.582 36.2695 216.977 38.2995 211.019 34.2374C205.062 30.1752 202.829 33.1208 202.829 34.9187C202.829 36.7167 201.851 40.7619 208.019 40.7619" fill="#0F1011"/>
<path d="M209.853 49.7127C209.853 49.7127 208.099 49.3802 206.823 49.7127C206.823 49.7127 206.929 48.5459 208.338 48.5459C209.748 48.5459 209.853 49.7127 209.853 49.7127Z" fill="white"/>
<path d="M174.274 73.1259C174.274 73.1259 172.323 70.8052 170.247 70.4374C168.171 70.0696 168.689 71.2664 169.923 72.1592C171.156 73.052 173.938 74.8497 173.938 74.8497" fill="#FF9900"/>
<path d="M172.846 72.421C172.846 72.421 168.972 70.8425 167.312 71.5565C167.312 71.5565 165.865 72.9793 167.283 74.8485C168.644 76.6411 172.195 77.3068 172.195 77.3068L172.846 72.421Z" fill="#FF9900"/>
<path d="M195.236 191.359L202.157 190.534C201.845 187.91 201.493 184.757 201.469 184.24C201.469 184.273 201.469 184.301 201.469 184.322H194.5C194.502 184.531 194.502 185.168 195.236 191.359Z" fill="#FF9900"/>
<path d="M223.005 192.193L229.974 192.171C229.974 192.171 229.95 184.96 229.95 184.323H222.981C222.981 184.962 223.005 192.193 223.005 192.193Z" fill="#FF9900"/>
<path d="M204.942 189.154L192.665 188.944C193.175 175.988 193.262 161.169 193.399 147.759C193.437 144.436 193.688 141.118 194.149 137.826C196.125 123.619 197.413 109.495 200.072 95.3693L200.161 95.3956L200.421 93.6232L225.667 92.062L226.982 108.589C226.982 108.589 230.27 165.766 231.77 188.756L219.535 189.792C217.33 167.251 213.918 134.407 211.82 110.728C209.411 122.256 207.772 134.193 205.676 145.623C205.257 159.932 204.903 174.889 204.942 189.154Z" fill="black"/>
<path d="M214.533 194.894C214.345 194.893 214.16 194.854 213.989 194.778C213.817 194.702 213.663 194.592 213.536 194.453C213.409 194.315 213.312 194.152 213.251 193.975C213.189 193.797 213.165 193.609 213.18 193.422C213.2 193.162 213.294 192.914 213.45 192.706C213.607 192.498 213.819 192.339 214.062 192.248L222.174 189.526C222.331 189.474 222.497 189.456 222.662 189.475C222.826 189.493 222.985 189.547 223.127 189.633C224.242 190.408 225.576 190.804 226.933 190.763C227.989 190.688 229.004 190.316 229.86 189.691C229.935 189.63 230.026 189.591 230.123 189.579C230.219 189.567 230.317 189.583 230.405 189.625C230.493 189.667 230.567 189.733 230.619 189.815C230.671 189.897 230.699 189.993 230.698 190.09V194.065C230.698 194.182 230.675 194.298 230.63 194.406C230.586 194.515 230.52 194.613 230.437 194.696C230.354 194.778 230.256 194.844 230.147 194.889C230.039 194.933 229.923 194.956 229.806 194.955L214.533 194.894Z" fill="#C1D8ED"/>
<path d="M186.745 194.894C186.558 194.893 186.373 194.854 186.201 194.778C186.03 194.702 185.876 194.592 185.749 194.453C185.622 194.315 185.525 194.152 185.464 193.975C185.402 193.797 185.378 193.609 185.393 193.422C185.413 193.162 185.507 192.914 185.663 192.706C185.819 192.498 186.032 192.339 186.275 192.248L194.387 189.526C194.544 189.474 194.71 189.456 194.875 189.475C195.039 189.493 195.198 189.547 195.34 189.632C196.455 190.408 197.789 190.804 199.145 190.763C200.202 190.688 201.216 190.316 202.072 189.691C202.148 189.629 202.239 189.59 202.336 189.579C202.432 189.567 202.53 189.583 202.618 189.624C202.706 189.666 202.78 189.732 202.832 189.815C202.884 189.897 202.912 189.993 202.911 190.09V194.065C202.911 194.182 202.888 194.298 202.843 194.406C202.798 194.515 202.733 194.613 202.65 194.696C202.567 194.778 202.468 194.844 202.36 194.889C202.252 194.933 202.136 194.956 202.019 194.955L186.745 194.894Z" fill="#C1D8ED"/>
<path d="M191.345 84.6742C191.951 84.6742 192.546 84.516 193.072 84.2151C193.599 83.9142 194.037 83.481 194.346 82.9583L206.345 62.6097L200.344 59.0566L189.788 76.9579L173.105 71.2401L170.849 77.8471L190.216 84.4853C190.579 84.6103 190.961 84.6742 191.345 84.6742Z" fill="#2B65EC"/>
<path d="M198.783 94.7367C200.174 97.9389 227.496 99.269 227.861 93.636C228.093 90.0514 224.941 86.9223 224.941 79.9359C224.941 72.9495 231.355 64.0278 226.129 58.7905C224.612 57.2709 221.994 56.2899 218.801 56.2866C218.562 58.1521 207.259 58.1587 207.173 56.3298C206.741 56.3365 206.406 56.3431 206.197 56.3531C195.186 56.8286 200.025 69.3848 200.131 78.6091C200.259 89.4026 197.348 91.4377 198.783 94.7367Z" fill="#2B65EC"/>
<path d="M200.513 98.7441C200.831 98.4321 201.082 98.0587 201.252 97.6465C201.422 97.2343 201.506 96.7919 201.5 96.3461C201.493 95.9003 201.397 95.4604 201.216 95.0531C201.035 94.6458 200.773 94.2796 200.447 93.9766L169.276 65.0591C168.942 64.7503 168.548 64.5135 168.119 64.3633C167.69 64.2132 167.235 64.1529 166.782 64.1861C166.329 64.2194 165.887 64.3456 165.485 64.5569C165.082 64.7681 164.727 65.0599 164.442 65.4142C163.918 66.0934 163.67 66.946 163.747 67.8008C163.824 68.6557 164.221 69.4498 164.858 70.0237L195.987 98.8112C196.606 99.3839 197.421 99.6964 198.263 99.684C199.106 99.6716 199.911 99.3354 200.513 98.7447L200.513 98.7441Z" fill="#FF0000"/>
<path d="M199.395 63.9963C199.083 63.6779 198.711 63.426 198.299 63.2562C197.888 63.0863 197.446 63.0019 197.002 63.0081C196.557 63.0144 196.118 63.111 195.711 63.2923C195.305 63.4736 194.939 63.7358 194.637 64.0629L165.778 95.2971C165.469 95.6316 165.233 96.026 165.083 96.4558C164.933 96.8856 164.873 97.3417 164.906 97.7957C164.94 98.2498 165.065 98.6922 165.276 99.0955C165.487 99.4988 165.778 99.8544 166.132 100.14C166.81 100.665 167.66 100.914 168.514 100.837C169.367 100.76 170.159 100.363 170.732 99.7243L199.462 68.5333C200.033 67.913 200.345 67.0963 200.333 66.2521C200.321 65.4078 199.985 64.6007 199.396 63.9973L199.395 63.9963Z" fill="#FF0000"/>
<path d="M207.172 56.3299C207.258 58.1588 208.25 60.8489 211.313 61.0517C215.395 61.3211 218.561 58.1521 218.8 56.2866H218.79C214.771 56.2863 209.515 56.2929 207.172 56.3299Z" fill="#FF9900"/>
<path d="M197.891 81.9316C197.891 81.9316 198.66 77.5518 195.5 77.1897C193.506 76.9613 188.495 74.1847 187.544 76.5054C186.719 78.5188 191.505 80.9157 193.219 81.3603C194.753 81.7556 197.891 81.9316 197.891 81.9316Z" fill="#FF9900"/>
<path d="M196.577 77.5385C196.577 77.5385 192.506 75.3012 191.392 75.3534C190.405 75.3997 192.083 77.3114 192.083 77.3114L196.577 77.5385Z" fill="#FF9900"/>
<path d="M214.306 89.0975C215.005 89.0975 215.689 88.8947 216.275 88.5136C216.861 88.1325 217.325 87.5894 217.61 86.95L227.748 64.2052L221.141 61.248L212.308 81.0666L195.302 75.8367L193.178 82.7675L213.244 88.9389C213.588 89.0445 213.946 89.098 214.306 89.0975Z" fill="#2B65EC"/>
<path d="M165.332 72.2577C165.245 72.132 165.204 71.9804 165.215 71.8279C165.225 71.6754 165.287 71.531 165.39 71.4184C165.893 70.8734 166.827 70.0092 167.442 70.3287C168.318 70.784 170.071 72.4755 169.584 73.3547C169.097 74.2339 168.091 75.1989 167.44 74.9063C166.948 74.6852 165.894 73.0771 165.332 72.2577Z" fill="#FF9900"/>
<path d="M120.402 140.928H138.746C142.552 140.928 145.638 137.842 145.638 134.036C145.638 130.23 142.552 127.144 138.746 127.144H120.402C116.596 127.144 113.511 130.23 113.511 134.036C113.511 137.842 116.596 140.928 120.402 140.928Z" fill="#C1D8ED"/>
<path d="M82.4776 140.928H100.821C104.627 140.928 107.713 137.842 107.713 134.036C107.713 130.23 104.627 127.144 100.821 127.144H82.4776C78.6715 127.144 75.586 130.23 75.586 134.036C75.586 137.842 78.6715 140.928 82.4776 140.928Z" fill="#FF9900"/>
<path d="M87.4317 64.6766C87.4231 70.6827 89.7462 76.4567 93.9096 80.7776C97.0357 73.7779 103.344 68.9995 110.609 68.9995C117.88 68.9995 124.188 73.7845 127.314 80.7842C129.945 78.0456 131.865 74.7019 132.906 71.0464C133.946 67.3909 134.076 63.5354 133.283 59.8182C132.489 56.1009 130.798 52.6355 128.356 49.7261C125.915 46.8166 122.798 44.552 119.28 43.131C115.761 41.7099 111.948 41.1758 108.175 41.5756C104.403 41.9753 100.786 43.2967 97.6417 45.4238C94.4976 47.5508 91.9225 50.4185 90.1423 53.7753C88.3622 57.1321 87.4314 60.8753 87.4317 64.6766Z" fill="#C1D8ED"/>
<path d="M110.612 67.0693C115.681 67.0693 119.79 62.9521 119.79 57.8733C119.79 52.7944 115.681 48.6772 110.612 48.6772C105.544 48.6772 101.435 52.7944 101.435 57.8733C101.435 62.9521 105.544 67.0693 110.612 67.0693Z" fill="#F3F5FD"/>
<path d="M93.9092 80.7776C96.0712 83.0303 98.6648 84.8226 101.535 86.0471C104.404 87.2715 107.491 87.903 110.61 87.9036C113.729 87.9042 116.816 87.274 119.687 86.0507C122.557 84.8274 125.151 83.0361 127.314 80.7843C124.188 73.7846 117.879 68.9995 110.608 68.9995C103.344 68.9995 97.0353 73.7779 93.9092 80.7776Z" fill="#F3F5FD"/>
<path d="M75.5859 99.8989L145.638 99.8989V97.0961L75.5859 97.0961V99.8989Z" fill="#DEE8F5"/>
<path d="M75.5859 107.53L145.638 107.53V104.727L75.5859 104.727V107.53Z" fill="#DEE8F5"/>
<path d="M113.511 115.422H145.638V112.619H113.511V115.422Z" fill="#DEE8F5"/>
</g>
<defs>
<clipPath id="clip0_45_2029">
<rect width="252" height="195" fill="white"/>
</clipPath>
</defs>
</svg>
