<svg width="24" height="24" viewBox="0 0 24 24" fill="none" xmlns="http://www.w3.org/2000/svg">
<path d="M18 18.667H6C5.72667 18.667 5.5 18.4403 5.5 18.167C5.5 17.8937 5.72667 17.667 6 17.667H18C18.2733 17.667 18.5 17.8937 18.5 18.167C18.5 18.4403 18.2733 18.667 18 18.667Z" fill="black"/>
<path d="M16.6794 6.31994C15.3861 5.02661 14.1194 4.99328 12.7927 6.31994L11.9861 7.12661C11.9194 7.19328 11.8927 7.29994 11.9194 7.39328C12.4261 9.15994 13.8394 10.5733 15.6061 11.0799C15.6327 11.0866 15.6594 11.0933 15.6861 11.0933C15.7594 11.0933 15.8261 11.0666 15.8794 11.0133L16.6794 10.2066C17.3394 9.55328 17.6594 8.91994 17.6594 8.27994C17.6661 7.61994 17.3461 6.97994 16.6794 6.31994Z" fill="black"/>
<path d="M14.4075 11.6865C14.2142 11.5932 14.0275 11.4999 13.8475 11.3932C13.7009 11.3065 13.5609 11.2132 13.4209 11.1132C13.3075 11.0399 13.1742 10.9332 13.0475 10.8265C13.0342 10.8199 12.9875 10.7799 12.9342 10.7265C12.7142 10.5399 12.4675 10.2999 12.2475 10.0332C12.2275 10.0199 12.1942 9.9732 12.1475 9.9132C12.0809 9.8332 11.9675 9.69987 11.8675 9.54654C11.7875 9.44654 11.6942 9.29987 11.6075 9.1532C11.5009 8.9732 11.4075 8.7932 11.3142 8.60654C11.1918 8.34431 10.8477 8.26641 10.643 8.47103L6.8942 12.2199C6.80753 12.3065 6.72753 12.4732 6.70753 12.5865L6.34753 15.1399C6.28086 15.5932 6.40753 16.0199 6.68753 16.3065C6.92753 16.5399 7.26086 16.6665 7.62086 16.6665C7.70086 16.6665 7.78086 16.6599 7.86086 16.6465L10.4209 16.2865C10.5409 16.2665 10.7075 16.1865 10.7875 16.0999L14.5426 12.3448C14.7431 12.1443 14.6677 11.7993 14.4075 11.6865Z" fill="black"/>
</svg>
