<svg width="24" height="24" viewBox="0 0 24 24" fill="none" xmlns="http://www.w3.org/2000/svg">
<rect x="2" y="4" width="20" height="17" rx="4" fill="#2B65EC"/>
<mask id="path-2-inside-1_3402_2854" fill="white">
<path d="M2 8.5C2 5 4 3.5 7 3.5H17C20 3.5 22 5 22 8.5V15.5C22 19 20 20.5 17 20.5H7"/>
</mask>
<path d="M0.5 8.5C0.5 9.32843 1.17157 10 2 10C2.82843 10 3.5 9.32843 3.5 8.5H0.5ZM7 19C6.17157 19 5.5 19.6716 5.5 20.5C5.5 21.3284 6.17157 22 7 22V19ZM3.5 8.5C3.5 7.0359 3.91077 6.23696 4.39568 5.78669C4.90071 5.31773 5.72994 5 7 5V2C5.27006 2 3.59929 2.43227 2.35432 3.58831C1.08923 4.76304 0.5 6.4641 0.5 8.5H3.5ZM7 5H17V2H7V5ZM17 5C18.2701 5 19.0993 5.31773 19.6043 5.78669C20.0892 6.23696 20.5 7.0359 20.5 8.5H23.5C23.5 6.4641 22.9108 4.76304 21.6457 3.58831C20.4007 2.43227 18.7299 2 17 2V5ZM20.5 8.5V15.5H23.5V8.5H20.5ZM20.5 15.5C20.5 16.9641 20.0892 17.763 19.6043 18.2133C19.0993 18.6823 18.2701 19 17 19V22C18.7299 22 20.4007 21.5677 21.6457 20.4117C22.9108 19.237 23.5 17.5359 23.5 15.5H20.5ZM17 19H7V22H17V19Z" fill="#2B65EC" mask="url(#path-2-inside-1_3402_2854)"/>
<path d="M17 9L13.87 11.5C12.84 12.32 11.15 12.32 10.12 11.5L7 9" stroke="white" stroke-width="1.5" stroke-miterlimit="10" stroke-linecap="round" stroke-linejoin="round"/>
<path d="M2 16.5H8" stroke="white" stroke-width="1.5" stroke-miterlimit="10" stroke-linecap="round" stroke-linejoin="round"/>
<path d="M2 12.5H5" stroke="white" stroke-width="1.5" stroke-miterlimit="10" stroke-linecap="round" stroke-linejoin="round"/>
</svg>
