<svg width="108" height="108" viewBox="0 0 108 108" fill="none" xmlns="http://www.w3.org/2000/svg">
<path d="M50.625 11.8059C40.1625 11.8059 30.375 19.5816 30.375 31.8734V47.3312C30.375 48.2263 30.7304 49.0845 31.3634 49.7174C31.9963 50.3503 32.8549 50.7062 33.75 50.7062C34.6451 50.7062 35.5037 50.3503 36.1366 49.7174C36.7696 49.0845 37.125 48.2263 37.125 47.3312V31.8734C37.125 22.9499 43.227 18.5559 50.625 18.5559C58.7385 18.5559 64.125 23.4156 64.125 31.8734V47.3106C64.125 48.2057 64.4804 49.0643 65.1134 49.6972C65.7463 50.3301 66.6049 50.6856 67.5 50.6856C68.3951 50.6856 69.2537 50.3301 69.8866 49.6972C70.5196 49.0643 70.875 48.2057 70.875 47.3106V31.8734C70.875 20.1959 61.8232 11.8059 50.625 11.8059Z" fill="url(#paint0_linear_2_2315)"/>
<path d="M50.625 94.5C67.4007 94.5 81 80.9007 81 64.125C81 47.3493 67.4007 33.75 50.625 33.75C33.8493 33.75 20.25 47.3493 20.25 64.125C20.25 80.9007 33.8493 94.5 50.625 94.5Z" fill="url(#paint1_linear_2_2315)"/>
<path d="M50.625 54.0002C46.8855 54.0002 43.875 57.0107 43.875 60.7502C43.875 62.6199 44.6176 64.3142 45.8394 65.5359C46.2444 65.9409 46.7575 66.1907 47.257 66.4809V77.6184C47.257 78.5135 47.6124 79.372 48.2454 80.0049C48.8783 80.6379 49.7369 80.9934 50.632 80.9934C51.5271 80.9934 52.3853 80.6379 53.0182 80.0049C53.6512 79.372 54.007 78.5135 54.007 77.6184V66.4674C54.4863 66.1839 54.9992 65.9274 55.3975 65.5359C56.3482 64.593 56.9969 63.3886 57.2613 62.076C57.5256 60.7634 57.3935 59.4017 56.8819 58.1643C56.3702 56.9269 55.5022 55.8696 54.3881 55.1269C53.274 54.3842 51.964 53.9897 50.625 53.9934V54.0002Z" fill="url(#paint2_linear_2_2315)"/>
<defs>
<linearGradient id="paint0_linear_2_2315" x1="30.375" y1="31.2797" x2="70.875" y2="31.2797" gradientUnits="userSpaceOnUse">
<stop stop-color="#485960"/>
<stop offset="1" stop-color="#323E42"/>
</linearGradient>
<linearGradient id="paint1_linear_2_2315" x1="18.0246" y1="64.1194" x2="86.4933" y2="64.1194" gradientUnits="userSpaceOnUse">
<stop stop-color="#7D441C"/>
<stop offset="0.03" stop-color="#F7E683"/>
<stop offset="0.07" stop-color="#895422"/>
<stop offset="0.08" stop-color="#895422"/>
<stop offset="0.16" stop-color="#E8B75B"/>
<stop offset="0.31" stop-color="#F7E683"/>
<stop offset="0.72" stop-color="#E8B55B"/>
<stop offset="1" stop-color="#503010"/>
</linearGradient>
<linearGradient id="paint2_linear_2_2315" x1="43.875" y1="67.5204" x2="57.3752" y2="67.5204" gradientUnits="userSpaceOnUse">
<stop stop-color="#485960"/>
<stop offset="1" stop-color="#323E42"/>
</linearGradient>
</defs>
</svg>
