<svg width="24" height="24" viewBox="0 0 24 24" fill="none" xmlns="http://www.w3.org/2000/svg">
<path d="M21 22.7337C21 22.9989 20.8946 23.2533 20.7071 23.4408C20.5196 23.6283 20.2652 23.7337 20 23.7337H4C3.73478 23.7337 3.48043 23.6283 3.29289 23.4408C3.10536 23.2533 3 22.9989 3 22.7337V12.2227C2.99989 12.0703 3.03462 11.9199 3.10152 11.783C3.16841 11.6461 3.26572 11.5263 3.386 11.4327L11.386 5.21069C11.5615 5.07414 11.7776 5 12 5C12.2224 5 12.4385 5.07414 12.614 5.21069L20.614 11.4327C20.7343 11.5263 20.8316 11.6461 20.8985 11.783C20.9654 11.9199 21.0001 12.0703 21 12.2227V22.7337ZM11 15.7337V21.7337H13V15.7337H11Z" fill="#00B900"/>
</svg>
