<svg width="390" height="193" viewBox="0 0 390 193" fill="none" xmlns="http://www.w3.org/2000/svg">
<g clip-path="url(#clip0_57_2929)">
<path d="M173.104 93.3305C178.751 82.0653 174.199 68.3541 162.935 62.7063C151.672 57.0585 137.962 61.6115 132.315 72.8767L173.104 93.3305Z" fill="#FF4A4A"/>
<path d="M171.79 45.7475C171.79 45.7475 162.581 50.2885 155.914 44.8818C148.88 39.1775 152.342 34.7255 154.817 34.3204C162.139 33.1224 171.79 45.7475 171.79 45.7475Z" fill="#2B65EC"/>
<path d="M133.431 107.98L125.773 140.071L125.449 141.528L120.978 164.874L119.876 169.594L129.315 171.799L130.417 167.079L136.75 144.167L137.039 143.242L147.249 111.869L149.194 104.959L135.376 101.068L133.431 107.978V107.98Z" fill="#2B65EC"/>
<path d="M154.061 120.124L162.07 138.101L162.091 138.141L173.196 163.594L174.914 168.126L183.977 164.688L182.259 160.156L173.701 133.738L173.654 133.606L167.445 114.93L164.848 108.237L151.465 113.43L154.061 120.123V120.124Z" fill="#2B65EC"/>
<path d="M119.438 179.386L119.742 176.856L120.448 173.512L127.136 174.924L126.43 178.269L125.073 182.718L124.582 185.046L114.275 184.598L111.967 184.656L111.854 180.041L114.162 179.983L119.439 179.386H119.438Z" fill="#FF4A4A"/>
<path d="M110.419 187.687L123.861 188.024C124.27 188.035 124.61 187.71 124.621 187.302C124.632 186.893 124.307 186.552 123.899 186.541L110.457 186.204C110.047 186.194 109.707 186.518 109.697 186.927C109.686 187.335 110.01 187.676 110.419 187.686V187.687Z" fill="#2B65EC"/>
<path d="M119.344 176.597C119.897 176.804 120.496 176.864 121.049 177.063C121.435 177.2 121.859 176.997 121.996 176.613C122.134 176.227 121.933 175.801 121.547 175.665C121.001 175.469 120.409 175.41 119.862 175.207C119.478 175.063 119.051 175.258 118.908 175.643C118.765 176.025 118.961 176.453 119.344 176.596V176.597Z" fill="#2B65EC"/>
<path d="M118.837 179.254C119.391 179.55 119.925 179.888 120.486 180.172C120.851 180.357 121.297 180.211 121.482 179.846C121.668 179.48 121.521 179.034 121.156 178.849C120.605 178.57 120.081 178.237 119.536 177.947C119.176 177.752 118.726 177.889 118.533 178.251C118.34 178.611 118.476 179.061 118.837 179.254Z" fill="#2B65EC"/>
<path d="M184.826 175.441L190.13 175.186L192.417 174.873L193.043 179.447L190.756 179.759L183.011 181.529L180.655 181.852L177.744 175.46L176.512 172.271L182.887 169.805L184.12 172.993L184.826 175.441Z" fill="#FF4A4A"/>
<path d="M194.785 180.734L181.571 183.219C181.17 183.295 180.905 183.683 180.979 184.085C181.054 184.487 181.443 184.753 181.845 184.677L195.06 182.191C195.462 182.115 195.727 181.728 195.652 181.326C195.576 180.924 195.188 180.658 194.786 180.734H194.785Z" fill="#2B65EC"/>
<path d="M183.74 171.386C183.233 171.673 182.658 171.827 182.15 172.107C181.792 172.303 181.661 172.755 181.859 173.115C182.056 173.472 182.507 173.604 182.866 173.407C183.38 173.122 183.96 172.967 184.474 172.674C184.83 172.472 184.954 172.019 184.752 171.664C184.549 171.307 184.096 171.182 183.74 171.386Z" fill="#2B65EC"/>
<path d="M184.501 174.037C184.01 174.41 183.545 174.823 183.046 175.186C182.716 175.427 182.643 175.891 182.885 176.222C183.126 176.553 183.59 176.625 183.921 176.384C184.429 176.015 184.902 175.596 185.401 175.214C185.727 174.967 185.789 174.501 185.542 174.176C185.293 173.85 184.827 173.787 184.502 174.037H184.501Z" fill="#2B65EC"/>
<path d="M133.947 106.983L153.952 119.659L164.794 117.959L164.947 108.475L135.471 100.906L133.947 106.983Z" fill="#2B65EC"/>
<path d="M158.678 89.8669L147.508 84.3505C147.343 84.2691 147.244 84.0942 147.26 83.9106C147.276 83.7271 147.402 83.5707 147.579 83.5185L161.746 79.3229C161.984 79.2523 162.233 79.388 162.303 79.6259C162.374 79.8638 162.238 80.1125 162 80.1831L148.931 84.054L160.236 89.6366C160.407 89.7214 160.506 89.9049 160.482 90.095C160.458 90.2851 160.317 90.4382 160.13 90.4773L147.673 93.1111L157.877 98.0584C158.046 98.141 158.146 98.3191 158.128 98.507C158.109 98.6938 157.976 98.8502 157.793 98.8969L145.032 102.185C144.792 102.246 144.548 102.102 144.486 101.862C144.424 101.622 144.569 101.378 144.809 101.316L156.386 98.3332L146.103 93.3479C145.93 93.2643 145.83 93.0807 145.853 92.8896C145.876 92.6995 146.018 92.5453 146.205 92.5051L158.677 89.868L158.678 89.8669Z" fill="#2B65EC"/>
<path d="M133.339 63.6684C128.848 63.9312 125.714 62.9265 123.613 61.1692C121.67 59.5444 120.623 57.2842 120.183 54.8447C119.509 51.115 120.253 46.966 121.472 43.939C121.564 43.7098 121.453 43.4481 121.223 43.3558C120.994 43.2635 120.732 43.3742 120.64 43.6045C119.366 46.7684 118.597 51.1063 119.3 55.0044C119.777 57.6513 120.93 60.095 123.038 61.8578C125.276 63.7303 128.604 64.8446 133.391 64.5644C133.639 64.5503 133.827 64.3374 133.813 64.0909C133.799 63.8432 133.586 63.6542 133.339 63.6695V63.6684Z" fill="#2B65EC"/>
<path d="M121.701 39.1127C122.852 36.557 123.72 33.4008 123.183 30.5866C123.092 30.1109 122.859 29.1888 122.429 28.6164C122.047 28.1081 121.532 27.8409 120.877 28.069C120.476 28.208 120.159 28.4839 119.915 28.8336C119.597 29.2866 119.407 29.8655 119.292 30.3477C118.904 31.9823 118.705 33.6495 118.274 35.2754C118.211 35.5144 118.353 35.7609 118.592 35.8239C118.831 35.8869 119.076 35.7446 119.14 35.5057C119.574 33.8721 119.775 32.1973 120.164 30.5551C120.241 30.2304 120.355 29.8502 120.54 29.5222C120.691 29.254 120.885 29.0161 121.17 28.9162C121.405 28.8347 121.573 28.9727 121.71 29.1551C122.057 29.6178 122.228 30.3705 122.3 30.755C122.804 33.3943 121.961 36.3485 120.882 38.7445C120.78 38.9704 120.882 39.2354 121.107 39.3375C121.333 39.4396 121.598 39.3375 121.7 39.1127H121.701Z" fill="#2B65EC"/>
<path d="M119.272 39.6197C119.36 38.7073 119.453 37.7939 119.388 36.8772C119.322 35.9551 118.871 34.9939 118.237 34.3705C117.774 33.9154 117.215 33.6395 116.638 33.6363C116.024 33.633 115.365 33.9284 114.774 34.7311C114.26 35.4284 114.096 36.3537 114.177 37.3215C114.29 38.6802 114.882 40.1204 115.512 41.0273C115.757 41.3792 116.223 41.9136 116.736 42.2253C117.162 42.4838 117.622 42.5891 118.044 42.4479C118.278 42.3697 118.405 42.1156 118.327 41.881C118.249 41.6464 117.995 41.5193 117.76 41.5975C117.578 41.6583 117.387 41.5714 117.201 41.4585C116.799 41.2141 116.44 40.7916 116.249 40.5157C115.693 39.7153 115.17 38.4456 115.07 37.2465C115.008 36.508 115.104 35.7955 115.496 35.2633C115.865 34.7615 116.249 34.5312 116.633 34.5345C116.989 34.5366 117.323 34.73 117.608 35.0113C118.097 35.4913 118.443 36.2321 118.494 36.9435C118.556 37.8102 118.463 38.6726 118.38 39.5361C118.356 39.7826 118.538 40.002 118.784 40.0259C119.031 40.0498 119.25 39.8684 119.274 39.6229L119.272 39.6197Z" fill="#2B65EC"/>
<path d="M114.53 35.9596C114.207 35.725 113.872 35.473 113.499 35.3231C112.195 34.7974 110.969 35.864 110.663 37.0739C110.419 38.0351 110.873 40.026 111.798 41.2946C112.487 42.2384 113.419 42.7717 114.454 42.4296C114.688 42.3525 114.816 42.0983 114.739 41.8626C114.662 41.628 114.408 41.4999 114.172 41.577C113.514 41.7942 112.962 41.3652 112.523 40.7646C111.758 39.7175 111.332 38.0873 111.531 37.2933C111.714 36.571 112.384 35.8412 113.164 36.1551C113.469 36.2778 113.739 36.4928 114.003 36.6851C114.203 36.8306 114.484 36.7861 114.63 36.5863C114.775 36.3864 114.731 36.1051 114.531 35.9596H114.53Z" fill="#2B65EC"/>
<path d="M110.02 44.9742C109.022 48.0305 108.902 51.379 108.94 54.5646C108.993 59.0308 109.387 67.9793 116.247 74.3526C120.804 78.5863 128.224 81.7002 140.346 81.5569C140.593 81.5536 140.792 81.3505 140.789 81.1028C140.785 80.8552 140.582 80.6565 140.335 80.6597C128.534 80.7998 121.293 77.8173 116.857 73.6955C110.227 67.5351 109.888 58.87 109.837 54.5538C109.8 51.4648 109.905 48.2163 110.873 45.2523C110.95 45.0166 110.82 44.7635 110.586 44.6864C110.35 44.6093 110.097 44.7385 110.02 44.9731V44.9742Z" fill="#2B65EC"/>
<path d="M156.389 44.1066C153.565 47.5779 153.2 50.7124 154.233 52.9661C155.281 55.2491 157.788 56.6806 160.821 56.6861C161.842 56.6882 162.914 56.3646 163.85 55.9812C166.04 55.0862 167.363 53.5624 168.317 51.754C169.234 50.0184 169.805 48.0134 170.515 46.0769C170.6 45.8444 170.481 45.5859 170.249 45.5012C170.017 45.4165 169.758 45.536 169.674 45.7673C168.978 47.6658 168.423 49.6328 167.525 51.3348C166.664 52.9639 165.483 54.3444 163.511 55.1503C162.68 55.4902 161.73 55.7889 160.823 55.7878C158.178 55.7835 155.963 54.5833 155.049 52.5914C154.122 50.5701 154.553 47.7853 157.085 44.6725C157.242 44.4803 157.212 44.1979 157.02 44.0415C156.828 43.8851 156.546 43.9144 156.389 44.1066Z" fill="#2B65EC"/>
<path d="M171.999 45.7345C171.999 45.7345 165.088 40.2887 163.125 38.3446C157.31 32.5816 167.401 26.5493 170.69 34.6681C172.511 39.1635 171.982 42.8237 171.999 45.7345Z" fill="#2B65EC"/>
<path d="M167.764 51.2051C170.779 49.388 174.475 46.7455 175.71 43.4394C176.317 41.8156 175.673 39.5576 173.504 40.6578C171.803 41.5213 171.012 43.246 170.277 44.8513C169.498 46.5511 167.764 51.2051 167.764 51.2051Z" fill="#2B65EC"/>
<path d="M199.121 104.114C201.625 94.1495 198.795 84.3538 193.922 77.7491C188.547 70.4612 179.711 65.5389 170.891 66.7326C166.693 67.3006 163.508 70.6535 163.83 74.8948C164.152 79.1132 167.817 81.6048 171.999 82.1174C178.373 82.8995 181.484 83.0515 185.006 86.3533C188.994 90.0917 191.877 95.1867 191.795 100.61C191.79 100.861 191.992 101.068 192.243 101.072C192.494 101.076 192.701 100.875 192.706 100.624C192.792 94.9467 189.803 89.6008 185.63 85.6886C181.962 82.25 178.746 82.0262 172.109 81.2127C168.368 80.7544 165.026 78.5984 164.739 74.8252C164.453 71.0749 167.301 68.138 171.013 67.6351C179.511 66.4849 188.008 71.266 193.188 78.2889C197.92 84.7024 200.667 94.2146 198.234 103.89C198.174 104.135 198.322 104.382 198.566 104.444C198.81 104.506 199.058 104.357 199.12 104.114H199.121Z" fill="#2B65EC"/>
<path d="M191.345 107.377C190.809 107.59 190.255 107.819 189.691 107.981C188.8 108.237 187.886 108.325 186.976 107.996C185.554 107.48 185.137 105.574 185.949 104.423C186.426 103.748 187.324 103.373 188.065 103.125C189.221 102.738 190.514 102.434 191.731 102.281C191.981 102.249 192.209 102.427 192.24 102.676C192.272 102.926 192.095 103.154 191.845 103.186C190.686 103.331 189.455 103.622 188.353 103.989C187.782 104.181 187.062 104.428 186.694 104.948C186.198 105.651 186.419 106.824 187.287 107.138C188.008 107.4 188.732 107.306 189.439 107.104C190.23 106.877 191 106.512 191.728 106.256C191.901 106.195 192.03 106.233 192.123 106.282C192.215 106.331 192.291 106.407 192.339 106.518C192.366 106.582 192.389 106.676 192.376 106.795C192.367 106.879 192.313 107.022 192.304 107.1C192.288 107.247 192.266 107.393 192.241 107.538C192.159 108.016 192.051 108.489 191.916 108.953C191.821 109.28 191.717 109.602 191.621 109.929C191.426 110.6 191.128 111.778 191.236 112.77C191.294 113.311 191.469 113.8 191.936 114.037C192.075 114.108 192.236 114.07 192.386 114.011C192.596 113.929 192.791 113.785 192.924 113.647C193.306 113.248 193.551 112.69 193.754 112.106C193.979 111.459 194.146 110.779 194.343 110.205C194.472 109.827 194.572 109.44 194.692 109.058C194.7 109.033 194.771 108.75 194.795 108.692C194.908 108.429 195.134 108.411 195.198 108.409C195.332 108.402 195.431 108.439 195.506 108.485C195.614 108.552 195.69 108.649 195.727 108.78C195.753 108.874 195.756 109.021 195.7 109.189C195.662 109.304 195.573 109.454 195.557 109.55C195.489 109.952 195.455 110.367 195.426 110.774C195.381 111.428 195.28 112.176 195.352 112.873C195.414 113.466 195.605 114.021 196.145 114.402C196.27 114.49 196.394 114.465 196.505 114.404C196.635 114.334 196.752 114.222 196.855 114.108C197.489 113.41 197.549 112.291 197.681 111.373C197.736 110.985 197.794 110.59 197.801 110.194C197.803 110.041 197.795 109.889 197.801 109.734C197.806 109.652 197.807 109.436 197.813 109.406C197.881 109.077 198.149 109.044 198.238 109.04C198.279 109.038 198.645 109.018 198.715 109.435C198.875 110.402 198.886 111.578 199.151 112.613C199.381 113.513 199.814 114.301 200.827 114.644C201.312 114.809 201.642 114.491 201.878 114.085C202.19 113.546 202.344 112.829 202.363 112.335C202.459 109.978 201.777 107.384 200.102 105.663C199.858 105.412 199.51 104.993 199.137 104.68C198.953 104.526 198.772 104.39 198.593 104.365C198.344 104.33 198.171 104.099 198.205 103.85C198.24 103.602 198.471 103.428 198.72 103.463C199.043 103.508 199.393 103.706 199.723 103.983C200.12 104.316 200.496 104.762 200.755 105.028C202.601 106.924 203.38 109.775 203.275 112.373C203.243 113.116 202.955 114.259 202.392 114.94C201.933 115.489 201.317 115.774 200.534 115.509C199.264 115.08 198.646 114.149 198.323 113.041C198.173 113.668 197.942 114.267 197.531 114.722C197.038 115.263 196.328 115.648 195.62 115.148C194.845 114.602 194.535 113.821 194.446 112.968C194.442 112.931 194.438 112.892 194.435 112.852C194.217 113.395 193.946 113.896 193.581 114.278C193.323 114.55 192.918 114.823 192.5 114.932C192.166 115.019 191.826 115.006 191.523 114.853C190.776 114.475 190.423 113.736 190.329 112.871C190.207 111.755 190.525 110.429 190.746 109.675C190.841 109.348 190.946 109.026 191.04 108.699C191.166 108.269 191.266 107.83 191.342 107.386V107.378L191.345 107.377Z" fill="#2B65EC"/>
<path d="M111.17 37.8114C110.893 37.6843 110.54 37.6321 110.241 37.7038C108.868 38.033 108.396 39.4169 108.568 40.6748C108.715 41.7426 109.431 42.843 110.381 43.3362C110.787 43.547 111.218 43.611 111.649 43.7436C111.886 43.8164 112.137 43.6827 112.209 43.447C112.282 43.2102 112.149 42.9593 111.913 42.8865C111.534 42.7703 111.152 42.7268 110.794 42.5411C110.088 42.1739 109.566 41.3472 109.458 40.5531C109.346 39.7363 109.56 38.7901 110.45 38.5761C110.562 38.5489 110.692 38.5783 110.796 38.6261C111.02 38.7293 111.286 38.6304 111.391 38.4056C111.494 38.1807 111.395 37.9146 111.17 37.8103V37.8114Z" fill="#2B65EC"/>
<path d="M178.308 33.8697C179.729 32.0718 181.49 30.4359 182.664 28.4589C182.79 28.2459 182.72 27.9711 182.507 27.844C182.294 27.7169 182.02 27.7875 181.893 28.0004C180.739 29.9438 179.002 31.5461 177.605 33.3124C177.452 33.5068 177.485 33.7893 177.679 33.9424C177.873 34.0956 178.156 34.063 178.309 33.8686L178.308 33.8697Z" fill="#2B65EC"/>
<path d="M182.105 39.6029C185.51 38.5242 188.957 37.1718 192.415 36.319C192.655 36.2604 192.803 36.0171 192.743 35.7759C192.684 35.5358 192.441 35.3881 192.2 35.4478C188.723 36.3049 185.257 37.6628 181.834 38.7469C181.598 38.8218 181.467 39.0739 181.542 39.3096C181.617 39.5453 181.868 39.6768 182.104 39.6018L182.105 39.6029Z" fill="#2B65EC"/>
<path d="M181.773 46.0506C184.187 46.4971 186.723 47.1423 189.094 47.7496C189.334 47.8104 189.578 47.6659 189.639 47.4258C189.701 47.1858 189.555 46.9414 189.316 46.8805C186.926 46.2679 184.37 45.6183 181.936 45.1685C181.693 45.124 181.458 45.2848 181.414 45.5281C181.369 45.7714 181.53 46.0061 181.773 46.0506Z" fill="#2B65EC"/>
<path d="M365.904 89.1458C367.322 74.2572 356.401 61.0392 341.515 59.6218C326.628 58.2044 313.412 69.1253 311.995 84.0149L365.904 89.1458Z" fill="#FFC700"/>
<path d="M341.892 44.5059C341.892 44.5059 334.446 50.5773 327.233 47.0442C319.624 43.3166 321.848 38.5312 324.02 37.6438C330.446 35.0165 341.892 44.507 341.892 44.507V44.5059Z" fill="#2B65EC"/>
<path d="M319.491 109.272L319.317 140.106L319.332 141.597L320.206 163.785L320.188 168.632L329.882 168.666L329.899 163.819L330.932 141.639L331.01 140.674L333.829 109.968L334.178 102.798L319.84 102.101L319.491 109.271V109.272Z" fill="#2B65EC"/>
<path d="M338.859 116.314L348.517 134.643C348.905 135.38 349.233 136.146 349.291 136.96C349.351 137.804 349.342 138.669 349.051 139.483L341.812 159.718L339.977 164.205L348.949 167.875L350.783 163.388L359.798 143.88C360.855 141.59 361.298 139.114 361.344 136.645C361.391 134.146 360.812 131.667 359.828 129.311L351.843 110.194L348.784 103.7L335.798 109.819L338.857 116.313L338.859 116.314Z" fill="#2B65EC"/>
<path d="M321.934 177.232L321.68 174.977L321.619 171.559L328.454 171.438L328.515 174.856L328.183 179.197L328.225 181.575L318.573 183.322L316.337 183.893L315.193 179.422L317.429 178.849L321.935 177.232H321.934Z" fill="#FFC700"/>
<path d="M315.677 186.853L328.005 184.34C328.406 184.26 328.665 183.867 328.584 183.467C328.502 183.065 328.11 182.806 327.71 182.888L315.382 185.4C314.981 185.481 314.722 185.873 314.803 186.274C314.884 186.675 315.276 186.934 315.677 186.853Z" fill="#2B65EC"/>
<path d="M321.477 174.868C322.026 174.939 322.583 174.87 323.129 174.934C323.536 174.982 323.905 174.691 323.953 174.284C324 173.876 323.709 173.509 323.303 173.461C322.763 173.398 322.212 173.469 321.671 173.396C321.265 173.343 320.893 173.628 320.839 174.036C320.786 174.441 321.073 174.814 321.478 174.868H321.477Z" fill="#2B65EC"/>
<path d="M321.564 177.395C322.131 177.55 322.69 177.746 323.261 177.887C323.659 177.985 324.06 177.744 324.159 177.348C324.258 176.949 324.016 176.548 323.618 176.448C323.058 176.31 322.51 176.118 321.953 175.966C321.558 175.859 321.15 176.092 321.043 176.486C320.935 176.883 321.169 177.29 321.564 177.396V177.395Z" fill="#2B65EC"/>
<path d="M344.74 176.194L348.533 179.114L350.487 180.344L348.028 184.251L346.075 183.022L339.435 179.669L337.422 178.402L339.204 171.916L340.308 168.681L346.777 170.891L345.673 174.126L344.741 176.195L344.74 176.194Z" fill="#FFC700"/>
<path d="M348.479 185.975L337.512 179.807C337.156 179.606 336.703 179.733 336.503 180.091C336.302 180.448 336.429 180.901 336.786 181.1L347.752 187.268C348.108 187.469 348.561 187.342 348.762 186.984C348.963 186.627 348.836 186.174 348.479 185.975Z" fill="#2B65EC"/>
<path d="M346.167 172.624C345.63 172.527 345.127 172.29 344.593 172.186C344.191 172.107 343.801 172.367 343.722 172.77C343.643 173.172 343.905 173.562 344.307 173.642C344.846 173.748 345.356 173.984 345.9 174.085C346.303 174.157 346.69 173.889 346.763 173.489C346.837 173.086 346.569 172.699 346.166 172.625L346.167 172.624Z" fill="#2B65EC"/>
<path d="M345.11 174.981C344.533 174.955 343.953 174.971 343.377 174.93C342.969 174.903 342.615 175.212 342.587 175.621C342.559 176.029 342.868 176.383 343.276 176.411C343.863 176.452 344.455 176.436 345.042 176.463C345.45 176.483 345.798 176.165 345.816 175.756C345.835 175.348 345.517 175.001 345.109 174.981H345.11Z" fill="#2B65EC"/>
<path d="M320.214 108.278L341.112 115.645L350.644 111.823L348.796 103.142L320.33 102.418L320.214 108.279V108.278Z" fill="#2B65EC"/>
<path d="M327.478 46.2256C325.623 49.9966 325.951 52.9411 327.372 54.7864C328.812 56.6567 331.408 57.442 334.187 56.8077C335.121 56.5948 336.036 56.0735 336.811 55.5261C338.627 54.2466 339.517 52.5751 340.011 50.7189C340.484 48.942 340.585 46.9935 340.827 45.0776C340.858 44.8321 340.683 44.6073 340.438 44.5769C340.193 44.5454 339.968 44.7203 339.937 44.9657C339.701 46.8415 339.607 48.7498 339.145 50.4887C338.704 52.1482 337.919 53.6493 336.295 54.794C335.611 55.2763 334.812 55.7466 333.988 55.9344C331.587 56.4819 329.328 55.8563 328.083 54.2401C326.819 52.5979 326.632 49.9793 328.284 46.6221C328.394 46.3994 328.301 46.1311 328.08 46.0214C327.857 45.9117 327.589 46.0041 327.479 46.2256H327.478Z" fill="#2B65EC"/>
<path d="M342.08 44.4506C342.08 44.4506 334.637 40.9327 332.44 39.5707C325.93 35.5347 333.868 27.9188 338.568 34.6332C341.17 38.351 341.456 41.7994 342.08 44.4506Z" fill="#2B65EC"/>
<path d="M339.362 50.3267C341.732 48.0372 344.548 44.8538 344.981 41.5791C345.194 39.9716 344.134 38.047 342.388 39.5046C341.018 40.6483 340.657 42.3872 340.322 44.0044C339.968 45.7183 339.362 50.3256 339.362 50.3256V50.3267Z" fill="#2B65EC"/>
<path d="M363.632 105.818C370.413 98.9903 372.816 89.7485 372.051 82.099C371.205 73.6566 366.439 65.4662 358.764 62.2089C355.1 60.6547 350.92 61.8353 349.147 65.4173C347.384 68.9776 349.146 72.7475 352.277 75.1674C357.026 78.8363 359.454 80.4405 360.71 84.7752C362.13 89.6801 362.018 95.1476 359.367 99.4649C359.235 99.6789 359.302 99.9602 359.516 100.092C359.73 100.223 360.012 100.157 360.143 99.9417C362.927 95.4083 363.077 89.6703 361.585 84.521C360.274 79.9963 357.792 78.2758 352.834 74.4462C350.055 72.2989 348.398 68.983 349.963 65.8224C351.518 62.6824 355.195 61.6865 358.408 63.0495C365.786 66.1797 370.33 74.0769 371.144 82.1902C371.887 89.603 369.557 98.5591 362.986 105.176C362.809 105.354 362.81 105.643 362.988 105.821C363.166 105.999 363.455 105.997 363.632 105.818Z" fill="#2B65EC"/>
<path d="M302.075 111.351C311.288 109.857 318.018 104.246 321.258 98.1507C322.725 95.3908 323.614 92.3139 323.818 89.1978C323.835 88.9469 323.645 88.7297 323.394 88.7134C323.143 88.6971 322.926 88.8872 322.909 89.1381C322.714 92.126 321.86 95.0769 320.454 97.7227C317.327 103.606 310.823 109.009 301.93 110.452C301.681 110.492 301.513 110.727 301.553 110.974C301.593 111.222 301.828 111.392 302.075 111.351Z" fill="#2B65EC"/>
<path d="M312.968 87.601C310.82 94.1286 307.035 100.367 301.938 103.728C301.729 103.867 301.67 104.149 301.809 104.359C301.948 104.568 302.23 104.627 302.44 104.488C307.693 101.024 311.621 94.613 313.834 87.8856C313.912 87.6466 313.783 87.3892 313.544 87.3099C313.305 87.2317 313.048 87.361 312.968 87.601Z" fill="#2B65EC"/>
<path d="M355.741 104.729C355.223 104.646 354.686 104.567 354.171 104.432C353.326 104.211 352.543 103.843 351.964 103.138C351.054 102.029 351.635 100.272 352.855 99.7274C353.565 99.4103 354.475 99.5363 355.195 99.6916C356.311 99.9338 357.499 100.307 358.553 100.766C358.783 100.866 358.889 101.135 358.788 101.365C358.688 101.596 358.419 101.702 358.189 101.601C357.189 101.165 356.062 100.811 355.002 100.581C354.456 100.463 353.766 100.317 353.226 100.558C352.507 100.879 352.133 101.905 352.668 102.558C353.12 103.109 353.741 103.376 354.401 103.549C355.145 103.744 355.939 103.818 356.646 103.959C356.826 103.995 356.916 104.094 356.971 104.183C357.025 104.272 357.051 104.375 357.036 104.494C357.027 104.563 356.999 104.655 356.928 104.75C356.881 104.813 356.769 104.903 356.724 104.961C356.64 105.072 356.552 105.18 356.463 105.285C356.168 105.632 355.854 105.962 355.524 106.27C355.292 106.487 355.053 106.698 354.82 106.915C354.345 107.36 353.545 108.161 353.16 109.007C352.954 109.461 352.859 109.93 353.116 110.334C353.19 110.45 353.33 110.491 353.47 110.514C353.675 110.547 353.895 110.527 354.066 110.479C354.56 110.343 355.019 110.011 355.458 109.64C355.948 109.227 356.407 108.76 356.839 108.394C357.124 108.151 357.389 107.887 357.668 107.639C357.686 107.622 357.881 107.427 357.928 107.392C358.16 107.224 358.363 107.324 358.419 107.354C358.536 107.416 358.602 107.498 358.642 107.575C358.7 107.688 358.717 107.808 358.682 107.94C358.661 108.018 358.614 108.113 358.526 108.205C358.44 108.294 358.247 108.4 358.172 108.489C357.926 108.779 357.701 109.095 357.484 109.41C357.137 109.913 356.699 110.465 356.425 111.059C356.195 111.557 356.084 112.089 356.333 112.642C356.386 112.762 356.488 112.796 356.595 112.799C356.731 112.804 356.875 112.772 357.01 112.73C357.847 112.474 358.426 111.604 358.965 110.933C359.195 110.649 359.429 110.358 359.623 110.046C359.699 109.923 359.765 109.796 359.843 109.675C359.886 109.61 359.993 109.434 360.012 109.412C360.238 109.165 360.486 109.273 360.564 109.315C360.6 109.334 360.926 109.506 360.772 109.898C360.44 110.75 359.887 111.703 359.607 112.661C359.366 113.485 359.336 114.317 359.98 115.068C360.282 115.42 360.686 115.321 361.057 115.113C361.561 114.831 362.023 114.331 362.273 113.947C363.471 112.104 364.161 109.7 363.636 107.522C363.559 107.205 363.48 106.701 363.33 106.273C363.258 106.067 363.181 105.876 363.053 105.773C362.856 105.615 362.825 105.329 362.982 105.132C363.14 104.935 363.427 104.904 363.623 105.061C363.864 105.255 364.056 105.586 364.191 105.973C364.352 106.432 364.441 106.97 364.523 107.31C365.105 109.725 364.368 112.399 363.039 114.444C362.657 115.034 361.873 115.819 361.088 116.098C360.446 116.328 359.803 116.259 359.29 115.661C358.493 114.73 358.417 113.716 358.658 112.696C358.254 113.1 357.802 113.441 357.281 113.6C356.612 113.806 355.842 113.77 355.504 113.015C355.14 112.198 355.261 111.417 355.598 110.684C355.188 110.986 354.761 111.235 354.314 111.359C353.972 111.453 353.51 111.481 353.116 111.368C352.799 111.277 352.527 111.099 352.352 110.825C351.926 110.155 351.994 109.383 352.336 108.631C352.772 107.672 353.664 106.754 354.203 106.251C354.436 106.033 354.675 105.823 354.907 105.606C355.201 105.331 355.482 105.037 355.746 104.729H355.741Z" fill="#2B65EC"/>
<path d="M296.08 106.127C295.691 105.775 295.284 105.415 294.927 105.021C294.339 104.374 293.886 103.639 293.786 102.732C293.628 101.306 295.075 100.151 296.394 100.361C297.163 100.483 297.857 101.085 298.374 101.609C299.177 102.421 299.968 103.383 300.6 104.342C300.738 104.552 300.68 104.835 300.471 104.973C300.261 105.111 299.978 105.054 299.84 104.844C299.239 103.934 298.488 103.021 297.726 102.249C297.333 101.852 296.834 101.353 296.251 101.261C295.473 101.137 294.599 101.792 294.691 102.632C294.77 103.339 295.144 103.904 295.602 104.409C296.119 104.978 296.744 105.473 297.26 105.978C297.391 106.106 297.413 106.239 297.409 106.343C297.406 106.447 297.373 106.548 297.294 106.639C297.25 106.692 297.175 106.754 297.065 106.794C296.991 106.821 296.848 106.835 296.78 106.86C296.649 106.907 296.517 106.949 296.384 106.989C295.948 107.118 295.505 107.224 295.059 107.302C294.746 107.357 294.432 107.403 294.118 107.458C293.477 107.57 292.37 107.806 291.585 108.304C291.164 108.572 290.83 108.913 290.824 109.393C290.824 109.53 290.918 109.641 291.024 109.736C291.177 109.876 291.373 109.979 291.542 110.031C292.03 110.187 292.597 110.161 293.166 110.089C293.802 110.01 294.442 109.87 295.003 109.798C295.373 109.75 295.74 109.674 296.11 109.618C296.133 109.614 296.404 109.556 296.463 109.554C296.748 109.539 296.863 109.734 296.895 109.789C296.959 109.905 296.97 110.009 296.961 110.095C296.949 110.221 296.896 110.332 296.796 110.422C296.735 110.477 296.644 110.531 296.52 110.559C296.4 110.588 296.179 110.571 296.068 110.605C295.705 110.715 295.343 110.856 294.989 111C294.423 111.232 293.755 111.455 293.202 111.803C292.738 112.095 292.354 112.48 292.26 113.079C292.239 113.208 292.307 113.292 292.395 113.353C292.506 113.431 292.644 113.483 292.78 113.522C293.622 113.764 294.581 113.352 295.399 113.084C295.747 112.972 296.101 112.856 296.434 112.7C296.565 112.639 296.689 112.568 296.821 112.51C296.893 112.478 297.078 112.389 297.106 112.382C297.431 112.297 297.579 112.523 297.622 112.601C297.642 112.637 297.821 112.959 297.478 113.204C296.734 113.737 295.751 114.233 294.993 114.882C294.342 115.44 293.862 116.121 293.991 117.102C294.051 117.561 294.444 117.699 294.868 117.729C295.444 117.768 296.105 117.602 296.524 117.416C298.535 116.526 300.424 114.889 301.173 112.778C301.283 112.471 301.491 112.005 301.599 111.564C301.651 111.352 301.691 111.15 301.64 110.994C301.562 110.755 301.691 110.497 301.93 110.418C302.169 110.34 302.427 110.469 302.506 110.708C302.603 111.001 302.582 111.385 302.484 111.782C302.368 112.255 302.15 112.754 302.032 113.083C301.201 115.425 299.124 117.263 296.893 118.25C296.251 118.535 295.165 118.766 294.355 118.572C293.691 118.413 293.189 118.004 293.086 117.223C292.927 116.007 293.416 115.116 294.175 114.393C293.616 114.512 293.052 114.55 292.527 114.4C291.855 114.206 291.229 113.756 291.359 112.939C291.499 112.056 292.027 111.468 292.709 111.037C292.202 111.066 291.707 111.04 291.266 110.901C290.928 110.794 290.524 110.565 290.257 110.255C290.041 110.005 289.91 109.707 289.914 109.382C289.924 108.589 290.402 107.978 291.098 107.536C291.987 106.971 293.236 106.687 293.963 106.56C294.276 106.505 294.59 106.459 294.904 106.404C295.301 106.334 295.696 106.241 296.085 106.128L296.08 106.127Z" fill="#2B65EC"/>
<path d="M345.373 32.3201C346.293 30.3824 347.556 28.5208 348.213 26.4702C348.288 26.2345 348.159 25.9815 347.923 25.9065C347.687 25.8316 347.434 25.9608 347.359 26.1965C346.715 28.2091 345.466 30.0327 344.564 31.9345C344.458 32.1582 344.553 32.4254 344.777 32.5319C345.001 32.6383 345.268 32.5427 345.374 32.319L345.373 32.3201Z" fill="#2B65EC"/>
<path d="M350.025 36.7664C352.903 35.0686 355.763 33.1143 358.738 31.612C358.959 31.5001 359.048 31.2307 358.936 31.0091C358.824 30.7886 358.555 30.6995 358.333 30.8103C355.341 32.3214 352.465 34.2865 349.569 35.993C349.357 36.119 349.285 36.3939 349.411 36.6079C349.537 36.8208 349.812 36.8925 350.024 36.7664H350.025Z" fill="#2B65EC"/>
<path d="M351.061 42.7194C353.355 42.6206 355.801 42.6771 358.091 42.7346C358.338 42.7411 358.543 42.5445 358.55 42.2979C358.556 42.0503 358.36 41.8439 358.113 41.8384C355.805 41.7809 353.336 41.7244 351.023 41.8243C350.776 41.8352 350.583 42.0448 350.594 42.2914C350.605 42.5391 350.815 42.7303 351.061 42.7205V42.7194Z" fill="#2B65EC"/>
<path d="M337.563 83.8455C338.052 84.1789 338.331 84.7024 338.426 85.2835C338.578 86.211 338.27 87.2852 337.553 88.0553C335.879 89.856 333.082 90.0016 331.956 87.9184C331.536 87.1407 331.33 86.2382 331.345 85.2737C331.363 84.079 331.629 83.096 332.254 82.0588C333.774 79.5357 335.636 78.341 337.523 78.1488C339.276 77.9696 341.032 78.6516 342.514 79.8724C344.787 81.7449 346.418 84.8816 346.426 88.2453C346.442 93.9855 342.009 97.3448 337.446 98.0237C334.42 98.4733 331.324 97.7554 329.434 95.7298C329.269 95.5527 328.99 95.543 328.813 95.7081C328.636 95.8731 328.626 96.1512 328.792 96.3282C330.866 98.5515 334.252 99.3857 337.575 98.8915C342.533 98.154 347.322 94.4786 347.305 88.2421C347.295 84.6058 345.529 81.2171 343.072 79.1936C341.401 77.8164 339.411 77.0724 337.433 77.2744C335.32 77.4906 333.202 78.7809 331.5 81.6048C330.79 82.7843 330.486 83.9019 330.465 85.2607C330.449 86.3826 330.692 87.4307 331.182 88.3366C332.595 90.9487 336.095 90.9118 338.195 88.6537C339.733 86.9996 339.732 84.2615 338.057 83.1189C337.857 82.982 337.583 83.0341 337.447 83.234C337.31 83.4349 337.362 83.7075 337.562 83.8444L337.563 83.8455Z" fill="#2B65EC"/>
<path d="M403.189 104.096L390.084 128.538C388.752 131.022 387.934 133.71 387.845 136.453C387.757 139.164 388.181 141.909 389.335 144.443L397.961 163.389L399.795 167.876L408.767 164.206L406.932 159.719L399.811 140.157C399.475 139.232 399.462 138.247 399.568 137.294C399.67 136.374 400.077 135.515 400.591 134.715L415.564 111.371L419.201 105.182L406.825 97.9082L403.189 104.097V104.096Z" fill="#2B65EC"/>
<path d="M405.954 72.1596C404.577 77.1601 402.76 86.2074 401.525 88.3058C400.047 90.8137 390.852 99.671 387.718 101.445C387.505 101.564 387.432 101.832 387.551 102.043C387.671 102.254 387.937 102.329 388.148 102.209C391.36 100.393 400.769 91.3187 402.281 88.7511C403.537 86.6234 405.406 77.4609 406.802 72.392C406.869 72.1585 406.731 71.9163 406.495 71.8522C406.263 71.7881 406.022 71.925 405.955 72.1596H405.954Z" fill="#2B65EC"/>
<path d="M383.373 98.3593C383.551 98.2594 383.775 98.2181 384.036 98.2518C384.319 98.2887 384.668 98.4201 385.039 98.6254C385.932 99.1207 387.006 100.053 387.645 100.788C387.954 101.143 388.165 101.465 388.241 101.683C388.318 101.911 388.201 102.163 387.97 102.242C387.739 102.321 387.489 102.201 387.408 101.973C387.358 101.823 387.194 101.611 386.98 101.365C386.399 100.696 385.426 99.8451 384.612 99.3944C384.394 99.2727 384.186 99.1804 384.006 99.138C383.922 99.1185 383.854 99.0924 383.803 99.1239L383.756 99.15C383.586 99.226 383.572 99.3846 383.605 99.5627C383.649 99.7865 383.758 100.033 383.907 100.287C384.336 101.025 385.063 101.796 385.575 102.163C385.664 102.227 385.789 102.291 385.83 102.313C385.999 102.304 386.162 102.392 386.242 102.545C386.335 102.723 386.296 102.944 386.146 103.078C385.773 103.414 384.959 103.711 384.027 103.959C382.79 104.291 381.333 104.559 380.697 104.881C380.54 104.964 380.317 105.096 380.163 105.26C380.128 105.296 380.098 105.333 380.073 105.372C380.062 105.395 380.037 105.414 380.048 105.438C380.078 105.499 380.165 105.523 380.245 105.558C380.401 105.624 380.574 105.666 380.721 105.686C381.695 105.83 384.334 105.436 385.175 105.177C385.54 105.066 385.894 104.977 386.288 104.919C386.377 104.906 386.467 104.891 386.554 104.874C386.6 104.865 386.7 104.836 386.738 104.834C386.795 104.829 386.842 104.837 386.879 104.845C387.11 104.9 387.196 105.057 387.216 105.224C387.224 105.297 387.229 105.424 387.113 105.564C386.816 105.914 386.165 106.34 385.431 106.767C384.444 107.336 383.295 107.917 382.856 108.361C382.771 108.447 382.676 108.549 382.614 108.663C382.578 108.725 382.534 108.791 382.59 108.856C382.636 108.909 382.714 108.923 382.798 108.938C382.968 108.967 383.17 108.963 383.39 108.938C384.594 108.807 386.292 108.105 386.766 107.912C387.034 107.802 387.29 107.674 387.552 107.557C387.657 107.511 387.684 107.497 387.77 107.448C387.827 107.415 387.962 107.327 387.988 107.319C388.136 107.27 388.244 107.307 388.31 107.335C388.423 107.386 388.499 107.469 388.541 107.582C388.559 107.631 388.634 107.797 388.479 108.005C388.01 108.642 387.018 109.563 386.267 110.491C385.957 110.879 385.679 111.262 385.531 111.625C385.594 111.607 385.657 111.586 385.716 111.561C387.063 111.026 389.782 109.191 392.789 105.497C392.883 105.382 393.159 105.162 393.575 104.883C394.424 104.313 395.9 103.42 397.39 102.514C398.862 101.617 400.345 100.707 401.218 100.089C401.549 99.8581 401.786 99.6811 401.876 99.5649C402.025 99.3748 402.303 99.3412 402.492 99.491C402.684 99.6409 402.716 99.9168 402.566 100.108C402.449 100.26 402.153 100.507 401.727 100.808C400.837 101.434 399.337 102.356 397.843 103.264C396.368 104.162 394.904 105.048 394.063 105.612C393.755 105.819 393.54 105.966 393.469 106.052C389.849 110.502 386.579 112.34 385.463 112.557C384.749 112.696 384.505 112.303 384.543 111.951C384.608 111.341 385.023 110.632 385.583 109.941C385.839 109.62 386.129 109.301 386.415 108.995C385.625 109.294 384.415 109.708 383.485 109.81C383.101 109.852 382.758 109.84 382.489 109.766C382.247 109.698 382.054 109.581 381.92 109.421C381.632 109.083 381.63 108.724 381.771 108.386C381.87 108.145 382.058 107.916 382.231 107.741C382.628 107.337 383.554 106.816 384.473 106.297L384.651 106.197C383.412 106.439 381.437 106.674 380.591 106.55C380.336 106.512 380.013 106.427 379.759 106.292C379.523 106.168 379.347 106 379.256 105.81C379.094 105.47 379.163 105.126 379.385 104.817C379.611 104.508 380.015 104.238 380.303 104.093C380.971 103.753 382.497 103.453 383.804 103.105C384.214 102.995 384.603 102.885 384.921 102.764C384.347 102.312 383.6 101.501 383.15 100.724C382.888 100.275 382.728 99.8332 382.714 99.465C382.693 98.9762 382.885 98.583 383.373 98.355V98.3593Z" fill="#2B65EC"/>
<path d="M98.9398 116.699C98.4609 116.823 97.9668 116.957 97.4694 117.034C96.6484 117.161 95.8198 117.137 95.0217 116.742C93.7587 116.116 93.5295 114.35 94.3505 113.409C94.8305 112.858 95.6754 112.617 96.3672 112.48C97.4292 112.269 98.6086 112.145 99.7087 112.146C99.9606 112.146 100.164 112.351 100.164 112.603C100.164 112.855 99.9584 113.058 99.7076 113.058C98.6661 113.057 97.5498 113.174 96.5453 113.374C96.0359 113.475 95.392 113.602 95.0379 114.008C94.5656 114.55 94.7002 115.564 95.4267 115.925C96.0468 116.232 96.693 116.232 97.3304 116.134C98.0504 116.023 98.7617 115.787 99.4285 115.644C99.6001 115.607 99.7206 115.656 99.8064 115.714C99.89 115.771 99.9541 115.849 99.991 115.958C100.014 116.024 100.028 116.118 100.006 116.232C99.9932 116.302 99.9269 116.483 99.9193 116.504C99.8944 116.629 99.8661 116.753 99.8357 116.875C99.7293 117.29 99.6001 117.697 99.448 118.092C99.3405 118.369 99.2265 118.641 99.119 118.918C98.9018 119.48 98.5586 120.473 98.589 121.348C98.6053 121.821 98.7259 122.262 99.119 122.516C99.2298 122.588 99.3655 122.572 99.4937 122.541C99.6761 122.494 99.8498 122.396 99.9715 122.295C100.331 121.994 100.58 121.54 100.795 121.061C101.038 120.516 101.234 119.937 101.447 119.455C101.586 119.141 101.7 118.815 101.832 118.497C101.841 118.471 101.932 118.215 101.957 118.169C102.097 117.911 102.33 117.919 102.399 117.925C102.525 117.934 102.615 117.979 102.682 118.031C102.78 118.106 102.844 118.206 102.869 118.332C102.885 118.412 102.885 118.519 102.846 118.638C102.81 118.748 102.691 118.911 102.665 119.016C102.578 119.359 102.519 119.718 102.467 120.071C102.383 120.638 102.243 121.281 102.261 121.898C102.276 122.418 102.409 122.919 102.857 123.307C102.95 123.388 103.049 123.386 103.139 123.349C103.253 123.303 103.358 123.223 103.452 123.139C103.729 122.895 103.895 122.549 104.02 122.181C104.167 121.75 104.253 121.286 104.348 120.868C104.423 120.535 104.501 120.198 104.533 119.852C104.546 119.718 104.548 119.582 104.563 119.447C104.572 119.372 104.59 119.176 104.598 119.15C104.694 118.816 104.976 118.813 105.07 118.821C105.109 118.823 105.456 118.842 105.493 119.249C105.571 120.113 105.501 121.148 105.668 122.088C105.813 122.897 106.143 123.63 107.016 124.042C107.408 124.226 107.705 124.003 107.925 123.694C108.232 123.265 108.414 122.668 108.464 122.244C108.707 120.194 108.273 117.846 106.899 116.155C106.698 115.908 106.414 115.5 106.104 115.183C105.953 115.03 105.804 114.891 105.649 114.85C105.406 114.785 105.261 114.535 105.325 114.293C105.39 114.049 105.64 113.905 105.882 113.969C106.17 114.045 106.474 114.26 106.753 114.544C107.086 114.882 107.391 115.315 107.606 115.58C109.135 117.462 109.639 120.069 109.368 122.352C109.29 123.017 108.946 124.009 108.384 124.554C107.923 125.003 107.334 125.197 106.628 124.867C105.564 124.365 105.068 123.529 104.838 122.567C104.662 123.051 104.421 123.498 104.054 123.822C103.559 124.261 102.88 124.535 102.259 123.996C101.613 123.438 101.382 122.73 101.351 121.983C101.131 122.377 100.872 122.727 100.556 122.994C100.297 123.21 99.9041 123.412 99.511 123.463C99.1993 123.503 98.8888 123.453 98.6216 123.279C97.9711 122.858 97.7029 122.159 97.6768 121.377C97.6432 120.374 98.0189 119.231 98.2687 118.587C98.3762 118.311 98.4902 118.038 98.5977 117.762C98.7313 117.417 98.8442 117.062 98.9387 116.701L98.9398 116.699Z" fill="#2B65EC"/>
<path d="M93.146 73.3163C103.761 82.5385 108.126 98.5468 107.214 105.57C106.856 108.314 106.501 111.725 105.104 114.139C104.982 114.35 105.054 114.619 105.263 114.74C105.473 114.864 105.742 114.79 105.864 114.581C107.317 112.073 107.715 108.534 108.086 105.682C109.021 98.4947 104.59 82.0921 93.7238 72.6527C93.5413 72.4941 93.2633 72.5136 93.1048 72.6961C92.9451 72.8797 92.9658 73.1566 93.1482 73.3163H93.146Z" fill="#2B65EC"/>
<path d="M86.95 86.5802C97.2254 91.0528 100.378 101.683 100.631 104.553C100.808 106.564 101.092 109.053 100.501 110.986C100.429 111.217 100.56 111.463 100.792 111.534C101.024 111.607 101.269 111.475 101.34 111.244C101.962 109.208 101.692 106.592 101.506 104.476C101.243 101.49 97.9844 90.425 87.3007 85.7743C87.0781 85.6776 86.8197 85.7797 86.723 86.0013C86.6264 86.2239 86.7284 86.4824 86.95 86.5791V86.5802Z" fill="#2B65EC"/>
<path d="M33.2744 63.6846C33.7588 78.8555 46.4743 90.7604 61.6767 90.2749C76.878 89.7894 88.8094 77.0981 88.3251 61.9272L33.2744 63.6846Z" fill="#00AAFF"/>
<path d="M48.3867 50.1897C48.3867 50.1897 56.5108 54.3865 62.5379 49.6814C68.8951 44.719 65.887 40.6971 63.689 40.2952C57.1895 39.107 48.3867 50.1897 48.3867 50.1897Z" fill="#2B65EC"/>
<path d="M66.5616 111.79L77.2876 143.406L77.646 144.522L83.0628 163.881L84.1693 168.601L93.6064 166.387L92.4998 161.668L88.7423 141.92L88.347 140.17L80.3381 107.758L78.3214 100.869L64.5449 104.902L66.5605 111.791L66.5616 111.79Z" fill="#2B65EC"/>
<path d="M50.4496 114.382L51.5106 137.855C51.5334 138.354 51.5562 138.855 51.4552 139.341C51.3521 139.837 51.2467 140.338 51.023 140.796L39.7214 163.879L37.4072 168.139L45.9266 172.766L48.2397 168.506L61.4483 146.458C62.2269 145.158 62.7764 143.748 63.2054 142.307C63.6376 140.855 63.8244 139.343 63.8841 137.818L64.8061 114.339L64.7843 107.161L50.429 107.203L50.4507 114.382H50.4496Z" fill="#2B65EC"/>
<path d="M94.0276 173.991L98.4432 173.835L100.73 173.525L101.349 178.101L99.0622 178.41L92.1717 180.049L89.8141 180.368L87.0981 174.443L85.8721 171.252L92.2521 168.798L93.4782 171.989L94.0276 173.992V173.991Z" fill="#00AAFF"/>
<path d="M102.598 178.955L90.8246 181.146C90.4218 181.219 90.1557 181.607 90.2317 182.01C90.3056 182.412 90.6932 182.678 91.0961 182.603L102.869 180.412C103.272 180.338 103.538 179.951 103.462 179.548C103.387 179.146 103 178.88 102.598 178.955Z" fill="#2B65EC"/>
<path d="M92.7523 170.62C92.2993 170.875 91.7888 171.01 91.3358 171.258C90.9773 171.456 90.8459 171.908 91.0425 172.265C91.2391 172.625 91.691 172.756 92.0495 172.559C92.509 172.307 93.026 172.17 93.4834 171.909C93.8397 171.707 93.9646 171.255 93.7636 170.899C93.5616 170.541 93.1086 170.417 92.7523 170.619V170.62Z" fill="#2B65EC"/>
<path d="M93.4155 172.988C92.9788 173.322 92.5639 173.687 92.1196 174.008C91.7893 174.25 91.7155 174.715 91.9555 175.045C92.1956 175.374 92.6605 175.449 92.9908 175.208C93.4438 174.88 93.8674 174.507 94.3128 174.167C94.6387 173.919 94.7017 173.453 94.454 173.127C94.2063 172.802 93.7403 172.739 93.4144 172.986L93.4155 172.988Z" fill="#2B65EC"/>
<path d="M42.2502 179.75L45.4473 182.8L47.2663 184.22L44.4254 187.86L42.6064 186.439L36.6195 182.654L34.7451 181.189L37.0854 175.105L38.5112 171.999L44.724 174.85L43.2982 177.957L42.2502 179.75Z" fill="#00AAFF"/>
<path d="M44.6867 189.35L34.8935 182.457C34.559 182.222 34.0964 182.301 33.8608 182.637C33.6251 182.97 33.7055 183.434 34.04 183.669L43.8332 190.563C44.1676 190.799 44.6303 190.719 44.8659 190.384C45.1016 190.05 45.0212 189.587 44.6867 189.351V189.35Z" fill="#2B65EC"/>
<path d="M43.772 176.48C43.2734 176.336 42.8194 176.063 42.3251 175.913C41.9329 175.795 41.518 176.016 41.3996 176.407C41.2801 176.8 41.5017 177.215 41.8928 177.333C42.3935 177.486 42.853 177.76 43.3592 177.905C43.7525 178.02 44.1642 177.793 44.2771 177.4C44.3912 177.006 44.1642 176.595 43.7709 176.481L43.772 176.48Z" fill="#2B65EC"/>
<path d="M42.5414 178.61C41.9983 178.531 41.4475 178.489 40.9066 178.396C40.5025 178.328 40.119 178.6 40.0506 179.003C39.9822 179.405 40.2537 179.79 40.6567 179.858C41.2086 179.953 41.7702 179.995 42.3242 180.077C42.7294 180.136 43.1063 179.857 43.1661 179.452C43.2258 179.047 42.9455 178.67 42.5414 178.61Z" fill="#2B65EC"/>
<path d="M79.6752 106.76L62.429 114.031L50.4878 111.75L50.0762 104.519L78.6967 100.679L79.6762 106.76H79.6752Z" fill="#2B65EC"/>
<path d="M61.4602 49.5077C63.6484 52.3023 63.9894 54.7688 63.137 56.5414C62.2975 58.2835 60.3221 59.3034 57.9884 59.2643C57.1881 59.2513 56.3529 58.9699 55.6243 58.6561C53.8932 57.911 52.8714 56.6695 52.1372 55.2152C51.3662 53.6871 50.9058 51.9286 50.3183 50.2289C50.2379 49.9953 49.9816 49.8704 49.7481 49.9519C49.5146 50.0323 49.3898 50.2886 49.4712 50.5221C50.0717 52.261 50.5485 54.0563 51.3369 55.6193C52.1622 57.2561 53.322 58.6419 55.2702 59.4804C56.1021 59.8388 57.0588 60.1462 57.9732 60.1614C60.6946 60.207 62.9665 58.9623 63.9449 56.9313C64.9092 54.9285 64.6399 52.1133 62.1672 48.9548C62.0141 48.7604 61.7328 48.7257 61.5373 48.8788C61.3429 49.0309 61.3082 49.3133 61.4613 49.5088L61.4602 49.5077Z" fill="#2B65EC"/>
<path d="M48.202 50.1755C48.202 50.1755 54.4463 45.44 56.2251 43.7413C61.4985 38.7061 52.6132 33.1679 49.5508 40.3428C47.8545 44.3159 48.265 47.5829 48.202 50.1755Z" fill="#2B65EC"/>
<path d="M51.8826 55.1164C49.2274 53.4481 45.9804 51.0337 44.9357 48.0697C44.422 46.6143 45.0323 44.6136 46.9458 45.6292C48.4455 46.4264 49.1221 47.9752 49.7508 49.4165C50.4165 50.9435 51.8837 55.1164 51.8837 55.1164H51.8826Z" fill="#2B65EC"/>
<path d="M31.3599 122.112C31.3501 122.093 31.2589 121.918 31.2361 121.85C31.1991 121.739 31.2013 121.643 31.2143 121.576C31.2372 121.459 31.2947 121.37 31.374 121.302C31.4533 121.235 31.5705 121.171 31.7519 121.194C32.4328 121.28 33.1713 121.452 33.901 121.501C34.5439 121.545 35.1814 121.49 35.7515 121.133C36.4205 120.713 36.39 119.692 35.8482 119.194C35.4377 118.817 34.7752 118.742 34.2518 118.685C33.2277 118.572 32.1038 118.551 31.071 118.643C30.8201 118.664 30.5997 118.479 30.5769 118.229C30.5552 117.978 30.7409 117.757 30.9906 117.735C32.082 117.639 33.2679 117.66 34.3506 117.779C35.0511 117.856 35.9155 118.019 36.4639 118.523C37.4098 119.392 37.4033 121.172 36.2348 121.905C35.4952 122.369 34.6731 122.467 33.8391 122.411C33.3472 122.379 32.8498 122.292 32.3698 122.21C32.511 122.555 32.6695 122.89 32.8455 123.216C32.9899 123.482 33.1409 123.744 33.2864 124.01C33.6219 124.628 34.1508 125.732 34.2561 126.733C34.3387 127.52 34.1627 128.246 33.5709 128.726C33.3265 128.925 33.0214 129.005 32.7021 128.992C32.309 128.974 31.8952 128.808 31.6118 128.617C31.2654 128.384 30.9667 128.054 30.6985 127.681C30.7637 128.423 30.6258 129.141 30.0665 129.749C29.5246 130.339 28.8079 130.139 28.2573 129.745C27.8522 129.455 27.5536 129.033 27.3147 128.57C27.2126 129.542 26.8282 130.411 25.8464 130.998C25.1938 131.389 24.5845 131.255 24.0655 130.848C23.4378 130.356 22.9654 129.404 22.796 128.754C22.2117 126.501 22.3551 123.857 23.6126 121.848C23.7896 121.565 24.0329 121.106 24.3174 120.74C24.5585 120.428 24.8354 120.185 25.1156 120.082C25.3512 119.995 25.614 120.116 25.7009 120.352C25.7878 120.588 25.6662 120.851 25.4305 120.938C25.2861 120.991 25.1634 121.137 25.0385 121.298C24.7746 121.639 24.5509 122.069 24.3858 122.332C23.2586 124.133 23.1554 126.507 23.6789 128.526C23.7875 128.945 24.0524 129.533 24.4206 129.936C24.6855 130.227 25.0102 130.438 25.3784 130.216C26.1787 129.737 26.3992 128.985 26.4296 128.174C26.4654 127.225 26.2537 126.2 26.2113 125.331C26.1907 124.909 26.5534 124.852 26.5936 124.844C26.6815 124.83 26.9509 124.805 27.0855 125.114C27.0964 125.139 27.1409 125.332 27.1605 125.406C27.1952 125.538 27.2158 125.672 27.2473 125.807C27.3277 126.147 27.4515 126.478 27.572 126.805C27.8555 127.568 28.1128 128.524 28.7872 129.005C28.8936 129.082 29.012 129.155 29.1337 129.192C29.2238 129.218 29.3183 129.219 29.3954 129.134C29.782 128.714 29.8406 128.207 29.7841 127.694C29.7168 127.077 29.4888 126.447 29.327 125.89C29.226 125.54 29.1184 125.19 28.9849 124.853C28.9436 124.75 28.8024 124.597 28.7514 124.49C28.6971 124.377 28.683 124.273 28.6884 124.193C28.6971 124.058 28.7503 123.948 28.8415 123.861C28.9034 123.802 28.9914 123.745 29.1206 123.723C29.1836 123.713 29.4073 123.682 29.5735 123.915C29.6039 123.957 29.7298 124.206 29.7407 124.227C29.9155 124.534 30.0741 124.849 30.2554 125.151C30.5345 125.613 30.8082 126.172 31.1253 126.695C31.4077 127.158 31.7204 127.592 32.1222 127.864C32.2591 127.956 32.448 128.041 32.6402 128.071C32.7673 128.092 32.8998 128.1 32.9964 128.021C33.345 127.739 33.3982 127.295 33.3493 126.83C33.257 125.952 32.7792 124.99 32.4849 124.448C32.3405 124.182 32.1885 123.92 32.044 123.653C31.8388 123.274 31.6542 122.881 31.4924 122.478C31.4446 122.358 31.399 122.238 31.3577 122.115L31.3599 122.112Z" fill="#2B65EC"/>
<path d="M74.0851 41.3363C75.9758 40.6748 77.8273 39.6776 79.7962 39.2724C80.0383 39.2224 80.1947 38.9845 80.1448 38.7423C80.0948 38.5 79.857 38.3436 79.6148 38.3936C77.608 38.8075 75.7173 39.8144 73.7886 40.489C73.5551 40.5705 73.4313 40.8269 73.5139 41.0604C73.5953 41.294 73.8516 41.4178 74.0851 41.3352V41.3363Z" fill="#2B65EC"/>
<path d="M70.7627 36.1778C72.6718 33.6102 74.822 31.086 76.5552 28.4066C76.6898 28.1991 76.6301 27.9211 76.4227 27.7864C76.2153 27.6517 75.9373 27.7115 75.8026 27.9189C74.0803 30.5821 71.9409 33.0899 70.0427 35.6423C69.895 35.8411 69.9362 36.1224 70.135 36.2701C70.3337 36.4178 70.615 36.3765 70.7627 36.1778Z" fill="#2B65EC"/>
<path d="M65.3973 34.2032C65.7265 32.0223 65.9231 29.6806 66.1034 27.4888C66.123 27.2423 65.9394 27.025 65.6928 27.0055C65.4462 26.9848 65.229 27.1695 65.2094 27.416C65.0313 29.5872 64.8368 31.9093 64.5109 34.0696C64.474 34.314 64.6424 34.5431 64.8879 34.5801C65.1323 34.617 65.3615 34.4487 65.3984 34.2032H65.3973Z" fill="#2B65EC"/>
<path d="M40.7555 102.57C41.684 100.67 43.9461 99.8438 45.8791 100.7C46.4373 100.946 47.0042 101.197 47.5439 101.436C48.4463 101.835 49.4725 101.848 50.3837 101.471C51.2948 101.094 52.0126 100.36 52.3688 99.4397C52.6512 98.7142 53.2213 98.1386 53.9445 97.8518C54.6678 97.5651 55.4779 97.5922 56.1795 97.9278C56.5769 98.1179 56.9842 98.3123 57.3838 98.5024C59.408 99.4701 61.8341 98.6316 62.831 96.6212C62.8559 96.5702 62.882 96.5192 62.907 96.4681C63.3218 95.6318 64.0755 95.0149 64.9768 94.7738C65.8782 94.5337 66.8393 94.6934 67.6157 95.2115C67.6657 95.2451 67.7156 95.2788 67.7656 95.3114C68.7278 95.9544 69.9212 96.1477 71.0365 95.8414C72.1518 95.5351 73.0792 94.7586 73.5777 93.7137C73.9556 92.9208 74.6549 92.3289 75.4976 92.0856C76.3414 91.8423 77.2482 91.9716 77.9888 92.4419C78.1398 92.5374 78.2918 92.6341 78.4439 92.7297C79.469 93.3781 80.7233 93.5519 81.8853 93.2076C83.0473 92.8622 84.0051 92.0324 84.51 90.93C84.7261 90.4586 84.8728 90.1393 84.8728 90.1393C84.9738 89.9188 84.8771 89.6581 84.6567 89.5571C84.4362 89.4561 84.1756 89.5528 84.0746 89.7733C84.0746 89.7733 83.928 90.0915 83.7119 90.564C83.3122 91.4361 82.5553 92.0921 81.6355 92.3647C80.7157 92.6374 79.7231 92.4994 78.913 91.9868C78.762 91.8912 78.61 91.7945 78.458 91.699C77.5045 91.0962 76.3382 90.9289 75.2533 91.2417C74.1684 91.5545 73.2703 92.3159 72.7838 93.3357C72.395 94.1503 71.6718 94.7553 70.8019 94.9942C69.9321 95.2332 69.0014 95.0822 68.2521 94.5815C68.2021 94.5478 68.1522 94.5153 68.1022 94.4816C67.1162 93.8234 65.8945 93.6203 64.7488 93.9255C63.6031 94.2318 62.6442 95.016 62.1186 96.0782C62.0925 96.1292 62.0675 96.1803 62.0426 96.2313C61.2596 97.8116 59.3526 98.4698 57.7617 97.7095C57.3621 97.5184 56.9548 97.324 56.5574 97.1339C55.6354 96.6929 54.5701 96.6571 53.6198 97.034C52.6696 97.4109 51.9192 98.1679 51.5489 99.1204C51.2785 99.8177 50.7355 100.373 50.0459 100.657C49.3564 100.943 48.5799 100.933 47.8968 100.631C47.3582 100.393 46.7902 100.141 46.232 99.8948C43.8668 98.8489 41.0987 99.859 39.9639 102.183L40.7534 102.569L40.7555 102.57Z" fill="#2B65EC"/>
<path d="M49.7647 74.015C48.1661 72.0035 46.4796 70.9782 44.8626 70.5481C41.1084 69.5489 37.6909 71.7928 36.4594 72.603C29.4832 77.1973 25.1828 84.9131 22.9218 92.5387C20.6609 100.163 20.4426 107.69 21.5796 111.891C22.3528 114.749 23.2476 118.296 25.0438 120.714C25.1882 120.907 25.4641 120.948 25.6585 120.805C25.8529 120.658 25.893 120.384 25.7486 120.19C24.0143 117.855 23.1727 114.42 22.4277 111.664C21.3179 107.564 21.559 100.225 23.7635 92.7885C25.968 85.3541 30.1402 77.8164 36.9427 73.3373C38.0721 72.5933 41.1932 70.4808 44.6367 71.3974C46.105 71.7884 47.6253 72.7355 49.0772 74.5624C49.2282 74.7525 49.504 74.784 49.6941 74.633C49.8841 74.482 49.9156 74.2061 49.7647 74.0161V74.015Z" fill="#2B65EC"/>
<path d="M49.0707 74.5537C51.0689 77.1908 50.2099 79.791 48.1509 82.2456C44.8648 86.1643 38.5857 89.7148 34.9347 92.4823C27.6251 98.0237 27.9726 107.267 28.1257 110.271C28.2333 112.395 28.3256 115.022 29.2237 116.993C29.3246 117.214 29.5853 117.312 29.8057 117.211C30.0262 117.11 30.1239 116.848 30.0229 116.629C29.1683 114.752 29.1053 112.247 29.0032 110.227C28.8566 107.351 28.4711 98.4853 35.4658 93.1817C39.1591 90.3817 45.5001 86.7747 48.8242 82.8093C51.1731 80.0082 52.0506 77.0301 49.7711 74.0226C49.6245 73.8293 49.3487 73.7913 49.1554 73.9379C48.9621 74.0845 48.9241 74.3604 49.0707 74.5537Z" fill="#2B65EC"/>
<path d="M256.728 61.2868C251.284 51.8572 239.228 48.627 229.8 54.0707C220.372 59.5143 217.141 71.5724 222.585 81.0021L256.728 61.2868Z" fill="#9C63FF"/>
<path d="M225.21 169.878L227.044 172.416L229.086 174.624L224.67 178.708L222.629 176.5L217.58 172.214L215.506 169.971L219.772 162.688L222.312 159.03L229.627 164.111L227.087 167.769L225.21 169.876V169.878Z" fill="#9C63FF"/>
<path d="M224.956 180.626L215.118 171.722C214.814 171.448 214.346 171.47 214.071 171.775C213.796 172.081 213.819 172.549 214.123 172.822L223.962 181.726C224.266 182 224.734 181.978 225.009 181.674C225.283 181.37 225.261 180.901 224.956 180.627V180.626Z" fill="#2B65EC"/>
<path d="M227.92 166.18C227.313 165.882 226.795 165.43 226.196 165.124C225.832 164.936 225.385 165.083 225.199 165.447C225.013 165.811 225.158 166.259 225.522 166.444C226.127 166.753 226.652 167.206 227.263 167.509C227.631 167.69 228.076 167.539 228.257 167.172C228.438 166.804 228.288 166.36 227.92 166.179V166.18Z" fill="#2B65EC"/>
<path d="M225.887 168.632C225.209 168.405 224.512 168.228 223.84 167.985C223.455 167.846 223.03 168.047 222.892 168.43C222.753 168.817 222.953 169.242 223.338 169.38C224.02 169.626 224.727 169.81 225.415 170.04C225.803 170.17 226.224 169.961 226.353 169.573C226.483 169.184 226.274 168.764 225.887 168.632Z" fill="#2B65EC"/>
<path d="M254.954 177.912L257.961 178.785L260.929 179.269L259.959 185.206L256.991 184.722L250.374 184.448L247.36 183.956L246.245 175.59L245.998 171.143L254.891 170.649L255.137 175.097L254.954 177.913V177.912Z" fill="#9C63FF"/>
<path d="M261.362 186.542L248.13 185.573C247.721 185.544 247.366 185.85 247.336 186.259C247.307 186.668 247.613 187.023 248.021 187.052L261.254 188.021C261.662 188.05 262.017 187.744 262.047 187.335C262.077 186.926 261.771 186.57 261.362 186.542Z" fill="#2B65EC"/>
<path d="M254.816 173.329C254.155 173.467 253.469 173.431 252.808 173.558C252.406 173.634 252.143 174.024 252.221 174.426C252.298 174.827 252.687 175.091 253.088 175.013C253.755 174.885 254.448 174.919 255.117 174.782C255.518 174.697 255.776 174.306 255.693 173.904C255.61 173.503 255.217 173.246 254.816 173.328V173.329Z" fill="#2B65EC"/>
<path d="M254.723 176.514C254.05 176.752 253.39 177.041 252.711 177.263C252.322 177.389 252.11 177.809 252.237 178.198C252.365 178.588 252.783 178.801 253.172 178.672C253.862 178.447 254.532 178.157 255.216 177.914C255.601 177.778 255.804 177.354 255.669 176.969C255.533 176.583 255.108 176.38 254.723 176.514Z" fill="#2B65EC"/>
<path d="M296.42 88.9673H250.009V91.7427H296.42V88.9673Z" fill="#2B65EC"/>
<path d="M303.425 69.2524H272.856L265.85 88.9677H296.421L303.425 69.2524Z" fill="#2B65EC"/>
<path d="M287.857 76.9877C287.5 76.853 287.097 76.8942 286.71 77.1082C286.242 77.3679 285.786 77.8947 285.523 78.5899C285.26 79.2852 285.253 79.9826 285.431 80.4866C285.579 80.9026 285.853 81.2014 286.21 81.3372C286.565 81.4719 286.968 81.4295 287.354 81.2155C287.822 80.9559 288.278 80.429 288.541 79.7338C288.804 79.0386 288.811 78.3412 288.633 77.8371C288.486 77.4211 288.211 77.1224 287.857 76.9877ZM287.545 77.8089C287.718 77.8741 287.804 78.0674 287.849 78.2934C287.913 78.6182 287.872 79.0201 287.72 79.422C287.568 79.8229 287.333 80.152 287.07 80.353C286.886 80.4931 286.694 80.58 286.521 80.5148C286.346 80.4486 286.259 80.2563 286.215 80.0293C286.151 79.7045 286.195 79.3025 286.346 78.9017C286.498 78.4998 286.731 78.1706 286.995 77.9697C287.178 77.8295 287.37 77.7426 287.545 77.8089Z" fill="white"/>
<path d="M268.849 66.386L264.54 60.4417C264.398 60.2451 264.123 60.2017 263.927 60.3439C263.73 60.4862 263.687 60.761 263.829 60.9576L268.138 66.9019C268.28 67.0985 268.555 67.1419 268.751 66.9997C268.948 66.8574 268.991 66.5826 268.849 66.386Z" fill="#2B65EC"/>
<path d="M275.51 64.0228L272.678 50.1259C272.631 49.888 272.398 49.7349 272.16 49.7827C271.923 49.8315 271.77 50.0629 271.817 50.3007L274.648 64.1976C274.697 64.4355 274.929 64.5886 275.166 64.5408C275.404 64.493 275.557 64.2606 275.51 64.0228Z" fill="#2B65EC"/>
<path d="M282.915 63.2722L285.198 55.4826C285.266 55.2501 285.131 55.0058 284.9 54.9373C284.666 54.8689 284.423 55.0025 284.352 55.236L282.072 63.0246C282.005 63.257 282.139 63.5014 282.371 63.5698C282.604 63.6382 282.848 63.5046 282.916 63.2711L282.915 63.2722Z" fill="#2B65EC"/>
<path d="M270.211 96.4938C270.319 96.0549 270.599 95.6128 270.917 95.2967C271.104 95.1098 271.301 94.9643 271.489 94.9121C271.603 94.8806 271.708 94.9458 271.788 95.0436C271.922 95.213 271.988 95.4727 271.962 95.7703C271.862 96.8555 271.021 97.4975 270.389 97.8451C268.325 98.9792 266.648 97.3661 265.657 94.7622C265.571 94.5352 265.316 94.4211 265.09 94.508C264.863 94.5949 264.749 94.8491 264.835 95.0751C266.055 98.2764 268.272 100.01 270.81 98.6153C271.643 98.158 272.707 97.2792 272.837 95.8507C272.947 94.6286 272.071 93.84 271.255 94.0659C270.523 94.2691 269.61 95.276 269.36 96.283C269.302 96.5188 269.445 96.7567 269.681 96.8153C269.915 96.874 270.153 96.7306 270.212 96.4949L270.211 96.4938Z" fill="#2B65EC"/>
<path d="M273.747 95.4617C274.019 94.9881 274.425 94.7219 274.846 94.8067C274.946 94.8262 274.994 94.9316 275.039 95.0413C275.16 95.3335 275.168 95.7376 275.052 96.0439C274.97 96.259 274.827 96.4643 274.701 96.6218C274.459 96.9227 274.173 97.153 273.878 97.3258C273.719 97.4192 273.43 97.4583 273.118 97.4865C272.572 97.5365 271.955 97.518 271.655 97.4822C271.415 97.4529 271.196 97.6234 271.166 97.8646C271.135 98.1046 271.308 98.3251 271.548 98.3545C271.942 98.4034 272.827 98.4251 273.505 98.3273C273.845 98.2784 274.135 98.1937 274.32 98.0862C274.701 97.8635 275.073 97.5637 275.386 97.1748C275.562 96.9543 275.757 96.6631 275.871 96.3601C276.064 95.8549 276.049 95.1901 275.85 94.7078C275.682 94.3004 275.386 94.0202 275.015 93.9474C274.255 93.7964 273.471 94.1766 272.983 95.0272C272.862 95.2379 272.935 95.5062 273.145 95.6268C273.356 95.7474 273.625 95.6746 273.746 95.4639L273.747 95.4617Z" fill="#2B65EC"/>
<path d="M277.043 95.3151C277.368 94.9055 277.844 94.647 278.263 94.8697C278.443 94.9664 278.497 95.1836 278.514 95.4074C278.55 95.8473 278.409 96.3622 278.187 96.5817C277.612 97.1455 276.881 97.2432 276.232 97.2172C275.459 97.1867 274.776 96.9966 274.463 97.0086C274.221 97.0184 274.032 97.2226 274.04 97.4648C274.05 97.7071 274.254 97.8961 274.496 97.8863C274.798 97.8744 275.453 98.0666 276.198 98.0949C277.067 98.1285 278.033 97.9623 278.802 97.2085C279.163 96.8554 279.446 96.0461 279.391 95.339C279.35 94.798 279.115 94.3287 278.676 94.0952C277.9 93.6791 276.959 94.0061 276.356 94.7708C276.206 94.9609 276.237 95.2379 276.428 95.3878C276.617 95.5377 276.893 95.5052 277.044 95.3151H277.043Z" fill="#2B65EC"/>
<path d="M247.774 95.1725C249.325 97.3679 251.677 98.1566 254.291 98.1272C258.051 98.0849 262.366 96.3273 265.435 94.8597C265.655 94.7554 265.747 94.4925 265.642 94.2742C265.538 94.0558 265.276 93.9624 265.056 94.0678C262.088 95.4876 257.921 97.2082 254.283 97.2495C251.966 97.2756 249.868 96.6119 248.493 94.6663C248.352 94.4686 248.078 94.4208 247.881 94.561C247.683 94.7011 247.636 94.9748 247.775 95.1736L247.774 95.1725Z" fill="#2B65EC"/>
<path d="M241.806 38.4238C243.472 42.0156 242.465 46.5241 238.575 46.7989C237.926 46.8445 237.234 46.6381 236.625 46.3948C235.152 45.8072 234.236 44.6874 233.538 43.3439C232.8 41.9211 232.305 40.2528 231.706 38.6497C231.622 38.4227 231.369 38.3065 231.142 38.3912C230.915 38.4759 230.798 38.729 230.883 38.956C231.493 40.5928 232.004 42.2947 232.759 43.7479C233.555 45.2805 234.618 46.5393 236.299 47.2094C237.029 47.5005 237.859 47.7286 238.636 47.6732C243.146 47.3539 244.533 42.2154 242.602 38.0513C242.5 37.8308 242.238 37.7352 242.019 37.8373C241.798 37.9394 241.703 38.2011 241.805 38.4205L241.806 38.4238Z" fill="#2B65EC"/>
<path d="M231.312 38.3746C230.453 38.3409 229.489 38.1856 228.869 37.5479C228 36.6539 227.957 34.9256 229.227 34.4042C229.811 34.1642 230.437 34.3075 231.044 34.3477C231.287 34.3629 231.495 34.1794 231.511 33.9382C231.527 33.696 231.344 33.4874 231.102 33.4711C230.364 33.4233 229.604 33.3006 228.893 33.5917C227.042 34.351 226.972 36.856 228.239 38.1606C229.016 38.959 230.203 39.211 231.278 39.2534C231.52 39.2621 231.724 39.0742 231.734 38.8308C231.744 38.5886 231.555 38.3844 231.313 38.3746H231.312Z" fill="#2B65EC"/>
<path d="M236.016 128.573C233.444 127.247 219.516 119.511 213.909 104.889C212.015 99.9513 212.301 96.1629 213.604 93.2815C216.64 86.566 225.289 84.7533 225.289 84.7533C225.526 84.7044 225.76 84.8565 225.809 85.0943C225.859 85.3322 225.705 85.5646 225.468 85.6135C225.468 85.6135 217.273 87.297 214.405 93.6432C213.178 96.3584 212.945 99.9242 214.728 104.575C220.796 120.395 236.804 127.986 236.804 127.986C236.913 128.038 236.995 128.132 237.033 128.246C237.07 128.36 237.059 128.485 237.003 128.59L222.895 154.958L232.194 160.836L247.388 135.524C249.453 132.084 249.524 127.803 247.574 124.296C242.823 115.748 234.578 100.915 234.578 100.915C234.519 100.808 234.506 100.681 234.544 100.565C234.582 100.449 234.666 100.354 234.776 100.302L239.521 98.0897C239.74 97.9876 240.002 98.0821 240.104 98.3026C240.207 98.522 240.112 98.7838 239.892 98.8858L235.576 100.898L248.343 123.868C250.446 127.65 250.369 132.266 248.141 135.975C242.687 145.062 232.716 161.671 232.716 161.671C232.656 161.772 232.557 161.845 232.442 161.872C232.326 161.899 232.205 161.88 232.105 161.816L222.08 155.479C221.886 155.356 221.819 155.103 221.927 154.9L236.016 128.569V128.573Z" fill="#2B65EC"/>
<path d="M255.496 166.197L256.089 134.614C256.244 126.345 258.392 115.686 254.102 100.822C254.034 100.59 254.169 100.345 254.401 100.278C254.634 100.211 254.878 100.345 254.945 100.578C259.269 115.555 257.123 126.296 256.966 134.629L256.367 166.591C256.363 166.807 256.2 166.987 255.986 167.018L246.515 168.279C246.392 168.294 246.268 168.258 246.174 168.178C246.081 168.101 246.023 167.983 246.018 167.861L245.198 148.772C245.187 148.53 245.376 148.325 245.617 148.315C245.859 148.304 246.064 148.493 246.075 148.735L246.876 167.344L255.496 166.195V166.197Z" fill="#2B65EC"/>
<path d="M229.553 32.0373C229.553 33.9641 235.644 38.5845 242.203 38.238C248.114 37.9252 249.032 28.376 242.203 26.6795C234.138 24.6745 229.553 32.0373 229.553 32.0373Z" fill="#2B65EC"/>
<path d="M231.642 33.9305C231.038 33.9099 230.447 33.9903 229.859 34.1249C228.343 34.4725 227.169 35.9713 228.371 37.4376C229.361 38.6443 233.226 39.0983 231.819 41.4812C230.854 43.1169 228.483 42.9323 226.925 42.5673C223.222 41.6995 220.572 38.5585 220.015 34.9721C219.456 31.3749 222.559 27.668 226.055 26.8936C229.065 26.2278 232.926 27.2791 233.708 30.5722L231.643 33.9305H231.642Z" fill="#2B65EC"/>
<path d="M223.54 37.7766C220.037 37.971 217.056 38.6574 214.378 41.0034C211.345 43.6623 210.909 48.641 214.759 50.8458C217.545 52.4403 221.478 51.705 223.978 49.8901C224.849 49.2579 225.744 48.5759 226.369 47.7135C226.574 47.4322 226.74 47.1335 226.893 46.824C226.966 46.6773 227.131 46.2201 227.1 46.3797C226.872 47.5538 226.766 48.8018 227.574 49.8119C229.323 51.9993 232.789 50.5472 233.574 48.3434C234.527 45.6662 233.166 43.47 232.06 41.1696L223.54 37.7744V37.7766Z" fill="#2B65EC"/>
<path d="M240.15 54.4922C240.15 54.565 240.146 54.6377 240.139 54.7094C240.092 55.2308 239.859 55.875 239.463 56.3106C239.158 56.6452 238.764 56.8625 238.293 56.8679C237.268 56.8798 236.63 56.2845 236.275 55.4372C235.811 54.3325 235.869 52.7704 236.08 51.9014C236.137 51.6656 236.375 51.5212 236.611 51.5777C236.846 51.6352 236.991 51.8731 236.934 52.1089C236.756 52.8421 236.695 54.163 237.086 55.0972C237.3 55.6089 237.665 55.9967 238.284 55.9891C238.567 55.9858 238.776 55.7979 238.931 55.5698C239.126 55.2852 239.239 54.9278 239.266 54.629C239.289 54.3825 239.259 54.1304 239.228 53.8849C239.216 53.7883 239.126 53.6123 239.103 53.5091C239.077 53.3842 239.091 53.281 239.113 53.2136C239.154 53.0898 239.23 53.005 239.33 52.9507C239.417 52.9029 239.543 52.8606 239.721 52.9181C239.834 52.9551 239.962 53.0355 240.086 53.1517C240.248 53.3038 240.414 53.533 240.527 53.6405C240.869 53.9642 241.216 54.2966 241.669 54.4552C241.923 54.5443 242.218 54.5845 242.481 54.5519C242.679 54.528 242.865 54.4726 242.967 54.3303C243.052 54.2119 243.06 54.0424 243.009 53.8198C242.857 53.1658 242.455 52.8671 242.056 52.3837C241.902 52.1968 241.928 51.9198 242.114 51.7645C242.301 51.6092 242.578 51.6363 242.732 51.8232C243.224 52.4184 243.677 52.8139 243.864 53.621C243.989 54.1576 243.886 54.5552 243.679 54.842C243.485 55.1135 243.184 55.2939 242.828 55.3808C242.378 55.4894 241.835 55.4438 241.378 55.2841C240.906 55.119 240.516 54.8191 240.15 54.49V54.4922Z" fill="white"/>
<path d="M229.436 84.5602L252.361 86.2317C252.603 86.2491 252.785 86.4598 252.767 86.702C252.75 86.9442 252.539 87.1256 252.297 87.1082L229.143 85.4204C229.001 85.4095 228.873 85.3313 228.799 85.2097C228.799 85.2097 221.271 72.7606 219.38 63.9978C218.963 62.0677 218.82 60.3115 219.069 58.893C219.336 57.3692 220.049 56.219 221.317 55.5934C226.056 53.2582 229.683 55.9214 232.299 60.0334C235.678 65.3457 237.349 73.0636 237.66 74.6092L254.375 78.9949C254.609 79.0568 254.749 79.2968 254.689 79.5315C254.627 79.7661 254.387 79.9062 254.152 79.8453L237.17 75.3901C237.005 75.3466 236.88 75.212 236.849 75.0447C236.849 75.0447 235.249 66.308 231.559 60.5059C229.2 56.7979 225.979 54.2759 221.707 56.3819C220.69 56.8826 220.149 57.8243 219.936 59.0451C219.703 60.3701 219.851 62.0102 220.24 63.8121C221.971 71.8276 228.485 82.9625 229.437 84.5602H229.436Z" fill="#2B65EC"/>
<path d="M254.643 79.6981C255.992 77.3605 258.169 75.5692 260.917 75.1629C261.495 75.0771 262.441 75.1357 263.156 75.4355C263.507 75.5822 263.808 75.7788 263.917 76.0841C263.986 76.2731 263.969 76.4979 263.863 76.7652C263.654 77.2996 263.228 77.455 262.757 77.4908C262.133 77.5386 261.436 77.4039 260.864 77.3941C259.215 77.3681 257.697 78.0557 256.808 79.4787C256.68 79.684 256.741 79.9556 256.947 80.0838C257.152 80.212 257.423 80.15 257.552 79.9447C258.273 78.7922 259.513 78.2523 260.85 78.2729C261.447 78.2827 262.173 78.4163 262.824 78.3664C263.626 78.3044 264.324 77.997 264.681 77.0856C264.88 76.5772 264.873 76.1471 264.744 75.7864C264.614 75.4258 264.355 75.127 264.008 74.8957C263.128 74.3102 261.635 74.1689 260.789 74.2939C257.77 74.7403 255.366 76.6913 253.883 79.2593C253.762 79.4689 253.834 79.7383 254.044 79.86C254.254 79.9817 254.523 79.9089 254.643 79.6992V79.6981Z" fill="#2B65EC"/>
<path d="M257.418 80.1233C259.511 79.6811 262.093 79.6105 263.664 81.2465C264.049 81.6473 264.428 82.0688 264.517 82.6369C264.63 83.3561 264.245 84.2023 263.437 84.0415C263.14 83.9818 262.905 83.7352 262.675 83.4734C262.369 83.1247 262.09 82.7304 261.812 82.4686C261.145 81.8407 260.25 81.5626 259.412 81.2465C259.185 81.1607 258.932 81.2747 258.846 81.5018C258.761 81.7288 258.876 81.983 259.102 82.0677C259.833 82.3447 260.628 82.5598 261.209 83.1084C261.53 83.4104 261.847 83.8959 262.214 84.2685C262.527 84.5857 262.876 84.8258 263.265 84.904C264.727 85.1962 265.589 83.8036 265.386 82.5022C265.269 81.7505 264.808 81.1694 264.298 80.6382C262.518 78.785 259.61 78.7632 257.238 79.264C257 79.314 256.849 79.5475 256.899 79.7843C256.949 80.0222 257.183 80.1732 257.419 80.1233H257.418Z" fill="#2B65EC"/>
<path d="M258.909 81.9599C259.97 82.8919 260.743 83.5817 260.709 85.1319C260.703 85.3774 260.636 85.6859 260.492 85.9281C260.392 86.0965 260.252 86.2399 260.039 86.229C259.881 86.2214 259.792 86.0715 259.698 85.9314C259.52 85.6696 259.381 85.36 259.241 85.159C258.721 84.4095 257.965 83.9065 257.185 83.4601C256.974 83.3395 256.706 83.4123 256.586 83.623C256.465 83.8338 256.538 84.1021 256.748 84.2227C257.415 84.605 258.074 85.02 258.52 85.6609C258.692 85.9086 258.866 86.3138 259.106 86.6071C259.343 86.8971 259.638 87.0894 259.995 87.1078C260.459 87.1306 260.822 86.9286 261.087 86.6081C261.416 86.2106 261.578 85.612 261.589 85.1525C261.63 83.2884 260.768 82.4216 259.49 81.3005C259.308 81.1409 259.031 81.1582 258.87 81.3407C258.711 81.5232 258.728 81.8002 258.911 81.961L258.909 81.9599Z" fill="#2B65EC"/>
<path d="M247.747 51.1889C249.881 48.5485 253.424 48.8027 255.445 51.4517C256.118 52.3337 256.784 54.1812 257.407 56.4207C258.9 61.7764 260.095 69.351 260.226 71.8371C260.239 72.0793 260.445 72.265 260.688 72.2531C260.93 72.2401 261.115 72.0337 261.103 71.7915C260.971 69.2749 259.764 61.6059 258.254 56.1861C257.59 53.8075 256.858 51.8569 256.143 50.9195C253.759 47.7959 249.581 47.5243 247.064 50.6372C246.912 50.8261 246.941 51.1031 247.129 51.2552C247.318 51.4072 247.595 51.3779 247.747 51.19V51.1889Z" fill="#2B65EC"/>
<path d="M8.86233 58.3074C8.95246 57.9175 9.19355 57.5797 9.53237 57.3679C9.87119 57.1561 10.2817 57.0877 10.6683 57.1768C12.9162 57.6949 17.183 58.6789 19.4287 59.197C19.8186 59.2871 20.1542 59.5271 20.367 59.866C20.5788 60.2049 20.6472 60.6143 20.5581 61.0032C19.6394 64.9892 17.1059 75.9797 16.1861 79.9657C16.0959 80.3556 15.8548 80.6934 15.516 80.9052C15.1772 81.117 14.7689 81.1865 14.3801 81.0964C12.1343 80.5783 7.86759 79.5943 5.61965 79.0762C5.23196 78.9871 4.89422 78.746 4.68137 78.4071C4.46961 78.0683 4.40119 77.6588 4.49024 77.27C5.40897 73.2839 7.94252 62.2935 8.86233 58.3074Z" fill="#2B65EC"/>
<path d="M10.4819 59.9422C10.5384 59.6978 10.6893 59.4849 10.9022 59.3524C11.115 59.2188 11.3724 59.1764 11.6167 59.2329C12.2249 59.373 13.0176 59.5555 13.6247 59.6956C13.869 59.7521 14.0819 59.9031 14.2144 60.116C14.3479 60.3289 14.3903 60.5864 14.3338 60.8308C14.1916 61.4467 14.0059 62.2528 13.8636 62.8687C13.8071 63.1131 13.6562 63.326 13.4433 63.4585C13.2305 63.5911 12.9731 63.6345 12.7288 63.578C12.1217 63.4379 11.329 63.2554 10.7208 63.1153C10.4765 63.0588 10.2647 62.9078 10.1311 62.6949C9.99757 62.482 9.95522 62.2245 10.0117 61.9801C10.1539 61.3642 10.3396 60.5582 10.4819 59.9422Z" fill="white"/>
<path d="M15.0415 48.9222C15.0979 48.6778 15.2489 48.4649 15.4617 48.3324C15.6746 48.1987 15.932 48.1564 16.1763 48.2129C16.7845 48.353 17.5772 48.5355 18.1843 48.6756C18.4286 48.7321 18.6414 48.8831 18.7739 49.096C18.9075 49.3089 18.9499 49.5664 18.8934 49.8108C18.7511 50.4267 18.5654 51.2327 18.4232 51.8487C18.3667 52.0931 18.2157 52.306 18.0029 52.4385C17.7901 52.5721 17.5327 52.6145 17.2883 52.558C16.6813 52.4179 15.8885 52.2354 15.2804 52.0953C15.0361 52.0388 14.8243 51.8878 14.6907 51.6749C14.5571 51.462 14.5148 51.2045 14.5713 50.9601C14.7135 50.3442 14.8992 49.5381 15.0415 48.9222Z" fill="#00AAFF"/>
<path d="M9.31449 65.9843C9.20806 66.446 9.06363 67.075 8.9572 67.5366C8.89313 67.8136 8.942 68.1058 9.09295 68.347C9.2439 68.5882 9.4839 68.7598 9.7619 68.8239C10.218 68.9292 10.837 69.0715 11.2931 69.1769C11.57 69.241 11.8611 69.1921 12.1032 69.0411C12.3443 68.8901 12.5159 68.6501 12.58 68.372C12.6864 67.9103 12.8308 67.2813 12.9373 66.8197C13.0013 66.5427 12.9525 66.2505 12.8015 66.0093C12.6506 65.7681 12.4106 65.5965 12.1326 65.5324C11.6765 65.4271 11.0575 65.2847 10.6014 65.1794C10.3244 65.1153 10.0323 65.1642 9.79122 65.3152C9.55014 65.4662 9.37856 65.7062 9.31449 65.9843ZM10.1702 66.182C10.1822 66.1321 10.2126 66.0886 10.2571 66.0604C10.3005 66.0332 10.3537 66.0245 10.4037 66.0354C10.8598 66.1407 11.4788 66.283 11.9349 66.3884C11.9849 66.4004 12.0283 66.4308 12.0555 66.4753C12.0826 66.5188 12.0913 66.572 12.0804 66.622C11.974 67.0836 11.8296 67.7126 11.7232 68.1743C11.7112 68.2242 11.6808 68.2677 11.6363 68.2959C11.5928 68.3231 11.5396 68.3318 11.4897 68.3209C11.0336 68.2156 10.4146 68.0733 9.95846 67.9679C9.90851 67.9559 9.86398 67.9255 9.83684 67.881C9.80969 67.8375 9.80099 67.7843 9.81185 67.7343L10.1691 66.182H10.1702Z" fill="white"/>
<path d="M17.7576 56.283C17.8478 55.8931 18.0877 55.5553 18.4266 55.3435C18.7654 55.1317 19.1748 55.0633 19.5636 55.1524C20.8331 55.4445 22.6586 55.8659 23.928 56.1592C24.3179 56.2493 24.6556 56.4894 24.8674 56.8282C25.0792 57.1671 25.1476 57.5766 25.0575 57.9654C24.7621 59.2481 24.3342 61.101 24.0388 62.3837C23.9487 62.7736 23.7087 63.1114 23.3699 63.3232C23.031 63.535 22.6216 63.6034 22.2329 63.5144C20.9634 63.2222 19.1379 62.8008 17.8684 62.5076C17.4785 62.4174 17.1408 62.1774 16.929 61.8385C16.7173 61.4996 16.6488 61.0902 16.739 60.7013C17.0344 59.4186 17.4622 57.5657 17.7576 56.283Z" fill="#C2DE0B"/>
<path d="M17.3282 56.1839C17.0328 57.4666 16.605 59.3195 16.3096 60.6022C16.1934 61.1051 16.2824 61.634 16.5561 62.0717C16.8298 62.5094 17.2663 62.8201 17.768 62.9363C19.0375 63.2284 20.863 63.6499 22.1325 63.9431C22.6342 64.0593 23.1642 63.9703 23.6007 63.6966C24.0384 63.4229 24.3501 62.9862 24.4662 62.4834C24.7616 61.2007 25.1895 59.3477 25.4849 58.065C25.6011 57.5622 25.512 57.0332 25.2384 56.5955C24.9658 56.1578 24.5281 55.8472 24.0264 55.731C22.7569 55.4388 20.9314 55.0174 19.6619 54.7241C19.1602 54.6079 18.6314 54.697 18.1937 54.9707C17.7561 55.2444 17.4444 55.681 17.3282 56.1839ZM18.185 56.3816C18.2491 56.1057 18.4185 55.8656 18.6596 55.7158C18.8996 55.5659 19.1896 55.517 19.4643 55.58C20.7338 55.8722 22.5593 56.2936 23.8288 56.5868C24.1046 56.6498 24.3435 56.8214 24.4945 57.0615C24.6443 57.3015 24.6932 57.5915 24.6302 57.8674L23.6116 62.2857C23.5475 62.5616 23.377 62.8005 23.137 62.9515C22.8959 63.1014 22.606 63.1502 22.3312 63.0862C21.0618 62.794 19.2363 62.3726 17.9668 62.0793C17.692 62.0163 17.452 61.8447 17.3022 61.6047C17.1512 61.3647 17.1034 61.0747 17.1664 60.7988L18.185 56.3805V56.3816Z" fill="#C2DE0B"/>
<path d="M3.51506 56.4264L-1.30662 54.6438C-1.53358 54.5602 -1.78661 54.6764 -1.87131 54.9035C-1.95493 55.1305 -1.83874 55.3836 -1.61177 55.4683L3.2099 57.2509C3.43687 57.3346 3.6899 57.2183 3.7746 56.9913C3.85822 56.7643 3.74202 56.5112 3.51506 56.4275V56.4264Z" fill="#2B65EC"/>
<path d="M6.5188 52.487L-0.538878 45.5011C-0.711546 45.3306 -0.989549 45.3317 -1.16004 45.5044C-1.33054 45.6771 -1.32946 45.9551 -1.15679 46.1256L5.90088 53.1115C6.07355 53.2821 6.35156 53.281 6.52205 53.1083C6.69255 52.9356 6.69147 52.6575 6.5188 52.487Z" fill="#2B65EC"/>
<path d="M10.5713 49.222L8.86583 43.8003C8.79305 43.569 8.54755 43.4397 8.31508 43.5125C8.08262 43.5853 7.95552 43.8318 8.0283 44.0632L9.73377 49.4849C9.80655 49.7163 10.0531 49.8455 10.2845 49.7728C10.5148 49.7011 10.6441 49.4534 10.5713 49.222Z" fill="#2B65EC"/>
<path d="M-5.63786 72.2505C-4.08494 70.7796 -1.91953 69.3696 0.27303 69.9432C0.811667 70.0833 1.35464 70.2441 1.72713 70.6819C2.19952 71.2359 2.31246 72.1592 1.53926 72.4438C1.25582 72.5481 0.924602 72.4601 0.593384 72.358C0.149225 72.22 -0.293846 72.031 -0.667417 71.9528C-1.56334 71.766 -2.47228 71.9973 -3.35191 72.1657C-3.58974 72.2113 -3.74612 72.4416 -3.7016 72.6795C-3.65598 72.9174 -3.42576 73.0739 -3.18793 73.0282C-2.42016 72.8816 -1.62958 72.6502 -0.846597 72.8131C-0.416555 72.9033 0.107961 73.151 0.616191 73.277C1.04949 73.3834 1.47193 73.4063 1.84333 73.2694C3.24205 72.7545 3.24965 71.1164 2.39608 70.1137C1.90306 69.5347 1.20696 69.2795 0.494564 69.0937C-1.9912 68.4441 -4.4824 69.9464 -6.24274 71.6139C-6.41867 71.7812 -6.42627 72.0593 -6.26012 72.2352C-6.09288 72.4112 -5.81487 72.4188 -5.63895 72.2526L-5.63786 72.2505Z" fill="#2B65EC"/>
<path d="M-3.40729 73.0363C-2.01508 73.2764 -0.99645 73.46 -0.215643 74.8004C-0.0918436 75.0123 0.0124092 75.3099 0.015667 75.5934C0.017839 75.79 -0.0266905 75.9845 -0.213476 76.0877C-0.351393 76.1626 -0.505598 76.0823 -0.659805 76.0116C-0.948671 75.8813 -1.22885 75.6912 -1.45256 75.5923C-2.28766 75.2252 -3.19444 75.1915 -4.09362 75.2186C-4.33579 75.2263 -4.52691 75.4283 -4.51931 75.6705C-4.51171 75.9128 -4.30972 76.104 -4.06755 76.0964C-3.29978 76.0736 -2.52114 76.0823 -1.80658 76.3962C-1.53075 76.5179 -1.1702 76.772 -0.811836 76.8959C-0.457812 77.0186 -0.105965 77.0295 0.207878 76.8579C0.615114 76.6352 0.818192 76.2724 0.876834 75.8606C0.949594 75.3501 0.774753 74.7548 0.543443 74.3572C-0.395914 72.7463 -1.58287 72.4584 -3.25742 72.1705C-3.49634 72.1292 -3.7233 72.29 -3.76457 72.529C-3.80583 72.768 -3.64511 72.995 -3.4062 73.0363H-3.40729Z" fill="#2B65EC"/>
<path d="M-5.74629 80.5862C-2.03121 80.7676 1.59372 80.7567 3.24873 80.4363C3.48656 80.3907 3.64076 80.1614 3.59515 79.9235C3.54954 79.6857 3.32041 79.5281 3.08041 79.5759C1.46341 79.8888 -2.07683 79.8888 -5.70503 79.7106C-5.94611 79.6987 -6.15353 79.8855 -6.16548 80.1278C-6.17742 80.37 -5.98955 80.5764 -5.74629 80.5862Z" fill="#2B65EC"/>
<path d="M12.0366 85.3324C11.9867 85.34 11.7434 85.3845 11.5165 85.4421C10.6618 85.655 9.07413 86.1209 7.02058 86.6618C2.88632 87.7479 -3.11797 89.1306 -8.81927 89.3641C-12.669 89.5205 -16.3819 89.1501 -19.3075 87.837C-19.529 87.7392 -19.6289 87.4797 -19.5279 87.2559C-19.4291 87.0354 -19.1696 86.9377 -18.948 87.0354C-16.1332 88.2975 -12.5604 88.6375 -8.8551 88.4865C-3.22113 88.2551 2.71148 86.8855 6.79687 85.8125C9.1545 85.1923 10.904 84.6688 11.6403 84.5102C11.915 84.4516 12.0964 84.4505 12.1735 84.4646C14.7635 84.9957 17.044 83.864 18.5231 81.9263C20.7873 78.9601 21.1924 74.1247 18.0485 70.2994C17.8932 70.1137 17.9215 69.8357 18.1083 69.6825C18.295 69.5294 18.573 69.5543 18.7262 69.7422C22.1654 73.9249 21.6974 79.2165 19.2203 82.4607C17.5479 84.6514 14.9644 85.9167 12.0366 85.3335V85.3324Z" fill="#2B65EC"/>
<path d="M14.7537 70.3175C14.5441 69.9634 14.3389 69.5604 14.2162 69.1618C14.0402 68.5905 14.037 68.0279 14.3041 67.5794C14.5018 67.2481 14.7494 67.0743 15.0089 66.9972C15.262 66.9212 15.5378 66.9396 15.8169 67.0363C16.4435 67.2524 17.1059 67.9063 17.4274 68.2571C17.5859 68.4298 18.156 69.1151 18.3396 69.2618C18.5285 69.4138 18.5589 69.6897 18.408 69.8798C18.2559 70.0687 17.9801 70.0992 17.7901 69.9482C17.5881 69.7863 16.9528 69.0402 16.779 68.8501C16.5629 68.6133 16.1633 68.1952 15.7419 67.9628C15.5758 67.8704 15.4107 67.7933 15.2587 67.8389C15.1794 67.8628 15.1175 67.9291 15.0578 68.0301C14.9101 68.2777 14.9579 68.5894 15.0545 68.9033C15.2446 69.5213 15.6703 70.1469 15.9352 70.5227C16.1003 70.7573 16.2838 70.9778 16.4467 71.2124C16.4989 71.2863 16.6346 71.4057 16.6889 71.4861C16.7584 71.5882 16.7823 71.686 16.7866 71.7577C16.7932 71.875 16.7606 71.9749 16.6987 72.0596C16.6411 72.1389 16.5477 72.2258 16.374 72.2518C16.2947 72.2638 16.1514 72.2551 15.9939 72.1584C15.8332 72.0607 15.5519 71.7935 15.4791 71.7392C15.1371 71.4829 14.7993 71.2005 14.3671 71.1277C14.0337 71.0712 13.7872 71.0777 13.6667 71.2341C13.544 71.3938 13.5928 71.6436 13.7177 71.9532C13.9545 72.5397 14.3769 72.9839 14.8156 73.4162C15.3195 73.9136 15.8473 74.3948 16.2285 74.9921C16.3436 75.1724 16.3012 75.3103 16.2806 75.3733C16.2263 75.5417 16.1047 75.6851 15.8505 75.6796C15.8147 75.6796 15.7647 75.6742 15.705 75.6525C15.6735 75.6416 15.5552 75.5764 15.5345 75.5645C15.4574 75.5297 15.3792 75.4961 15.3032 75.4591C15.0752 75.3494 14.8504 75.2463 14.6115 75.1605C14.2933 75.0453 13.81 74.9128 13.3637 74.9193C13.0498 74.9237 12.7414 74.9823 12.6252 75.2832C12.5992 75.3505 12.6144 75.4211 12.635 75.4885C12.6741 75.6177 12.7436 75.7415 12.8077 75.8512C13.1758 76.4931 13.9403 76.946 14.5637 77.2958C14.8363 77.4489 15.1186 77.5782 15.4216 77.6574C15.6562 77.7183 15.7973 77.9583 15.7354 78.1929C15.6746 78.4275 15.4346 78.5687 15.2 78.5068C14.8243 78.409 14.4714 78.2516 14.1325 78.0604C13.3821 77.6379 12.4895 77.0601 12.0464 76.2868C11.826 75.9034 11.6327 75.4135 11.8064 74.965C12.016 74.4208 12.4602 74.1515 12.9977 74.0678C13.418 74.0016 13.9012 74.0613 14.3204 74.1591L14.1999 74.0407C13.6764 73.5237 13.1878 72.9817 12.9043 72.2812C12.6296 71.6002 12.7013 71.0484 12.9727 70.6965C13.2464 70.3424 13.7622 70.1328 14.5159 70.2599C14.5973 70.274 14.6766 70.2925 14.7537 70.3153V70.3175Z" fill="white"/>
<path d="M298.017 31.1675L295.29 43.0855L286.847 36.1376L298.016 31.1675H298.017Z" fill="#00AAFF"/>
<path d="M186.286 129.531L198.488 130.265L193.021 139.735L186.286 129.531Z" fill="#FF73DE"/>
<path d="M20.564 158.18L11.4169 166.29L8.58691 155.727L20.564 158.18Z" fill="#FFC700"/>
<path d="M297.059 146.453L286.847 139.734L296.305 134.249L297.059 146.453Z" fill="#2B65EC"/>
<path d="M135.774 23.2868C136.289 20.8593 135.778 18.3265 134.368 16.2867C132.785 14.0222 132.112 11.1331 132.73 8.21906C133.917 2.62012 139.425 -0.960817 145.023 0.226311C150.617 1.41344 154.202 6.92332 153.014 12.5212C152.396 15.4341 150.606 17.8008 148.247 19.2345C146.127 20.5237 144.636 22.6297 144.121 25.0561H144.113L135.774 23.2857V23.2868Z" fill="#FFC700"/>
<path d="M141.537 28.589L136.882 27.6016L136.828 27.8547C136.697 28.4717 136.818 29.1158 137.161 29.6449C137.504 30.1739 138.046 30.5454 138.662 30.6758C139.281 30.8072 139.924 30.6877 140.453 30.3434C140.983 30.0001 141.353 29.4602 141.483 28.8421C141.517 28.6857 141.537 28.589 141.537 28.589Z" fill="#2B65EC"/>
<path d="M135.23 25.7228L143.623 27.5033C143.893 27.5608 144.16 27.3881 144.217 27.1176C144.275 26.8471 144.101 26.581 143.83 26.5234L135.437 24.743C135.167 24.6854 134.901 24.8581 134.843 25.1286C134.785 25.3991 134.959 25.6653 135.23 25.7228Z" fill="#2B65EC"/>
<path d="M392.377 14.9939C392.743 14.7028 393.247 14.6626 393.652 14.8972C394.055 15.1297 394.276 15.588 394.204 16.0485L393.034 23.5949L399.424 27.7754C399.816 28.0317 400.01 28.5009 399.912 28.9571C399.814 29.4132 399.447 29.763 398.985 29.8379L391.449 31.0587L389.446 38.428C389.326 38.8787 388.938 39.2078 388.474 39.2567C388.011 39.3056 387.564 39.0645 387.35 38.6496L383.861 31.857L376.233 32.2295C375.768 32.2523 375.335 31.9862 375.145 31.5605C374.955 31.1347 375.049 30.6362 375.377 30.3049L380.758 24.8863L378.046 17.7472C377.88 17.3106 377.999 16.8175 378.346 16.5047C378.694 16.193 379.197 16.1267 379.613 16.3364L386.428 19.7804L392.378 14.9939H392.377Z" fill="#FFC700"/>
<path d="M152.713 149.72C152.745 149.508 152.901 149.336 153.108 149.28C153.316 149.224 153.535 149.296 153.67 149.463L155.948 152.289L159.534 152.85C159.746 152.883 159.918 153.038 159.974 153.245C160.029 153.453 159.956 153.672 159.79 153.807L156.966 156.085L156.405 159.672C156.372 159.883 156.217 160.055 156.01 160.112C155.802 160.167 155.582 160.095 155.448 159.928L153.169 157.102L149.583 156.541C149.371 156.508 149.2 156.354 149.144 156.146C149.089 155.939 149.161 155.719 149.327 155.585L152.151 153.306L152.713 149.72Z" fill="#C2DE0B"/>
<path d="M151.744 153.07L152.28 149.651C152.338 149.268 152.619 148.956 152.994 148.855C153.369 148.755 153.767 148.884 154.012 149.186L156.184 151.88L159.603 152.414C159.986 152.474 160.298 152.754 160.399 153.13C160.499 153.505 160.369 153.903 160.068 154.148L157.374 156.32L156.84 159.739C156.78 160.122 156.499 160.434 156.125 160.535C155.749 160.636 155.351 160.506 155.107 160.204L152.934 157.51L149.516 156.976C149.132 156.916 148.82 156.636 148.719 156.261C148.619 155.887 148.749 155.487 149.051 155.244L151.744 153.071V153.07ZM153.147 149.787C153.154 149.747 153.182 149.714 153.222 149.704C153.26 149.694 153.303 149.708 153.328 149.739L155.607 152.564C155.675 152.649 155.773 152.705 155.881 152.723L159.466 153.284C159.507 153.291 159.539 153.319 159.55 153.359C159.561 153.398 159.547 153.44 159.515 153.466L156.691 155.744C156.606 155.813 156.55 155.91 156.532 156.018L155.971 159.604C155.964 159.645 155.936 159.677 155.897 159.687C155.858 159.698 155.815 159.684 155.79 159.652L153.511 156.827C153.443 156.742 153.345 156.686 153.237 156.669L149.652 156.108C149.612 156.102 149.58 156.072 149.569 156.033C149.558 155.994 149.572 155.953 149.603 155.927L152.427 153.648C152.512 153.58 152.568 153.482 152.586 153.374L153.147 149.788V149.787Z" fill="#C2DE0B"/>
<path d="M261.295 9.71126C261.328 9.49946 261.483 9.32786 261.69 9.27138C261.898 9.21599 262.117 9.28767 262.252 9.45493L264.53 12.281L268.116 12.8415C268.328 12.8751 268.5 13.0293 268.556 13.2368C268.611 13.4442 268.538 13.6636 268.372 13.7983L265.548 16.077L264.987 19.6634C264.954 19.8752 264.799 20.0478 264.592 20.1032C264.384 20.1586 264.164 20.0869 264.03 19.9197L261.751 17.0936L258.165 16.5332C257.953 16.4995 257.782 16.3453 257.726 16.1378C257.671 15.9304 257.743 15.711 257.909 15.5763L260.733 13.2976L261.295 9.71126Z" fill="#FF73DE"/>
<path d="M260.327 13.062L260.862 9.64289C260.921 9.25949 261.202 8.94777 261.577 8.84676C261.951 8.74684 262.35 8.87609 262.594 9.17803L264.766 11.8716L268.186 12.406C268.568 12.4657 268.881 12.7459 268.982 13.1217C269.082 13.4964 268.951 13.895 268.651 14.1394L265.956 16.3117L265.422 19.7308C265.362 20.1142 265.081 20.4259 264.707 20.5269C264.332 20.6279 263.933 20.4976 263.69 20.1956L261.517 17.502L258.098 16.9677C257.715 16.9079 257.402 16.6277 257.301 16.253C257.2 15.8783 257.332 15.4786 257.633 15.2353L260.327 13.0631V13.062ZM261.73 9.77865C261.736 9.73847 261.764 9.70588 261.805 9.69611C261.843 9.68525 261.885 9.69937 261.91 9.73086L264.189 12.5559C264.258 12.6406 264.356 12.6971 264.463 12.7144L268.049 13.276C268.089 13.2825 268.122 13.3107 268.133 13.3509C268.143 13.39 268.129 13.4313 268.098 13.4573L265.273 15.736C265.188 15.8044 265.132 15.9022 265.115 16.0097L264.553 19.5961C264.547 19.6363 264.518 19.6688 264.479 19.6786C264.44 19.6895 264.398 19.6754 264.373 19.6439L262.094 16.8189C262.025 16.7342 261.927 16.6777 261.82 16.6603L258.234 16.0999C258.195 16.0933 258.162 16.064 258.151 16.0249C258.141 15.9858 258.155 15.9445 258.185 15.9185L261.01 13.6398C261.096 13.5714 261.151 13.4736 261.168 13.3661L261.73 9.77974V9.77865Z" fill="#FF73DE"/>
<path d="M-57.183 131.427C-68.0459 130.25 -80.8863 137.582 -87.1414 146.13C-90.0529 150.108 -90.5655 153.976 -89.4643 157.254C-87.8234 162.138 -82.5489 165.746 -76.0885 166.444C-71.3276 166.959 -66.7644 165.818 -62.1317 164.814C-48.6289 161.889 -35.3063 154.784 -21.7774 149.4C-8.36137 144.061 5.25877 140.415 19.4751 144.357C19.7086 144.422 19.9508 144.285 20.0159 144.051C20.0811 143.817 19.9442 143.575 19.7097 143.51C5.30329 139.513 -8.50581 143.171 -22.1021 148.582C-35.5864 153.949 -48.8602 161.039 -62.3185 163.954C-66.8589 164.938 -71.3287 166.074 -75.994 165.57C-82.0787 164.912 -87.0871 161.573 -88.6324 156.972C-89.6554 153.927 -89.1385 150.343 -86.4334 146.647C-80.3433 138.324 -67.8558 131.151 -57.2785 132.298C-57.0375 132.324 -56.8203 132.149 -56.7942 131.908C-56.7681 131.667 -56.943 131.45 -57.1841 131.424L-57.183 131.427Z" fill="#2B65EC"/>
<path d="M106.037 153.309C103.903 152.562 101.919 151.545 100.2 150.116C97.9095 148.212 96.817 146.14 96.5575 144.125C95.9537 139.442 99.899 135.002 104.136 133.505C106.193 132.778 108.311 132.745 110.013 133.659C111.712 134.573 113.026 136.433 113.421 139.569C114.107 144.997 111.769 149.458 107.832 152.958C109.134 153.329 110.481 153.616 111.846 153.85C116.02 154.568 120.364 154.805 124.157 155.466C133.698 157.132 141.997 161.606 148.457 168.897C149.193 169.729 149.953 170.635 150.685 171.594C155.261 168.827 160.467 166.978 165.462 165.017C165.688 164.929 165.943 165.039 166.031 165.265C166.12 165.491 166.008 165.746 165.782 165.834C160.859 167.768 155.717 169.572 151.204 172.291C152.656 174.284 153.942 176.475 154.635 178.686C155.787 182.361 155.342 186.094 151.442 189.133C146.965 192.621 143.149 192.281 141.184 190.119C139.231 187.969 139.029 183.89 141.899 179.664C144.08 176.45 146.848 174.026 149.936 172.059C149.232 171.142 148.503 170.277 147.798 169.48C141.474 162.343 133.347 157.963 124.005 156.332C120.213 155.669 115.87 155.434 111.696 154.716C110.104 154.442 108.538 154.098 107.035 153.636C106.226 154.295 105.359 154.919 104.445 155.505C95.7409 161.09 82.7864 163.34 75.2813 162.43C71.3317 161.953 65.7487 160.826 63.0067 157.528C62.8514 157.341 62.8775 157.064 63.0642 156.909C63.251 156.753 63.528 156.779 63.6822 156.966C66.2906 160.104 71.6292 161.103 75.3867 161.558C82.743 162.449 95.439 160.24 103.969 154.766C104.689 154.304 105.38 153.819 106.035 153.309H106.037ZM150.458 172.754C147.45 174.668 144.751 177.027 142.627 180.158C140.052 183.951 140.084 187.6 141.836 189.529C143.576 191.445 146.936 191.533 150.904 188.441C154.446 185.681 154.845 182.288 153.799 178.95C153.126 176.805 151.871 174.684 150.458 172.754ZM106.842 152.656C110.801 149.299 113.221 144.988 112.55 139.678C112.202 136.913 111.097 135.239 109.598 134.434C108.101 133.63 106.239 133.694 104.431 134.334C100.551 135.704 96.8768 139.725 97.4295 144.013C97.6663 145.843 98.6816 147.711 100.762 149.44C102.539 150.917 104.612 151.929 106.843 152.656H106.842Z" fill="#2B65EC"/>
<path d="M218.696 140.792C216.111 139.788 213.508 138.412 211.829 136.805C210.636 135.663 209.902 134.398 209.877 133.075C209.859 132.176 210.166 131.24 210.9 130.29C211.701 129.26 212.89 128.654 214.245 128.403C216.193 128.043 218.483 128.423 220.328 129.269C222.478 130.255 223.993 131.889 223.871 133.659C223.715 135.902 222.365 138.213 220.279 140.438C221.511 140.858 222.7 141.184 223.736 141.4C236 143.963 252.368 142.778 263.63 147.122C266.015 148.041 269.181 149.646 271.592 151.52C273.252 152.812 274.554 154.241 275.053 155.655C275.135 155.884 275.012 156.135 274.784 156.216C274.555 156.296 274.304 156.176 274.226 155.947C273.774 154.663 272.563 153.389 271.054 152.214C268.71 150.392 265.633 148.834 263.317 147.942C252.092 143.613 235.781 144.815 223.558 142.26C222.379 142.014 221.01 141.629 219.605 141.128C218.896 141.828 218.119 142.517 217.283 143.19C211.815 147.613 204.003 151.417 198.406 153.299C195.206 154.376 191.271 155.495 187.655 155.184C187.414 155.163 187.235 154.95 187.256 154.708C187.276 154.467 187.489 154.288 187.731 154.309C191.228 154.608 195.034 153.507 198.127 152.466C203.643 150.611 211.341 146.865 216.732 142.507C217.431 141.943 218.09 141.371 218.698 140.791L218.696 140.792ZM219.38 140.117C221.463 137.984 222.841 135.77 222.995 133.598C223.041 132.903 222.744 132.251 222.235 131.671C221.681 131.037 220.88 130.491 219.96 130.069C218.276 129.295 216.183 128.938 214.405 129.268C213.272 129.478 212.262 129.966 211.596 130.829C211.003 131.592 210.739 132.336 210.756 133.06C210.774 134.171 211.433 135.211 212.435 136.17C214.122 137.785 216.783 139.148 219.38 140.118V140.117Z" fill="#2B65EC"/>
<path d="M286.312 174.156C294.785 169.772 306.463 165.292 314.601 165.553C314.842 165.56 315.031 165.764 315.024 166.006C315.015 166.248 314.814 166.438 314.573 166.43C306.557 166.173 295.064 170.607 286.713 174.934C287.147 175.796 287.542 176.673 287.881 177.558C288.947 180.339 289.462 183.202 288.882 185.951C287.633 191.869 279.824 195.81 275.382 190.515C273.205 187.918 273.688 185.101 275.269 182.615C276.779 180.235 279.307 178.169 281.3 176.957C282.564 176.188 283.992 175.379 285.535 174.561C284.054 171.771 282.225 169.163 280.732 166.971C280.597 166.771 280.647 166.498 280.848 166.361C281.049 166.225 281.322 166.276 281.459 166.477C282.969 168.694 284.813 171.332 286.313 174.154L286.312 174.156ZM285.938 175.342C284.41 176.15 283.002 176.951 281.753 177.71C279.858 178.863 277.445 180.823 276.008 183.087C274.637 185.246 274.16 187.696 276.055 189.951C280.004 194.661 286.91 191.035 288.021 185.771C288.567 183.184 288.064 180.491 287.061 177.873C286.735 177.019 286.352 176.173 285.938 175.342Z" fill="#2B65EC"/>
<path d="M379.103 154.581C381.838 155.978 385.037 156.973 388.473 157.511C411.515 161.123 445.875 152.755 461.84 141.174C470.081 135.195 474.636 127.328 473.401 119.929C472.578 115.01 469.192 110.326 462.681 106.555C462.473 106.433 462.401 106.164 462.523 105.954C462.644 105.745 462.913 105.673 463.124 105.795C469.915 109.731 473.411 114.652 474.268 119.785C475.55 127.465 470.911 135.679 462.358 141.885C446.247 153.571 411.585 162.023 388.34 158.38C384.695 157.809 381.318 156.731 378.45 155.218C373.501 159.857 366.159 163.194 358.217 164.52C357.98 164.56 357.752 164.398 357.712 164.159C357.672 163.92 357.834 163.693 358.074 163.653C365.725 162.375 372.828 159.207 377.648 154.777C373.667 152.486 370.773 149.309 369.673 145.454C368.937 142.881 369.193 138.627 371.871 136.383C373.031 135.412 374.642 134.803 376.832 134.874C379.616 134.966 381.487 135.866 382.697 137.176C383.832 138.403 384.39 140 384.552 141.676C384.792 144.125 384.184 146.738 383.373 148.536C382.392 150.713 380.935 152.743 379.105 154.582L379.103 154.581ZM378.302 154.152C380.138 152.34 381.598 150.334 382.573 148.173C383.331 146.491 383.901 144.049 383.676 141.759C383.53 140.277 383.053 138.856 382.049 137.77C380.967 136.601 379.286 135.831 376.798 135.75C370.35 135.539 369.576 141.928 370.516 145.211C371.582 148.94 374.413 151.976 378.301 154.151L378.302 154.152Z" fill="#2B65EC"/>
</g>
<defs>
<clipPath id="clip0_57_2929">
<rect width="571" height="193" fill="white" transform="translate(-90)"/>
</clipPath>
</defs>
</svg>
