<svg width="17" height="16" viewBox="0 0 17 16" fill="none" xmlns="http://www.w3.org/2000/svg">
<path d="M14.1208 5.63317C13.4018 2.55317 10.642 1.1665 8.21779 1.1665C8.21779 1.1665 8.21779 1.1665 8.21094 1.1665C5.79357 1.1665 3.02695 2.5465 2.30791 5.6265C1.50668 9.0665 3.67067 11.9798 5.62922 13.8132C6.35512 14.4932 7.28645 14.8332 8.21779 14.8332C9.14913 14.8332 10.0805 14.4932 10.7995 13.8132C12.7581 11.9798 14.9221 9.07317 14.1208 5.63317ZM8.21779 8.97317C7.02623 8.97317 6.06065 8.03317 6.06065 6.87317C6.06065 5.71317 7.02623 4.77317 8.21779 4.77317C9.40936 4.77317 10.3749 5.71317 10.3749 6.87317C10.3749 8.03317 9.40936 8.97317 8.21779 8.97317Z" fill="#2B65EC"/>
</svg>
