<svg width="120" height="120" viewBox="0 0 120 120" fill="none" xmlns="http://www.w3.org/2000/svg">
<g filter="url(#filter0_d_54_2465)">
<circle cx="60" cy="56" r="19" fill="#2B65EC"/>
<circle cx="60" cy="56" r="19" stroke="white" stroke-width="1.5"/>
</g>
<g clip-path="url(#clip0_54_2465)">
<path d="M67.1834 53.0418C66.3084 49.1918 62.9501 47.4585 60.0001 47.4585C60.0001 47.4585 60.0001 47.4585 59.9917 47.4585C57.0501 47.4585 53.6834 49.1835 52.8084 53.0335C51.8334 57.3335 54.4667 60.9752 56.8501 63.2668C57.7334 64.1168 58.8667 64.5418 60.0001 64.5418C61.1334 64.5418 62.2667 64.1168 63.1417 63.2668C65.5251 60.9752 68.1584 57.3418 67.1834 53.0418ZM60.0001 57.2168C58.5501 57.2168 57.3751 56.0418 57.3751 54.5918C57.3751 53.1418 58.5501 51.9668 60.0001 51.9668C61.4501 51.9668 62.6251 53.1418 62.6251 54.5918C62.6251 56.0418 61.4501 57.2168 60.0001 57.2168Z" fill="white"/>
</g>
<defs>
<filter id="filter0_d_54_2465" x="0.25" y="0.25" width="119.5" height="119.5" filterUnits="userSpaceOnUse" color-interpolation-filters="sRGB">
<feFlood flood-opacity="0" result="BackgroundImageFix"/>
<feColorMatrix in="SourceAlpha" type="matrix" values="0 0 0 0 0 0 0 0 0 0 0 0 0 0 0 0 0 0 127 0" result="hardAlpha"/>
<feOffset dy="4"/>
<feGaussianBlur stdDeviation="20"/>
<feComposite in2="hardAlpha" operator="out"/>
<feColorMatrix type="matrix" values="0 0 0 0 0.0980392 0 0 0 0 0.113725 0 0 0 0 0.192157 0 0 0 0.15 0"/>
<feBlend mode="normal" in2="BackgroundImageFix" result="effect1_dropShadow_54_2465"/>
<feBlend mode="normal" in="SourceGraphic" in2="effect1_dropShadow_54_2465" result="shape"/>
</filter>
<clipPath id="clip0_54_2465">
<rect width="20" height="20" fill="white" transform="translate(50 46)"/>
</clipPath>
</defs>
</svg>
