<svg width="83" height="108" viewBox="0 0 83 108" fill="none" xmlns="http://www.w3.org/2000/svg">
<rect x="4" width="79" height="79" rx="27" fill="#2B65EC"/>
<path d="M4.878 103.18C3.882 103.18 3.036 103 2.34 102.64C1.644 102.28 1.02 101.752 0.468 101.056L1.872 99.652C2.22 100.156 2.634 100.552 3.114 100.84C3.594 101.116 4.206 101.254 4.95 101.254C5.646 101.254 6.198 101.11 6.606 100.822C7.026 100.534 7.236 100.138 7.236 99.634C7.236 99.214 7.128 98.872 6.912 98.608C6.696 98.344 6.408 98.128 6.048 97.96C5.7 97.78 5.31 97.624 4.878 97.492C4.458 97.348 4.032 97.192 3.6 97.024C3.18 96.844 2.79 96.622 2.43 96.358C2.082 96.094 1.8 95.752 1.584 95.332C1.368 94.912 1.26 94.378 1.26 93.73C1.26 92.986 1.44 92.356 1.8 91.84C2.172 91.312 2.67 90.91 3.294 90.634C3.918 90.358 4.614 90.22 5.382 90.22C6.21 90.22 6.948 90.382 7.596 90.706C8.256 91.03 8.79 91.444 9.198 91.948L7.794 93.352C7.434 92.944 7.056 92.644 6.66 92.452C6.276 92.248 5.832 92.146 5.328 92.146C4.704 92.146 4.212 92.272 3.852 92.524C3.504 92.776 3.33 93.13 3.33 93.586C3.33 93.97 3.438 94.282 3.654 94.522C3.87 94.75 4.152 94.948 4.5 95.116C4.86 95.272 5.25 95.422 5.67 95.566C6.102 95.71 6.528 95.872 6.948 96.052C7.38 96.232 7.77 96.466 8.118 96.754C8.478 97.03 8.766 97.39 8.982 97.834C9.198 98.278 9.306 98.836 9.306 99.508C9.306 100.636 8.904 101.53 8.1 102.19C7.308 102.85 6.234 103.18 4.878 103.18ZM12.414 103V90.76H14.394V103H12.414ZM10.344 96.16V94.36H16.464V96.16H10.344ZM21.2746 103.18C20.4946 103.18 19.7866 102.982 19.1506 102.586C18.5266 102.19 18.0286 101.656 17.6566 100.984C17.2966 100.3 17.1166 99.538 17.1166 98.698C17.1166 97.846 17.2966 97.084 17.6566 96.412C18.0286 95.728 18.5266 95.188 19.1506 94.792C19.7866 94.384 20.4946 94.18 21.2746 94.18C21.9346 94.18 22.5166 94.324 23.0206 94.612C23.5366 94.888 23.9446 95.272 24.2446 95.764C24.5446 96.256 24.6946 96.814 24.6946 97.438V99.922C24.6946 100.546 24.5446 101.104 24.2446 101.596C23.9566 102.088 23.5546 102.478 23.0386 102.766C22.5226 103.042 21.9346 103.18 21.2746 103.18ZM21.5986 101.308C22.3306 101.308 22.9186 101.062 23.3626 100.57C23.8186 100.078 24.0466 99.448 24.0466 98.68C24.0466 98.164 23.9446 97.708 23.7406 97.312C23.5366 96.916 23.2486 96.61 22.8766 96.394C22.5166 96.166 22.0906 96.052 21.5986 96.052C21.1186 96.052 20.6926 96.166 20.3206 96.394C19.9606 96.61 19.6726 96.916 19.4566 97.312C19.2526 97.708 19.1506 98.164 19.1506 98.68C19.1506 99.196 19.2526 99.652 19.4566 100.048C19.6726 100.444 19.9606 100.756 20.3206 100.984C20.6926 101.2 21.1186 101.308 21.5986 101.308ZM23.9206 103V100.678L24.2626 98.572L23.9206 96.484V94.36H25.9006V103H23.9206ZM34.02 103V98.014C34.02 97.438 33.834 96.964 33.462 96.592C33.102 96.22 32.634 96.034 32.058 96.034C31.674 96.034 31.332 96.118 31.032 96.286C30.732 96.454 30.498 96.688 30.33 96.988C30.162 97.288 30.078 97.63 30.078 98.014L29.304 97.582C29.304 96.922 29.448 96.34 29.736 95.836C30.024 95.32 30.42 94.918 30.924 94.63C31.44 94.33 32.016 94.18 32.652 94.18C33.3 94.18 33.876 94.348 34.38 94.684C34.884 95.008 35.28 95.434 35.568 95.962C35.856 96.478 36 97.018 36 97.582V103H34.02ZM28.098 103V94.36H30.078V103H28.098ZM41.6301 103.18C40.8501 103.18 40.1421 102.982 39.5061 102.586C38.8821 102.19 38.3841 101.656 38.0121 100.984C37.6521 100.3 37.4721 99.538 37.4721 98.698C37.4721 97.846 37.6521 97.084 38.0121 96.412C38.3841 95.728 38.8821 95.188 39.5061 94.792C40.1421 94.384 40.8501 94.18 41.6301 94.18C42.2901 94.18 42.8721 94.324 43.3761 94.612C43.8921 94.888 44.3001 95.272 44.6001 95.764C44.9001 96.256 45.0501 96.814 45.0501 97.438V99.922C45.0501 100.546 44.9001 101.104 44.6001 101.596C44.3121 102.088 43.9101 102.478 43.3941 102.766C42.8781 103.042 42.2901 103.18 41.6301 103.18ZM41.9541 101.308C42.4461 101.308 42.8721 101.2 43.2321 100.984C43.6041 100.756 43.8921 100.444 44.0961 100.048C44.3001 99.652 44.4021 99.196 44.4021 98.68C44.4021 98.164 44.3001 97.708 44.0961 97.312C43.8921 96.916 43.6041 96.61 43.2321 96.394C42.8721 96.166 42.4461 96.052 41.9541 96.052C41.4741 96.052 41.0481 96.166 40.6761 96.394C40.3161 96.61 40.0281 96.916 39.8121 97.312C39.6081 97.708 39.5061 98.164 39.5061 98.68C39.5061 99.196 39.6081 99.652 39.8121 100.048C40.0281 100.444 40.3161 100.756 40.6761 100.984C41.0481 101.2 41.4741 101.308 41.9541 101.308ZM46.2561 103H44.2761V100.678L44.6181 98.572L44.2761 96.484V90.04H46.2561V103ZM48.7235 103V90.4H50.1635L55.4015 99.022H54.4655L59.7035 90.4H61.1435V103H59.0735V94.036L59.5415 94.162L55.6535 100.552H54.2135L50.3255 94.162L50.7935 94.036V103H48.7235ZM67.2238 103.18C66.4438 103.18 65.7358 102.982 65.0998 102.586C64.4758 102.19 63.9778 101.656 63.6058 100.984C63.2458 100.3 63.0658 99.538 63.0658 98.698C63.0658 97.846 63.2458 97.084 63.6058 96.412C63.9778 95.728 64.4758 95.188 65.0998 94.792C65.7358 94.384 66.4438 94.18 67.2238 94.18C67.8838 94.18 68.4658 94.324 68.9698 94.612C69.4858 94.888 69.8938 95.272 70.1938 95.764C70.4938 96.256 70.6438 96.814 70.6438 97.438V99.922C70.6438 100.546 70.4938 101.104 70.1938 101.596C69.9058 102.088 69.5038 102.478 68.9878 102.766C68.4718 103.042 67.8838 103.18 67.2238 103.18ZM67.5478 101.308C68.2798 101.308 68.8678 101.062 69.3118 100.57C69.7678 100.078 69.9958 99.448 69.9958 98.68C69.9958 98.164 69.8938 97.708 69.6898 97.312C69.4858 96.916 69.1978 96.61 68.8258 96.394C68.4658 96.166 68.0398 96.052 67.5478 96.052C67.0678 96.052 66.6418 96.166 66.2698 96.394C65.9098 96.61 65.6218 96.916 65.4058 97.312C65.2018 97.708 65.0998 98.164 65.0998 98.68C65.0998 99.196 65.2018 99.652 65.4058 100.048C65.6218 100.444 65.9098 100.756 66.2698 100.984C66.6418 101.2 67.0678 101.308 67.5478 101.308ZM69.8698 103V100.678L70.2118 98.572L69.8698 96.484V94.36H71.8498V103H69.8698ZM79.9692 103V98.014C79.9692 97.438 79.7832 96.964 79.4112 96.592C79.0512 96.22 78.5832 96.034 78.0072 96.034C77.6232 96.034 77.2812 96.118 76.9812 96.286C76.6812 96.454 76.4472 96.688 76.2792 96.988C76.1112 97.288 76.0272 97.63 76.0272 98.014L75.2532 97.582C75.2532 96.922 75.3972 96.34 75.6852 95.836C75.9732 95.32 76.3692 94.918 76.8732 94.63C77.3892 94.33 77.9652 94.18 78.6012 94.18C79.2492 94.18 79.8252 94.348 80.3292 94.684C80.8332 95.008 81.2292 95.434 81.5172 95.962C81.8052 96.478 81.9492 97.018 81.9492 97.582V103H79.9692ZM74.0472 103V94.36H76.0272V103H74.0472Z" fill="black"/>
<path d="M55.6254 22.2014C55.7051 21.976 55.8106 21.7256 55.6873 21.3846C55.7735 21.1407 55.7215 20.8395 55.6783 20.5512C55.5619 19.7628 55.3405 18.9995 55.1477 18.6619C55.147 18.6605 55.1604 18.664 55.1597 18.6625C54.9746 18.3411 53.2294 18.8716 53.2294 18.8716C53.2294 18.8716 53.2301 19.0181 53.2246 19.2441C53.2061 19.9483 53.154 21.4342 53.0445 21.7441C52.9036 22.1429 49.9236 25.6504 49.3437 26.6328C49.3287 26.658 49.3155 26.6814 49.3043 26.703C48.9184 27.4224 48.7059 28.0032 48.6158 28.4651C48.6131 28.4727 48.613 28.4799 48.6114 28.4879C48.4737 29.2158 48.6419 29.6434 48.9155 29.8522C49.1973 30.0688 49.5894 30.0525 49.8704 29.8922C49.9038 29.8735 49.9098 29.8427 49.9451 29.8186C51.6114 28.7251 55.2803 23.1815 55.6269 22.2007L55.6254 22.2014Z" fill="white"/>
<path d="M55.7342 20.5712C55.6179 19.7828 55.3682 19.0095 55.1754 18.672L53.2274 19.2454C53.2089 19.9495 53.1557 21.435 53.0462 21.745C52.9053 22.1438 49.9243 25.6509 49.3443 26.6333C49.6384 26.2874 49.4898 27.3979 49.634 27.383C49.8601 27.3605 49.5666 26.3596 49.6928 26.2957C49.8025 26.2405 49.9728 26.9761 50.0533 26.8656C50.1648 26.7123 49.8616 26.1871 49.9585 25.9714C50.0323 25.8073 53.2617 22.2527 53.3676 22.2048C53.5102 22.1393 53.8691 22.538 53.9951 22.3643C54.0715 22.2584 53.3739 22.1216 53.4481 21.9772C53.5223 21.8327 54.1505 21.8036 54.1569 21.6718C54.1633 21.5399 53.4509 21.8002 53.4089 21.7086C53.3669 21.6169 53.5741 20.7893 53.6313 20.6791C53.69 20.5681 55.2742 20.1759 55.7331 20.5708L55.7342 20.5712Z" fill="white"/>
<path d="M55.7344 20.5713C55.5343 20.2372 54.7227 20.2333 54.8919 20.4028C55.3567 20.45 55.5979 21.8957 55.3994 22.2851C53.8162 25.3962 50.0954 30.2656 48.9138 29.853C49.1956 30.0696 49.5482 30.0687 49.8369 29.9244C51.5178 29.0823 55.3692 23.2399 55.7226 22.2396C55.9754 21.5244 55.7305 20.8685 55.7329 20.5719L55.7344 20.5713Z" fill="white"/>
<path d="M55.6051 19.2721C55.4655 18.929 55.2074 18.4623 55.1661 18.4343C55.1051 18.3933 53.2499 18.7313 53.1701 18.8054C53.0743 18.8935 52.7931 20.5313 52.8982 20.5891C52.9237 20.603 52.9775 20.6025 53.0533 20.5915C53.6517 20.5055 55.6231 19.7454 55.6883 19.6197C55.7116 19.5743 55.6719 19.4383 55.6047 19.2732L55.6051 19.2721Z" fill="white"/>
<path d="M55.605 19.2721C55.4654 18.9289 55.2073 18.4623 55.166 18.4343C55.105 18.3932 53.2498 18.7312 53.17 18.8054C53.0743 18.8935 52.793 20.5312 52.8981 20.5891C52.9237 20.603 53.0358 20.6134 53.1747 20.5686C52.9301 20.2054 53.2634 19.3967 53.3263 19.291C53.3975 19.1723 54.2469 19.3005 54.5006 19.2171C54.7544 19.1336 55.1258 18.8723 55.1896 18.8851C55.2443 18.8959 55.5054 19.1089 55.6061 19.2724L55.605 19.2721Z" fill="white"/>
<path d="M54.4115 15.8748C54.4903 15.8002 54.5633 15.6419 54.6305 15.4414C54.7426 15.1068 54.5634 14.134 54.5936 13.9106C54.6174 13.7398 54.9156 13.3686 54.9416 13.1571C54.975 12.8934 54.7194 12.413 54.4843 12.4055C54.3939 12.4028 53.9147 12.9344 53.8659 13.0001C53.826 13.0543 53.648 13.3754 53.5999 13.5632C53.5964 13.5729 53.5834 13.572 53.5821 13.5618C53.5681 13.4495 53.5456 13.3099 53.5632 13.2601C53.6134 13.1145 54.204 12.4917 53.9182 12.3761C53.8424 12.3457 53.1439 13.0461 53.1326 13.2127C53.0814 13.9749 53.2227 15.5206 53.2614 15.6525C53.3351 15.9028 54.2799 15.9989 54.4108 15.8733L54.4115 15.8748Z" fill="white"/>
<path d="M53.9352 13.8062C53.9352 13.8062 53.9759 13.7255 54.0312 13.6036C54.0588 13.5426 54.0899 13.4719 54.1244 13.3951C54.1414 13.3573 54.1588 13.3183 54.1773 13.2797C54.1958 13.2412 54.2129 13.2033 54.2352 13.1746C54.2831 13.1148 54.3487 13.0465 54.4039 12.9868C54.461 12.9253 54.514 12.8684 54.5592 12.8198C54.649 12.7211 54.7087 12.6556 54.7087 12.6556C54.7209 12.6416 54.7209 12.6209 54.7073 12.6076C54.6952 12.5972 54.6785 12.5962 54.666 12.604C54.666 12.604 54.6458 12.6163 54.6141 12.6405C54.5835 12.665 54.5374 12.6987 54.4865 12.7429C54.4355 12.787 54.375 12.8376 54.314 12.8965C54.2829 12.9257 54.2515 12.9561 54.2203 12.989C54.1892 13.0218 54.1585 13.0537 54.1254 13.0956C54.093 13.139 54.0747 13.1837 54.0554 13.2245C54.0373 13.2656 54.0212 13.3075 54.006 13.3472C53.9755 13.4266 53.9527 13.5015 53.9312 13.5658C53.8907 13.6941 53.8706 13.7821 53.8706 13.7821C53.8666 13.8002 53.8772 13.8186 53.8949 13.8236C53.9105 13.8279 53.9266 13.8202 53.9331 13.8054L53.9352 13.8062Z" fill="white"/>
<path d="M54.2512 14.0371C54.2512 14.0371 54.2605 14.0209 54.2753 13.9895C54.2889 13.9578 54.3104 13.9142 54.3307 13.8604C54.3509 13.8066 54.3753 13.7445 54.4001 13.6777C54.4245 13.6119 54.4495 13.5379 54.4789 13.4788C54.4841 13.4709 54.4824 13.469 54.4894 13.4593L54.5051 13.4356L54.5361 13.3929C54.5584 13.3642 54.5796 13.3352 54.6005 13.3072C54.6437 13.2505 54.6838 13.1989 54.7192 13.1541C54.7888 13.0641 54.8335 13.0031 54.8335 13.0031C54.845 12.9876 54.8418 12.9658 54.8264 12.9542C54.8138 12.9449 54.7978 12.9454 54.786 12.9546C54.786 12.9546 54.723 13.0018 54.6394 13.0832C54.5979 13.1246 54.5499 13.171 54.5013 13.2258C54.4772 13.2526 54.4523 13.2816 54.4281 13.3121L54.3912 13.3612L54.3752 13.386C54.3703 13.3929 54.3624 13.4083 54.3572 13.4162C54.3194 13.4955 54.2988 13.5675 54.278 13.6369C54.2582 13.7068 54.2425 13.7719 54.2277 13.8276C54.2006 13.9387 54.184 14.0133 54.184 14.0133C54.18 14.0314 54.1917 14.0502 54.2098 14.0541C54.2246 14.057 54.2393 14.0499 54.2471 14.0381L54.2512 14.0371Z" fill="white"/>
<path d="M55.0175 18.4882C54.8047 17.4414 54.4789 16.4559 54.4112 15.8748C54.3514 15.3612 53.2292 15.3633 53.2618 15.654C53.346 16.4091 53.4083 17.6989 53.3619 18.8443C53.3533 19.0655 55.087 18.8297 55.0175 18.4882Z" fill="white"/>
<path d="M44.9609 35.1685C44.9609 35.1685 43.6313 37.9155 43.4026 38.8741C43.2589 39.4775 43.3302 40.7384 43.4026 41.3545C43.437 41.6488 43.6427 42.212 43.6784 42.5051C43.7094 42.7637 43.7094 50.7405 43.691 51.0382C43.6738 51.3129 42.8417 53.6335 42.8406 54.8576C42.8383 57.5645 44.2967 64.5654 44.2967 64.5654L45.9953 64.3367C45.9918 64.4459 46.3826 59.5058 46.4837 57.6828C46.555 56.3898 47.1319 50.8911 47.0905 50.4807C47.0491 50.0692 48.5972 41.8166 48.5972 41.8166L48.1639 35.3558L44.9609 35.1685Z" fill="white"/>
<path d="M48.0827 35.4937L46.9979 39.1809L47.2794 41.6453L46.9979 42.8533C46.9979 42.8533 48.4838 49.1347 48.3793 51.2669C48.331 52.2427 47.9092 53.9335 47.9678 55.1553C48.0414 56.7024 50.4376 64.5022 50.4376 64.5022L52.027 64.4217C52.027 64.4217 52.32 58.4655 52.2971 57.1472C52.2752 55.8529 51.7063 50.7381 51.6925 50.3244C51.6788 49.8761 51.7477 42.3177 51.6282 40.12C51.5397 38.5017 50.9317 35.1558 50.9317 35.1558L48.0827 35.4937Z" fill="white"/>
<path d="M47.6597 46.9279C47.9723 45.1705 48.6308 40.8143 48.7837 40.1189" stroke="white" stroke-width="1.38" stroke-linecap="round" stroke-linejoin="round"/>
<path d="M43.9919 63.6356C43.9517 63.7287 44.224 64.5609 44.2838 64.6045C44.3712 64.6689 45.964 64.5815 46.0548 64.4563C46.0985 64.3953 46.2594 63.5023 46.1502 63.4011C45.9709 63.2356 44.07 63.4551 43.9919 63.6344V63.6356Z" fill="white"/>
<path d="M46.0195 63.5366C45.7644 63.5366 44.2957 63.6872 44.1221 63.7596" stroke="white" stroke-width="1.38" stroke-linecap="round" stroke-linejoin="round"/>
<path d="M44.6083 65.516C44.6186 65.7275 44.6163 65.9033 44.5876 65.9642C44.7427 66.8769 45.5036 66.6136 45.8081 65.5585C45.7966 65.5206 45.7874 65.4803 45.7782 65.4413C45.7483 65.2987 45.7345 65.1505 45.7288 65.0114C45.7173 64.7217 45.7414 64.4723 45.7173 64.408C45.7047 64.3735 44.5003 64.3861 44.5129 64.5011C44.5175 64.5493 44.5462 64.7804 44.5715 65.047C44.5864 65.2022 44.6002 65.3689 44.6071 65.5183L44.6083 65.516Z" fill="white"/>
<path d="M44.5723 65.0446C44.5872 65.1997 44.601 65.3664 44.6079 65.5158C44.9515 65.4848 45.4388 65.4457 45.7778 65.44C45.748 65.2974 45.7342 65.1492 45.7284 65.0101C45.3859 64.9951 44.9067 65.0124 44.5723 65.0446Z" fill="white"/>
<path d="M45.4561 66.0515L44.5137 66.1251L44.6459 66.6308L45.5044 66.5205L45.4561 66.0515Z" fill="white"/>
<path d="M46.9753 66.555C46.9534 66.5423 46.8753 66.532 46.7661 66.5251C46.7661 66.5251 46.765 66.5239 46.7638 66.5228C46.1007 66.4366 45.9375 65.6768 45.8582 65.5596C45.7559 65.409 45.7157 65.4159 45.5801 65.4447C45.3491 65.4941 45.2238 66.4251 45.0181 66.4102C44.8158 66.3964 44.6951 66.0607 44.6676 65.9584C44.6446 65.8711 44.5814 65.8619 44.5687 65.9125C44.4952 66.2102 44.3665 66.4711 44.3228 66.6952C44.3216 66.6952 44.3205 66.6952 44.3205 66.6952C44.255 66.9481 44.3308 67.0849 44.4733 67.0849H47.0534C47.1856 67.0849 47.1752 66.6722 46.9753 66.5561V66.555Z" fill="white"/>
<path d="M45.9204 64.3665C45.6653 64.3665 44.5539 64.4274 44.3804 64.5009" stroke="white" stroke-width="1.38" stroke-linecap="round" stroke-linejoin="round"/>
<path d="M50.0658 63.6931C50.0278 63.7874 50.3255 64.6115 50.3853 64.6529C50.4749 64.7138 52.0643 64.5816 52.1505 64.4529C52.193 64.3908 52.3263 63.4931 52.2149 63.3954C52.0298 63.2345 50.137 63.5104 50.0646 63.692L50.0658 63.6931Z" fill="white"/>
<path d="M52.0894 63.5347C51.8342 63.5416 50.3712 63.7347 50.1988 63.8128" stroke="white" stroke-width="1.38" stroke-linecap="round" stroke-linejoin="round"/>
<path d="M50.7597 65.4185C50.777 65.6691 50.7793 65.8886 50.7471 65.9576C50.9011 66.8702 51.6653 66.6139 51.9688 65.5587C51.9481 65.4874 51.932 65.4116 51.9205 65.3357C51.8986 65.1886 51.8917 65.0369 51.8917 64.899C51.8917 64.6426 51.9101 64.43 51.8894 64.3725C51.8768 64.338 50.6356 64.3679 50.6563 64.4737C50.6643 64.5162 50.6919 64.7128 50.7172 64.9507C50.7333 65.1001 50.7494 65.2656 50.7597 65.4196V65.4185Z" fill="white"/>
<path d="M50.7171 64.9494C50.7332 65.0989 50.7493 65.2644 50.7597 65.4184C51.0642 65.3897 51.5492 65.3483 51.9204 65.3345C51.8986 65.1874 51.8917 65.0356 51.8917 64.8977C51.5136 64.8885 51.0194 64.9127 50.7171 64.9494Z" fill="white"/>
<path d="M51.7245 65.9426L50.7833 66.0173L50.9442 66.6311L51.7739 66.4116L51.7245 65.9426Z" fill="white"/>
<path d="M54.2228 66.5553C54.201 66.5426 54.1228 66.5323 54.0137 66.5254C52.8701 66.4242 52.3576 65.7426 52.2771 65.6243C52.1749 65.4737 52.0197 65.2346 51.8289 65.3013C51.606 65.3783 51.5324 66.0886 51.483 66.2599C51.4451 66.3921 51.1141 66.4817 50.9394 66.3323C50.8475 66.2541 50.8555 66.0599 50.8279 65.9576C50.8049 65.8702 50.7417 65.861 50.7291 65.9116C50.6555 66.2093 50.5268 66.4702 50.4832 66.6943C50.482 66.6943 50.4809 66.6943 50.4809 66.6943C50.4153 66.9472 50.4912 67.084 50.6337 67.084H54.301C54.4331 67.084 54.4228 66.6713 54.2228 66.5553Z" fill="white"/>
<path d="M52.0146 64.3667C51.7595 64.3736 50.6505 64.4678 50.4792 64.546" stroke="white" stroke-width="1.38" stroke-linecap="round" stroke-linejoin="round"/>
<path d="M48.2219 44.198C48.4391 45.1761 49.1999 50.2139 49.1275 50.8668C49.0551 51.5197 48.6253 53.6208 48.677 54.5276C48.7287 55.4334 50.479 63.3493 50.479 63.3493" stroke="white" stroke-width="1.38" stroke-linecap="round" stroke-linejoin="round"/>
<path d="M44.9258 37.196C44.6695 37.711 44.0615 39.6201 44.0937 40.2052C44.1259 40.7902 44.1926 43.7258 44.25 44.197C44.3075 44.6683 44.2063 50.3222 44.1305 51.1187C44.0535 51.9164 43.5237 53.7646 43.4628 54.3083C43.4019 54.8519 44.2477 61.877 44.3799 63.1874" stroke="white" stroke-width="1.38" stroke-linecap="round" stroke-linejoin="round"/>
<path d="M43.6499 30.6955C44.2579 32.3725 44.8325 34.0828 44.767 35.1564C44.7475 35.477 44.1659 36.3368 44.3923 36.3874C45.5244 36.6402 50.38 37.3609 51.2499 37.0494C51.3741 37.0046 51.0867 35.6357 51.0729 35.1564C51.0557 34.5863 51.2879 32.5863 51.4074 30.3668C51.4752 29.1128 51.5062 27.7876 51.4373 26.6094C51.4005 25.9704 51.2097 25.144 50.7098 24.7543C50.6178 24.6831 50.4765 24.6003 50.3041 24.5164C50.126 24.429 49.9145 24.3405 49.6938 24.2589C49.4111 24.1543 49.1123 24.0624 48.8468 24.0038C48.7158 23.975 46.8368 23.7325 45.8496 23.9153C45.606 23.9601 45.3301 24.0428 45.0428 24.1509C44.49 24.3578 43.8936 24.6612 43.404 24.9762C42.8776 25.3141 42.4742 25.6669 42.3823 25.9313C42.1249 26.6658 42.9133 28.6565 43.6522 30.6955H43.6499Z" fill="#FF9900"/>
<path d="M48.3401 27.1275C48.1953 27.124 47.7483 28.0332 47.7126 28.1964C47.677 28.3596 48.1838 29.3193 48.293 29.3745C48.4022 29.4297 48.855 28.3056 48.855 28.224C48.855 28.1424 48.4631 27.1297 48.3413 27.1275H48.3401Z" fill="#FF9900"/>
<path d="M48.3401 29.5918C48.1953 29.5884 47.7483 30.4975 47.7126 30.6607C47.677 30.824 48.1838 31.7837 48.293 31.8389C48.4022 31.894 48.855 30.7699 48.855 30.6883C48.855 30.6067 48.4631 29.5941 48.3413 29.5918H48.3401Z" fill="#FF9900"/>
<path d="M48.3401 32.0571C48.1953 32.0537 47.7483 32.9629 47.7126 33.1261C47.677 33.2893 48.1838 34.249 48.293 34.3042C48.4022 34.3582 48.855 33.2353 48.855 33.1537C48.855 33.0721 48.4631 32.0594 48.3413 32.0571H48.3401Z" fill="#FF9900"/>
<path d="M49.6087 32.1296C49.4639 32.1262 49.0168 33.0354 48.9812 33.1986C48.9444 33.3618 49.4524 34.3216 49.5615 34.3767C49.6707 34.4307 50.1235 33.3078 50.1235 33.2262C50.1235 33.1446 49.7316 32.1319 49.6098 32.1296H49.6087Z" fill="#FF9900"/>
<path d="M49.6505 29.5917C49.4942 29.5883 49.0115 30.571 48.9724 30.7469C48.9333 30.9227 49.4815 31.9606 49.5988 32.0193C49.716 32.0779 50.2056 30.8641 50.2056 30.7756C50.2056 30.6871 49.7826 29.594 49.6505 29.5906V29.5917Z" fill="#FF9900"/>
<path d="M50.8823 29.5918C50.726 29.5884 50.3433 30.5849 50.3042 30.7607C50.2652 30.9366 50.7134 31.9607 50.8306 32.0205C50.9478 32.0791 51.3374 30.8952 51.3374 30.8079C51.3374 30.7205 51.0145 29.5953 50.8834 29.593L50.8823 29.5918Z" fill="#FF9900"/>
<path d="M50.8189 32.1296C50.6626 32.1262 50.1983 33.0135 50.1592 33.1894C50.1201 33.3653 50.5683 34.3894 50.6856 34.4491C50.8028 34.5078 51.1924 33.3239 51.1924 33.2365C51.1924 33.1492 50.951 32.1331 50.82 32.1296H50.8189Z" fill="#FF9900"/>
<path d="M50.8917 34.5217C50.7354 34.5182 50.2711 35.4055 50.232 35.5814C50.1929 35.7573 50.6768 36.9722 50.794 37.0308C50.9112 37.0894 51.1284 35.7745 51.1284 35.686C51.1284 35.5975 51.0238 34.524 50.8928 34.5205L50.8917 34.5217Z" fill="#FF9900"/>
<path d="M49.6505 27.0551C49.4942 27.0517 49.0115 28.0344 48.9724 28.2102C48.9333 28.3861 49.4815 29.424 49.5988 29.4826C49.716 29.5413 50.2056 28.3275 50.2056 28.239C50.2056 28.1505 49.7826 27.0574 49.6505 27.054V27.0551Z" fill="#FF9900"/>
<path d="M50.9184 27.0918C50.7621 27.0884 50.2794 28.0711 50.2404 28.247C50.2013 28.4228 50.7495 29.4607 50.8667 29.5193C50.9839 29.578 51.3735 28.3757 51.3735 28.2883C51.3735 28.201 51.0506 27.0941 50.9196 27.0918H50.9184Z" fill="#FF9900"/>
<path d="M50.6781 24.8504C50.5218 24.8469 50.2793 25.4975 50.2391 25.6733C50.2 25.8492 50.7482 26.8871 50.8655 26.9457C50.9827 27.0043 51.2539 25.8377 51.2539 25.7503C51.2539 25.663 50.8092 24.8527 50.677 24.8504H50.6781Z" fill="#FF9900"/>
<path d="M49.4886 24.3643C49.3323 24.3608 49.0105 25.4252 48.9714 25.601C48.9324 25.7769 49.4806 26.8148 49.5978 26.8734C49.715 26.932 50.2046 25.7183 50.2046 25.6298C50.2046 25.5412 49.6196 24.3666 49.4886 24.3643Z" fill="#FF9900"/>
<path d="M48.2358 34.4124C48.0818 34.4089 47.606 35.3767 47.567 35.5503C47.5279 35.7238 48.068 36.7456 48.1841 36.8043C48.3002 36.8617 48.7817 35.6664 48.7817 35.579C48.7817 35.4916 48.3646 34.4147 48.2347 34.4124H48.2358Z" fill="#FF9900"/>
<path d="M49.6128 34.4492C49.4588 34.4458 48.983 35.4136 48.9439 35.5871C48.9048 35.7607 49.4347 36.8653 49.5507 36.9227C49.6668 36.9802 50.1587 35.7032 50.1587 35.6159C50.1587 35.5285 49.7415 34.4515 49.6116 34.4492H49.6128Z" fill="#FF9900"/>
<path d="M47.0359 32.0571C46.8911 32.0537 46.4441 32.9629 46.4084 33.1261C46.3728 33.2893 46.8796 34.249 46.9888 34.3042C47.098 34.3582 47.5508 33.2353 47.5508 33.1537C47.5508 33.0721 47.1589 32.0594 47.0371 32.0571H47.0359Z" fill="#FF9900"/>
<path d="M47.0025 34.3881C46.8577 34.3754 46.3474 35.2823 46.3003 35.4478C46.2532 35.6133 46.6899 36.6397 46.7945 36.703C46.8991 36.7662 47.4312 35.6386 47.4369 35.5547C47.4427 35.4708 47.1243 34.3996 47.0025 34.3881Z" fill="#FF9900"/>
<path d="M47.0359 29.5918C46.8911 29.5884 46.4441 30.4975 46.4084 30.6607C46.3728 30.824 46.8796 31.7837 46.9888 31.8389C47.098 31.8929 47.5508 30.7699 47.5508 30.6883C47.5508 30.6067 47.1589 29.5941 47.0371 29.5918H47.0359Z" fill="#FF9900"/>
<path d="M47.1448 27.1641C47 27.1606 46.5529 28.0698 46.5173 28.233C46.4805 28.3962 46.9885 29.356 47.0977 29.4111C47.2069 29.4652 47.6597 28.3422 47.6597 28.2606C47.6597 28.179 47.2678 27.1664 47.1459 27.1641H47.1448Z" fill="#FF9900"/>
<path d="M46.5531 25.9137C46.5163 26.0769 47.0243 27.0366 47.1335 27.0918C47.2426 27.1458 47.4541 26.6504 47.4541 26.5688C47.4541 26.4872 46.5899 25.7504 46.5531 25.9137Z" fill="#FF9900"/>
<path d="M45.8763 27.1641C45.7314 27.1606 45.2844 28.0698 45.2487 28.233C45.2131 28.3962 45.7199 29.356 45.8291 29.4111C45.9383 29.4652 46.3911 28.3422 46.3911 28.2606C46.3911 28.179 45.9992 27.1664 45.8774 27.1641H45.8763Z" fill="#FF9900"/>
<path d="M44.5229 24.4828C44.4861 24.646 45.4664 24.8633 45.5744 24.9173C45.6836 24.9713 45.2825 24.3219 45.2825 24.2403C45.2825 24.1587 44.5585 24.3184 44.5229 24.4817V24.4828Z" fill="#FF9900"/>
<path d="M44.6806 27.2366C44.5358 27.2331 44.2853 28.1975 44.2485 28.3607C44.2117 28.5239 44.5232 29.4285 44.6323 29.4837C44.7415 29.5377 45.1943 28.4147 45.1943 28.3331C45.1943 28.2515 44.8024 27.2389 44.6806 27.2366Z" fill="#FF9900"/>
<path d="M45.7312 29.5918C45.5864 29.5884 45.1394 30.4975 45.1037 30.6607C45.067 30.824 45.5749 31.7837 45.6841 31.8389C45.7933 31.8929 46.2461 30.7699 46.2461 30.6883C46.2461 30.6067 45.8542 29.5941 45.7324 29.5918H45.7312Z" fill="#FF9900"/>
<path d="M44.5857 29.5952C44.4408 29.5918 43.872 30.4987 43.8352 30.6619C43.7984 30.8251 44.3064 31.7848 44.4156 31.84C44.5247 31.8952 44.9775 30.7711 44.9775 30.6895C44.9775 30.6078 44.7075 29.5987 44.5857 29.5952Z" fill="#FF9900"/>
<path d="M45.7312 32.0205C45.5864 32.0171 45.1394 32.9262 45.1037 33.0895C45.067 33.2527 45.5749 34.2124 45.6841 34.2676C45.7933 34.3216 46.2461 33.1986 46.2461 33.117C46.2461 33.0354 45.8542 32.0228 45.7324 32.0205H45.7312Z" fill="#FF9900"/>
<path d="M44.5717 32.0204C44.4269 32.017 44.3591 32.7974 44.4051 32.9583C44.5062 33.3158 44.6292 34.0077 44.7384 34.0618C44.8476 34.1158 45.0854 33.1974 45.0854 33.1158C45.0854 33.0342 44.6936 32.0216 44.5717 32.0193V32.0204Z" fill="#FF9900"/>
<path d="M45.6373 34.3813C45.4937 34.3664 44.9777 35.1801 44.9294 35.3296C44.8811 35.479 45.3121 36.4192 45.4167 36.479C45.5213 36.5387 46.0591 35.525 46.0649 35.4491C46.0706 35.3732 45.7592 34.394 45.6373 34.3813Z" fill="#FF9900"/>
<path d="M45.6195 24.9036C45.4747 24.9001 45.3207 25.6783 45.2839 25.8415C45.2471 26.0047 45.7551 26.9644 45.8643 27.0196C45.9735 27.0736 46.4263 25.9507 46.4263 25.8691C46.4263 25.7875 45.7425 24.9059 45.6207 24.9036H45.6195Z" fill="#FF9900"/>
<path d="M44.249 24.9036C44.1042 24.9001 44.1582 25.838 44.249 26.1679C44.2938 26.3288 44.5605 27.0736 44.6685 27.1288C44.7765 27.184 45.2305 26.0599 45.2305 25.9783C45.2305 25.8967 44.3708 24.907 44.249 24.9047V24.9036Z" fill="#FF9900"/>
<path d="M48.3505 27.5988C48.9607 27.508 49.8146 25.4241 49.6905 24.2575C49.4078 24.1529 49.109 24.0609 48.8435 24.0023C48.7125 23.9736 46.8335 23.731 45.8462 23.9138C45.6026 23.9586 45.3268 24.0414 45.0395 24.1494C44.7384 24.5678 47.7402 27.6884 48.3505 27.5976V27.5988Z" fill="#FF9900"/>
<path d="M43.649 30.6953C45.3339 28.2528 44.7822 25.3943 43.9076 25.038C43.7628 24.9782 43.5629 24.9207 43.4008 24.9759C42.8744 25.3138 42.4711 25.6667 42.3791 25.931C42.1217 26.6655 42.9101 28.6563 43.649 30.6953Z" fill="#FF9900"/>
<path d="M50.3022 24.516C51.0595 25.6206 51.1882 28.8665 51.4054 30.3653C51.4732 29.1113 51.5043 27.7861 51.4353 26.6079C51.3985 25.9689 51.2078 25.1425 50.7078 24.7528C50.6159 24.6816 50.4745 24.5988 50.3022 24.5149V24.516Z" fill="#FF9900"/>
<path d="M44.1063 36.9236C45.6728 37.6386 50.1951 37.7822 51.3053 37.4202C51.3053 37.4202 51.3501 36.8397 51.2708 36.7547C51.1915 36.6696 50.3295 37.0972 47.6943 36.8053C45.0591 36.5133 44.5603 36.0432 44.3845 36.1087C44.2086 36.1742 44.1063 36.9225 44.1063 36.9225V36.9236Z" fill="#FF9900"/>
<path d="M45.4558 24.3193C45.496 24.3756 46.0729 24.9883 46.6993 25.6021C47.3658 26.2549 48.0887 26.9078 48.2841 26.8928C48.6323 26.8652 49.0622 24.8515 49.0645 24.3412C49.0645 24.294 49.061 24.2596 49.0541 24.2412C48.9702 24.0343 48.7093 23.3515 48.5438 23.2285C48.5117 23.2056 48.376 23.1688 48.1853 23.1285C47.783 23.0446 47.1337 22.9469 46.6878 22.9297C46.443 22.9194 46.2603 22.9332 46.212 22.986C46.1258 23.0791 45.3719 24.2055 45.4558 24.3205V24.3193Z" fill="white"/>
<path d="M45.4558 24.3193C45.496 24.3756 47.0027 25.4434 47.3888 25.4067C47.5325 25.3929 47.8405 24.0653 47.8761 24.0481C47.9129 24.0297 48.3738 25.4618 48.5461 25.4434C48.7185 25.425 48.9691 24.8515 49.0645 24.3412C49.0645 24.294 49.061 24.2596 49.0541 24.2412C48.9702 24.0343 48.7093 23.3515 48.5438 23.2285C48.5117 23.2056 48.376 23.1688 48.1853 23.1285L48.2071 23.1596C48.2657 23.1975 48.3933 23.255 48.4921 23.3182C48.553 23.3573 48.9219 24.0389 48.9702 24.1745C49.0277 24.3389 48.6829 24.8331 48.5737 24.8331C48.4576 24.8331 48.0037 23.9044 47.8865 23.9044C47.7692 23.9044 47.3911 25.0446 47.3084 25.0814C47.2256 25.1182 45.5581 24.3768 45.5213 24.2779C45.4845 24.1779 46.1327 23.3079 46.2649 23.1515C46.397 22.9964 46.7085 22.9791 46.7085 22.9791L46.6889 22.9297C46.4442 22.9194 46.2614 22.9332 46.2132 22.986C46.127 23.0791 45.3731 24.2055 45.4569 24.3205L45.4558 24.3193Z" fill="white"/>
<path d="M48.3489 23.2988C48.3432 23.2758 48.3432 23.2517 48.3409 23.2275C48.2811 22.6678 48.2869 21.9643 48.2673 21.5414C48.2673 21.5379 48.2673 21.5356 48.2673 21.5356L48.2627 21.5333L46.2653 20.3311C46.2653 20.3311 46.5411 22.0057 46.3871 23.0678C46.3734 23.1597 47.2939 23.7068 47.88 23.7459C48.1742 23.7655 48.3742 23.3999 48.3501 23.2999L48.3489 23.2988Z" fill="white"/>
<path d="M48.3411 23.2275C48.2814 22.6677 48.2871 21.9643 48.2676 21.5413C48.2676 21.5379 48.2676 21.5356 48.2676 21.5356L48.263 21.5333L46.4541 20.6414C46.2932 21.9241 47.3229 23.1195 48.3423 23.2286L48.3411 23.2275Z" fill="white"/>
<path d="M46.2289 19.6828C46.2646 20.2069 46.3887 20.8138 46.5094 21.2483C46.6254 21.6644 47.6115 22.6264 48.4079 22.8241C48.5619 22.862 49.1262 22.7149 49.2526 22.6161C49.44 22.4689 49.7652 20.6115 49.6928 20.0954C49.6514 19.8023 49.6158 19.2368 49.594 18.9679C49.571 18.6805 49.417 18.3667 49.2997 18.2851C49.1285 18.1645 48.878 18.0461 48.6263 17.9346C48.324 17.8012 47.9965 17.7035 47.7207 17.7162C47.1805 17.7392 46.5415 18.3035 46.2657 18.6886C46.1795 18.807 46.2186 19.5334 46.2289 19.684V19.6828Z" fill="white"/>
<path d="M46.1547 19.2068C46.1524 19.2149 46.1961 19.3172 46.2501 19.4401C46.3386 19.6401 46.6615 19.8689 46.7063 19.7401C46.8109 19.4413 47.4349 18.6103 47.6154 18.6045C47.7177 18.5746 48.3762 19.0873 48.9313 19.0264C49.2967 18.9861 49.391 18.6448 49.3036 18.3206C49.3036 18.3206 49.3071 18.262 49.2737 18.2379C49.1025 18.1287 48.8876 17.9597 48.6359 17.8586L47.8923 17.8298L46.8546 18.0172L46.5592 18.0701C46.5592 18.0701 46.5178 18.1873 46.4604 18.3471C46.3903 18.5436 46.2972 18.8034 46.2328 18.9861C46.188 19.1114 46.157 19.2011 46.1547 19.2068Z" fill="white"/>
<path d="M45.7555 19.8069C45.4705 20.0759 46.1555 21.2517 46.4715 20.6701C46.7853 20.0931 46.1014 19.4805 45.7555 19.8069Z" fill="white"/>
<path d="M46.3027 20.3136C46.2602 20.0734 45.9039 19.9228 45.8281 19.9412" stroke="white" stroke-width="1.04" stroke-linecap="round" stroke-linejoin="round"/>
<path d="M46.0042 20.3137C46.0387 20.2126 46.1455 20.1666 46.2168 20.1712" stroke="white" stroke-width="1.04" stroke-linecap="round" stroke-linejoin="round"/>
<path d="M45.7045 18.4782C45.8412 17.9932 46.0515 17.8127 46.3561 17.6173C47.0353 17.1805 48.7431 17.007 49.0545 17.2702C49.4993 17.646 49.8257 19.7575 49.6958 20.1241C49.6177 19.7437 49.4361 18.7253 49.3028 18.3207C49.2166 18.5472 49.035 18.6863 48.7718 18.7253C48.3156 18.7931 47.641 18.3656 47.4881 18.3955C47.3962 18.4127 46.9801 19.1104 46.7204 19.6081C46.6285 19.7851 46.933 20.4391 46.8733 20.5506C46.8238 20.6414 46.5951 20.577 46.5503 20.5046C46.494 20.4149 46.2871 19.8379 46.1297 19.7494C46.0021 19.677 45.8263 19.7563 45.7539 19.8092C45.6562 19.6621 45.5103 19.169 45.7045 18.4794V18.4782Z" fill="white"/>
<path d="M47.73 20.3471C47.0715 20.0127 46.0819 19.7012 45.9371 19.7012" stroke="white" stroke-width="0.52" stroke-linecap="round" stroke-linejoin="round"/>
<path d="M49.1069 20.2252C49.1759 20.4688 49.3931 20.6205 49.5919 20.5642C49.7907 20.5079 49.8976 20.2654 49.8286 20.0217C49.7597 19.778 49.5425 19.6263 49.3437 19.6826C49.1448 19.739 49.038 19.9815 49.1069 20.2252Z" stroke="white" stroke-width="0.52" stroke-linecap="round" stroke-linejoin="round"/>
<path d="M49.3838 19.7988C49.339 19.8126 49.2907 19.8414 49.2528 19.8896" stroke="white" stroke-width="0.59" stroke-miterlimit="10" stroke-linecap="round"/>
<path d="M49.4985 19.7987C49.4927 19.7964 49.4858 19.7952 49.4788 19.7917" stroke="white" stroke-width="0.59" stroke-miterlimit="10" stroke-linecap="round"/>
<path d="M49.0957 19.9633C48.9486 19.6622 48.6222 19.8909 48.59 20.0955" stroke="white" stroke-width="0.52" stroke-linecap="round" stroke-linejoin="round"/>
<path d="M47.7591 20.4803C47.8315 20.7366 48.0901 20.8883 48.3361 20.8194C48.582 20.7504 48.7234 20.486 48.651 20.2297C48.5786 19.9734 48.32 19.8217 48.074 19.8907C47.8281 19.9596 47.6867 20.224 47.7591 20.4803Z" stroke="white" stroke-width="0.52" stroke-linecap="round" stroke-linejoin="round"/>
<path d="M47.8931 20.1733C47.8804 20.1986 47.8689 20.2262 47.862 20.2561" stroke="white" stroke-width="0.59" stroke-miterlimit="10" stroke-linecap="round"/>
<path d="M48.1333 19.9919C48.0701 20.008 48.0023 20.0402 47.9494 20.0942" stroke="white" stroke-width="0.59" stroke-miterlimit="10" stroke-linecap="round"/>
<path d="M48.2974 19.9919C48.2892 19.9884 48.2799 19.9872 48.2706 19.9849" stroke="white" stroke-width="0.59" stroke-miterlimit="10" stroke-linecap="round"/>
<path d="M39.684 34.8193C39.684 35.0584 39.6679 35.3297 39.8977 35.6101C39.8977 35.8687 40.0471 36.1354 40.1839 36.3929C40.5563 37.0974 41.0194 37.7434 41.3136 37.9974C41.3148 37.9986 41.301 37.9997 41.3021 38.0009C41.5837 38.2422 43.0524 37.1607 43.0524 37.1607C43.0524 37.1607 43.003 37.0227 42.9329 36.8078C42.7157 36.1377 42.2698 34.7193 42.2698 34.3906C42.2698 33.9676 43.9109 29.6677 44.1304 28.5482C44.1362 28.5195 44.1408 28.4931 44.1442 28.4689C44.2683 27.662 44.2752 27.0437 44.2063 26.5782C44.2063 26.5701 44.204 26.5632 44.2028 26.5552C44.0902 25.823 43.7891 25.4759 43.4616 25.3701C43.1237 25.2598 42.7594 25.4058 42.5479 25.6506C42.5226 25.6793 42.5272 25.7104 42.502 25.7448C41.2952 27.331 39.6828 33.7803 39.6828 34.8205L39.684 34.8193Z" fill="white"/>
<path d="M40.1238 36.3928C40.4961 37.0974 40.9892 37.7434 41.2834 37.9974L42.9291 36.8077C42.7119 36.1376 42.2671 34.7193 42.2671 34.3906C42.2671 33.9676 43.9094 29.6677 44.1289 28.5482C43.9669 28.9723 43.737 27.8758 43.606 27.9379C43.4003 28.0344 44.0105 28.8804 43.9128 28.9827C43.8278 29.0712 43.4221 28.4344 43.383 28.5654C43.329 28.747 43.7899 29.1413 43.7703 29.3769C43.7554 29.5562 41.8948 33.9837 41.8109 34.0641C41.6982 34.1733 41.2271 33.917 41.1661 34.1228C41.1294 34.248 41.8327 34.1446 41.8109 34.3055C41.789 34.4664 41.2064 34.7032 41.2443 34.8296C41.2822 34.9561 41.8672 34.4733 41.9373 34.5457C42.0074 34.6181 42.0878 35.4676 42.0706 35.5905C42.0522 35.7147 40.6892 36.6123 40.1249 36.3928H40.1238Z" fill="white"/>
<path d="M40.1238 36.3927C40.4238 36.641 41.1903 36.3743 40.9743 36.2709C40.5203 36.3812 39.8112 35.0985 39.8687 34.6652C40.3249 31.2043 42.2109 25.3734 43.4624 25.3689C43.1245 25.2585 42.7924 25.3769 42.5683 25.6091C41.2639 26.9631 39.5791 33.7548 39.5791 34.8157C39.5791 35.5743 40.0284 36.1111 40.125 36.3916L40.1238 36.3927Z" fill="white"/>
<path d="M40.6793 37.5743C40.9252 37.8513 41.324 38.2053 41.3722 38.2179C41.4435 38.2363 43.08 37.2995 43.1306 37.203C43.1915 37.0881 42.9111 35.4502 42.7927 35.4306C42.764 35.426 42.7134 35.4444 42.6456 35.4801C42.1101 35.7605 40.5046 37.134 40.485 37.2743C40.4781 37.3248 40.5609 37.4398 40.6793 37.5731V37.5743Z" fill="white"/>
<path d="M40.6793 37.5743C40.9252 37.8513 41.324 38.2053 41.3722 38.2179C41.4435 38.2363 43.08 37.2996 43.1306 37.203C43.1915 37.0881 42.9111 35.4502 42.7927 35.4307C42.764 35.4261 42.6548 35.4536 42.5387 35.5422C42.8904 35.8031 42.8456 36.6766 42.8215 36.7973C42.7939 36.9329 41.9503 37.095 41.7389 37.2582C41.5274 37.4214 41.2642 37.7915 41.1999 37.8007C41.1447 37.8088 40.8275 37.695 40.6781 37.5743H40.6793Z" fill="white"/>
<path d="M42.9361 40.3799C42.8867 40.4765 42.8706 40.65 42.8741 40.8615C42.8798 41.2144 43.3729 42.0718 43.4188 42.2925C43.4533 42.4615 43.2958 42.9109 43.3418 43.1189C43.3981 43.3787 43.7992 43.7465 44.0233 43.6752C44.1095 43.6476 44.3842 42.9867 44.4083 42.9086C44.4279 42.8442 44.4888 42.4822 44.4715 42.2891C44.4715 42.2787 44.4842 42.2753 44.4888 42.2845C44.5393 42.3856 44.6071 42.5097 44.6071 42.5626C44.6083 42.7166 44.2589 43.5005 44.5669 43.5143C44.6485 43.5178 45.0737 42.6247 45.0289 42.4638C44.8232 41.7281 44.175 40.3178 44.0946 40.2063C43.9417 39.9949 43.0189 40.219 42.9373 40.3811L42.9361 40.3799Z" fill="white"/>
<path d="M44.0737 42.172C44.0737 42.172 44.0622 42.2617 44.0507 42.395C44.045 42.4617 44.0392 42.5387 44.0323 42.6226C44.0289 42.664 44.0254 42.7065 44.0208 42.749C44.0162 42.7916 44.0128 42.8329 44.0013 42.8674C43.976 42.9398 43.9369 43.026 43.9047 43.1008C43.8714 43.1778 43.8404 43.249 43.8139 43.3099C43.7622 43.4329 43.7278 43.5145 43.7278 43.5145C43.7209 43.5318 43.7278 43.5513 43.745 43.5594C43.7599 43.5651 43.776 43.5605 43.7852 43.549C43.7852 43.549 43.8002 43.5306 43.822 43.4973C43.8427 43.464 43.8749 43.4168 43.9082 43.3582C43.9415 43.2996 43.9817 43.2318 44.0197 43.1559C44.0392 43.118 44.0587 43.0789 44.0771 43.0375C44.0955 42.9962 44.1139 42.9559 44.1311 42.9054C44.1472 42.8536 44.1495 42.8054 44.1541 42.7605C44.1576 42.7157 44.1587 42.6709 44.1599 42.6283C44.1622 42.5433 44.1587 42.4651 44.1576 42.3973C44.153 42.2628 44.1426 42.1732 44.1426 42.1732C44.1403 42.1548 44.1242 42.141 44.1059 42.1422C44.0898 42.1433 44.0771 42.1559 44.076 42.172H44.0737Z" fill="white"/>
<path d="M43.6992 42.0594C43.6992 42.0594 43.6958 42.0778 43.6923 42.1123C43.6901 42.1468 43.6843 42.1951 43.6831 42.2525C43.682 42.31 43.6797 42.3767 43.6786 42.4479C43.6774 42.518 43.6786 42.5962 43.6705 42.6617C43.6682 42.6709 43.6705 42.6721 43.6671 42.6836L43.6602 42.7111L43.6452 42.7617C43.6337 42.7962 43.6234 42.8307 43.613 42.864C43.5912 42.9318 43.5705 42.9939 43.5521 43.0479C43.5165 43.156 43.4947 43.2284 43.4947 43.2284C43.4889 43.2468 43.4993 43.2663 43.5177 43.272C43.5326 43.2766 43.5475 43.2709 43.5556 43.2583C43.5556 43.2583 43.5993 43.1927 43.651 43.0881C43.6763 43.0353 43.7061 42.9755 43.7337 42.9077C43.7475 42.8744 43.7613 42.8387 43.7739 42.8019L43.7923 42.7433L43.7992 42.7146C43.8015 42.7065 43.8038 42.6893 43.8061 42.6801C43.8153 42.5928 43.8107 42.518 43.8073 42.4456C43.8027 42.3732 43.7958 42.3066 43.7912 42.2491C43.7797 42.1353 43.7705 42.0594 43.7705 42.0594C43.7682 42.041 43.751 42.0272 43.7326 42.0295C43.7176 42.0318 43.7061 42.0433 43.7027 42.0571L43.6992 42.0594Z" fill="white"/>
<path d="M41.4938 38.118C42.0431 39.0341 42.6786 39.8548 42.9361 40.38C43.1636 40.8444 44.2209 40.4685 44.0934 40.2053C43.7624 39.5214 43.2739 38.3261 42.9361 37.2307C42.8706 37.0192 41.3145 37.8192 41.4938 38.118Z" fill="white"/>
<path fill-rule="evenodd" clip-rule="evenodd" d="M48.2029 16.1674C47.9979 15.9927 47.7056 15.8585 47.3267 15.8912C47.088 15.9118 46.8482 16.0005 46.6481 16.1723C46.5861 16.2254 46.5336 16.2816 46.4893 16.3383C45.8184 16.6536 45.3882 17.139 45.1905 17.7198C44.9769 18.3468 45.0911 18.9254 45.1706 19.2092C45.3065 19.7049 45.773 20.1435 46.3778 20.1435L46.3988 20.1433C46.5328 20.2593 46.6894 20.3744 46.8575 20.4761C47.0977 20.6215 47.4198 20.7752 47.784 20.8377C48.158 20.9018 48.6509 20.8782 49.0966 20.5569C49.2669 20.4341 49.4013 20.4062 49.4751 20.3994C49.5062 20.3966 49.5299 20.3973 49.5442 20.3983C49.65 20.4309 49.8379 20.4741 50.0563 20.4456C50.2089 20.4257 50.4788 20.3561 50.7022 20.112C50.941 19.851 50.9878 19.5444 50.9752 19.3332C50.9586 19.0567 50.8281 18.7995 50.6148 18.6229L50.1333 18.2242C50.0957 18.0266 50.029 17.7811 49.9088 17.5257C49.7592 17.2079 49.5182 16.8582 49.1351 16.5805C48.8676 16.3865 48.5558 16.2459 48.2029 16.1674ZM46.0732 18.8554L45.8384 19.0213C45.8514 18.8869 45.8935 18.7237 45.9984 18.5623C46.0058 18.5508 46.0134 18.5396 46.0211 18.5287C46.0334 18.6337 46.0505 18.7428 46.0732 18.8554Z" fill="#FF9900"/>
<path d="M38.5179 66.504C38.4656 66.4618 38.1355 66.4151 37.7076 66.3595C37.0052 66.2683 35.8515 66.0583 35.5359 65.7437C35.2691 65.4769 35.2892 64.7021 35.2892 64.7021C35.2892 64.7021 34.1877 64.8233 33.8943 65.1045C34.0377 65.528 33.7954 66.2139 33.7332 66.6518C33.6642 66.9197 33.7432 67.0642 33.8943 67.0642H38.5179C38.6579 67.0642 38.7068 66.6585 38.5179 66.504Z" fill="white"/>
<path d="M35.4785 65.7158C36.2176 65.2123 36.7889 65.1623 36.8211 65.4235C36.8634 65.7759 36.2109 65.8792 35.4785 65.7158Z" stroke="white" stroke-width="0.5" stroke-linecap="round" stroke-linejoin="round"/>
<path d="M35.4785 65.7159C35.9375 64.9478 36.4821 64.7455 36.62 64.97C36.8056 65.2723 36.2109 65.5569 35.4785 65.7159Z" stroke="white" stroke-width="0.5" stroke-linecap="round" stroke-linejoin="round"/>
<path d="M36.5588 66.0605C36.0665 66.1606 35.4785 65.7148 35.4785 65.7148C35.4785 65.7148 35.8208 66.3729 36.3966 66.4652" stroke="white" stroke-width="0.5" stroke-linecap="round" stroke-linejoin="round"/>
<path d="M29.8039 66.504C29.7805 66.4907 29.6983 66.4796 29.5816 66.4718C29.5816 66.4718 29.5805 66.4707 29.5793 66.4695C28.8769 66.3784 28.5102 65.3869 28.5102 64.7299C28.2556 64.5343 27.561 64.7711 27.2665 65.0523C27.431 65.7037 27.0753 66.2383 26.9942 66.653C26.9919 66.653 26.9919 66.653 26.9919 66.653C26.923 66.9208 27.0019 67.0654 27.1531 67.0654H29.8861C30.0261 67.0654 30.015 66.6285 29.8039 66.5051V66.504Z" fill="white"/>
<path d="M38.1722 42.8743C38.3712 42.7486 37.1953 28.0937 36.7452 26.7732H34.25L36.8696 43.0799C36.8696 43.0799 38.0266 42.9654 38.1711 42.8743H38.1722Z" fill="white"/>
<path d="M33.8475 65.716C33.8953 65.8516 35.4569 65.6037 35.4335 65.3803C35.3101 64.2087 35.6858 54.8571 36.2004 52.0481C36.5294 50.253 36.8172 41.9362 36.466 37.1487C36.466 37.1487 33.9909 37.3665 31.5191 37.7178C31.3101 39.6375 31.6113 44.804 32.0437 50.1952C32.1981 52.1182 31.2112 54.3202 31.2957 56.1687C31.4201 58.9076 33.7386 65.4058 33.8475 65.716Z" fill="white"/>
<path d="M27.2609 65.5504C27.2809 65.6949 28.6291 65.6226 28.6591 65.4759C29.0648 63.4584 30.0784 57.9717 31.9056 52.1026C33.1382 48.1432 34.8698 37.749 34.8809 37.5266C34.8809 37.5266 28.987 37.5155 28.159 37.949C28.1445 38.5204 27.8022 44.0304 27.4388 49.9762C27.3676 51.1456 26.4185 53.6321 26.2684 54.7937C25.8183 58.2963 27.2254 65.3047 27.2598 65.5504H27.2609Z" fill="white"/>
<path d="M31.6279 53.012C31.9925 51.8281 32.7583 49.0826 33.1217 47.5297C33.6374 45.3288 34.0986 43.0501 34.3509 41.5261" stroke="white" stroke-width="0.5" stroke-linecap="round" stroke-linejoin="round"/>
<path d="M28.3755 65.8957C28.6133 65.3977 29.079 65.1387 29.2146 65.3466C29.3791 65.5978 29.0812 65.8623 28.3755 65.8957Z" stroke="white" stroke-width="0.5" stroke-linecap="round" stroke-linejoin="round"/>
<path d="M28.3753 65.8955C27.8985 66.1112 27.4273 65.81 27.4762 65.551C27.5428 65.2019 28.1141 65.6299 28.3753 65.8955Z" stroke="white" stroke-width="0.5" stroke-linecap="round" stroke-linejoin="round"/>
<path d="M29.092 66.2291C28.6674 66.1757 28.3751 65.8967 28.3751 65.8967C28.3751 65.8967 28.0595 66.2169 27.7305 66.2658" stroke="white" stroke-width="0.5" stroke-linecap="round" stroke-linejoin="round"/>
<path d="M36.3248 38.5346C35.6913 39.2327 31.7924 39.2493 29.2806 38.6224C28.9449 38.5379 29.1905 24.1898 30.362 23.6529C31.1511 23.2917 32.6626 23.2617 33.5084 23.6696C33.9574 23.8853 35.6779 25.2492 36.2826 26.3307C36.4248 26.5853 36.0881 34.0617 36.1703 35.0209C36.3248 37.2585 36.5838 38.2489 36.3248 38.5346Z" fill="white"/>
<path d="M25.4941 33.2559C25.7398 33.1836 26.4944 32.9835 26.7023 33.0869C26.9101 33.1914 25.9876 33.3204 25.9487 33.4248C25.9098 33.5293 26.6545 33.3726 26.7623 33.4382" stroke="white" stroke-width="0.69" stroke-linecap="round" stroke-linejoin="round"/>
<path d="M27.7302 31.8039C27.7302 31.8039 27.7302 31.8061 27.7302 31.8073C27.7424 31.8995 27.7113 35.4877 27.6157 35.9401C27.4423 36.7604 25.4951 42.0437 25.5607 42.2115C25.6741 42.5039 28.3082 43.3442 28.5616 43.0908C28.6994 42.9529 29.3284 39.656 29.5796 39.2603C29.8464 38.8401 30.5388 38.2666 30.7777 37.8742C31.2401 37.1161 32.4338 30.6045 32.3449 28.5759C32.2804 27.1175 30.9211 24.4598 30.4176 23.5883C30.401 23.5605 30.3676 23.5494 30.3376 23.5628C29.1784 24.0741 27.778 24.4909 26.9855 25.1034C26.9833 25.1056 26.9811 25.1067 26.9789 25.1089C26.6232 25.438 26.7055 26.7941 27.3068 29.6664L27.728 31.8039H27.7302Z" fill="white"/>
<path d="M30.6814 23.574C30.5291 24.0798 32.3419 25.0335 33.1665 24.8479C33.5189 24.7689 33.46 23.8941 33.2877 23.4251C32.9943 22.627 32.9554 21.5921 32.9554 21.5921L32.9498 21.5899L30.767 20.3293C30.767 20.3293 31.0015 22.5125 30.6814 23.5729V23.574Z" fill="white"/>
<path d="M30.9771 20.6619C30.8182 22.1447 32.1208 23.4919 33.2878 23.4263C33.0244 22.6171 32.9554 21.5934 32.9554 21.5934L32.9499 21.5911L30.9771 20.6619Z" fill="white"/>
<path d="M34.6359 21.571C34.5215 23.5863 31.774 23.185 31.0516 21.3176C30.707 20.4272 30.6192 18.7276 30.7382 18.5542C30.8927 18.3308 31.1238 18.0952 31.3439 17.9184C31.9885 17.4004 32.4598 17.3504 33.2756 17.6939C33.5501 17.8095 33.7724 18.054 33.9602 18.1807C34.2536 18.3786 34.1647 18.8099 34.3025 19.6736C34.327 19.8259 34.367 19.9959 34.4103 20.176C34.4826 20.4695 34.5648 20.7874 34.6082 21.0919C34.6315 21.2576 34.6437 21.4187 34.6359 21.571Z" fill="white"/>
<path d="M30.627 19.1179C30.6247 19.1268 31.0215 19.9416 31.2483 19.7759C31.5583 19.5492 31.705 19.2991 31.7906 19.0201C31.834 18.8789 31.7995 18.5732 31.6673 18.2842C32.9787 18.9723 34.1924 18.7111 34.0146 18.0986L31.0437 17.8818C31.0437 17.8818 30.6292 19.1123 30.6281 19.1179H30.627Z" fill="white"/>
<path d="M32.8987 21.0842C32.8931 20.8196 32.6408 20.6084 32.3352 20.6129C32.0295 20.6173 31.7861 20.8363 31.7906 21.1008C31.7961 21.3654 32.0484 21.5766 32.3541 21.5721C32.6597 21.5677 32.9031 21.3487 32.8987 21.0842Z" fill="white"/>
<path d="M34.6081 21.092C34.3202 21.0786 34.0901 20.8752 34.0846 20.6218C34.0801 20.425 34.2146 20.2527 34.4102 20.176C34.4825 20.4695 34.5647 20.7874 34.6081 21.092Z" fill="white"/>
<path d="M30.2084 19.7747C29.905 20.0715 30.6697 21.3287 30.9998 20.694C31.3277 20.0648 30.5774 19.4146 30.2084 19.7747Z" fill="white"/>
<path d="M30.8097 20.3117C30.7597 20.0527 30.3707 19.897 30.2896 19.9182" stroke="white" stroke-width="1.04" stroke-linecap="round" stroke-linejoin="round"/>
<path d="M30.4858 20.3172C30.5214 20.2072 30.6348 20.156 30.7126 20.1583" stroke="white" stroke-width="1.04" stroke-linecap="round" stroke-linejoin="round"/>
<path d="M34.4248 18.3675C34.4081 18.2875 34.267 18.1363 34.0802 18.0629C34.1603 17.9518 34.2714 17.2982 34.2381 17.1881C33.9802 16.3556 30.7093 17.4938 30.5993 17.5961C30.2892 17.8851 30.0391 19.3101 30.148 19.468C30.2536 19.6225 30.4259 19.6014 30.6137 19.7036C30.6826 19.7414 30.8104 19.8737 30.8816 20.0527C30.926 20.1638 30.8927 20.5651 30.9227 20.7218C30.9494 20.8641 31.1727 20.8252 31.2005 20.8085C31.2717 20.7652 31.2494 19.9504 31.2983 19.6903C31.3206 19.5691 31.824 19.04 31.624 18.2397C32.6587 18.5709 33.7357 18.3164 34.0158 18.0996C34.0136 18.6354 34.2925 19.7414 34.3425 19.8781C34.2836 19.4402 34.487 18.6621 34.427 18.3686L34.4248 18.3675Z" fill="white"/>
<path d="M34.0894 19.5994C34.0183 19.6227 33.9427 19.6705 33.8838 19.7483" stroke="white" stroke-width="1.04" stroke-miterlimit="10" stroke-linecap="round"/>
<path d="M34.274 19.5958C34.2652 19.5914 34.2542 19.5903 34.2432 19.5859" stroke="white" stroke-width="1.04" stroke-miterlimit="10" stroke-linecap="round"/>
<path d="M32.0458 20.1216C32.0258 20.1616 32.0092 20.2061 31.998 20.255" stroke="white" stroke-width="1.04" stroke-miterlimit="10" stroke-linecap="round"/>
<path d="M32.4237 19.8271C32.3237 19.8538 32.217 19.9083 32.1348 19.9961" stroke="white" stroke-width="1.04" stroke-miterlimit="10" stroke-linecap="round"/>
<path d="M32.6825 19.8226C32.6692 19.8182 32.6547 19.816 32.6392 19.8115" stroke="white" stroke-width="1.04" stroke-miterlimit="10" stroke-linecap="round"/>
<path d="M26.9834 25.1058C25.4774 26.0807 23.2901 31.9086 23.2979 33.4437C23.3112 35.838 27.9692 39.7496 28.0492 39.6796C28.3382 39.4306 29.8464 38.4235 29.8764 38.2701C29.902 38.1368 27.3312 33.8917 27.3757 33.4615C27.728 32.6356 27.808 31.0639 29.1851 29.332C30.8289 27.2656 29.3163 23.5952 26.9823 25.1058H26.9834Z" fill="white"/>
<path d="M30.3187 39.4785C30.2076 39.2573 29.8486 38.836 29.5452 38.7026C29.3896 38.6337 29.2162 38.6592 29.0328 38.4903C28.9083 38.3747 28.307 39.0127 28.3704 39.0994C28.426 39.1739 28.456 39.2284 28.4726 39.2728C28.4837 39.2995 28.5371 39.7864 28.606 39.9598C28.7916 40.4244 29.0906 40.8379 29.4362 41.2125C29.7875 41.0124 30.3176 40.0743 30.3176 39.4796L30.3187 39.4785Z" fill="white"/>
<path d="M28.1006 39.3708L28.4918 39.9211L29.7066 38.7005L29.2887 38.2715L28.7752 38.6394L28.1006 39.3708Z" fill="white"/>
<path d="M30.3223 38.8772C30.3968 39.4597 30.1556 41.0025 29.0464 41.5261" stroke="white" stroke-width="0.5" stroke-linecap="round" stroke-linejoin="round"/>
<path d="M36.2969 25.2067C37.8029 26.1815 39.9902 32.0095 39.9824 33.5445C39.9691 35.9389 35.3111 39.8505 35.231 39.7804C34.9421 39.5315 33.4339 38.5244 33.4039 38.371C33.3783 38.2376 35.949 33.9925 35.9046 33.5623C35.5522 32.7364 35.4722 31.1647 34.0952 29.4329C32.4514 27.3665 33.964 23.6961 36.298 25.2067H36.2969Z" fill="white"/>
<path d="M32.9611 39.5793C33.0722 39.3581 33.4312 38.9368 33.7346 38.8034C33.8902 38.7345 34.0636 38.7601 34.247 38.5911C34.3715 38.4755 34.9728 39.1135 34.9094 39.2002C34.8538 39.2747 34.8238 39.3292 34.8072 39.3736C34.796 39.4003 34.7427 39.8872 34.6738 40.0606C34.4882 40.5252 34.1892 40.9387 33.8435 41.3133C33.4923 41.1133 32.9622 40.1751 32.9622 39.5804L32.9611 39.5793Z" fill="white"/>
<path d="M35.1797 39.4717L34.7885 40.0219L33.5737 38.8014L33.9916 38.3723L34.505 38.7402L35.1797 39.4717Z" fill="white"/>
<path d="M32.958 38.9778C32.8835 39.5602 33.1247 41.1031 34.2339 41.6267" stroke="white" stroke-width="0.5" stroke-linecap="round" stroke-linejoin="round"/>
<path d="M35.7804 30.8239C35.876 33.3016 35.8838 39.3619 35.6771 43.1367C35.6771 43.1367 36.564 43.1423 36.8707 43.0789C37.8021 42.8877 36.9496 32.8247 36.9496 32.8247L36.8063 26.9879L36.5095 25.3483C36.5095 25.3483 34.0944 23.4598 33.5098 23.6687C34.3922 24.1756 35.6637 27.7904 35.7804 30.8239Z" fill="white"/>
<path d="M28.7934 29.5657C28.46 30.2582 27.353 33.1905 27.3763 33.4617C27.3997 33.7329 29.4336 37.6323 29.637 37.9269" stroke="white" stroke-width="0.5" stroke-linecap="round" stroke-linejoin="round"/>
<path d="M26.8076 38.677C27.0399 38.9115 27.6812 39.4762 27.9457 39.6819" stroke="white" stroke-width="0.5" stroke-linecap="round" stroke-linejoin="round"/>
<path d="M29.5824 38.2302C29.2879 37.9512 28.0664 39.2317 28.042 39.5118" stroke="white" stroke-width="0.5" stroke-linecap="round" stroke-linejoin="round"/>
<path d="M26.0537 33.4616C26.2593 33.2593 26.8673 33.1926 26.9773 33.3204C27.0662 33.4249 26.2949 33.4304 26.1693 33.7684C26.1426 33.8395 26.5294 33.6261 26.9151 33.7005" stroke="white" stroke-width="0.5" stroke-linecap="round" stroke-linejoin="round"/>
<path d="M56.3529 67.2356H54.5614C54.4628 67.2356 54.4099 67.1401 54.4556 66.9648C54.4556 66.9648 54.4556 66.9648 54.4566 66.9648C54.4805 66.833 54.5095 66.5726 54.5801 66.1545C54.6454 65.7624 55.9742 66.3122 56.0946 66.5124C56.1931 66.6753 56.2533 66.8527 56.2979 66.8683C56.385 66.9005 56.4431 67.2356 56.3518 67.2356H56.3529Z" fill="white"/>
<path d="M61.958 66.6516C61.7713 66.6817 61.7474 66.9971 61.7568 67.2357H61.8501C61.8864 67.2357 61.7993 66.7823 61.958 66.6516Z" fill="white"/>
<path d="M64.2233 67.2357H62.6051C62.5107 67.2357 62.436 67.1216 62.3603 66.9908C62.271 66.8134 62.1953 66.6173 61.9993 66.5873C61.6953 66.5395 61.6455 66.9192 61.657 67.2357H61.3115C61.2918 67.2357 61.0107 66.6474 61.0107 66.4908C61.0107 66.3528 61.075 65.889 61.1455 65.861C61.1684 65.8517 61.8686 65.7511 62.6217 66.5624C62.9515 66.9182 63.5148 66.6765 63.5687 66.7045C63.6102 66.7263 64.188 66.8394 64.2233 66.8674C64.3478 66.968 64.3146 67.2346 64.2233 67.2346V67.2357Z" fill="white"/>
<path d="M62.5809 56.2095C62.5487 56.5902 62.5187 56.9824 62.501 57.3465C62.4222 58.994 62.1203 63.0837 62.1919 64.783C62.2064 65.1202 62.2375 65.2966 62.2676 65.3827C62.2956 65.4626 62.4243 65.5881 62.556 65.7541C62.8309 66.1016 63.2282 66.5664 63.5394 66.7231C63.5508 66.7293 63.5518 66.7449 63.5394 66.7511C63.279 66.886 62.8786 67.0571 62.7189 66.943C62.501 66.7884 61.6743 65.8921 61.2344 65.9097C61.2116 65.9097 61.194 65.89 61.1992 65.8682C61.2365 65.7271 61.3444 65.3184 61.2967 65.0424C61.0156 63.4354 59.9554 59.6694 59.7729 56.9689C59.7614 56.7936 59.7729 56.5238 59.7957 56.2105H62.5799L62.5809 56.2095Z" fill="white"/>
<path d="M54.4455 57.3478C54.4797 57.0033 54.5658 56.6112 54.6758 56.2107H57.3563C57.237 56.691 57.4704 57.2139 57.3365 57.7534C56.6125 60.677 55.7142 63.5953 55.655 64.8527C55.6353 65.2874 55.8438 66.1371 56.0492 66.5355C56.0679 66.5718 56.0648 66.6216 56.0305 66.6434C55.9953 66.6652 55.7525 66.4763 55.5565 66.4815C55.3781 66.4857 54.9113 66.7284 54.7868 66.6496C54.7017 66.5967 54.6343 66.4151 54.6467 66.079C54.6602 65.9981 54.7318 65.3673 54.7588 64.9959C54.8127 64.2676 54.2972 58.8583 54.4455 57.3488V57.3478Z" fill="white"/>
<path d="M62.459 31.2671C63.8438 33.3638 63.7214 36.777 63.9974 37.6589C64.403 38.9567 64.1934 44.3837 64.1768 44.8018C64.1675 45.0445 63.1613 45.0767 62.9984 45.0051C62.5109 44.7914 62.7557 40.9538 62.5835 39.8095C62.4331 38.8115 62.4787 36.6401 62.376 36.1131C62.0866 34.6264 62.459 31.2681 62.459 31.2681V31.2671Z" fill="white"/>
<path d="M64.0776 44.7957C63.8536 45.6381 63.8214 46.5137 63.643 46.7948C63.4646 47.077 62.5974 47.7867 62.5206 47.6653C62.3982 47.4713 62.8359 47.243 62.7447 47.0967C62.7447 47.0967 62.1928 47.4059 62.1306 47.3073C61.9179 46.9733 62.9822 46.3124 62.9252 46.2657C62.8681 46.2191 61.8391 46.5427 61.8214 46.4297C61.8048 46.3166 62.6627 45.8964 62.6627 45.8964C62.6627 45.8964 62.8027 44.972 62.9583 44.6815C63.1139 44.3921 63.3919 44.4066 63.3919 44.4066C63.3919 44.4066 64.1274 44.6037 64.0766 44.7946L64.0776 44.7957Z" fill="white"/>
<path d="M62.6761 58.2462C62.6574 58.6435 59.7923 58.518 59.7083 57.9173C59.4852 56.3196 59.2415 47.8477 59.2415 47.8477C59.2415 47.8477 57.7394 55.554 57.3525 58.4142C57.2934 58.8531 54.2872 58.3043 54.3245 57.9246C54.4718 56.4358 54.8919 47.605 55.7177 42.8555C56.0372 41.015 58.1346 39.1279 58.144 38.4411C58.144 38.4411 61.0257 37.9068 61.8835 38.4411C62.3472 40.0128 62.5599 41.2329 62.786 43.4977C63.2933 48.5843 62.7393 56.913 62.6761 58.2451V58.2462Z" fill="white"/>
<path d="M62.037 40.0814C61.8741 40.2142 58.5557 39.7629 58.37 39.0139C58.0277 37.632 57.8171 31.7288 57.8171 31.7288L61.7351 31.012C61.7351 31.012 63.4218 38.9527 62.0359 40.0825L62.037 40.0814Z" fill="white"/>
<path d="M60.6394 28.8412C59.8479 28.944 59.5492 29.3465 59.3043 28.5051C59.0274 27.5527 57.4517 26.6398 57.8988 25.124C58.1986 24.1084 59.0792 23.793 59.9019 23.793C60.767 23.793 61.6311 24.3937 61.879 25.1489C62.019 25.5764 61.8137 26.1667 61.7068 26.6242C61.6809 26.7352 61.5491 28.723 60.6394 28.8412Z" fill="white"/>
<path d="M58.5085 30.0977C58.3311 30.2243 59.8404 32.459 60.6786 32.1353C61.4929 31.8209 60.8362 30.217 60.8362 30.217C60.7813 30.1434 60.6443 29.8093 60.5365 29.5997C60.5126 29.4887 60.4939 29.3673 60.4939 29.2439C60.4939 28.5498 60.5821 28.1535 60.5821 28.1535L59.0863 26.8567L58.8995 26.8712C59.0624 28.055 59.1018 29.6744 58.5085 30.0967V30.0977Z" fill="white"/>
<path d="M60.5369 29.5995C60.513 29.4885 60.4943 29.3671 60.4943 29.2436C60.4943 28.5496 60.5825 28.1533 60.5825 28.1533L59.1894 27.343C59.1189 28.3182 59.8336 29.4501 60.5358 29.5995H60.5369Z" fill="white"/>
<path d="M59.295 24.0515C59.6104 22.9735 58.8355 21.5595 57.7598 21.9869C56.683 22.4143 57.3521 24.5774 58.6031 24.5837C59.8552 24.5909 59.295 24.0504 59.295 24.0504V24.0515Z" fill="white"/>
<path d="M59.369 23.6239C59.369 23.6239 59.3753 23.5731 59.3877 23.4839C59.3919 23.4393 59.4033 23.3864 59.4043 23.322C59.4043 23.2577 59.4043 23.1851 59.4043 23.1062C59.3981 23.0274 59.3856 22.9434 59.3753 22.8531C59.3659 22.8085 59.3524 22.7639 59.341 22.7182C59.3275 22.6726 59.3192 22.6238 59.2975 22.5792C59.2788 22.5336 59.2591 22.4869 59.2404 22.4392C59.2197 22.3925 59.1906 22.3489 59.1647 22.3033C59.1512 22.2804 59.1387 22.2576 59.1242 22.2358L59.0744 22.1736C59.0392 22.1341 59.0122 22.0864 58.9697 22.0532C58.9302 22.0169 58.8919 21.9796 58.8504 21.9453C58.8058 21.9152 58.7612 21.8862 58.7176 21.8571C58.6242 21.8084 58.5298 21.7617 58.4302 21.742C58.4053 21.7358 58.3815 21.7295 58.3576 21.7243C58.3338 21.7192 58.3089 21.7202 58.285 21.7171C58.2363 21.715 58.1896 21.7067 58.144 21.7109C58.0527 21.7202 57.9655 21.7243 57.8898 21.7513C57.8514 21.7627 57.8141 21.771 57.7809 21.7845C57.7487 21.8001 57.7176 21.8146 57.6886 21.8291C57.6595 21.8426 57.6325 21.8561 57.6076 21.8686C57.5848 21.8841 57.5641 21.8986 57.5444 21.9111C57.4686 21.963 57.4261 21.9931 57.4261 21.9931C57.4137 22.0014 57.4105 22.018 57.4188 22.0304C57.4271 22.0418 57.4427 22.0449 57.4552 22.0377L57.4583 22.0356C57.4583 22.0356 57.5008 22.0097 57.5765 21.963C57.5952 21.9516 57.616 21.9391 57.6388 21.9256C57.6637 21.9152 57.6896 21.9049 57.7176 21.8935C57.7456 21.882 57.7757 21.8696 57.8068 21.8561C57.839 21.8457 57.8742 21.8405 57.9106 21.8302C57.9821 21.8063 58.062 21.8053 58.1471 21.8001C58.1896 21.798 58.2321 21.8073 58.2767 21.8105C58.2985 21.8136 58.3213 21.8136 58.3431 21.8188C58.3649 21.825 58.3867 21.8312 58.4085 21.8374C58.4987 21.8571 58.5838 21.9007 58.6688 21.9453C58.7083 21.9723 58.7487 22.0003 58.7892 22.0273C58.8255 22.0594 58.8607 22.0947 58.897 22.1279C58.9354 22.159 58.9603 22.2037 58.9925 22.24L59.0381 22.2981L59.0755 22.3613C59.0993 22.4039 59.1273 22.4433 59.147 22.4869C59.1657 22.5315 59.1844 22.5751 59.2031 22.6176C59.2394 22.7037 59.256 22.794 59.2809 22.8759C59.2943 22.961 59.3099 23.0409 59.3192 23.1156C59.3234 23.1903 59.3265 23.2588 59.3296 23.32C59.3327 23.3812 59.3255 23.4362 59.3244 23.4808C59.3203 23.571 59.3182 23.6219 59.3182 23.6219C59.3182 23.6364 59.3286 23.6488 59.3441 23.6499C59.3587 23.6499 59.3701 23.6405 59.3721 23.626L59.369 23.6239Z" fill="white"/>
<path d="M59.035 24.2952C59.035 24.2952 58.9831 24.2941 58.8939 24.2921C58.8711 24.2921 58.8462 24.2921 58.8192 24.291C58.7922 24.291 58.7611 24.2972 58.729 24.3014C58.6646 24.3097 58.59 24.317 58.5153 24.345C58.4769 24.3574 58.4375 24.3688 58.397 24.3833C58.3586 24.4031 58.3182 24.4238 58.2777 24.4446C58.2352 24.4632 58.1989 24.4944 58.1605 24.5244C58.1232 24.5556 58.0806 24.5825 58.0495 24.622C58.0163 24.6593 57.979 24.6956 57.9479 24.7371C57.9198 24.7807 57.8908 24.8243 57.8618 24.8689C57.814 24.9623 57.7684 25.0598 57.7435 25.1635C57.7279 25.2144 57.7134 25.2652 57.7072 25.3181C57.6999 25.37 57.6885 25.4218 57.6844 25.4737C57.6792 25.5775 57.6719 25.6791 57.6833 25.7777C57.6864 25.8763 57.7062 25.9696 57.7207 26.0588C57.7352 26.1481 57.7632 26.228 57.7819 26.3047C57.8037 26.3794 57.8337 26.4458 57.8545 26.505C57.8752 26.5651 57.9022 26.6139 57.9219 26.6543C57.9613 26.7363 57.9842 26.783 57.9842 26.783C57.9904 26.7965 58.007 26.8017 58.0205 26.7954C58.0329 26.7892 58.0391 26.7737 58.034 26.7612V26.7591C58.034 26.7591 58.0132 26.7124 57.979 26.6305C57.9624 26.589 57.9385 26.5413 57.9219 26.4811C57.9043 26.422 57.8794 26.3566 57.8607 26.2829C57.8452 26.2082 57.8203 26.1304 57.8088 26.0443C57.7974 25.9582 57.7808 25.868 57.7819 25.7746C57.7736 25.6802 57.7819 25.5837 57.7871 25.4851C57.7902 25.4364 57.8026 25.3876 57.8099 25.3388C57.8161 25.2891 57.8296 25.2413 57.8452 25.1946C57.869 25.0982 57.9147 25.01 57.9562 24.9228C57.9821 24.8824 58.008 24.8419 58.0329 24.8014C58.0609 24.7631 58.0941 24.7309 58.1242 24.6956C58.1522 24.6583 58.1906 24.6344 58.2238 24.6054C58.258 24.5774 58.2912 24.5493 58.3285 24.5307C58.3649 24.5099 58.4012 24.4892 58.4354 24.4695C58.4717 24.4539 58.5091 24.4425 58.5433 24.429C58.6117 24.3989 58.6792 24.3917 58.7383 24.3782C58.7684 24.373 58.7953 24.3647 58.8213 24.3626C58.8482 24.3616 58.8732 24.3595 58.896 24.3585C58.9862 24.3533 59.0371 24.3502 59.0371 24.3502C59.0516 24.3502 59.063 24.3367 59.0619 24.3221C59.0619 24.3076 59.0495 24.2972 59.036 24.2972L59.035 24.2952Z" fill="white"/>
<path d="M61.874 27.3318C61.8252 28.1981 61.3874 28.7614 61.0493 28.8569C60.1136 29.1193 59.2236 28.2416 58.9248 26.9905C58.9124 26.8027 58.9321 26.6087 58.9725 26.4157C59.0711 26.4863 59.3564 26.5755 59.541 26.286C59.7537 25.954 59.7537 25.1801 60.0597 25.0525C60.6126 25.8814 61.4051 24.9819 61.7464 25.6532C61.8262 25.9063 61.7878 26.3223 61.8459 26.7186C61.8781 26.9365 61.8854 27.1419 61.875 27.3318H61.874Z" fill="white"/>
<path d="M60.7554 27.2032C60.7554 27.0092 60.5541 26.8525 60.3052 26.8525C60.0562 26.8525 59.855 27.0092 59.855 27.2032C59.855 27.3972 60.0562 27.5539 60.3052 27.5539C60.5541 27.5539 60.7554 27.3972 60.7554 27.2032Z" fill="white"/>
<path d="M61.874 27.3319C61.7277 27.2748 61.6261 27.1555 61.6261 27.0196C61.6261 26.892 61.7143 26.781 61.845 26.7188C61.8771 26.9366 61.8844 27.142 61.874 27.3319Z" fill="white"/>
<path d="M60.059 25.0525C60.6119 25.8814 61.4044 24.9819 61.7446 25.6532C61.3805 25.261 60.5714 26.0806 60.0559 25.0546C60.0569 25.0546 60.0579 25.0535 60.059 25.0525Z" fill="white"/>
<path d="M59.5403 26.286C59.671 26.0827 59.7208 25.7123 59.811 25.427C59.7581 25.8534 59.7695 26.313 59.5009 26.5028C59.2415 26.6854 59.0932 26.5122 58.9926 26.4302C59.1067 26.4977 59.3671 26.5578 59.5403 26.2871V26.286Z" fill="white"/>
<path d="M58.502 26.3422C58.2675 26.6047 58.8661 27.6255 59.0393 26.9719C59.1119 26.696 59.0839 26.5373 58.9553 26.4024C58.7872 26.226 58.5819 26.253 58.502 26.3432V26.3422Z" fill="white"/>
<path d="M58.6027 26.4939C58.6846 26.4638 58.8309 26.5022 58.8433 26.6827C58.8465 26.7304 58.8039 26.7429 58.8164 26.7906C58.8247 26.8207 58.8765 26.8508 58.9004 26.8539" fill="white"/>
<path d="M58.6027 26.4939C58.6846 26.4638 58.8309 26.5022 58.8433 26.6827C58.8465 26.7304 58.8039 26.7429 58.8164 26.7906C58.8247 26.8207 58.8765 26.8508 58.9004 26.8539" stroke="white" stroke-width="0.69" stroke-linecap="round" stroke-linejoin="round"/>
<path d="M58.6687 26.642C58.6947 26.5652 58.8005 26.5569 58.8306 26.6182L58.6687 26.642Z" fill="white"/>
<path d="M58.6687 26.642C58.6947 26.5652 58.8005 26.5569 58.8306 26.6182" stroke="white" stroke-width="0.69" stroke-linecap="round" stroke-linejoin="round"/>
<path d="M54.6357 45.638C54.4957 45.4792 54.8619 44.0984 54.9418 43.7166C55.2519 42.2403 55.8961 41.0773 55.9262 40.8792C55.9262 40.876 53.6866 39.2358 53.4656 38.2056C53.2623 37.2543 55.1254 32.5701 56.0351 31.4808C56.4179 31.0223 57.8141 30.2618 57.9957 30.129C58.2488 29.9433 58.8535 29.3571 58.9075 29.5221C58.9075 29.5221 60.5091 33.5765 60.5827 35.3028C60.6004 35.7147 59.7166 45.9544 59.5548 46.1909C59.3006 46.5634 54.8214 45.8486 54.6357 45.638ZM56.8733 37.3518C56.7965 36.5955 56.5517 35.8195 56.5517 35.8195C56.4656 35.8516 55.782 37.8581 55.782 37.8581L56.7135 38.5864C56.7135 38.5864 56.95 38.1071 56.8733 37.3508V37.3518Z" fill="white"/>
<path d="M63.5525 45.638C63.4768 46.1121 61.7569 46.2573 61.705 46.1639C61.4405 45.6815 61.6926 41.7184 61.6822 40.2172C61.6708 38.5054 61.8492 36.8756 61.8866 35.1192C61.926 33.2517 60.6293 30.2037 60.536 29.5999C60.6241 29.5117 60.8036 29.9049 61.0017 30.0802C61.2019 30.2576 62.1853 30.8728 62.4592 31.2671C63.51 32.7807 62.6075 36.9679 62.7839 38.2046C62.9986 39.713 63.5899 45.4076 63.5525 45.6369V45.638Z" fill="white"/>
<path d="M62.9497 46.0363C62.7059 46.0965 61.9694 46.2293 61.7049 46.1639C61.4404 46.0985 61.6344 42.2278 61.6344 42.2278" fill="white"/>
<path d="M62.9497 46.0363C62.7059 46.0965 61.9694 46.2293 61.7049 46.1639C61.4404 46.0985 61.6344 42.2278 61.6344 42.2278" stroke="white" stroke-width="0.5" stroke-linecap="round" stroke-linejoin="round"/>
<path d="M59.7891 44.5195C59.7496 44.7893 59.6646 45.9761 59.5546 46.1909C59.4447 46.4056 56.6179 46.1359 55.3897 45.8537" fill="white"/>
<path d="M59.7891 44.5195C59.7496 44.7893 59.6646 45.9761 59.5546 46.1909C59.4447 46.4056 56.6179 46.1359 55.3897 45.8537" stroke="white" stroke-width="0.5" stroke-linecap="round" stroke-linejoin="round"/>
<path d="M62.4229 32.3015C62.3471 32.4789 62.3347 32.841 62.4125 33.1885C62.4716 33.4521 62.9281 34.0652 62.9633 34.4854C63.01 35.0269 62.8534 35.4523 62.6874 35.7967C62.5287 36.1277 63.3762 42.8743 63.481 44.8994" fill="white"/>
<path d="M62.4229 32.3015C62.3471 32.4789 62.3347 32.841 62.4125 33.1885C62.4716 33.4521 62.9281 34.0652 62.9633 34.4854C63.01 35.0269 62.8534 35.4523 62.6874 35.7967C62.5287 36.1277 63.3762 42.8743 63.481 44.8994" stroke="white" stroke-width="0.5" stroke-linecap="round" stroke-linejoin="round"/>
<path d="M57.9714 30.2327C58.2017 31.0709 58.2868 32.1094 58.3666 32.1748C58.4237 32.2204 58.8853 31.905 58.9351 31.9559C58.9859 32.0088 58.5959 32.8543 58.6281 32.9394C58.6581 33.0193 60.4299 34.9365 60.5181 35.6254" fill="white"/>
<path d="M57.9714 30.2327C58.2017 31.0709 58.2868 32.1094 58.3666 32.1748C58.4237 32.2204 58.8853 31.905 58.9351 31.9559C58.9859 32.0088 58.5959 32.8543 58.6281 32.9394C58.6581 33.0193 60.4299 34.9365 60.5181 35.6254" stroke="white" stroke-width="0.5" stroke-linecap="round" stroke-linejoin="round"/>
<path d="M61.3975 30.4673C61.5656 30.7993 61.8622 31.7527 61.8498 31.8056C61.8373 31.8596 61.4598 31.7288 61.4598 31.7288C61.4598 31.7288 61.8571 32.3876 61.9027 32.4613C62.0012 32.621 62.0998 34.7997 61.8819 35.334" fill="white"/>
<path d="M61.3975 30.4673C61.5656 30.7993 61.8622 31.7527 61.8498 31.8056C61.8373 31.8596 61.4598 31.7288 61.4598 31.7288C61.4598 31.7288 61.8571 32.3876 61.9027 32.4613C62.0012 32.621 62.0998 34.7997 61.8819 35.334" stroke="white" stroke-width="0.5" stroke-linecap="round" stroke-linejoin="round"/>
<path d="M56.5507 35.8194C56.809 35.1555 57.3951 34.2446 57.4937 33.8877L56.5507 35.8194Z" fill="white"/>
<path d="M56.5507 35.8194C56.809 35.1555 57.3951 34.2446 57.4937 33.8877" stroke="white" stroke-width="0.5" stroke-linecap="round" stroke-linejoin="round"/>
<path d="M58.9981 45.3895L55.499 42.5779L59.3681 37.7617L62.8671 40.5734L58.9981 45.3895Z" fill="white"/>
<path d="M59.7902 38.9565L61.5122 40.3405" stroke="white" stroke-width="1.38" stroke-linecap="round" stroke-linejoin="round"/>
<path d="M57.1236 38.8623C57.7076 39.3904 59.7678 40.8905 59.8674 41.1696C59.9223 41.3232 58.9659 42.4032 58.7377 42.4882C58.5406 42.5619 55.6195 40.8241 55.5697 40.4341C55.5199 40.044 57.1226 38.8623 57.1226 38.8623H57.1236Z" fill="white"/>
<path d="M57.9204 39.494C57.4941 39.1101 57.1455 38.8632 56.8042 38.5862L57.9204 39.494Z" fill="white"/>
<path d="M57.9204 39.494C57.4941 39.1101 57.1455 38.8632 56.8042 38.5862" stroke="white" stroke-width="0.5" stroke-linecap="round" stroke-linejoin="round"/>
<path d="M60.7249 43.4977C60.5703 43.5267 60.5237 42.9001 60.477 42.8285C60.4438 42.7797 59.4386 42.3388 59.2643 42.1438C59.0009 41.8512 59.5994 41.1717 59.7218 41.2796C59.8536 41.3947 61.2654 42.6096 61.3224 42.7227C61.3753 42.8264 61.3463 43.2891 61.3276 43.2902C61.2311 43.2974 61.2 42.8897 61.1481 42.8741C61.1295 42.8752 60.9656 43.452 60.7249 43.4966V43.4977Z" fill="white"/>
<path d="M60.8442 43.418C60.8442 43.418 60.867 43.3641 60.8961 43.2821C60.9231 43.1991 60.9604 43.0881 60.9822 42.9709C60.9936 42.9128 61.0029 42.8536 61.0029 42.7924C61.0029 42.7769 61.0019 42.7613 60.9977 42.7437V42.7374L60.9957 42.7323V42.7302L60.9915 42.7208C60.9894 42.7146 60.9853 42.7032 60.9811 42.6959C60.9666 42.6669 60.9459 42.6462 60.9282 42.6285C60.8919 42.5953 60.8608 42.5777 60.839 42.5632C60.8183 42.5497 60.8058 42.5424 60.8058 42.5424C60.7934 42.5341 60.7758 42.5383 60.7685 42.5507C60.7623 42.56 60.7633 42.5715 60.7685 42.5808C60.7685 42.5808 60.7768 42.5943 60.7944 42.614C60.811 42.6337 60.837 42.6607 60.8608 42.6897C60.8722 42.7042 60.8816 42.7219 60.8878 42.7374L60.8909 42.7478L60.893 42.7572V42.7592V42.7623C60.895 42.7706 60.894 42.7821 60.895 42.7935C60.895 42.8412 60.8847 42.8972 60.8753 42.9522C60.8536 43.0642 60.8318 43.1773 60.8152 43.2614C60.7996 43.3464 60.7903 43.4045 60.7903 43.4045C60.7882 43.4191 60.7975 43.4336 60.8131 43.4357C60.8256 43.4377 60.838 43.4305 60.8421 43.4191L60.8442 43.418Z" fill="white"/>
<path d="M60.732 43.4346C60.732 43.4346 60.7465 43.3837 60.7611 43.3038C60.7735 43.225 60.7891 43.1192 60.7922 43.0113C60.7932 42.9573 60.7943 42.9034 60.788 42.8505C60.7849 42.8235 60.7818 42.7986 60.7694 42.7664C60.76 42.7457 60.7538 42.7395 60.7465 42.7291C60.7393 42.7187 60.732 42.7114 60.7237 42.7031C60.6636 42.6399 60.6044 42.6212 60.6044 42.6212C60.5899 42.617 60.5743 42.6253 60.5702 42.6399C60.5671 42.6502 60.5702 42.6596 60.5764 42.6668C60.5764 42.6668 60.6096 42.7021 60.649 42.7633C60.6532 42.7706 60.6584 42.7789 60.6636 42.7872C60.6677 42.7944 60.675 42.8069 60.6739 42.8069C60.677 42.8173 60.6812 42.8401 60.6833 42.8619C60.6864 42.9075 60.6874 42.9584 60.6874 43.0102C60.6874 43.1129 60.6853 43.2177 60.6822 43.2966C60.6812 43.3754 60.6802 43.4283 60.6802 43.4283C60.6802 43.4429 60.6916 43.4553 60.7071 43.4563C60.7196 43.4563 60.7299 43.448 60.7341 43.4366L60.732 43.4346Z" fill="white"/>
<path d="M61.1752 42.8712C61.1752 42.8712 61.1825 42.8515 61.1835 42.8204C61.1856 42.7903 61.1825 42.7467 61.1628 42.7042C61.1576 42.6938 61.1534 42.6845 61.1462 42.6741C61.14 42.6647 61.1327 42.6554 61.1254 42.6471C61.1109 42.6315 61.0943 42.6191 61.0798 42.6108C61.0508 42.5942 61.0279 42.5911 61.0279 42.5911C61.0124 42.589 60.9968 42.5994 60.9947 42.616C60.9937 42.6232 60.9947 42.6305 60.9999 42.6367C60.9999 42.6367 61.0113 42.6533 61.0248 42.6741C61.0393 42.6948 61.0528 42.7218 61.0653 42.7488C61.0777 42.7799 61.0912 42.811 61.1005 42.8349C61.1109 42.8608 61.1223 42.8785 61.1223 42.8785C61.1306 42.8919 61.1493 42.8961 61.1628 42.8878C61.169 42.8836 61.1732 42.8785 61.1752 42.8722V42.8712Z" fill="white"/>
<path d="M59.7036 41.2297C59.3603 41.3999 58.8955 41.9373 58.7306 42.3066L59.7036 41.2297Z" fill="white"/>
<path d="M59.7036 41.2297C59.3603 41.3999 58.8955 41.9373 58.7306 42.3066" stroke="white" stroke-width="1.38" stroke-linecap="round" stroke-linejoin="round"/>
<path d="M55.99 40.9529C56.0864 41.0224 56.2742 41.1375 56.5117 41.2683L55.99 40.9529Z" fill="white"/>
<path d="M55.99 40.9529C56.0864 41.0224 56.2742 41.1375 56.5117 41.2683" stroke="white" stroke-width="0.5" stroke-linecap="round" stroke-linejoin="round"/>
</svg>
