<svg width="83" height="108" viewBox="0 0 83 108" fill="none" xmlns="http://www.w3.org/2000/svg">
<rect x="4" width="79" height="79" rx="27" fill="#2B65EC"/>
<path d="M4.878 103.18C3.882 103.18 3.036 103 2.34 102.64C1.644 102.28 1.02 101.752 0.468 101.056L1.872 99.652C2.22 100.156 2.634 100.552 3.114 100.84C3.594 101.116 4.206 101.254 4.95 101.254C5.646 101.254 6.198 101.11 6.606 100.822C7.026 100.534 7.236 100.138 7.236 99.634C7.236 99.214 7.128 98.872 6.912 98.608C6.696 98.344 6.408 98.128 6.048 97.96C5.7 97.78 5.31 97.624 4.878 97.492C4.458 97.348 4.032 97.192 3.6 97.024C3.18 96.844 2.79 96.622 2.43 96.358C2.082 96.094 1.8 95.752 1.584 95.332C1.368 94.912 1.26 94.378 1.26 93.73C1.26 92.986 1.44 92.356 1.8 91.84C2.172 91.312 2.67 90.91 3.294 90.634C3.918 90.358 4.614 90.22 5.382 90.22C6.21 90.22 6.948 90.382 7.596 90.706C8.256 91.03 8.79 91.444 9.198 91.948L7.794 93.352C7.434 92.944 7.056 92.644 6.66 92.452C6.276 92.248 5.832 92.146 5.328 92.146C4.704 92.146 4.212 92.272 3.852 92.524C3.504 92.776 3.33 93.13 3.33 93.586C3.33 93.97 3.438 94.282 3.654 94.522C3.87 94.75 4.152 94.948 4.5 95.116C4.86 95.272 5.25 95.422 5.67 95.566C6.102 95.71 6.528 95.872 6.948 96.052C7.38 96.232 7.77 96.466 8.118 96.754C8.478 97.03 8.766 97.39 8.982 97.834C9.198 98.278 9.306 98.836 9.306 99.508C9.306 100.636 8.904 101.53 8.1 102.19C7.308 102.85 6.234 103.18 4.878 103.18ZM12.414 103V90.76H14.394V103H12.414ZM10.344 96.16V94.36H16.464V96.16H10.344ZM21.2746 103.18C20.4946 103.18 19.7866 102.982 19.1506 102.586C18.5266 102.19 18.0286 101.656 17.6566 100.984C17.2966 100.3 17.1166 99.538 17.1166 98.698C17.1166 97.846 17.2966 97.084 17.6566 96.412C18.0286 95.728 18.5266 95.188 19.1506 94.792C19.7866 94.384 20.4946 94.18 21.2746 94.18C21.9346 94.18 22.5166 94.324 23.0206 94.612C23.5366 94.888 23.9446 95.272 24.2446 95.764C24.5446 96.256 24.6946 96.814 24.6946 97.438V99.922C24.6946 100.546 24.5446 101.104 24.2446 101.596C23.9566 102.088 23.5546 102.478 23.0386 102.766C22.5226 103.042 21.9346 103.18 21.2746 103.18ZM21.5986 101.308C22.3306 101.308 22.9186 101.062 23.3626 100.57C23.8186 100.078 24.0466 99.448 24.0466 98.68C24.0466 98.164 23.9446 97.708 23.7406 97.312C23.5366 96.916 23.2486 96.61 22.8766 96.394C22.5166 96.166 22.0906 96.052 21.5986 96.052C21.1186 96.052 20.6926 96.166 20.3206 96.394C19.9606 96.61 19.6726 96.916 19.4566 97.312C19.2526 97.708 19.1506 98.164 19.1506 98.68C19.1506 99.196 19.2526 99.652 19.4566 100.048C19.6726 100.444 19.9606 100.756 20.3206 100.984C20.6926 101.2 21.1186 101.308 21.5986 101.308ZM23.9206 103V100.678L24.2626 98.572L23.9206 96.484V94.36H25.9006V103H23.9206ZM34.02 103V98.014C34.02 97.438 33.834 96.964 33.462 96.592C33.102 96.22 32.634 96.034 32.058 96.034C31.674 96.034 31.332 96.118 31.032 96.286C30.732 96.454 30.498 96.688 30.33 96.988C30.162 97.288 30.078 97.63 30.078 98.014L29.304 97.582C29.304 96.922 29.448 96.34 29.736 95.836C30.024 95.32 30.42 94.918 30.924 94.63C31.44 94.33 32.016 94.18 32.652 94.18C33.3 94.18 33.876 94.348 34.38 94.684C34.884 95.008 35.28 95.434 35.568 95.962C35.856 96.478 36 97.018 36 97.582V103H34.02ZM28.098 103V94.36H30.078V103H28.098ZM41.6301 103.18C40.8501 103.18 40.1421 102.982 39.5061 102.586C38.8821 102.19 38.3841 101.656 38.0121 100.984C37.6521 100.3 37.4721 99.538 37.4721 98.698C37.4721 97.846 37.6521 97.084 38.0121 96.412C38.3841 95.728 38.8821 95.188 39.5061 94.792C40.1421 94.384 40.8501 94.18 41.6301 94.18C42.2901 94.18 42.8721 94.324 43.3761 94.612C43.8921 94.888 44.3001 95.272 44.6001 95.764C44.9001 96.256 45.0501 96.814 45.0501 97.438V99.922C45.0501 100.546 44.9001 101.104 44.6001 101.596C44.3121 102.088 43.9101 102.478 43.3941 102.766C42.8781 103.042 42.2901 103.18 41.6301 103.18ZM41.9541 101.308C42.4461 101.308 42.8721 101.2 43.2321 100.984C43.6041 100.756 43.8921 100.444 44.0961 100.048C44.3001 99.652 44.4021 99.196 44.4021 98.68C44.4021 98.164 44.3001 97.708 44.0961 97.312C43.8921 96.916 43.6041 96.61 43.2321 96.394C42.8721 96.166 42.4461 96.052 41.9541 96.052C41.4741 96.052 41.0481 96.166 40.6761 96.394C40.3161 96.61 40.0281 96.916 39.8121 97.312C39.6081 97.708 39.5061 98.164 39.5061 98.68C39.5061 99.196 39.6081 99.652 39.8121 100.048C40.0281 100.444 40.3161 100.756 40.6761 100.984C41.0481 101.2 41.4741 101.308 41.9541 101.308ZM46.2561 103H44.2761V100.678L44.6181 98.572L44.2761 96.484V90.04H46.2561V103ZM48.7235 103V90.4H50.1635L55.4015 99.022H54.4655L59.7035 90.4H61.1435V103H59.0735V94.036L59.5415 94.162L55.6535 100.552H54.2135L50.3255 94.162L50.7935 94.036V103H48.7235ZM67.2238 103.18C66.4438 103.18 65.7358 102.982 65.0998 102.586C64.4758 102.19 63.9778 101.656 63.6058 100.984C63.2458 100.3 63.0658 99.538 63.0658 98.698C63.0658 97.846 63.2458 97.084 63.6058 96.412C63.9778 95.728 64.4758 95.188 65.0998 94.792C65.7358 94.384 66.4438 94.18 67.2238 94.18C67.8838 94.18 68.4658 94.324 68.9698 94.612C69.4858 94.888 69.8938 95.272 70.1938 95.764C70.4938 96.256 70.6438 96.814 70.6438 97.438V99.922C70.6438 100.546 70.4938 101.104 70.1938 101.596C69.9058 102.088 69.5038 102.478 68.9878 102.766C68.4718 103.042 67.8838 103.18 67.2238 103.18ZM67.5478 101.308C68.2798 101.308 68.8678 101.062 69.3118 100.57C69.7678 100.078 69.9958 99.448 69.9958 98.68C69.9958 98.164 69.8938 97.708 69.6898 97.312C69.4858 96.916 69.1978 96.61 68.8258 96.394C68.4658 96.166 68.0398 96.052 67.5478 96.052C67.0678 96.052 66.6418 96.166 66.2698 96.394C65.9098 96.61 65.6218 96.916 65.4058 97.312C65.2018 97.708 65.0998 98.164 65.0998 98.68C65.0998 99.196 65.2018 99.652 65.4058 100.048C65.6218 100.444 65.9098 100.756 66.2698 100.984C66.6418 101.2 67.0678 101.308 67.5478 101.308ZM69.8698 103V100.678L70.2118 98.572L69.8698 96.484V94.36H71.8498V103H69.8698ZM79.9692 103V98.014C79.9692 97.438 79.7832 96.964 79.4112 96.592C79.0512 96.22 78.5832 96.034 78.0072 96.034C77.6232 96.034 77.2812 96.118 76.9812 96.286C76.6812 96.454 76.4472 96.688 76.2792 96.988C76.1112 97.288 76.0272 97.63 76.0272 98.014L75.2532 97.582C75.2532 96.922 75.3972 96.34 75.6852 95.836C75.9732 95.32 76.3692 94.918 76.8732 94.63C77.3892 94.33 77.9652 94.18 78.6012 94.18C79.2492 94.18 79.8252 94.348 80.3292 94.684C80.8332 95.008 81.2292 95.434 81.5172 95.962C81.8052 96.478 81.9492 97.018 81.9492 97.582V103H79.9692ZM74.0472 103V94.36H76.0272V103H74.0472Z" fill="black"/>
<path d="M55.6249 22.2014C55.7046 21.976 55.8101 21.7256 55.6868 21.3846C55.773 21.1407 55.721 20.8395 55.6778 20.5512C55.5615 19.7628 55.34 18.9995 55.1472 18.6619C55.1465 18.6605 55.1599 18.664 55.1592 18.6625C54.9741 18.3411 53.2289 18.8716 53.2289 18.8716C53.2289 18.8716 53.2296 19.0181 53.2241 19.2441C53.2056 19.9483 53.1535 21.4342 53.044 21.7441C52.9031 22.1429 49.9231 25.6504 49.3432 26.6328C49.3282 26.658 49.3151 26.6814 49.3038 26.703C48.9179 27.4224 48.7054 28.0032 48.6153 28.4651C48.6126 28.4727 48.6125 28.4799 48.6109 28.4879C48.4732 29.2158 48.6414 29.6434 48.915 29.8522C49.1968 30.0688 49.589 30.0525 49.8699 29.8922C49.9033 29.8735 49.9093 29.8427 49.9446 29.8186C51.6109 28.7251 55.2798 23.1815 55.6264 22.2007L55.6249 22.2014Z" fill="white"/>
<path d="M55.7337 20.5712C55.6174 19.7828 55.3677 19.0095 55.1749 18.672L53.2269 19.2454C53.2084 19.9495 53.1552 21.435 53.0457 21.745C52.9048 22.1438 49.9238 25.6509 49.3438 26.6333C49.6379 26.2874 49.4893 27.3979 49.6335 27.383C49.8597 27.3605 49.5661 26.3596 49.6923 26.2957C49.802 26.2405 49.9723 26.9761 50.0528 26.8656C50.1643 26.7123 49.8611 26.1871 49.958 25.9714C50.0318 25.8073 53.2612 22.2527 53.3672 22.2048C53.5097 22.1393 53.8686 22.538 53.9946 22.3643C54.071 22.2584 53.3734 22.1216 53.4476 21.9772C53.5218 21.8327 54.15 21.8036 54.1564 21.6718C54.1628 21.5399 53.4504 21.8002 53.4084 21.7086C53.3664 21.6169 53.5736 20.7893 53.6308 20.6791C53.6895 20.5681 55.2737 20.1759 55.7326 20.5708L55.7337 20.5712Z" fill="white"/>
<path d="M55.7339 20.5713C55.5338 20.2372 54.7222 20.2333 54.8915 20.4028C55.3562 20.45 55.5975 21.8957 55.3989 22.2851C53.8157 25.3962 50.0949 30.2656 48.9133 29.853C49.1951 30.0696 49.5477 30.0687 49.8364 29.9244C51.5174 29.0823 55.3687 23.2399 55.7221 22.2396C55.9749 21.5244 55.73 20.8685 55.7324 20.5719L55.7339 20.5713Z" fill="white"/>
<path d="M55.6051 19.2721C55.4655 18.929 55.2074 18.4623 55.1661 18.4343C55.1051 18.3933 53.2499 18.7313 53.1701 18.8054C53.0743 18.8935 52.7931 20.5313 52.8982 20.5891C52.9237 20.603 52.9775 20.6025 53.0533 20.5915C53.6517 20.5055 55.6231 19.7454 55.6883 19.6197C55.7116 19.5743 55.6719 19.4383 55.6047 19.2732L55.6051 19.2721Z" fill="white"/>
<path d="M55.605 19.2721C55.4654 18.9289 55.2073 18.4623 55.166 18.4343C55.105 18.3932 53.2498 18.7312 53.17 18.8054C53.0743 18.8935 52.793 20.5312 52.8981 20.5891C52.9237 20.603 53.0358 20.6134 53.1747 20.5686C52.9301 20.2054 53.2634 19.3967 53.3263 19.291C53.3975 19.1723 54.2469 19.3005 54.5006 19.2171C54.7544 19.1336 55.1258 18.8723 55.1896 18.8851C55.2443 18.8959 55.5054 19.1089 55.6061 19.2724L55.605 19.2721Z" fill="white"/>
<path d="M54.4115 15.8748C54.4903 15.8002 54.5633 15.6419 54.6305 15.4414C54.7426 15.1068 54.5634 14.134 54.5936 13.9106C54.6174 13.7398 54.9156 13.3686 54.9416 13.1571C54.975 12.8934 54.7194 12.413 54.4843 12.4055C54.3939 12.4028 53.9147 12.9344 53.8659 13.0001C53.826 13.0543 53.648 13.3754 53.5999 13.5632C53.5964 13.5729 53.5834 13.572 53.5821 13.5618C53.5681 13.4495 53.5456 13.3099 53.5632 13.2601C53.6134 13.1145 54.204 12.4917 53.9182 12.3761C53.8424 12.3457 53.1439 13.0461 53.1326 13.2127C53.0814 13.9749 53.2227 15.5206 53.2614 15.6525C53.3351 15.9028 54.2799 15.9989 54.4108 15.8733L54.4115 15.8748Z" fill="white"/>
<path d="M53.9347 13.8062C53.9347 13.8062 53.9754 13.7255 54.0307 13.6036C54.0583 13.5426 54.0894 13.4719 54.1239 13.3951C54.1409 13.3573 54.1583 13.3183 54.1768 13.2797C54.1953 13.2412 54.2124 13.2033 54.2347 13.1746C54.2827 13.1148 54.3482 13.0465 54.4034 12.9868C54.4605 12.9253 54.5135 12.8684 54.5588 12.8198C54.6485 12.7211 54.7082 12.6556 54.7082 12.6556C54.7204 12.6416 54.7204 12.6209 54.7069 12.6076C54.6947 12.5972 54.678 12.5962 54.6655 12.604C54.6655 12.604 54.6453 12.6163 54.6136 12.6405C54.583 12.665 54.5369 12.6987 54.486 12.7429C54.435 12.787 54.3745 12.8376 54.3135 12.8965C54.2824 12.9257 54.251 12.9561 54.2198 12.989C54.1887 13.0218 54.158 13.0537 54.1249 13.0956C54.0925 13.139 54.0742 13.1837 54.055 13.2245C54.0368 13.2656 54.0208 13.3075 54.0055 13.3472C53.975 13.4266 53.9522 13.5015 53.9307 13.5658C53.8902 13.6941 53.8701 13.7821 53.8701 13.7821C53.8662 13.8002 53.8767 13.8186 53.8945 13.8236C53.91 13.8279 53.9261 13.8202 53.9326 13.8054L53.9347 13.8062Z" fill="white"/>
<path d="M54.2517 14.0371C54.2517 14.0371 54.261 14.0209 54.2758 13.9895C54.2894 13.9578 54.3109 13.9142 54.3312 13.8604C54.3514 13.8066 54.3758 13.7445 54.4006 13.6777C54.425 13.6119 54.45 13.5379 54.4794 13.4788C54.4846 13.4709 54.4828 13.469 54.4899 13.4593L54.5056 13.4356L54.5366 13.3929C54.5589 13.3642 54.5801 13.3352 54.601 13.3072C54.6442 13.2505 54.6843 13.1989 54.7197 13.1541C54.7893 13.0641 54.834 13.0031 54.834 13.0031C54.8455 12.9876 54.8423 12.9658 54.8269 12.9542C54.8143 12.9449 54.7983 12.9454 54.7865 12.9546C54.7865 12.9546 54.7235 13.0018 54.6399 13.0832C54.5984 13.1246 54.5503 13.171 54.5017 13.2258C54.4776 13.2526 54.4528 13.2816 54.4286 13.3121L54.3917 13.3612L54.3757 13.386C54.3708 13.3929 54.3629 13.4083 54.3577 13.4162C54.3199 13.4955 54.2993 13.5675 54.2785 13.6369C54.2587 13.7068 54.243 13.7719 54.2281 13.8276C54.2011 13.9387 54.1845 14.0133 54.1845 14.0133C54.1805 14.0314 54.1922 14.0502 54.2103 14.0541C54.2251 14.057 54.2398 14.0499 54.2476 14.0381L54.2517 14.0371Z" fill="white"/>
<path d="M55.0175 18.4882C54.8047 17.4414 54.4789 16.4559 54.4112 15.8748C54.3514 15.3612 53.2292 15.3633 53.2618 15.654C53.346 16.4091 53.4083 17.6989 53.3619 18.8443C53.3533 19.0655 55.087 18.8297 55.0175 18.4882Z" fill="white"/>
<path d="M44.9605 35.1685C44.9605 35.1685 43.6308 37.9155 43.4021 38.8741C43.2584 39.4775 43.3297 40.7384 43.4021 41.3545C43.4365 41.6488 43.6423 42.212 43.6779 42.5051C43.7089 42.7637 43.7089 50.7405 43.6905 51.0382C43.6733 51.3129 42.8412 53.6335 42.8401 54.8576C42.8378 57.5645 44.2962 64.5654 44.2962 64.5654L45.9948 64.3367C45.9913 64.4459 46.3821 59.5058 46.4832 57.6828C46.5545 56.3898 47.1314 50.8911 47.09 50.4807C47.0486 50.0692 48.5967 41.8166 48.5967 41.8166L48.1634 35.3558L44.9605 35.1685Z" fill="white"/>
<path d="M48.0823 35.4937L46.9974 39.1809L47.2789 41.6453L46.9974 42.8533C46.9974 42.8533 48.4834 49.1347 48.3788 51.2669C48.3305 52.2427 47.9087 53.9335 47.9673 55.1553C48.0409 56.7024 50.4371 64.5022 50.4371 64.5022L52.0265 64.4217C52.0265 64.4217 52.3196 58.4655 52.2966 57.1472C52.2747 55.8529 51.7059 50.7381 51.6921 50.3244C51.6783 49.8761 51.7472 42.3177 51.6277 40.12C51.5392 38.5017 50.9313 35.1558 50.9313 35.1558L48.0823 35.4937Z" fill="white"/>
<path d="M47.6592 46.9279C47.9718 45.1705 48.6304 40.8143 48.7832 40.1189" stroke="white" stroke-width="1.38" stroke-linecap="round" stroke-linejoin="round"/>
<path d="M43.9919 63.6356C43.9517 63.7287 44.224 64.5609 44.2838 64.6045C44.3712 64.6689 45.964 64.5815 46.0548 64.4563C46.0985 64.3953 46.2594 63.5023 46.1502 63.4011C45.9709 63.2356 44.07 63.4551 43.9919 63.6344V63.6356Z" fill="white"/>
<path d="M46.0186 63.5366C45.7634 63.5366 44.2947 63.6872 44.1211 63.7596" stroke="white" stroke-width="1.38" stroke-linecap="round" stroke-linejoin="round"/>
<path d="M44.6078 65.516C44.6181 65.7275 44.6158 65.9033 44.5871 65.9642C44.7423 66.8769 45.5031 66.6136 45.8076 65.5585C45.7961 65.5206 45.7869 65.4803 45.7777 65.4413C45.7479 65.2987 45.7341 65.1505 45.7283 65.0114C45.7168 64.7217 45.741 64.4723 45.7168 64.408C45.7042 64.3735 44.4998 64.3861 44.5124 64.5011C44.517 64.5493 44.5457 64.7804 44.571 65.047C44.586 65.2022 44.5997 65.3689 44.6066 65.5183L44.6078 65.516Z" fill="white"/>
<path d="M44.5718 65.0446C44.5867 65.1997 44.6005 65.3664 44.6074 65.5158C44.951 65.4848 45.4383 65.4457 45.7773 65.44C45.7475 65.2974 45.7337 65.1492 45.7279 65.0101C45.3854 64.9951 44.9062 65.0124 44.5718 65.0446Z" fill="white"/>
<path d="M45.4556 66.0515L44.5133 66.1251L44.6454 66.6308L45.5039 66.5205L45.4556 66.0515Z" fill="white"/>
<path d="M46.9748 66.555C46.9529 66.5423 46.8748 66.532 46.7656 66.5251C46.7656 66.5251 46.7645 66.5239 46.7633 66.5228C46.1002 66.4366 45.937 65.6768 45.8577 65.5596C45.7554 65.409 45.7152 65.4159 45.5796 65.4447C45.3486 65.4941 45.2233 66.4251 45.0176 66.4102C44.8153 66.3964 44.6947 66.0607 44.6671 65.9584C44.6441 65.8711 44.5809 65.8619 44.5682 65.9125C44.4947 66.2102 44.366 66.4711 44.3223 66.6952C44.3212 66.6952 44.32 66.6952 44.32 66.6952C44.2545 66.9481 44.3304 67.0849 44.4729 67.0849H47.0529C47.1851 67.0849 47.1747 66.6722 46.9748 66.5561V66.555Z" fill="white"/>
<path d="M45.9199 64.3665C45.6648 64.3665 44.5535 64.4274 44.3799 64.5009" stroke="white" stroke-width="1.38" stroke-linecap="round" stroke-linejoin="round"/>
<path d="M50.0662 63.6931C50.0283 63.7874 50.326 64.6115 50.3857 64.6529C50.4754 64.7138 52.0648 64.5816 52.151 64.4529C52.1935 64.3908 52.3268 63.4931 52.2154 63.3954C52.0303 63.2345 50.1375 63.5104 50.0651 63.692L50.0662 63.6931Z" fill="white"/>
<path d="M52.0889 63.5347C51.8337 63.5416 50.3707 63.7347 50.1984 63.8128" stroke="white" stroke-width="1.38" stroke-linecap="round" stroke-linejoin="round"/>
<path d="M50.7597 65.4185C50.777 65.6691 50.7793 65.8886 50.7471 65.9576C50.9011 66.8702 51.6653 66.6139 51.9688 65.5587C51.9481 65.4874 51.932 65.4116 51.9205 65.3357C51.8986 65.1886 51.8917 65.0369 51.8917 64.899C51.8917 64.6426 51.9101 64.43 51.8894 64.3725C51.8768 64.338 50.6356 64.3679 50.6563 64.4737C50.6643 64.5162 50.6919 64.7128 50.7172 64.9507C50.7333 65.1001 50.7494 65.2656 50.7597 65.4196V65.4185Z" fill="white"/>
<path d="M50.7176 64.9494C50.7337 65.0989 50.7498 65.2644 50.7602 65.4184C51.0647 65.3897 51.5497 65.3483 51.9209 65.3345C51.8991 65.1874 51.8922 65.0356 51.8922 64.8977C51.5141 64.8885 51.0199 64.9127 50.7176 64.9494Z" fill="white"/>
<path d="M51.724 65.9426L50.7828 66.0173L50.9437 66.6311L51.7734 66.4116L51.724 65.9426Z" fill="white"/>
<path d="M54.2228 66.5553C54.201 66.5426 54.1228 66.5323 54.0137 66.5254C52.8701 66.4242 52.3576 65.7426 52.2771 65.6243C52.1749 65.4737 52.0197 65.2346 51.8289 65.3013C51.606 65.3783 51.5324 66.0886 51.483 66.2599C51.4451 66.3921 51.1141 66.4817 50.9394 66.3323C50.8475 66.2541 50.8555 66.0599 50.8279 65.9576C50.8049 65.8702 50.7417 65.861 50.7291 65.9116C50.6555 66.2093 50.5268 66.4702 50.4832 66.6943C50.482 66.6943 50.4809 66.6943 50.4809 66.6943C50.4153 66.9472 50.4912 67.084 50.6337 67.084H54.301C54.4331 67.084 54.4228 66.6713 54.2228 66.5553Z" fill="white"/>
<path d="M52.0146 64.3667C51.7595 64.3736 50.6505 64.4678 50.4792 64.546" stroke="white" stroke-width="1.38" stroke-linecap="round" stroke-linejoin="round"/>
<path d="M48.2214 44.198C48.4386 45.1761 49.1994 50.2139 49.127 50.8668C49.0546 51.5197 48.6248 53.6208 48.6765 54.5276C48.7282 55.4334 50.4785 63.3493 50.4785 63.3493" stroke="white" stroke-width="1.38" stroke-linecap="round" stroke-linejoin="round"/>
<path d="M44.9258 37.196C44.6695 37.711 44.0615 39.6201 44.0937 40.2052C44.1259 40.7902 44.1926 43.7258 44.25 44.197C44.3075 44.6683 44.2063 50.3222 44.1305 51.1187C44.0535 51.9164 43.5237 53.7646 43.4628 54.3083C43.4019 54.8519 44.2477 61.877 44.3799 63.1874" stroke="white" stroke-width="1.38" stroke-linecap="round" stroke-linejoin="round"/>
<path d="M43.6504 30.6955C44.2584 32.3725 44.833 34.0828 44.7675 35.1564C44.748 35.477 44.1664 36.3368 44.3928 36.3874C45.5248 36.6402 50.3804 37.3609 51.2504 37.0494C51.3745 37.0046 51.0872 35.6357 51.0734 35.1564C51.0562 34.5863 51.2884 32.5863 51.4079 30.3668C51.4757 29.1128 51.5067 27.7876 51.4378 26.6094C51.401 25.9704 51.2102 25.144 50.7103 24.7543C50.6183 24.6831 50.477 24.6003 50.3046 24.5164C50.1265 24.429 49.915 24.3405 49.6943 24.2589C49.4116 24.1543 49.1128 24.0624 48.8473 24.0038C48.7163 23.975 46.8373 23.7325 45.8501 23.9153C45.6065 23.9601 45.3306 24.0428 45.0433 24.1509C44.4905 24.3578 43.8941 24.6612 43.4045 24.9762C42.8781 25.3141 42.4747 25.6669 42.3828 25.9313C42.1254 26.6658 42.9138 28.6565 43.6527 30.6955H43.6504Z" fill="#FF9900"/>
<path d="M48.3406 27.1275C48.1958 27.124 47.7487 28.0332 47.7131 28.1964C47.6775 28.3596 48.1843 29.3193 48.2935 29.3745C48.4027 29.4297 48.8555 28.3056 48.8555 28.224C48.8555 28.1424 48.4636 27.1297 48.3418 27.1275H48.3406Z" fill="#FF9900"/>
<path d="M48.3406 29.5918C48.1958 29.5884 47.7487 30.4975 47.7131 30.6607C47.6775 30.824 48.1843 31.7837 48.2935 31.8389C48.4027 31.894 48.8555 30.7699 48.8555 30.6883C48.8555 30.6067 48.4636 29.5941 48.3418 29.5918H48.3406Z" fill="#FF9900"/>
<path d="M48.3406 32.0571C48.1958 32.0537 47.7487 32.9629 47.7131 33.1261C47.6775 33.2893 48.1843 34.249 48.2935 34.3042C48.4027 34.3582 48.8555 33.2353 48.8555 33.1537C48.8555 33.0721 48.4636 32.0594 48.3418 32.0571H48.3406Z" fill="#FF9900"/>
<path d="M49.6092 32.1296C49.4644 32.1262 49.0173 33.0354 48.9817 33.1986C48.9449 33.3618 49.4529 34.3216 49.562 34.3767C49.6712 34.4307 50.124 33.3078 50.124 33.2262C50.124 33.1446 49.7321 32.1319 49.6103 32.1296H49.6092Z" fill="#FF9900"/>
<path d="M49.651 29.5917C49.4947 29.5883 49.012 30.571 48.9729 30.7469C48.9338 30.9227 49.482 31.9606 49.5993 32.0193C49.7165 32.0779 50.2061 30.8641 50.2061 30.7756C50.2061 30.6871 49.7831 29.594 49.651 29.5906V29.5917Z" fill="#FF9900"/>
<path d="M50.8828 29.5918C50.7265 29.5884 50.3438 30.5849 50.3047 30.7607C50.2656 30.9366 50.7138 31.9607 50.8311 32.0205C50.9483 32.0791 51.3379 30.8952 51.3379 30.8079C51.3379 30.7205 51.0149 29.5953 50.8839 29.593L50.8828 29.5918Z" fill="#FF9900"/>
<path d="M50.8199 32.1296C50.6636 32.1262 50.1993 33.0135 50.1602 33.1894C50.1211 33.3653 50.5693 34.3894 50.6865 34.4491C50.8038 34.5078 51.1934 33.3239 51.1934 33.2365C51.1934 33.1492 50.952 32.1331 50.821 32.1296H50.8199Z" fill="#FF9900"/>
<path d="M50.8922 34.5217C50.7359 34.5182 50.2716 35.4055 50.2325 35.5814C50.1934 35.7573 50.6772 36.9722 50.7945 37.0308C50.9117 37.0894 51.1289 35.7745 51.1289 35.686C51.1289 35.5975 51.0243 34.524 50.8933 34.5205L50.8922 34.5217Z" fill="#FF9900"/>
<path d="M49.651 27.0551C49.4947 27.0517 49.012 28.0344 48.9729 28.2102C48.9338 28.3861 49.482 29.424 49.5993 29.4826C49.7165 29.5413 50.2061 28.3275 50.2061 28.239C50.2061 28.1505 49.7831 27.0574 49.651 27.054V27.0551Z" fill="#FF9900"/>
<path d="M50.9189 27.0918C50.7626 27.0884 50.2799 28.0711 50.2409 28.247C50.2018 28.4228 50.75 29.4607 50.8672 29.5193C50.9844 29.578 51.374 28.3757 51.374 28.2883C51.374 28.201 51.0511 27.0941 50.9201 27.0918H50.9189Z" fill="#FF9900"/>
<path d="M50.6781 24.8504C50.5218 24.8469 50.2793 25.4975 50.2391 25.6733C50.2 25.8492 50.7482 26.8871 50.8655 26.9457C50.9827 27.0043 51.2539 25.8377 51.2539 25.7503C51.2539 25.663 50.8092 24.8527 50.677 24.8504H50.6781Z" fill="#FF9900"/>
<path d="M49.4891 24.3643C49.3328 24.3608 49.011 25.4252 48.9719 25.601C48.9329 25.7769 49.4811 26.8148 49.5983 26.8734C49.7155 26.932 50.2051 25.7183 50.2051 25.6298C50.2051 25.5412 49.6201 24.3666 49.4891 24.3643Z" fill="#FF9900"/>
<path d="M48.2363 34.4124C48.0823 34.4089 47.6065 35.3767 47.5675 35.5503C47.5284 35.7238 48.0685 36.7456 48.1846 36.8043C48.3007 36.8617 48.7822 35.6664 48.7822 35.579C48.7822 35.4916 48.365 34.4147 48.2352 34.4124H48.2363Z" fill="#FF9900"/>
<path d="M49.6133 34.4492C49.4593 34.4458 48.9835 35.4136 48.9444 35.5871C48.9053 35.7607 49.4351 36.8653 49.5512 36.9227C49.6673 36.9802 50.1592 35.7032 50.1592 35.6159C50.1592 35.5285 49.742 34.4515 49.6121 34.4492H49.6133Z" fill="#FF9900"/>
<path d="M47.0359 32.0571C46.8911 32.0537 46.4441 32.9629 46.4084 33.1261C46.3728 33.2893 46.8796 34.249 46.9888 34.3042C47.098 34.3582 47.5508 33.2353 47.5508 33.1537C47.5508 33.0721 47.1589 32.0594 47.0371 32.0571H47.0359Z" fill="#FF9900"/>
<path d="M47.003 34.3881C46.8582 34.3754 46.3479 35.2823 46.3008 35.4478C46.2537 35.6133 46.6904 36.6397 46.795 36.703C46.8996 36.7662 47.4317 35.6386 47.4374 35.5547C47.4432 35.4708 47.1248 34.3996 47.003 34.3881Z" fill="#FF9900"/>
<path d="M47.0359 29.5918C46.8911 29.5884 46.4441 30.4975 46.4084 30.6607C46.3728 30.824 46.8796 31.7837 46.9888 31.8389C47.098 31.8929 47.5508 30.7699 47.5508 30.6883C47.5508 30.6067 47.1589 29.5941 47.0371 29.5918H47.0359Z" fill="#FF9900"/>
<path d="M47.1453 27.1641C47.0005 27.1606 46.5534 28.0698 46.5178 28.233C46.481 28.3962 46.989 29.356 47.0982 29.4111C47.2073 29.4652 47.6602 28.3422 47.6602 28.2606C47.6602 28.179 47.2683 27.1664 47.1464 27.1641H47.1453Z" fill="#FF9900"/>
<path d="M46.5541 25.9137C46.5173 26.0769 47.0253 27.0366 47.1344 27.0918C47.2436 27.1458 47.4551 26.6504 47.4551 26.5688C47.4551 26.4872 46.5908 25.7504 46.5541 25.9137Z" fill="#FF9900"/>
<path d="M45.8767 27.1641C45.7319 27.1606 45.2849 28.0698 45.2492 28.233C45.2136 28.3962 45.7204 29.356 45.8296 29.4111C45.9388 29.4652 46.3916 28.3422 46.3916 28.2606C46.3916 28.179 45.9997 27.1664 45.8779 27.1641H45.8767Z" fill="#FF9900"/>
<path d="M44.5233 24.4828C44.4866 24.646 45.4669 24.8633 45.5749 24.9173C45.6841 24.9713 45.283 24.3219 45.283 24.2403C45.283 24.1587 44.559 24.3184 44.5233 24.4817V24.4828Z" fill="#FF9900"/>
<path d="M44.6816 27.2366C44.5368 27.2331 44.2863 28.1975 44.2495 28.3607C44.2127 28.5239 44.5241 29.4285 44.6333 29.4837C44.7425 29.5377 45.1953 28.4147 45.1953 28.3331C45.1953 28.2515 44.8034 27.2389 44.6816 27.2366Z" fill="#FF9900"/>
<path d="M45.7322 29.5918C45.5874 29.5884 45.1403 30.4975 45.1047 30.6607C45.0679 30.824 45.5759 31.7837 45.6851 31.8389C45.7943 31.8929 46.2471 30.7699 46.2471 30.6883C46.2471 30.6067 45.8552 29.5941 45.7334 29.5918H45.7322Z" fill="#FF9900"/>
<path d="M44.5866 29.5952C44.4418 29.5918 43.8729 30.4987 43.8362 30.6619C43.7994 30.8251 44.3074 31.7848 44.4165 31.84C44.5257 31.8952 44.9785 30.7711 44.9785 30.6895C44.9785 30.6078 44.7085 29.5987 44.5866 29.5952Z" fill="#FF9900"/>
<path d="M45.7322 32.0205C45.5874 32.0171 45.1403 32.9262 45.1047 33.0895C45.0679 33.2527 45.5759 34.2124 45.6851 34.2676C45.7943 34.3216 46.2471 33.1986 46.2471 33.117C46.2471 33.0354 45.8552 32.0228 45.7334 32.0205H45.7322Z" fill="#FF9900"/>
<path d="M44.5722 32.0204C44.4274 32.017 44.3596 32.7974 44.4056 32.9583C44.5067 33.3158 44.6297 34.0077 44.7389 34.0618C44.848 34.1158 45.0859 33.1974 45.0859 33.1158C45.0859 33.0342 44.694 32.0216 44.5722 32.0193V32.0204Z" fill="#FF9900"/>
<path d="M45.6378 34.3813C45.4942 34.3664 44.9782 35.1801 44.9299 35.3296C44.8816 35.479 45.3126 36.4192 45.4172 36.479C45.5218 36.5387 46.0596 35.525 46.0654 35.4491C46.0711 35.3732 45.7596 34.394 45.6378 34.3813Z" fill="#FF9900"/>
<path d="M45.62 24.9036C45.4752 24.9001 45.3212 25.6783 45.2844 25.8415C45.2476 26.0047 45.7556 26.9644 45.8648 27.0196C45.974 27.0736 46.4268 25.9507 46.4268 25.8691C46.4268 25.7875 45.743 24.9059 45.6211 24.9036H45.62Z" fill="#FF9900"/>
<path d="M44.249 24.9036C44.1042 24.9001 44.1582 25.838 44.249 26.1679C44.2938 26.3288 44.5605 27.0736 44.6685 27.1288C44.7765 27.184 45.2305 26.0599 45.2305 25.9783C45.2305 25.8967 44.3708 24.907 44.249 24.9047V24.9036Z" fill="#FF9900"/>
<path d="M48.351 27.5988C48.9612 27.508 49.8151 25.4241 49.691 24.2575C49.4083 24.1529 49.1095 24.0609 48.844 24.0023C48.713 23.9736 46.8339 23.731 45.8467 23.9138C45.6031 23.9586 45.3273 24.0414 45.04 24.1494C44.7389 24.5678 47.7407 27.6884 48.351 27.5976V27.5988Z" fill="#FF9900"/>
<path d="M43.649 30.6953C45.3339 28.2528 44.7822 25.3943 43.9076 25.038C43.7628 24.9782 43.5629 24.9207 43.4008 24.9759C42.8744 25.3138 42.4711 25.6667 42.3791 25.931C42.1217 26.6655 42.9101 28.6563 43.649 30.6953Z" fill="#FF9900"/>
<path d="M50.3026 24.516C51.06 25.6206 51.1887 28.8665 51.4059 30.3653C51.4737 29.1113 51.5048 27.7861 51.4358 26.6079C51.399 25.9689 51.2082 25.1425 50.7083 24.7528C50.6164 24.6816 50.475 24.5988 50.3026 24.5149V24.516Z" fill="#FF9900"/>
<path d="M44.1068 36.9236C45.6733 37.6386 50.1956 37.7822 51.3057 37.4202C51.3057 37.4202 51.3506 36.8397 51.2713 36.7547C51.192 36.6696 50.33 37.0972 47.6948 36.8053C45.0596 36.5133 44.5608 36.0432 44.3849 36.1087C44.2091 36.1742 44.1068 36.9225 44.1068 36.9225V36.9236Z" fill="#FF9900"/>
<path d="M45.4568 24.3193C45.497 24.3756 46.0739 24.9883 46.7003 25.6021C47.3668 26.2549 48.0897 26.9078 48.2851 26.8928C48.6333 26.8652 49.0631 24.8515 49.0654 24.3412C49.0654 24.294 49.062 24.2596 49.0551 24.2412C48.9712 24.0343 48.7103 23.3515 48.5448 23.2285C48.5126 23.2056 48.377 23.1688 48.1862 23.1285C47.784 23.0446 47.1347 22.9469 46.6888 22.9297C46.444 22.9194 46.2612 22.9332 46.213 22.986C46.1268 23.0791 45.3729 24.2055 45.4568 24.3205V24.3193Z" fill="white"/>
<path d="M45.4568 24.3193C45.497 24.3756 47.0037 25.4434 47.3898 25.4067C47.5335 25.3929 47.8415 24.0653 47.8771 24.0481C47.9139 24.0297 48.3747 25.4618 48.5471 25.4434C48.7195 25.425 48.97 24.8515 49.0654 24.3412C49.0654 24.294 49.062 24.2596 49.0551 24.2412C48.9712 24.0343 48.7103 23.3515 48.5448 23.2285C48.5126 23.2056 48.377 23.1688 48.1862 23.1285L48.2081 23.1596C48.2667 23.1975 48.3943 23.255 48.4931 23.3182C48.554 23.3573 48.9229 24.0389 48.9712 24.1745C49.0286 24.3389 48.6839 24.8331 48.5747 24.8331C48.4586 24.8331 48.0047 23.9044 47.8874 23.9044C47.7702 23.9044 47.3921 25.0446 47.3094 25.0814C47.2266 25.1182 45.5591 24.3768 45.5223 24.2779C45.4855 24.1779 46.1337 23.3079 46.2659 23.1515C46.398 22.9964 46.7095 22.9791 46.7095 22.9791L46.6899 22.9297C46.4451 22.9194 46.2624 22.9332 46.2141 22.986C46.1279 23.0791 45.374 24.2055 45.4579 24.3205L45.4568 24.3193Z" fill="white"/>
<path d="M48.3494 23.2988C48.3437 23.2758 48.3437 23.2517 48.3414 23.2275C48.2816 22.6678 48.2873 21.9643 48.2678 21.5414C48.2678 21.5379 48.2678 21.5356 48.2678 21.5356L48.2632 21.5333L46.2658 20.3311C46.2658 20.3311 46.5416 22.0057 46.3876 23.0678C46.3738 23.1597 47.2944 23.7068 47.8805 23.7459C48.1747 23.7655 48.3747 23.3999 48.3506 23.2999L48.3494 23.2988Z" fill="white"/>
<path d="M48.3416 23.2275C48.2819 22.6677 48.2876 21.9643 48.2681 21.5413C48.2681 21.5379 48.2681 21.5356 48.2681 21.5356L48.2635 21.5333L46.4546 20.6414C46.2937 21.9241 47.3234 23.1195 48.3428 23.2286L48.3416 23.2275Z" fill="white"/>
<path d="M46.2299 19.6828C46.2655 20.2069 46.3897 20.8138 46.5103 21.2483C46.6264 21.6644 47.6125 22.6264 48.4089 22.8241C48.5629 22.862 49.1272 22.7149 49.2536 22.6161C49.4409 22.4689 49.7662 20.6115 49.6938 20.0954C49.6524 19.8023 49.6168 19.2368 49.5949 18.9679C49.5719 18.6805 49.4179 18.3667 49.3007 18.2851C49.1295 18.1645 48.8789 18.0461 48.6273 17.9346C48.325 17.8012 47.9975 17.7035 47.7216 17.7162C47.1815 17.7392 46.5425 18.3035 46.2667 18.6886C46.1805 18.807 46.2196 19.5334 46.2299 19.684V19.6828Z" fill="white"/>
<path d="M46.1556 19.2068C46.1533 19.2149 46.197 19.3172 46.251 19.4401C46.3395 19.6401 46.6625 19.8689 46.7073 19.7401C46.8119 19.4413 47.4359 18.6103 47.6164 18.6045C47.7186 18.5746 48.3772 19.0873 48.9322 19.0264C49.2977 18.9861 49.3919 18.6448 49.3046 18.3206C49.3046 18.3206 49.308 18.262 49.2747 18.2379C49.1035 18.1287 48.8886 17.9597 48.6369 17.8586L47.8933 17.8298L46.8555 18.0172L46.5602 18.0701C46.5602 18.0701 46.5188 18.1873 46.4613 18.3471C46.3912 18.5436 46.2982 18.8034 46.2338 18.9861C46.189 19.1114 46.1579 19.2011 46.1556 19.2068Z" fill="white"/>
<path d="M45.7565 19.8069C45.4715 20.0759 46.1564 21.2517 46.4725 20.6701C46.7862 20.0931 46.1024 19.4805 45.7565 19.8069Z" fill="white"/>
<path d="M46.3037 20.3136C46.2612 20.0734 45.9049 19.9228 45.8291 19.9412" stroke="white" stroke-width="1.04" stroke-linecap="round" stroke-linejoin="round"/>
<path d="M46.0052 20.3137C46.0396 20.2126 46.1465 20.1666 46.2178 20.1712" stroke="white" stroke-width="1.04" stroke-linecap="round" stroke-linejoin="round"/>
<path d="M45.7055 18.4782C45.8422 17.9932 46.0525 17.8127 46.3571 17.6173C47.0363 17.1805 48.7441 17.007 49.0555 17.2702C49.5003 17.646 49.8267 19.7575 49.6968 20.1241C49.6187 19.7437 49.4371 18.7253 49.3038 18.3207C49.2176 18.5472 49.036 18.6863 48.7728 18.7253C48.3165 18.7931 47.6419 18.3656 47.4891 18.3955C47.3972 18.4127 46.9811 19.1104 46.7214 19.6081C46.6294 19.7851 46.934 20.4391 46.8742 20.5506C46.8248 20.6414 46.5961 20.577 46.5513 20.5046C46.495 20.4149 46.2881 19.8379 46.1307 19.7494C46.0031 19.677 45.8273 19.7563 45.7549 19.8092C45.6572 19.6621 45.5112 19.169 45.7055 18.4794V18.4782Z" fill="white"/>
<path d="M47.7305 20.3471C47.0719 20.0127 46.0824 19.7012 45.9376 19.7012" stroke="white" stroke-width="0.52" stroke-linecap="round" stroke-linejoin="round"/>
<path d="M49.1079 20.2252C49.1768 20.4688 49.3941 20.6205 49.5929 20.5642C49.7917 20.5079 49.8986 20.2654 49.8296 20.0217C49.7607 19.778 49.5434 19.6263 49.3446 19.6826C49.1458 19.739 49.0389 19.9815 49.1079 20.2252Z" stroke="white" stroke-width="0.52" stroke-linecap="round" stroke-linejoin="round"/>
<path d="M49.3848 19.7988C49.3399 19.8126 49.2917 19.8414 49.2537 19.8896" stroke="white" stroke-width="0.59" stroke-miterlimit="10" stroke-linecap="round"/>
<path d="M49.5 19.7987C49.4942 19.7964 49.4872 19.7952 49.4802 19.7917" stroke="white" stroke-width="0.59" stroke-miterlimit="10" stroke-linecap="round"/>
<path d="M49.0967 19.9633C48.9496 19.6622 48.6232 19.8909 48.591 20.0955" stroke="white" stroke-width="0.52" stroke-linecap="round" stroke-linejoin="round"/>
<path d="M47.7601 20.4803C47.8325 20.7366 48.0911 20.8883 48.337 20.8194C48.583 20.7504 48.7243 20.486 48.6519 20.2297C48.5795 19.9734 48.321 19.8217 48.075 19.8907C47.8291 19.9596 47.6877 20.224 47.7601 20.4803Z" stroke="white" stroke-width="0.52" stroke-linecap="round" stroke-linejoin="round"/>
<path d="M47.8945 20.1733C47.8819 20.1986 47.8704 20.2262 47.8635 20.2561" stroke="white" stroke-width="0.59" stroke-miterlimit="10" stroke-linecap="round"/>
<path d="M48.1348 19.9919C48.0716 20.008 48.0037 20.0402 47.9509 20.0942" stroke="white" stroke-width="0.59" stroke-miterlimit="10" stroke-linecap="round"/>
<path d="M48.2979 19.9919C48.2897 19.9884 48.2804 19.9872 48.271 19.9849" stroke="white" stroke-width="0.59" stroke-miterlimit="10" stroke-linecap="round"/>
<path d="M39.685 34.8193C39.685 35.0584 39.6689 35.3297 39.8987 35.6101C39.8987 35.8687 40.0481 36.1354 40.1849 36.3929C40.5572 37.0974 41.0204 37.7434 41.3146 37.9974C41.3157 37.9986 41.302 37.9997 41.3031 38.0009C41.5847 38.2422 43.0534 37.1607 43.0534 37.1607C43.0534 37.1607 43.004 37.0227 42.9339 36.8078C42.7167 36.1377 42.2708 34.7193 42.2708 34.3906C42.2708 33.9676 43.9119 29.6677 44.1314 28.5482C44.1372 28.5195 44.1418 28.4931 44.1452 28.4689C44.2693 27.662 44.2762 27.0437 44.2073 26.5782C44.2073 26.5701 44.205 26.5632 44.2038 26.5552C44.0912 25.823 43.7901 25.4759 43.4626 25.3701C43.1247 25.2598 42.7604 25.4058 42.5489 25.6506C42.5236 25.6793 42.5282 25.7104 42.5029 25.7448C41.2962 27.331 39.6838 33.7803 39.6838 34.8205L39.685 34.8193Z" fill="white"/>
<path d="M40.1247 36.3928C40.4971 37.0974 40.9901 37.7434 41.2843 37.9974L42.9301 36.8077C42.7129 36.1376 42.2681 34.7193 42.2681 34.3906C42.2681 33.9676 43.9104 29.6677 44.1299 28.5482C43.9678 28.9723 43.738 27.8758 43.607 27.9379C43.4013 28.0344 44.0115 28.8804 43.9138 28.9827C43.8288 29.0712 43.4231 28.4344 43.384 28.5654C43.33 28.747 43.7909 29.1413 43.7713 29.3769C43.7564 29.5562 41.8957 33.9837 41.8119 34.0641C41.6992 34.1733 41.228 33.917 41.1671 34.1228C41.1303 34.248 41.8337 34.1446 41.8119 34.3055C41.79 34.4664 41.2073 34.7032 41.2453 34.8296C41.2832 34.9561 41.8682 34.4733 41.9383 34.5457C42.0084 34.6181 42.0888 35.4676 42.0716 35.5905C42.0532 35.7147 40.6902 36.6123 40.1259 36.3928H40.1247Z" fill="white"/>
<path d="M40.1253 36.3927C40.4252 36.641 41.1918 36.3743 40.9757 36.2709C40.5218 36.3812 39.8127 35.0985 39.8702 34.6652C40.3264 31.2043 42.2123 25.3734 43.4639 25.3689C43.126 25.2585 42.7938 25.3769 42.5697 25.6091C41.2653 26.9631 39.5805 33.7548 39.5805 34.8157C39.5805 35.5743 40.0299 36.1111 40.1264 36.3916L40.1253 36.3927Z" fill="white"/>
<path d="M40.6797 37.5743C40.9257 37.8513 41.3245 38.2053 41.3727 38.2179C41.444 38.2363 43.0805 37.2995 43.1311 37.203C43.192 37.0881 42.9116 35.4502 42.7932 35.4306C42.7645 35.426 42.7139 35.4444 42.6461 35.4801C42.1106 35.7605 40.5051 37.134 40.4855 37.2743C40.4786 37.3248 40.5614 37.4398 40.6797 37.5731V37.5743Z" fill="white"/>
<path d="M40.6797 37.5743C40.9257 37.8513 41.3245 38.2053 41.3727 38.2179C41.444 38.2363 43.0805 37.2996 43.1311 37.203C43.192 37.0881 42.9116 35.4502 42.7932 35.4307C42.7645 35.4261 42.6553 35.4536 42.5392 35.5422C42.8909 35.8031 42.8461 36.6766 42.8219 36.7973C42.7944 36.9329 41.9508 37.095 41.7394 37.2582C41.5279 37.4214 41.2647 37.7915 41.2003 37.8007C41.1452 37.8088 40.828 37.695 40.6786 37.5743H40.6797Z" fill="white"/>
<path d="M42.9371 40.3799C42.8877 40.4765 42.8716 40.65 42.8751 40.8615C42.8808 41.2144 43.3738 42.0718 43.4198 42.2925C43.4543 42.4615 43.2968 42.9109 43.3428 43.1189C43.3991 43.3787 43.8002 43.7465 44.0243 43.6752C44.1105 43.6476 44.3852 42.9867 44.4093 42.9086C44.4288 42.8442 44.4898 42.4822 44.4725 42.2891C44.4725 42.2787 44.4851 42.2753 44.4897 42.2845C44.5403 42.3856 44.6081 42.5097 44.6081 42.5626C44.6093 42.7166 44.2599 43.5005 44.5679 43.5143C44.6495 43.5178 45.0747 42.6247 45.0299 42.4638C44.8242 41.7281 44.176 40.3178 44.0956 40.2063C43.9427 39.9949 43.0199 40.219 42.9383 40.3811L42.9371 40.3799Z" fill="white"/>
<path d="M44.0742 42.172C44.0742 42.172 44.0627 42.2617 44.0512 42.395C44.0454 42.4617 44.0397 42.5387 44.0328 42.6226C44.0293 42.664 44.0259 42.7065 44.0213 42.749C44.0167 42.7916 44.0133 42.8329 44.0018 42.8674C43.9765 42.9398 43.9374 43.026 43.9052 43.1008C43.8719 43.1778 43.8409 43.249 43.8144 43.3099C43.7627 43.4329 43.7282 43.5145 43.7282 43.5145C43.7213 43.5318 43.7282 43.5513 43.7455 43.5594C43.7604 43.5651 43.7765 43.5605 43.7857 43.549C43.7857 43.549 43.8007 43.5306 43.8225 43.4973C43.8432 43.464 43.8754 43.4168 43.9087 43.3582C43.942 43.2996 43.9822 43.2318 44.0202 43.1559C44.0397 43.118 44.0592 43.0789 44.0776 43.0375C44.096 42.9962 44.1144 42.9559 44.1316 42.9054C44.1477 42.8536 44.15 42.8054 44.1546 42.7605C44.1581 42.7157 44.1592 42.6709 44.1604 42.6283C44.1627 42.5433 44.1592 42.4651 44.1581 42.3973C44.1535 42.2628 44.1431 42.1732 44.1431 42.1732C44.1408 42.1548 44.1247 42.141 44.1063 42.1422C44.0903 42.1433 44.0776 42.1559 44.0765 42.172H44.0742Z" fill="white"/>
<path d="M43.7002 42.0594C43.7002 42.0594 43.6968 42.0778 43.6933 42.1123C43.691 42.1468 43.6853 42.1951 43.6841 42.2525C43.683 42.31 43.6807 42.3767 43.6795 42.4479C43.6784 42.518 43.6795 42.5962 43.6715 42.6617C43.6692 42.6709 43.6715 42.6721 43.668 42.6836L43.6611 42.7111L43.6462 42.7617C43.6347 42.7962 43.6244 42.8307 43.614 42.864C43.5922 42.9318 43.5715 42.9939 43.5531 43.0479C43.5175 43.156 43.4957 43.2284 43.4957 43.2284C43.4899 43.2468 43.5002 43.2663 43.5186 43.272C43.5336 43.2766 43.5485 43.2709 43.5566 43.2583C43.5566 43.2583 43.6002 43.1927 43.652 43.0881C43.6772 43.0353 43.7071 42.9755 43.7347 42.9077C43.7485 42.8744 43.7623 42.8387 43.7749 42.8019L43.7933 42.7433L43.8002 42.7146C43.8025 42.7065 43.8048 42.6893 43.8071 42.6801C43.8163 42.5928 43.8117 42.518 43.8083 42.4456C43.8037 42.3732 43.7968 42.3066 43.7922 42.2491C43.7807 42.1353 43.7715 42.0594 43.7715 42.0594C43.7692 42.041 43.7519 42.0272 43.7335 42.0295C43.7186 42.0318 43.7071 42.0433 43.7037 42.0571L43.7002 42.0594Z" fill="white"/>
<path d="M41.4952 38.118C42.0446 39.0341 42.6801 39.8548 42.9375 40.38C43.1651 40.8444 44.2224 40.4685 44.0948 40.2053C43.7638 39.5214 43.2754 38.3261 42.9375 37.2307C42.872 37.0192 41.3159 37.8192 41.4952 38.118Z" fill="white"/>
<path fill-rule="evenodd" clip-rule="evenodd" d="M48.2034 16.1674C47.9984 15.9927 47.706 15.8585 47.3272 15.8912C47.0885 15.9118 46.8487 16.0005 46.6486 16.1723C46.5866 16.2254 46.5341 16.2816 46.4898 16.3383C45.8188 16.6536 45.3887 17.139 45.191 17.7198C44.9774 18.3468 45.0916 18.9254 45.1711 19.2092C45.307 19.7049 45.7735 20.1435 46.3783 20.1435L46.3993 20.1433C46.5333 20.2593 46.6899 20.3744 46.858 20.4761C47.0982 20.6215 47.4203 20.7752 47.7845 20.8377C48.1585 20.9018 48.6514 20.8782 49.0971 20.5569C49.2673 20.4341 49.4018 20.4062 49.4756 20.3994C49.5067 20.3966 49.5304 20.3973 49.5446 20.3983C49.6505 20.4309 49.8384 20.4741 50.0568 20.4456C50.2094 20.4257 50.4793 20.3561 50.7027 20.112C50.9415 19.851 50.9883 19.5444 50.9757 19.3332C50.9591 19.0567 50.8286 18.7995 50.6152 18.6229L50.1337 18.2242C50.0962 18.0266 50.0295 17.7811 49.9093 17.5257C49.7597 17.2079 49.5187 16.8582 49.1356 16.5805C48.8681 16.3865 48.5563 16.2459 48.2034 16.1674ZM46.0737 18.8554L45.8389 19.0213C45.8519 18.8869 45.894 18.7237 45.9989 18.5623C46.0063 18.5508 46.0139 18.5396 46.0216 18.5287C46.0339 18.6337 46.051 18.7428 46.0737 18.8554Z" fill="#FF9900"/>
<path d="M38.5179 66.504C38.4656 66.4618 38.1355 66.4151 37.7076 66.3595C37.0052 66.2683 35.8515 66.0583 35.5359 65.7437C35.2691 65.4769 35.2892 64.7021 35.2892 64.7021C35.2892 64.7021 34.1877 64.8233 33.8943 65.1045C34.0377 65.528 33.7954 66.2139 33.7332 66.6518C33.6642 66.9197 33.7432 67.0642 33.8943 67.0642H38.5179C38.6579 67.0642 38.7068 66.6585 38.5179 66.504Z" fill="white"/>
<path d="M35.4785 65.7158C36.2176 65.2123 36.7889 65.1623 36.8211 65.4235C36.8634 65.7759 36.2109 65.8792 35.4785 65.7158Z" stroke="white" stroke-width="0.5" stroke-linecap="round" stroke-linejoin="round"/>
<path d="M35.4785 65.7159C35.9375 64.9478 36.4821 64.7455 36.62 64.97C36.8056 65.2723 36.2109 65.5569 35.4785 65.7159Z" stroke="white" stroke-width="0.5" stroke-linecap="round" stroke-linejoin="round"/>
<path d="M36.5588 66.0605C36.0665 66.1606 35.4785 65.7148 35.4785 65.7148C35.4785 65.7148 35.8208 66.3729 36.3966 66.4652" stroke="white" stroke-width="0.5" stroke-linecap="round" stroke-linejoin="round"/>
<path d="M29.8039 66.504C29.7805 66.4907 29.6983 66.4796 29.5816 66.4718C29.5816 66.4718 29.5805 66.4707 29.5793 66.4695C28.8769 66.3784 28.5102 65.3869 28.5102 64.7299C28.2556 64.5343 27.561 64.7711 27.2665 65.0523C27.431 65.7037 27.0753 66.2383 26.9942 66.653C26.9919 66.653 26.9919 66.653 26.9919 66.653C26.923 66.9208 27.0019 67.0654 27.1531 67.0654H29.8861C30.0261 67.0654 30.015 66.6285 29.8039 66.5051V66.504Z" fill="white"/>
<path d="M38.1722 42.8743C38.3712 42.7486 37.1953 28.0937 36.7452 26.7732H34.25L36.8696 43.0799C36.8696 43.0799 38.0266 42.9654 38.1711 42.8743H38.1722Z" fill="white"/>
<path d="M33.847 65.716C33.8948 65.8516 35.4564 65.6037 35.433 65.3803C35.3097 64.2087 35.6853 54.8571 36.1999 52.0481C36.5289 50.253 36.8168 41.9362 36.4655 37.1487C36.4655 37.1487 33.9904 37.3665 31.5186 37.7178C31.3096 39.6375 31.6108 44.804 32.0432 50.1952C32.1977 52.1182 31.2107 54.3202 31.2952 56.1687C31.4197 58.9076 33.7381 65.4058 33.847 65.716Z" fill="white"/>
<path d="M27.2609 65.5504C27.2809 65.6949 28.6291 65.6226 28.6591 65.4759C29.0648 63.4584 30.0784 57.9717 31.9056 52.1026C33.1382 48.1432 34.8698 37.749 34.8809 37.5266C34.8809 37.5266 28.987 37.5155 28.159 37.949C28.1445 38.5204 27.8022 44.0304 27.4388 49.9762C27.3676 51.1456 26.4185 53.6321 26.2684 54.7937C25.8183 58.2963 27.2254 65.3047 27.2598 65.5504H27.2609Z" fill="white"/>
<path d="M31.6279 53.012C31.9925 51.8281 32.7583 49.0826 33.1217 47.5297C33.6374 45.3288 34.0986 43.0501 34.3509 41.5261" stroke="white" stroke-width="0.5" stroke-linecap="round" stroke-linejoin="round"/>
<path d="M28.375 65.8957C28.6128 65.3977 29.0785 65.1387 29.2141 65.3466C29.3786 65.5978 29.0808 65.8623 28.375 65.8957Z" stroke="white" stroke-width="0.5" stroke-linecap="round" stroke-linejoin="round"/>
<path d="M28.3753 65.8955C27.8985 66.1112 27.4273 65.81 27.4762 65.551C27.5428 65.2019 28.1141 65.6299 28.3753 65.8955Z" stroke="white" stroke-width="0.5" stroke-linecap="round" stroke-linejoin="round"/>
<path d="M29.092 66.2291C28.6674 66.1757 28.3751 65.8967 28.3751 65.8967C28.3751 65.8967 28.0595 66.2169 27.7305 66.2658" stroke="white" stroke-width="0.5" stroke-linecap="round" stroke-linejoin="round"/>
<path d="M36.3248 38.5346C35.6913 39.2327 31.7924 39.2493 29.2806 38.6224C28.9449 38.5379 29.1905 24.1898 30.362 23.6529C31.1511 23.2917 32.6626 23.2617 33.5084 23.6696C33.9574 23.8853 35.6779 25.2492 36.2826 26.3307C36.4248 26.5853 36.0881 34.0617 36.1703 35.0209C36.3248 37.2585 36.5838 38.2489 36.3248 38.5346Z" fill="white"/>
<path d="M25.4941 33.2559C25.7398 33.1836 26.4944 32.9835 26.7023 33.0869C26.9101 33.1914 25.9876 33.3204 25.9487 33.4248C25.9098 33.5293 26.6545 33.3726 26.7623 33.4382" stroke="white" stroke-width="0.69" stroke-linecap="round" stroke-linejoin="round"/>
<path d="M27.7307 31.8039C27.7307 31.8039 27.7307 31.8061 27.7307 31.8073C27.7429 31.8995 27.7118 35.4877 27.6162 35.9401C27.4428 36.7604 25.4956 42.0437 25.5612 42.2115C25.6746 42.5039 28.3086 43.3442 28.562 43.0908C28.6999 42.9529 29.3289 39.656 29.5801 39.2603C29.8469 38.8401 30.5393 38.2666 30.7782 37.8742C31.2406 37.1161 32.4343 30.6045 32.3453 28.5759C32.2809 27.1175 30.9216 24.4598 30.4181 23.5883C30.4015 23.5605 30.3681 23.5494 30.3381 23.5628C29.1789 24.0741 27.7785 24.4909 26.986 25.1034C26.9838 25.1056 26.9816 25.1067 26.9794 25.1089C26.6237 25.438 26.706 26.7941 27.3072 29.6664L27.7285 31.8039H27.7307Z" fill="white"/>
<path d="M30.6819 23.574C30.5296 24.0798 32.3424 25.0335 33.167 24.8479C33.5194 24.7689 33.4605 23.8941 33.2882 23.4251C32.9948 22.627 32.9559 21.5921 32.9559 21.5921L32.9503 21.5899L30.7675 20.3293C30.7675 20.3293 31.002 22.5125 30.6819 23.5729V23.574Z" fill="white"/>
<path d="M30.9771 20.6619C30.8182 22.1447 32.1208 23.4919 33.2878 23.4263C33.0244 22.6171 32.9554 21.5934 32.9554 21.5934L32.9499 21.5911L30.9771 20.6619Z" fill="white"/>
<path d="M34.6364 21.571C34.522 23.5863 31.7745 23.185 31.0521 21.3176C30.7075 20.4272 30.6197 18.7276 30.7387 18.5542C30.8931 18.3308 31.1243 18.0952 31.3444 17.9184C31.989 17.4004 32.4603 17.3504 33.276 17.6939C33.5506 17.8095 33.7729 18.054 33.9607 18.1807C34.2541 18.3786 34.1652 18.8099 34.303 19.6736C34.3275 19.8259 34.3675 19.9959 34.4108 20.176C34.4831 20.4695 34.5653 20.7874 34.6086 21.0919C34.632 21.2576 34.6442 21.4187 34.6364 21.571Z" fill="white"/>
<path d="M30.627 19.1179C30.6247 19.1268 31.0215 19.9416 31.2483 19.7759C31.5583 19.5492 31.705 19.2991 31.7906 19.0201C31.834 18.8789 31.7995 18.5732 31.6673 18.2842C32.9787 18.9723 34.1924 18.7111 34.0146 18.0986L31.0437 17.8818C31.0437 17.8818 30.6292 19.1123 30.6281 19.1179H30.627Z" fill="white"/>
<path d="M32.8982 21.0842C32.8926 20.8196 32.6403 20.6084 32.3347 20.6129C32.0291 20.6173 31.7857 20.8363 31.7901 21.1008C31.7957 21.3654 32.048 21.5766 32.3536 21.5721C32.6592 21.5677 32.9026 21.3487 32.8982 21.0842Z" fill="white"/>
<path d="M34.6076 21.092C34.3197 21.0786 34.0896 20.8752 34.0841 20.6218C34.0796 20.425 34.2141 20.2527 34.4097 20.176C34.482 20.4695 34.5642 20.7874 34.6076 21.092Z" fill="white"/>
<path d="M30.2084 19.7747C29.905 20.0715 30.6697 21.3287 30.9998 20.694C31.3277 20.0648 30.5774 19.4146 30.2084 19.7747Z" fill="white"/>
<path d="M30.8092 20.3117C30.7592 20.0527 30.3702 19.897 30.2891 19.9182" stroke="white" stroke-width="1.04" stroke-linecap="round" stroke-linejoin="round"/>
<path d="M30.4863 20.3172C30.5219 20.2072 30.6353 20.156 30.7131 20.1583" stroke="white" stroke-width="1.04" stroke-linecap="round" stroke-linejoin="round"/>
<path d="M34.4248 18.3675C34.4081 18.2875 34.267 18.1363 34.0802 18.0629C34.1603 17.9518 34.2714 17.2982 34.2381 17.1881C33.9802 16.3556 30.7093 17.4938 30.5993 17.5961C30.2892 17.8851 30.0391 19.3101 30.148 19.468C30.2536 19.6225 30.4259 19.6014 30.6137 19.7036C30.6826 19.7414 30.8104 19.8737 30.8816 20.0527C30.926 20.1638 30.8927 20.5651 30.9227 20.7218C30.9494 20.8641 31.1727 20.8252 31.2005 20.8085C31.2717 20.7652 31.2494 19.9504 31.2983 19.6903C31.3206 19.5691 31.824 19.04 31.624 18.2397C32.6587 18.5709 33.7357 18.3164 34.0158 18.0996C34.0136 18.6354 34.2925 19.7414 34.3425 19.8781C34.2836 19.4402 34.487 18.6621 34.427 18.3686L34.4248 18.3675Z" fill="white"/>
<path d="M34.0894 19.5994C34.0183 19.6227 33.9427 19.6705 33.8838 19.7483" stroke="white" stroke-width="1.04" stroke-miterlimit="10" stroke-linecap="round"/>
<path d="M34.274 19.5958C34.2652 19.5914 34.2542 19.5903 34.2432 19.5859" stroke="white" stroke-width="1.04" stroke-miterlimit="10" stroke-linecap="round"/>
<path d="M32.0458 20.1216C32.0258 20.1616 32.0092 20.2061 31.998 20.255" stroke="white" stroke-width="1.04" stroke-miterlimit="10" stroke-linecap="round"/>
<path d="M32.4237 19.8271C32.3237 19.8538 32.217 19.9083 32.1348 19.9961" stroke="white" stroke-width="1.04" stroke-miterlimit="10" stroke-linecap="round"/>
<path d="M32.683 19.8226C32.6697 19.8182 32.6552 19.816 32.6396 19.8115" stroke="white" stroke-width="1.04" stroke-miterlimit="10" stroke-linecap="round"/>
<path d="M26.9834 25.1058C25.4774 26.0807 23.2901 31.9086 23.2979 33.4437C23.3112 35.838 27.9692 39.7496 28.0492 39.6796C28.3382 39.4306 29.8464 38.4235 29.8764 38.2701C29.902 38.1368 27.3312 33.8917 27.3757 33.4615C27.728 32.6356 27.808 31.0639 29.1851 29.332C30.8289 27.2656 29.3163 23.5952 26.9823 25.1058H26.9834Z" fill="white"/>
<path d="M30.3192 39.4785C30.2081 39.2573 29.8491 38.836 29.5456 38.7026C29.39 38.6337 29.2167 38.6592 29.0333 38.4903C28.9088 38.3747 28.3075 39.0127 28.3709 39.0994C28.4264 39.1739 28.4564 39.2284 28.4731 39.2728C28.4842 39.2995 28.5376 39.7864 28.6065 39.9598C28.7921 40.4244 29.0911 40.8379 29.4367 41.2125C29.7879 41.0124 30.3181 40.0743 30.3181 39.4796L30.3192 39.4785Z" fill="white"/>
<path d="M28.1006 39.3708L28.4918 39.9211L29.7066 38.7005L29.2887 38.2715L28.7752 38.6394L28.1006 39.3708Z" fill="white"/>
<path d="M30.3218 38.8772C30.3963 39.4597 30.1551 41.0025 29.0459 41.5261" stroke="white" stroke-width="0.5" stroke-linecap="round" stroke-linejoin="round"/>
<path d="M36.2969 25.2067C37.8029 26.1815 39.9902 32.0095 39.9824 33.5445C39.9691 35.9389 35.3111 39.8505 35.231 39.7804C34.9421 39.5315 33.4339 38.5244 33.4039 38.371C33.3783 38.2376 35.949 33.9925 35.9046 33.5623C35.5522 32.7364 35.4722 31.1647 34.0952 29.4329C32.4514 27.3665 33.964 23.6961 36.298 25.2067H36.2969Z" fill="white"/>
<path d="M32.9611 39.5793C33.0722 39.3581 33.4312 38.9368 33.7346 38.8034C33.8902 38.7345 34.0636 38.7601 34.247 38.5911C34.3715 38.4755 34.9728 39.1135 34.9094 39.2002C34.8538 39.2747 34.8238 39.3292 34.8072 39.3736C34.796 39.4003 34.7427 39.8872 34.6738 40.0606C34.4882 40.5252 34.1892 40.9387 33.8435 41.3133C33.4923 41.1133 32.9622 40.1751 32.9622 39.5804L32.9611 39.5793Z" fill="white"/>
<path d="M35.1797 39.4717L34.7885 40.0219L33.5737 38.8014L33.9916 38.3723L34.505 38.7402L35.1797 39.4717Z" fill="white"/>
<path d="M32.9585 38.9778C32.884 39.5602 33.1252 41.1031 34.2344 41.6267" stroke="white" stroke-width="0.5" stroke-linecap="round" stroke-linejoin="round"/>
<path d="M35.7804 30.8239C35.876 33.3016 35.8838 39.3619 35.6771 43.1367C35.6771 43.1367 36.564 43.1423 36.8707 43.0789C37.8021 42.8877 36.9496 32.8247 36.9496 32.8247L36.8063 26.9879L36.5095 25.3483C36.5095 25.3483 34.0944 23.4598 33.5098 23.6687C34.3922 24.1756 35.6637 27.7904 35.7804 30.8239Z" fill="white"/>
<path d="M28.7934 29.5657C28.46 30.2582 27.353 33.1905 27.3763 33.4617C27.3997 33.7329 29.4336 37.6323 29.637 37.9269" stroke="white" stroke-width="0.5" stroke-linecap="round" stroke-linejoin="round"/>
<path d="M26.8076 38.677C27.0399 38.9115 27.6812 39.4762 27.9457 39.6819" stroke="white" stroke-width="0.5" stroke-linecap="round" stroke-linejoin="round"/>
<path d="M29.5824 38.2302C29.2879 37.9512 28.0664 39.2317 28.042 39.5118" stroke="white" stroke-width="0.5" stroke-linecap="round" stroke-linejoin="round"/>
<path d="M26.0537 33.4616C26.2593 33.2593 26.8673 33.1926 26.9773 33.3204C27.0662 33.4249 26.2949 33.4304 26.1693 33.7684C26.1426 33.8395 26.5294 33.6261 26.9151 33.7005" stroke="white" stroke-width="0.5" stroke-linecap="round" stroke-linejoin="round"/>
<path d="M56.3524 67.2356H54.5609C54.4624 67.2356 54.4095 67.1401 54.4551 66.9648C54.4551 66.9648 54.4551 66.9648 54.4561 66.9648C54.48 66.833 54.509 66.5726 54.5796 66.1545C54.6449 65.7624 55.9737 66.3122 56.0941 66.5124C56.1926 66.6753 56.2528 66.8527 56.2974 66.8683C56.3845 66.9005 56.4426 67.2356 56.3513 67.2356H56.3524Z" fill="white"/>
<path d="M61.958 66.6516C61.7713 66.6817 61.7474 66.9971 61.7568 67.2357H61.8501C61.8864 67.2357 61.7993 66.7823 61.958 66.6516Z" fill="white"/>
<path d="M64.2233 67.2357H62.6051C62.5107 67.2357 62.436 67.1216 62.3603 66.9908C62.271 66.8134 62.1953 66.6173 61.9993 66.5873C61.6953 66.5395 61.6455 66.9192 61.657 67.2357H61.3115C61.2918 67.2357 61.0107 66.6474 61.0107 66.4908C61.0107 66.3528 61.075 65.889 61.1455 65.861C61.1684 65.8517 61.8686 65.7511 62.6217 66.5624C62.9515 66.9182 63.5148 66.6765 63.5687 66.7045C63.6102 66.7263 64.188 66.8394 64.2233 66.8674C64.3478 66.968 64.3146 67.2346 64.2233 67.2346V67.2357Z" fill="white"/>
<path d="M62.5814 56.2095C62.5492 56.5902 62.5191 56.9824 62.5015 57.3465C62.4227 58.994 62.1208 63.0837 62.1924 64.783C62.2069 65.1202 62.238 65.2966 62.2681 65.3827C62.2961 65.4626 62.4248 65.5881 62.5565 65.7541C62.8314 66.1016 63.2287 66.5664 63.5399 66.7231C63.5513 66.7293 63.5523 66.7449 63.5399 66.7511C63.2795 66.886 62.8791 67.0571 62.7194 66.943C62.5015 66.7884 61.6748 65.8921 61.2349 65.9097C61.2121 65.9097 61.1945 65.89 61.1997 65.8682C61.237 65.7271 61.3449 65.3184 61.2972 65.0424C61.0161 63.4354 59.9559 59.6694 59.7733 56.9689C59.7619 56.7936 59.7733 56.5238 59.7962 56.2105H62.5803L62.5814 56.2095Z" fill="white"/>
<path d="M54.446 57.3478C54.4802 57.0033 54.5663 56.6112 54.6763 56.2107H57.3567C57.2374 56.691 57.4709 57.2139 57.337 57.7534C56.613 60.677 55.7146 63.5953 55.6555 64.8527C55.6358 65.2874 55.8443 66.1371 56.0497 66.5355C56.0684 66.5718 56.0653 66.6216 56.031 66.6434C55.9958 66.6652 55.753 66.4763 55.557 66.4815C55.3786 66.4857 54.9118 66.7284 54.7873 66.6496C54.7022 66.5967 54.6348 66.4151 54.6472 66.079C54.6607 65.9981 54.7323 65.3673 54.7593 64.9959C54.8132 64.2676 54.2977 58.8583 54.446 57.3488V57.3478Z" fill="white"/>
<path d="M62.4585 31.2671C63.8434 33.3638 63.7209 36.777 63.9969 37.6589C64.4025 38.9567 64.1929 44.3837 64.1763 44.8018C64.167 45.0445 63.1608 45.0767 62.9979 45.0051C62.5104 44.7914 62.7552 40.9538 62.583 39.8095C62.4326 38.8115 62.4782 36.6401 62.3755 36.1131C62.0861 34.6264 62.4585 31.2681 62.4585 31.2681V31.2671Z" fill="white"/>
<path d="M64.0776 44.7957C63.8536 45.6381 63.8214 46.5137 63.643 46.7948C63.4646 47.077 62.5974 47.7867 62.5206 47.6653C62.3982 47.4713 62.8359 47.243 62.7447 47.0967C62.7447 47.0967 62.1928 47.4059 62.1306 47.3073C61.9179 46.9733 62.9822 46.3124 62.9252 46.2657C62.8681 46.2191 61.8391 46.5427 61.8214 46.4297C61.8048 46.3166 62.6627 45.8964 62.6627 45.8964C62.6627 45.8964 62.8027 44.972 62.9583 44.6815C63.1139 44.3921 63.3919 44.4066 63.3919 44.4066C63.3919 44.4066 64.1274 44.6037 64.0766 44.7946L64.0776 44.7957Z" fill="white"/>
<path d="M62.6761 58.2462C62.6574 58.6435 59.7923 58.518 59.7083 57.9173C59.4852 56.3196 59.2415 47.8477 59.2415 47.8477C59.2415 47.8477 57.7394 55.554 57.3525 58.4142C57.2934 58.8531 54.2872 58.3043 54.3245 57.9246C54.4718 56.4358 54.8919 47.605 55.7177 42.8555C56.0372 41.015 58.1346 39.1279 58.144 38.4411C58.144 38.4411 61.0257 37.9068 61.8835 38.4411C62.3472 40.0128 62.5599 41.2329 62.786 43.4977C63.2933 48.5843 62.7393 56.913 62.6761 58.2451V58.2462Z" fill="white"/>
<path d="M62.0365 40.0814C61.8736 40.2142 58.5552 39.7629 58.3695 39.0139C58.0272 37.632 57.8166 31.7288 57.8166 31.7288L61.7346 31.012C61.7346 31.012 63.4213 38.9527 62.0354 40.0825L62.0365 40.0814Z" fill="white"/>
<path d="M60.6389 28.8412C59.8474 28.944 59.5487 29.3465 59.3039 28.5051C59.0269 27.5527 57.4512 26.6398 57.8983 25.124C58.1981 24.1084 59.0788 23.793 59.9014 23.793C60.7665 23.793 61.6306 24.3937 61.8785 25.1489C62.0185 25.5764 61.8132 26.1667 61.7063 26.6242C61.6804 26.7352 61.5486 28.723 60.6389 28.8412Z" fill="white"/>
<path d="M58.508 30.0977C58.3306 30.2243 59.8399 32.459 60.6781 32.1353C61.4924 31.8209 60.8358 30.217 60.8358 30.217C60.7808 30.1434 60.6438 29.8093 60.536 29.5997C60.5121 29.4887 60.4934 29.3673 60.4934 29.2439C60.4934 28.5498 60.5816 28.1535 60.5816 28.1535L59.0858 26.8567L58.8991 26.8712C59.0619 28.055 59.1013 29.6744 58.508 30.0967V30.0977Z" fill="white"/>
<path d="M60.5364 29.5995C60.5125 29.4885 60.4939 29.3671 60.4939 29.2436C60.4939 28.5496 60.582 28.1533 60.582 28.1533L59.1889 27.343C59.1184 28.3182 59.8331 29.4501 60.5354 29.5995H60.5364Z" fill="white"/>
<path d="M59.294 24.0515C59.6094 22.9735 58.8345 21.5595 57.7588 21.9869C56.682 22.4143 57.3511 24.5774 58.6021 24.5837C59.8542 24.5909 59.294 24.0504 59.294 24.0504V24.0515Z" fill="white"/>
<path d="M59.369 23.6239C59.369 23.6239 59.3753 23.5731 59.3877 23.4839C59.3919 23.4393 59.4033 23.3864 59.4043 23.322C59.4043 23.2577 59.4043 23.1851 59.4043 23.1062C59.3981 23.0274 59.3856 22.9434 59.3753 22.8531C59.3659 22.8085 59.3524 22.7639 59.341 22.7182C59.3275 22.6726 59.3192 22.6238 59.2975 22.5792C59.2788 22.5336 59.2591 22.4869 59.2404 22.4392C59.2197 22.3925 59.1906 22.3489 59.1647 22.3033C59.1512 22.2804 59.1387 22.2576 59.1242 22.2358L59.0744 22.1736C59.0392 22.1341 59.0122 22.0864 58.9697 22.0532C58.9302 22.0169 58.8919 21.9796 58.8504 21.9453C58.8058 21.9152 58.7612 21.8862 58.7176 21.8571C58.6242 21.8084 58.5298 21.7617 58.4302 21.742C58.4053 21.7358 58.3815 21.7295 58.3576 21.7243C58.3338 21.7192 58.3089 21.7202 58.285 21.7171C58.2363 21.715 58.1896 21.7067 58.144 21.7109C58.0527 21.7202 57.9655 21.7243 57.8898 21.7513C57.8514 21.7627 57.8141 21.771 57.7809 21.7845C57.7487 21.8001 57.7176 21.8146 57.6886 21.8291C57.6595 21.8426 57.6325 21.8561 57.6076 21.8686C57.5848 21.8841 57.5641 21.8986 57.5444 21.9111C57.4686 21.963 57.4261 21.9931 57.4261 21.9931C57.4137 22.0014 57.4105 22.018 57.4188 22.0304C57.4271 22.0418 57.4427 22.0449 57.4552 22.0377L57.4583 22.0356C57.4583 22.0356 57.5008 22.0097 57.5765 21.963C57.5952 21.9516 57.616 21.9391 57.6388 21.9256C57.6637 21.9152 57.6896 21.9049 57.7176 21.8935C57.7456 21.882 57.7757 21.8696 57.8068 21.8561C57.839 21.8457 57.8742 21.8405 57.9106 21.8302C57.9821 21.8063 58.062 21.8053 58.1471 21.8001C58.1896 21.798 58.2321 21.8073 58.2767 21.8105C58.2985 21.8136 58.3213 21.8136 58.3431 21.8188C58.3649 21.825 58.3867 21.8312 58.4085 21.8374C58.4987 21.8571 58.5838 21.9007 58.6688 21.9453C58.7083 21.9723 58.7487 22.0003 58.7892 22.0273C58.8255 22.0594 58.8607 22.0947 58.897 22.1279C58.9354 22.159 58.9603 22.2037 58.9925 22.24L59.0381 22.2981L59.0755 22.3613C59.0993 22.4039 59.1273 22.4433 59.147 22.4869C59.1657 22.5315 59.1844 22.5751 59.2031 22.6176C59.2394 22.7037 59.256 22.794 59.2809 22.8759C59.2943 22.961 59.3099 23.0409 59.3192 23.1156C59.3234 23.1903 59.3265 23.2588 59.3296 23.32C59.3327 23.3812 59.3255 23.4362 59.3244 23.4808C59.3203 23.571 59.3182 23.6219 59.3182 23.6219C59.3182 23.6364 59.3286 23.6488 59.3441 23.6499C59.3587 23.6499 59.3701 23.6405 59.3721 23.626L59.369 23.6239Z" fill="white"/>
<path d="M59.0355 24.2952C59.0355 24.2952 58.9836 24.2941 58.8944 24.2921C58.8716 24.2921 58.8467 24.2921 58.8197 24.291C58.7927 24.291 58.7616 24.2972 58.7294 24.3014C58.6651 24.3097 58.5904 24.317 58.5158 24.345C58.4774 24.3574 58.438 24.3688 58.3975 24.3833C58.3591 24.4031 58.3187 24.4238 58.2782 24.4446C58.2357 24.4632 58.1994 24.4944 58.161 24.5244C58.1236 24.5556 58.0811 24.5825 58.05 24.622C58.0168 24.6593 57.9795 24.6956 57.9483 24.7371C57.9203 24.7807 57.8913 24.8243 57.8622 24.8689C57.8145 24.9623 57.7689 25.0598 57.744 25.1635C57.7284 25.2144 57.7139 25.2652 57.7077 25.3181C57.7004 25.37 57.689 25.4218 57.6849 25.4737C57.6797 25.5775 57.6724 25.6791 57.6838 25.7777C57.6869 25.8763 57.7066 25.9696 57.7212 26.0588C57.7357 26.1481 57.7637 26.228 57.7824 26.3047C57.8041 26.3794 57.8342 26.4458 57.855 26.505C57.8757 26.5651 57.9027 26.6139 57.9224 26.6543C57.9618 26.7363 57.9846 26.783 57.9846 26.783C57.9909 26.7965 58.0075 26.8017 58.021 26.7954C58.0334 26.7892 58.0396 26.7737 58.0344 26.7612V26.7591C58.0344 26.7591 58.0137 26.7124 57.9795 26.6305C57.9629 26.589 57.939 26.5413 57.9224 26.4811C57.9048 26.422 57.8799 26.3566 57.8612 26.2829C57.8456 26.2082 57.8207 26.1304 57.8093 26.0443C57.7979 25.9582 57.7813 25.868 57.7824 25.7746C57.7741 25.6802 57.7824 25.5837 57.7876 25.4851C57.7907 25.4364 57.8031 25.3876 57.8104 25.3388C57.8166 25.2891 57.8301 25.2413 57.8457 25.1946C57.8695 25.0982 57.9151 25.01 57.9566 24.9228C57.9826 24.8824 58.0085 24.8419 58.0334 24.8014C58.0614 24.7631 58.0946 24.7309 58.1247 24.6956C58.1527 24.6583 58.1911 24.6344 58.2243 24.6054C58.2585 24.5774 58.2917 24.5493 58.329 24.5307C58.3653 24.5099 58.4017 24.4892 58.4359 24.4695C58.4722 24.4539 58.5095 24.4425 58.5438 24.429C58.6122 24.3989 58.6797 24.3917 58.7388 24.3782C58.7689 24.373 58.7958 24.3647 58.8218 24.3626C58.8487 24.3616 58.8736 24.3595 58.8965 24.3585C58.9867 24.3533 59.0375 24.3502 59.0375 24.3502C59.0521 24.3502 59.0635 24.3367 59.0624 24.3221C59.0624 24.3076 59.05 24.2972 59.0365 24.2972L59.0355 24.2952Z" fill="white"/>
<path d="M61.8735 27.3318C61.8247 28.1981 61.3869 28.7614 61.0488 28.8569C60.1131 29.1193 59.2231 28.2416 58.9243 26.9905C58.9119 26.8027 58.9316 26.6087 58.9721 26.4157C59.0706 26.4863 59.3559 26.5755 59.5405 26.286C59.7532 25.954 59.7532 25.1801 60.0592 25.0525C60.6121 25.8814 61.4046 24.9819 61.7459 25.6532C61.8257 25.9063 61.7874 26.3223 61.8455 26.7186C61.8776 26.9365 61.8849 27.1419 61.8745 27.3318H61.8735Z" fill="white"/>
<path d="M60.7549 27.2032C60.7549 27.0092 60.5536 26.8525 60.3047 26.8525C60.0557 26.8525 59.8545 27.0092 59.8545 27.2032C59.8545 27.3972 60.0557 27.5539 60.3047 27.5539C60.5536 27.5539 60.7549 27.3972 60.7549 27.2032Z" fill="white"/>
<path d="M61.8735 27.3319C61.7273 27.2748 61.6256 27.1555 61.6256 27.0196C61.6256 26.892 61.7138 26.781 61.8445 26.7188C61.8766 26.9366 61.8839 27.142 61.8735 27.3319Z" fill="white"/>
<path d="M60.0585 25.0525C60.6114 25.8814 61.4039 24.9819 61.7441 25.6532C61.38 25.261 60.5709 26.0806 60.0554 25.0546C60.0564 25.0546 60.0574 25.0535 60.0585 25.0525Z" fill="white"/>
<path d="M59.5398 26.286C59.6705 26.0827 59.7203 25.7123 59.8105 25.427C59.7576 25.8534 59.7691 26.313 59.5004 26.5028C59.2411 26.6854 59.0927 26.5122 58.9921 26.4302C59.1062 26.4977 59.3666 26.5578 59.5398 26.2871V26.286Z" fill="white"/>
<path d="M58.5015 26.3422C58.2671 26.6047 58.8656 27.6255 59.0388 26.9719C59.1114 26.696 59.0834 26.5373 58.9548 26.4024C58.7868 26.226 58.5814 26.253 58.5015 26.3432V26.3422Z" fill="white"/>
<path d="M58.6017 26.4939C58.6837 26.4638 58.8299 26.5022 58.8424 26.6827C58.8455 26.7304 58.8029 26.7429 58.8154 26.7906C58.8237 26.8207 58.8756 26.8508 58.8994 26.8539" fill="white"/>
<path d="M58.6017 26.4939C58.6837 26.4638 58.8299 26.5022 58.8424 26.6827C58.8455 26.7304 58.8029 26.7429 58.8154 26.7906C58.8237 26.8207 58.8756 26.8508 58.8994 26.8539" stroke="white" stroke-width="0.69" stroke-linecap="round" stroke-linejoin="round"/>
<path d="M58.6682 26.642C58.6942 26.5652 58.8 26.5569 58.8301 26.6182L58.6682 26.642Z" fill="white"/>
<path d="M58.6682 26.642C58.6942 26.5652 58.8 26.5569 58.8301 26.6182" stroke="white" stroke-width="0.69" stroke-linecap="round" stroke-linejoin="round"/>
<path d="M54.6348 45.638C54.4947 45.4792 54.8609 44.0984 54.9408 43.7166C55.2509 42.2403 55.8951 41.0773 55.9252 40.8792C55.9252 40.876 53.6856 39.2358 53.4647 38.2056C53.2613 37.2543 55.1244 32.5701 56.0341 31.4808C56.4169 31.0223 57.8131 30.2618 57.9947 30.129C58.2478 29.9433 58.8526 29.3571 58.9065 29.5221C58.9065 29.5221 60.5081 33.5765 60.5818 35.3028C60.5994 35.7147 59.7156 45.9544 59.5538 46.1909C59.2996 46.5634 54.8205 45.8486 54.6348 45.638ZM56.8723 37.3518C56.7955 36.5955 56.5507 35.8195 56.5507 35.8195C56.4646 35.8516 55.781 37.8581 55.781 37.8581L56.7125 38.5864C56.7125 38.5864 56.949 38.1071 56.8723 37.3508V37.3518Z" fill="white"/>
<path d="M63.552 45.638C63.4763 46.1121 61.7564 46.2573 61.7045 46.1639C61.44 45.6815 61.6921 41.7184 61.6817 40.2172C61.6703 38.5054 61.8487 36.8756 61.8861 35.1192C61.9255 33.2517 60.6288 30.2037 60.5355 29.5999C60.6236 29.5117 60.8031 29.9049 61.0012 30.0802C61.2014 30.2576 62.1848 30.8728 62.4587 31.2671C63.5095 32.7807 62.607 36.9679 62.7834 38.2046C62.9981 39.713 63.5894 45.4076 63.552 45.6369V45.638Z" fill="white"/>
<path d="M62.9492 46.0363C62.7054 46.0965 61.9689 46.2293 61.7044 46.1639C61.4399 46.0985 61.6339 42.2278 61.6339 42.2278" fill="white"/>
<path d="M62.9492 46.0363C62.7054 46.0965 61.9689 46.2293 61.7044 46.1639C61.4399 46.0985 61.6339 42.2278 61.6339 42.2278" stroke="white" stroke-width="0.5" stroke-linecap="round" stroke-linejoin="round"/>
<path d="M59.7881 44.5195C59.7487 44.7893 59.6636 45.9761 59.5536 46.1909C59.4437 46.4056 56.617 46.1359 55.3888 45.8537" fill="white"/>
<path d="M59.7881 44.5195C59.7487 44.7893 59.6636 45.9761 59.5536 46.1909C59.4437 46.4056 56.617 46.1359 55.3888 45.8537" stroke="white" stroke-width="0.5" stroke-linecap="round" stroke-linejoin="round"/>
<path d="M62.4224 32.3015C62.3467 32.4789 62.3342 32.841 62.412 33.1885C62.4711 33.4521 62.9276 34.0652 62.9628 34.4854C63.0095 35.0269 62.8529 35.4523 62.6869 35.7967C62.5282 36.1277 63.3757 42.8743 63.4805 44.8994" fill="white"/>
<path d="M62.4224 32.3015C62.3467 32.4789 62.3342 32.841 62.412 33.1885C62.4711 33.4521 62.9276 34.0652 62.9628 34.4854C63.0095 35.0269 62.8529 35.4523 62.6869 35.7967C62.5282 36.1277 63.3757 42.8743 63.4805 44.8994" stroke="white" stroke-width="0.5" stroke-linecap="round" stroke-linejoin="round"/>
<path d="M57.9709 30.2327C58.2012 31.0709 58.2863 32.1094 58.3662 32.1748C58.4232 32.2204 58.8848 31.905 58.9346 31.9559C58.9854 32.0088 58.5954 32.8543 58.6276 32.9394C58.6577 33.0193 60.4294 34.9365 60.5176 35.6254" fill="white"/>
<path d="M57.9709 30.2327C58.2012 31.0709 58.2863 32.1094 58.3662 32.1748C58.4232 32.2204 58.8848 31.905 58.9346 31.9559C58.9854 32.0088 58.5954 32.8543 58.6276 32.9394C58.6577 33.0193 60.4294 34.9365 60.5176 35.6254" stroke="white" stroke-width="0.5" stroke-linecap="round" stroke-linejoin="round"/>
<path d="M61.3975 30.4673C61.5656 30.7993 61.8622 31.7527 61.8498 31.8056C61.8373 31.8596 61.4598 31.7288 61.4598 31.7288C61.4598 31.7288 61.8571 32.3876 61.9027 32.4613C62.0012 32.621 62.0998 34.7997 61.8819 35.334" fill="white"/>
<path d="M61.3975 30.4673C61.5656 30.7993 61.8622 31.7527 61.8498 31.8056C61.8373 31.8596 61.4598 31.7288 61.4598 31.7288C61.4598 31.7288 61.8571 32.3876 61.9027 32.4613C62.0012 32.621 62.0998 34.7997 61.8819 35.334" stroke="white" stroke-width="0.5" stroke-linecap="round" stroke-linejoin="round"/>
<path d="M56.5502 35.8194C56.8085 35.1555 57.3946 34.2446 57.4932 33.8877L56.5502 35.8194Z" fill="white"/>
<path d="M56.5502 35.8194C56.8085 35.1555 57.3946 34.2446 57.4932 33.8877" stroke="white" stroke-width="0.5" stroke-linecap="round" stroke-linejoin="round"/>
<path d="M58.9981 45.3895L55.499 42.5779L59.3681 37.7617L62.8671 40.5734L58.9981 45.3895Z" fill="white"/>
<path d="M59.7898 38.9565L61.5117 40.3405" stroke="white" stroke-width="1.38" stroke-linecap="round" stroke-linejoin="round"/>
<path d="M57.1241 38.8623C57.7081 39.3904 59.7683 40.8905 59.8678 41.1696C59.9228 41.3232 58.9664 42.4032 58.7382 42.4882C58.5411 42.5619 55.62 40.8241 55.5702 40.4341C55.5204 40.044 57.1231 38.8623 57.1231 38.8623H57.1241Z" fill="white"/>
<path d="M57.9199 39.494C57.4936 39.1101 57.145 38.8632 56.8038 38.5862L57.9199 39.494Z" fill="white"/>
<path d="M57.9199 39.494C57.4936 39.1101 57.145 38.8632 56.8038 38.5862" stroke="white" stroke-width="0.5" stroke-linecap="round" stroke-linejoin="round"/>
<path d="M60.7249 43.4977C60.5703 43.5267 60.5237 42.9001 60.477 42.8285C60.4438 42.7797 59.4386 42.3388 59.2643 42.1438C59.0009 41.8512 59.5994 41.1717 59.7218 41.2796C59.8536 41.3947 61.2654 42.6096 61.3224 42.7227C61.3753 42.8264 61.3463 43.2891 61.3276 43.2902C61.2311 43.2974 61.2 42.8897 61.1481 42.8741C61.1295 42.8752 60.9656 43.452 60.7249 43.4966V43.4977Z" fill="white"/>
<path d="M60.8442 43.418C60.8442 43.418 60.867 43.3641 60.8961 43.2821C60.9231 43.1991 60.9604 43.0881 60.9822 42.9709C60.9936 42.9128 61.0029 42.8536 61.0029 42.7924C61.0029 42.7769 61.0019 42.7613 60.9977 42.7437V42.7374L60.9957 42.7323V42.7302L60.9915 42.7208C60.9894 42.7146 60.9853 42.7032 60.9811 42.6959C60.9666 42.6669 60.9459 42.6462 60.9282 42.6285C60.8919 42.5953 60.8608 42.5777 60.839 42.5632C60.8183 42.5497 60.8058 42.5424 60.8058 42.5424C60.7934 42.5341 60.7758 42.5383 60.7685 42.5507C60.7623 42.56 60.7633 42.5715 60.7685 42.5808C60.7685 42.5808 60.7768 42.5943 60.7944 42.614C60.811 42.6337 60.837 42.6607 60.8608 42.6897C60.8722 42.7042 60.8816 42.7219 60.8878 42.7374L60.8909 42.7478L60.893 42.7572V42.7592V42.7623C60.895 42.7706 60.894 42.7821 60.895 42.7935C60.895 42.8412 60.8847 42.8972 60.8753 42.9522C60.8536 43.0642 60.8318 43.1773 60.8152 43.2614C60.7996 43.3464 60.7903 43.4045 60.7903 43.4045C60.7882 43.4191 60.7975 43.4336 60.8131 43.4357C60.8256 43.4377 60.838 43.4305 60.8421 43.4191L60.8442 43.418Z" fill="white"/>
<path d="M60.732 43.4346C60.732 43.4346 60.7465 43.3837 60.7611 43.3038C60.7735 43.225 60.7891 43.1192 60.7922 43.0113C60.7932 42.9573 60.7943 42.9034 60.788 42.8505C60.7849 42.8235 60.7818 42.7986 60.7694 42.7664C60.76 42.7457 60.7538 42.7395 60.7465 42.7291C60.7393 42.7187 60.732 42.7114 60.7237 42.7031C60.6636 42.6399 60.6044 42.6212 60.6044 42.6212C60.5899 42.617 60.5743 42.6253 60.5702 42.6399C60.5671 42.6502 60.5702 42.6596 60.5764 42.6668C60.5764 42.6668 60.6096 42.7021 60.649 42.7633C60.6532 42.7706 60.6584 42.7789 60.6636 42.7872C60.6677 42.7944 60.675 42.8069 60.6739 42.8069C60.677 42.8173 60.6812 42.8401 60.6833 42.8619C60.6864 42.9075 60.6874 42.9584 60.6874 43.0102C60.6874 43.1129 60.6853 43.2177 60.6822 43.2966C60.6812 43.3754 60.6802 43.4283 60.6802 43.4283C60.6802 43.4429 60.6916 43.4553 60.7071 43.4563C60.7196 43.4563 60.7299 43.448 60.7341 43.4366L60.732 43.4346Z" fill="white"/>
<path d="M61.1757 42.8712C61.1757 42.8712 61.183 42.8515 61.184 42.8204C61.1861 42.7903 61.183 42.7467 61.1633 42.7042C61.1581 42.6938 61.1539 42.6845 61.1467 42.6741C61.1405 42.6647 61.1332 42.6554 61.1259 42.6471C61.1114 42.6315 61.0948 42.6191 61.0803 42.6108C61.0512 42.5942 61.0284 42.5911 61.0284 42.5911C61.0129 42.589 60.9973 42.5994 60.9952 42.616C60.9942 42.6232 60.9952 42.6305 61.0004 42.6367C61.0004 42.6367 61.0118 42.6533 61.0253 42.6741C61.0398 42.6948 61.0533 42.7218 61.0658 42.7488C61.0782 42.7799 61.0917 42.811 61.101 42.8349C61.1114 42.8608 61.1228 42.8785 61.1228 42.8785C61.1311 42.8919 61.1498 42.8961 61.1633 42.8878C61.1695 42.8836 61.1736 42.8785 61.1757 42.8722V42.8712Z" fill="white"/>
<path d="M59.7031 41.2297C59.3598 41.3999 58.895 41.9373 58.7301 42.3066L59.7031 41.2297Z" fill="white"/>
<path d="M59.7031 41.2297C59.3598 41.3999 58.895 41.9373 58.7301 42.3066" stroke="white" stroke-width="1.38" stroke-linecap="round" stroke-linejoin="round"/>
<path d="M55.99 40.9529C56.0864 41.0224 56.2742 41.1375 56.5117 41.2683L55.99 40.9529Z" fill="white"/>
<path d="M55.99 40.9529C56.0864 41.0224 56.2742 41.1375 56.5117 41.2683" stroke="white" stroke-width="0.5" stroke-linecap="round" stroke-linejoin="round"/>
</svg>
