<svg width="270" height="208" viewBox="0 0 270 208" fill="none" xmlns="http://www.w3.org/2000/svg">
<path d="M237.666 195.929C237.666 189.461 125.758 193.541 65.35 191.252L0.414376 193.69C-2.66074 199.194 68.8331 198.397 60.8717 201.552C54.8508 203.941 57.9857 203.692 62.7625 203.791C86.5374 204.279 109.536 207.722 117.099 207.523C129.191 207.205 117.259 204.747 115.457 203.941C110.581 201.751 174.621 200.726 170.192 203.194C160.639 208.518 188.643 208.21 190.793 203.194C193.48 196.924 237.666 199.213 237.666 195.929Z" fill="#EFEBE8"/>
<path d="M256.963 100.132C294.58 109.775 241.816 170.611 211.791 181.896C194.535 188.385 62.8125 190.375 45.8447 171.496C42.1028 167.337 4.96257 98.4898 30.3895 88.12C55.8164 77.7502 54.6122 55.3188 36.5098 21.9504C19.0245 -10.2736 183.13 -4.203 206.915 21.9504C229.436 46.7304 225.226 92.0013 256.963 100.132Z" fill="#FDFAF7"/>
<path fill-rule="evenodd" clip-rule="evenodd" d="M262.566 102.282C260.983 101.406 259.112 100.689 256.953 100.132C238.214 95.3252 232.004 77.5712 225.426 58.7225C224.52 56.135 223.614 53.5276 222.659 50.9302H48.4623C52.2141 66.9526 48.4324 78.7256 34.8979 86.0103V102.282H262.566Z" fill="#F7F5F4"/>
<path fill-rule="evenodd" clip-rule="evenodd" d="M40.2416 161.992C38.7887 159.225 37.1566 155.981 35.4946 152.428V129.35H266.188C261.102 140.147 251.519 152.07 240.93 161.992H40.2416Z" fill="#F7F5F4"/>
<path d="M154.469 74.4173C154.071 72.8648 154.638 70.8148 154.966 69.9888L149.542 71.4318V78.0995C151.354 77.5223 154.867 75.9698 154.469 74.4173Z" fill="#F2B57A"/>
<path d="M106.6 199.163C107.804 199.302 108.451 197.302 107.396 195.68L92.6676 194.336C86.1989 195.481 85.7013 199.163 88.6869 199.163H106.6Z" fill="#2B65EC"/>
<path d="M3.74818 32.6705L63.8572 27.396L62.7625 51.977L54.1044 57.749L46.74 85.8132L70.7239 121.938L70.923 196.975L0.165527 196.378L2.05637 34.2628L3.74818 32.6705Z" fill="#221B12"/>
<path d="M107.347 166.323C110.462 152.41 111.328 144.3 110.382 128.904L92.2203 129.501V151.993C92.5885 168.642 92.1705 177.917 91.2251 194.835C93.723 193.999 94.8476 194.696 96.6986 196.676C97.3952 197.423 104.162 197.622 107.347 196.029C109.785 194.805 107.715 180.236 107.347 166.323Z" fill="#2B604C"/>
<path d="M61.9865 105.517H68.4651L69.4305 106.313H60.6729L61.9865 105.517Z" fill="#221B12"/>
<path d="M138.645 52.9224C137.6 59.0428 139.461 62.297 141.083 62.8742L148.746 72.2289C148.945 72.4777 148.298 72.9056 148.448 73.1743C148.846 73.6719 149.96 72.6867 150.836 72.0299C150.488 73.9705 151.612 72.3085 152.528 71.2337C153.324 71.3631 153.822 70.9849 154.668 70.5869C154.439 72.6469 156.409 71.5323 157.255 70.1888C161.544 68.3477 162.251 67.0639 163.077 64.7153C165.117 65.0338 165.316 64.7651 164.321 63.6206C169.745 63.1728 164.769 61.6501 165.117 59.6896C165.814 55.7587 163.346 42.682 155.464 44.6624C145.174 42.6223 139.82 46.0556 138.645 52.9224Z" fill="black"/>
<path d="M83.8613 48.6926C82.3188 50.683 83.5627 54.9125 87.4937 56.1067L104.561 67.8498C107.049 68.3474 106.87 65.3917 108.293 61.9783C111.557 54.1661 112.284 51.8871 108.343 49.7873C107.985 42.8409 99.7345 43.2191 90.9271 46.9013C88.1704 47.0008 84.6077 47.7273 83.8613 48.6926Z" fill="#221B12"/>
<path d="M92.817 54.1162C90.6674 55.2408 89.5031 55.6687 87.5425 56.1066C87.2938 60.7342 87.662 60.973 88.2392 62.8738C89.1348 65.8096 84.8058 66.3072 88.9358 67.5014C89.4334 68.198 88.9856 69.5117 89.3339 69.6411C90.6077 70.1088 90.9162 71.2931 91.7223 72.8256C92.9663 74.3682 94.7278 72.8057 96.9968 72.0295C98.7184 72.8256 98.7383 74.0696 98.6388 76.4083L104.709 73.4227C104.63 73.0247 104.381 71.9001 104.063 70.5865C103.744 69.2728 104.361 68.1781 104.709 67.8L102.421 65.2125C105.705 58.7438 98.9871 56.2061 99.2857 61.3313C96.3002 60.1868 95.912 56.5544 95.7528 55.7583C95.5936 54.9621 94.887 54.6934 94.5586 54.6636C93.8122 54.6835 93.4539 54.4944 92.817 54.1162Z" fill="#F2B57A"/>
<path d="M72.7147 103.477C74.2373 103.238 75.2027 105.567 76.994 106.512L77.3423 111.837L72.665 113.379C69.2813 114.026 65.6489 110.095 66.047 108.951C63.559 107.557 64.3054 105.666 68.535 106.214C66.1963 105.268 66.6441 103.766 67.49 103.875C69.6993 104.174 70.595 104.114 72.7147 103.477Z" fill="#F2B57A"/>
<path d="M99.186 76.0098C101.564 74.1289 105.505 72.3276 105.953 72.3276C106.351 72.3276 106.759 73.0641 106.7 74.119C113.865 82.4785 112.362 98.5905 108.839 110.941C110.213 111.657 110.531 112.314 109.984 114.125C112.223 114.882 109.785 121.888 112.92 127.759C106.968 131.551 102.162 131.471 92.2197 129.849C91.4733 129.73 91.0554 120.813 91.5728 115.021C84.1189 114.951 80.0884 114.862 77.9389 112.633C77.1427 113.21 76.6949 113.379 75.849 112.384C75.4509 111.916 75.6002 108.413 76.8442 105.865C77.0332 105.467 78.2872 105.616 78.3369 106.015C78.3369 104.621 86.1392 104.91 91.2743 104.97C91.4136 99.4563 92.1301 94.978 93.0358 91.3854C94.1504 86.9568 96.698 84.3693 97.6435 79.8413L97.4942 77.7016C97.6932 76.6567 98.3003 76.7064 99.186 76.0098Z" fill="#2B65EC"/>
<path d="M138.844 63.4205C141.024 62.4651 140.805 60.3056 140.685 55.5088C143.551 58.9422 147.552 60.7335 146.955 58.146C147.502 58.7929 148 59.1313 149.741 59.6388V70.0384C147.95 72.1781 145.482 72.7354 142.676 72.1781C139.043 71.3819 140.884 68.0978 140.188 67.65C139.799 67.4012 140.138 65.6099 140.188 65.4108C138.784 64.764 138.157 63.719 138.844 63.4205Z" fill="#F2B57A"/>
<path fill-rule="evenodd" clip-rule="evenodd" d="M71.4114 106.333C70.4062 106.851 69.4011 106.542 68.3462 106.204L68.5253 105.637C69.62 105.995 70.3863 106.194 71.1327 105.806L71.4114 106.333Z" fill="#BC7439"/>
<path d="M88.4388 60.2358C88.5582 61.0817 88.4388 58.8923 90.8273 59.8874C90.8273 58.743 88.0408 57.3497 88.4388 60.2358Z" fill="#221B12"/>
<path d="M90.559 62.5254C90.7182 62.9632 90.6386 63.4011 90.3798 63.4907C90.1211 63.5803 89.7827 63.3116 89.6235 62.8737C89.4643 62.4358 89.5439 61.9979 89.8026 61.9084C90.0614 61.8088 90.3997 62.0875 90.559 62.5254Z" fill="#221B12"/>
<path d="M162.68 177.47C162.471 168.065 161.107 164.771 158.55 159.108L149.792 159.905C150.936 172.593 153.474 179.022 152.579 188.616C152.33 193.233 152.867 193.611 156.609 189.611C158.052 186.954 158.072 183.351 158.649 178.365L159.595 187.372C161.416 186.277 165.038 183.47 163.924 182.794C162.809 182.117 162.63 178.962 162.68 177.47Z" fill="#F2B57A"/>
<path fill-rule="evenodd" clip-rule="evenodd" d="M100.868 60.1561C100.719 60.2457 100.55 60.395 100.341 60.604L99.9228 60.1761C100.142 59.9571 100.351 59.778 100.56 59.6486C100.769 59.5192 101.008 59.4396 101.256 59.4496C101.505 59.4695 101.744 59.5789 101.963 59.7581C102.182 59.9372 102.411 60.186 102.65 60.5144L102.172 60.8727C101.943 60.5642 101.754 60.3552 101.585 60.2258C101.426 60.0964 101.306 60.0566 101.207 60.0467C101.127 60.0367 101.018 60.0666 100.868 60.1561ZM101.286 63.5895C101.396 63.4801 101.525 63.3009 101.664 63.0322L102.192 63.3109C102.033 63.5995 101.883 63.8383 101.714 64.0075C101.545 64.1866 101.336 64.3061 101.087 64.326C100.848 64.3459 100.619 64.2563 100.41 64.117C100.201 63.9776 99.9726 63.7786 99.7337 63.5298L100.162 63.1118C100.391 63.3507 100.58 63.5099 100.739 63.6094C100.898 63.709 100.998 63.7288 101.057 63.7288C101.097 63.7288 101.177 63.699 101.286 63.5895ZM92.8869 69.2919C93.1158 69.0133 93.2949 68.7048 93.4939 68.2768L94.0413 68.5256C93.8323 68.9934 93.6233 69.3417 93.3546 69.6701C93.0859 69.9886 92.7774 70.2772 92.3694 70.6155L91.9912 70.1577C92.3793 69.8293 92.658 69.5706 92.8869 69.2919ZM96.1113 71.969L100.739 69.4312L101.027 69.9587L96.3999 72.4964L96.1113 71.969Z" fill="#BC7439"/>
<path d="M157.255 75.2628L156.459 73.4217C155.912 72.9739 148.348 78.2981 148.05 79.2435C144.766 86.8567 141.054 89.9517 140.546 94.42C140.148 97.933 141.004 101.406 143.173 105.566L142.875 113.378C141.631 117.359 140.536 122.484 140.536 127.858C140.536 131.889 141.681 143.93 142.974 156.619C143.671 160.401 146.955 159.505 147.552 159.903C149.075 160.918 150.438 160.848 151.832 159.903C152.488 159.455 156.559 161.197 159.494 159.007C160.191 158.49 160.34 158.002 161.634 158.112C167.157 158.56 168.322 155.275 167.257 150.946C166.043 146.02 164.63 140.198 165.217 137.86C165.764 135.67 166.361 127.759 165.217 125.669L159.594 112.085L162.928 100.192C164.56 98.1818 164.719 94.3205 163.226 89.3446C162.42 81.423 161.037 78.1488 157.255 75.2628Z" fill="#FF9900"/>
<path d="M143.373 60.8831C143.373 61.2911 143.154 61.6295 142.875 61.6295C142.596 61.6295 142.377 61.2911 142.377 60.8831C142.377 60.4751 142.596 60.1367 142.875 60.1367C143.154 60.1367 143.373 60.4751 143.373 60.8831Z" fill="#221B12"/>
<path fill-rule="evenodd" clip-rule="evenodd" d="M137.82 54.3647C138.536 52.2748 139.76 51.3095 141.512 50.0854L141.85 50.5731C141.801 50.6029 141.751 50.6428 141.701 50.6726C141.522 50.8816 141.343 51.2299 141.193 51.6578C141.044 52.0957 140.935 52.5933 140.875 53.1009C140.825 53.6084 140.825 54.106 140.915 54.524C141.004 54.9519 141.154 55.2803 141.383 55.4793L140.985 55.9172C140.636 55.5988 140.437 55.131 140.338 54.6334C140.238 54.1358 140.238 53.5785 140.288 53.0312C140.348 52.4838 140.467 51.9365 140.636 51.4588V51.4488C139.581 52.2848 138.865 53.1307 138.377 54.5439L137.82 54.3647ZM146.747 58.3654C145.791 57.4597 145.393 56.9622 144.856 56.1162L145.363 55.7978C145.871 56.5939 146.229 57.0517 147.155 57.9275L146.747 58.3654Z" fill="#392B25"/>
<path fill-rule="evenodd" clip-rule="evenodd" d="M151.334 105.537C151.712 104.78 152.239 104.173 153.046 104.124L153.095 104.92C152.727 104.94 152.379 105.218 152.05 105.885C151.722 106.552 151.473 107.497 151.254 108.632C151.055 109.697 150.886 110.881 150.707 112.125C150.697 112.204 150.687 112.294 150.667 112.374C150.478 113.697 150.289 115.061 150.03 116.334L149.254 116.175C149.503 114.931 149.702 113.588 149.881 112.254C149.891 112.165 149.901 112.085 149.921 111.995C150.09 110.761 150.259 109.547 150.468 108.472C150.697 107.338 150.956 106.303 151.334 105.537Z" fill="#221B12"/>
<path d="M140.924 64.8932C140.874 65.0226 140.685 65.0724 140.506 65.0027C140.327 64.933 140.218 64.7738 140.267 64.6444C140.317 64.5151 140.496 64.4653 140.685 64.535C140.874 64.6046 140.974 64.7639 140.924 64.8932Z" fill="#BC7439"/>
<path d="M154.121 99.6948C156.36 99.048 161.336 98.4011 162.231 99.3963C161.684 107.457 163.674 112.98 156.609 111.637C152.499 113.816 147.523 113.896 136.854 113.279C134.366 112.732 136.406 114.025 131.63 114.971C129.639 115.369 126.564 111.488 126.256 110.343C125.907 109.05 128.375 109.497 129.39 107.806C131.779 103.825 132.824 107.855 134.167 108.154C139.253 109.298 145.273 106.621 153.076 104.92C154.738 104.402 154.141 102.252 154.121 99.6948Z" fill="#F2B57A"/>
<path d="M165.167 182.495C164.49 181.38 163.415 181.848 163.176 182.495C162.281 184.893 160.569 186.455 157.902 189.162C157.902 188.714 157.305 187.819 157.106 188.366C156.061 191.252 152.13 191.252 152.528 189.61L150.14 191.352C146.706 193.392 141.312 194.875 141.681 195.93C142.526 198.318 152.18 196.348 154.12 195.382C154.916 194.984 155.165 196.467 155.762 196.477C159.265 196.507 159.554 195.044 158.847 192.844C160.728 192.874 162.39 192.645 163.774 191.949C164.918 191.372 164.52 189.909 164.918 188.416C165.197 187.361 166.709 188.436 167.356 188.764C169.496 189.859 170.242 186.674 169.396 186.674C167.376 186.674 166.013 183.888 165.167 182.495Z" fill="#FCA501"/>
<path fill-rule="evenodd" clip-rule="evenodd" d="M157.733 107.299C159.066 109.329 160.061 112.146 160.191 115.201L159.395 115.231C159.275 112.315 158.33 109.638 157.076 107.727C156.449 106.772 155.752 106.025 155.066 105.548C154.369 105.06 153.702 104.851 153.125 104.911L153.045 104.114C153.881 104.025 154.737 104.333 155.523 104.891C156.31 105.458 157.066 106.294 157.733 107.299Z" fill="#221B12"/>
<path d="M166.163 124.555C167.058 122.027 161.893 114.324 161.674 114.792C159.276 119.728 159.604 122.515 160.938 127.48C161.863 127.779 165.784 125.61 166.163 124.555Z" fill="#BB7A00"/>
<path d="M161.684 114.772L149.065 115.768C147.971 115.768 145.801 124.983 145.97 126.038C146.219 127.61 159.346 128.257 161.236 127.501C160.55 122.356 160.779 119.599 161.684 114.772Z" fill="#FCA501"/>
<path fill-rule="evenodd" clip-rule="evenodd" d="M141.71 67.601C142.078 67.5015 142.377 67.3223 142.606 66.8745L143.133 67.1432C142.815 67.7602 142.367 68.0488 141.859 68.1782C141.611 68.2479 141.352 68.2777 141.093 68.2976C140.974 68.3076 140.864 68.3175 140.755 68.3175C140.606 68.3275 140.466 68.3374 140.307 68.3474L140.257 67.7503C140.416 67.7403 140.586 67.7304 140.745 67.7204C140.854 67.7105 140.954 67.7105 141.053 67.7005C141.302 67.6806 141.511 67.6508 141.71 67.601ZM129.748 109.717C129.161 109.637 128.773 109.2 128.415 108.732L128.882 108.364C129.26 108.851 129.509 109.08 129.828 109.12C130.156 109.16 130.674 109.001 131.609 108.354L131.947 108.841C131.002 109.508 130.325 109.787 129.748 109.717Z" fill="#BC7439"/>
<path d="M153.125 104.522H153.025V104.92H153.125V104.522Z" fill="#221B12"/>
<path fill-rule="evenodd" clip-rule="evenodd" d="M98.8584 77.6326L105.029 74.6968L105.287 75.2342L99.1172 78.17L98.8584 77.6326ZM105.437 86.43C103.227 86.2011 100.759 87.0569 99.9631 89.5847C99.4555 91.2168 99.0575 92.6698 98.6793 94.0531C97.6742 97.7651 96.8382 100.85 94.3602 105.03L94.2507 105.209L94.0418 105.169C93.2954 105.02 92.8276 105.02 92.4495 105.09C92.0912 105.159 91.7926 105.299 91.3647 105.498C91.3349 105.508 91.3149 105.518 91.2851 105.537L91.0263 105C91.0562 104.98 91.096 104.97 91.1259 104.95C91.5339 104.761 91.8921 104.582 92.33 104.502C92.7679 104.413 93.2556 104.423 93.9422 104.542C96.2909 100.532 97.097 97.576 98.0822 93.9436C98.4604 92.5603 98.8584 91.0775 99.3859 89.4056C100.291 86.5096 103.128 85.594 105.486 85.8428C106.671 85.9622 107.785 86.3802 108.522 87.0171C109.278 87.664 109.666 88.5696 109.298 89.5946C108.203 92.6698 107.248 95.8046 106.352 98.7702C106.292 98.9494 106.243 99.1384 106.183 99.3176C105.347 102.084 104.551 104.692 103.755 106.961C102.899 109.369 102.023 111.399 101.048 112.812C100.082 114.215 98.9679 115.071 97.6144 114.962L91.1159 115.211L91.096 114.614L97.6344 114.365H97.6543C98.6793 114.454 99.6347 113.817 100.56 112.474C101.486 111.13 102.342 109.16 103.197 106.762C103.994 104.512 104.78 101.915 105.626 99.1384C105.675 98.9593 105.735 98.7802 105.795 98.5911C106.691 95.6255 107.656 92.4707 108.751 89.3857C109.009 88.6492 108.76 87.9924 108.143 87.455C107.526 86.9276 106.541 86.5494 105.437 86.43ZM97.2661 104.93C96.6392 104.831 96.2411 104.851 95.9624 105.03C95.9525 105.04 95.9425 105.04 95.9425 105.04C95.9425 105.05 95.9525 105.05 95.9525 105.06C96.0222 105.169 96.2112 105.338 96.5297 105.537C96.8283 105.736 97.2064 105.945 97.6045 106.174C97.6543 106.204 97.714 106.234 97.7637 106.264C98.112 106.463 98.4703 106.662 98.7987 106.861C99.0674 107.03 99.2465 107.339 99.1371 107.657C99.0276 107.976 98.6892 108.135 98.3011 108.135C97.903 108.135 97.3856 107.986 96.7387 107.627C96.0918 107.269 95.2857 106.682 94.3104 105.786L94.7185 105.348C95.6639 106.224 96.4302 106.771 97.0273 107.1C97.6344 107.428 98.0424 107.538 98.3011 107.538C98.4305 107.538 98.5002 107.518 98.54 107.488C98.5599 107.478 98.5698 107.468 98.5698 107.468C98.5698 107.468 98.5698 107.458 98.5599 107.448C98.5499 107.428 98.53 107.398 98.4803 107.369C98.1618 107.18 97.8135 106.98 97.4652 106.781C97.4154 106.752 97.3557 106.722 97.3059 106.692C96.9079 106.473 96.5197 106.244 96.2013 106.035C95.8928 105.836 95.6042 105.607 95.4549 105.378C95.3753 105.259 95.3156 105.1 95.3454 104.91C95.3852 104.731 95.5047 104.592 95.644 104.512C96.1217 104.214 96.7188 104.234 97.3557 104.333C97.6742 104.383 98.0125 104.453 98.3807 104.522L98.4206 104.532C98.8087 104.612 99.2266 104.692 99.6745 104.771L99.575 105.358C99.1072 105.279 98.6793 105.199 98.2912 105.119L98.2514 105.11C97.8931 105.04 97.5647 104.97 97.2661 104.93ZM84.5378 111.091C83.244 110.384 82.2488 109.638 81.0845 108.682L81.4626 108.224C82.6171 109.17 83.5724 109.886 84.8164 110.563C86.0703 111.25 87.6228 111.897 89.9715 112.693L89.7824 113.26C87.4238 112.464 85.8315 111.797 84.5378 111.091ZM107.696 115.748C106.372 116.922 105.148 117.579 104.501 117.918C103.904 118.236 103.426 118.455 103.038 118.604C102.66 118.744 102.352 118.823 102.113 118.823C101.993 118.823 101.864 118.803 101.754 118.744C101.635 118.674 101.545 118.574 101.516 118.435C101.486 118.316 101.496 118.196 101.526 118.097C101.555 117.997 101.595 117.888 101.655 117.788C101.874 117.39 102.312 116.902 102.829 116.445C103.347 115.987 103.974 115.539 104.571 115.24L104.839 115.778C104.302 116.047 103.715 116.455 103.227 116.892C102.73 117.33 102.352 117.768 102.182 118.077C102.152 118.136 102.133 118.186 102.113 118.216C102.242 118.216 102.471 118.166 102.829 118.027C103.187 117.898 103.645 117.679 104.222 117.37C105.058 116.932 106.86 115.957 108.561 114.006L109.049 114.335C108.91 114.604 108.78 114.872 108.651 115.131C108.044 116.355 107.517 117.41 106.949 118.186C106.253 119.132 105.456 119.709 104.322 119.629L104.362 119.032C105.208 119.092 105.835 118.694 106.462 117.828C106.88 117.301 107.268 116.594 107.696 115.748Z" fill="#392B25"/>
<path d="M217.514 158.929C209.015 152.808 207.691 148.121 210.527 146.419C216.419 143.613 228.162 155.127 227.655 163.079C227.396 167.179 227.117 168.045 227.077 175.757L225.804 175.797C226.062 172.901 227.316 165.995 217.514 158.929Z" fill="#2B604C"/>
<path d="M235.129 158.869C242.702 153.306 245.518 146.389 241.896 145.922C232.83 144.757 226.292 157.247 226.292 165.208C226.292 169.318 226.998 168.184 226.61 175.887H227.496C229.148 172.991 226.401 165.298 235.129 158.869Z" fill="#5CBC90"/>
<path d="M256.544 157.018C246.294 168.851 240.731 164.642 234.262 167.766C228.799 171.279 227.773 178.196 227.783 182.485C227.803 186.555 228.759 188.267 227.783 182.485C227.664 181.779 227.515 180.953 227.336 180.007C224.738 166.602 235.048 155.416 240.522 151.495C247.627 146.43 266.805 145.186 256.544 157.018Z" fill="#2B604C"/>
<path d="M197.938 164.014C209.691 172.821 213.592 167.318 220.001 168.681C225.614 170.682 228.132 177.091 229.117 181.251C229.615 187.082 230.053 185.182 229.117 181.251C229.057 180.534 228.998 179.698 228.938 178.743C228.092 165.119 216.439 156.958 210.716 154.57C203.302 151.475 186.175 155.207 197.938 164.014Z" fill="#5CBC90"/>
<path d="M238.601 173.239H217.364L221.375 195.183H233.735L238.601 173.239Z" fill="#FCA501"/>
<path fill-rule="evenodd" clip-rule="evenodd" d="M97.0072 181.011L93.3748 163.894L93.962 163.775L97.5944 180.892L97.0072 181.011ZM105.367 175.916L107.307 166.313L107.895 166.432L105.954 176.036L105.367 175.916ZM94.3302 189.888C94.5392 189.849 94.7979 189.819 95.0865 189.779C95.7334 189.699 96.5196 189.65 97.3555 189.6C99.0274 189.51 100.849 189.471 102.023 189.461V188.863C100.839 188.873 99.0075 188.913 97.3257 189.003C96.4897 189.053 95.6836 189.112 95.0169 189.182C94.37 189.262 93.8127 189.351 93.5042 189.48C93.4544 189.5 93.3748 189.54 93.3151 189.62C93.2355 189.719 93.2156 189.849 93.2653 189.968C93.3051 190.058 93.3748 190.117 93.4146 190.147C93.4644 190.187 93.5141 190.217 93.5639 190.237C93.7629 190.336 94.0913 190.436 94.4695 190.545C95.2457 190.754 96.3703 191.003 97.475 191.232C97.6043 191.262 97.7337 191.282 97.8531 191.312C98.8184 191.521 99.744 191.71 100.401 191.879C99.127 192.118 98.0721 192.237 97.0371 192.158C95.7831 192.068 94.5292 191.69 92.8971 190.884L92.6284 191.421C94.3003 192.257 95.6339 192.655 96.9873 192.755C98.3408 192.854 99.6843 192.645 101.386 192.287C101.436 192.277 101.505 192.257 101.565 192.217C101.625 192.177 101.764 192.068 101.724 191.869C101.695 191.73 101.595 191.66 101.565 191.64C101.525 191.61 101.466 191.58 101.426 191.56C101.247 191.481 100.938 191.391 100.56 191.302C99.8933 191.132 98.9478 190.933 97.9726 190.724C97.8432 190.695 97.7238 190.675 97.5944 190.645C96.4798 190.406 95.3751 190.167 94.6188 189.958C94.5093 189.938 94.4197 189.908 94.3302 189.888ZM93.7729 189.67C93.7629 189.67 93.7629 189.67 93.7729 189.67V189.67Z" fill="#1A4132"/>
<path fill-rule="evenodd" clip-rule="evenodd" d="M149.214 80.6981L155.285 76.2695L155.633 76.7472L149.562 81.1758L149.214 80.6981ZM157.743 82.1312C159.156 82.0117 160.41 82.9174 161.853 84.4101L161.425 84.8281C159.992 83.3353 158.907 82.6387 157.802 82.7283C156.678 82.8278 155.404 83.7334 153.613 85.8631L153.155 85.475C154.936 83.3552 156.349 82.2506 157.743 82.1312ZM157.086 92.7995L158.887 89.7343L159.405 90.0329L155.971 95.8547L155.434 95.596C156.22 93.5459 157.255 90.5603 157.822 88.2913C158.101 87.1469 158.26 86.2213 158.22 85.684C158.21 85.5546 158.191 85.465 158.171 85.4053C158.161 85.3755 158.151 85.3555 158.141 85.3555C158.121 85.3555 158.041 85.3556 157.832 85.4949C156.797 86.2015 155.941 87.7042 155.285 89.3661C154.638 91.0181 154.22 92.7597 154.031 93.8544L153.444 93.7549C153.633 92.6303 154.07 90.849 154.727 89.1472C155.384 87.4653 156.3 85.8034 157.494 84.9973C157.783 84.7982 158.121 84.6589 158.429 84.8281C158.579 84.9077 158.668 85.047 158.718 85.1764C158.778 85.3157 158.798 85.465 158.817 85.6342C158.867 86.2711 158.688 87.2862 158.409 88.4307C158.071 89.7742 157.583 91.3266 157.086 92.7995ZM152.03 91.8342H152.627V99.5867L154.17 99.308L154.279 99.8952L152.04 100.313V91.8342H152.03ZM146.885 105.916C145.144 106.125 144.298 106.016 142.944 105.657L143.094 105.08C144.387 105.418 145.154 105.518 146.816 105.319L146.885 105.916ZM146.398 151.406C145.681 147.913 144.984 143.703 144.566 140.887L145.154 140.797C145.572 143.604 146.258 147.803 146.975 151.286C147.333 153.028 147.701 154.58 148.04 155.675C148.209 156.232 148.368 156.65 148.517 156.929C148.587 157.068 148.647 157.158 148.696 157.198L148.706 157.208C148.736 157.208 148.756 157.198 148.776 157.168C148.816 157.128 148.856 157.048 148.896 156.909C148.975 156.63 149.015 156.193 149.015 155.645C149.015 154.849 148.935 153.864 148.846 152.799C148.816 152.391 148.776 151.973 148.746 151.555C148.637 150.062 148.567 148.53 148.756 147.365C148.846 146.788 149.005 146.261 149.274 145.873C149.552 145.474 149.95 145.226 150.488 145.216C150.906 145.206 151.244 145.355 151.483 145.634C151.712 145.902 151.841 146.271 151.911 146.679C152.05 147.485 151.991 148.589 151.931 149.774V149.833C151.871 151.018 151.801 152.311 151.891 153.575C151.981 154.849 152.229 156.063 152.797 157.068L152.279 157.367C151.652 156.252 151.383 154.939 151.294 153.625C151.204 152.331 151.274 151.008 151.334 149.823V149.754C151.403 148.54 151.453 147.515 151.324 146.788C151.264 146.43 151.165 146.181 151.035 146.032C150.916 145.892 150.757 145.813 150.498 145.813C150.179 145.823 149.95 145.952 149.771 146.211C149.582 146.49 149.443 146.908 149.353 147.455C149.184 148.54 149.244 150.013 149.353 151.505C149.383 151.913 149.413 152.321 149.453 152.719C149.542 153.784 149.622 154.809 149.632 155.635C149.632 156.203 149.602 156.7 149.493 157.078C149.443 157.267 149.353 157.447 149.234 157.576C149.105 157.715 148.935 157.795 148.726 157.805C148.527 157.825 148.378 157.715 148.288 157.616C148.189 157.506 148.089 157.367 148.01 157.198C147.841 156.869 147.662 156.402 147.492 155.844C147.124 154.73 146.756 153.157 146.398 151.406Z" fill="#643718"/>
<path fill-rule="evenodd" clip-rule="evenodd" d="M158.4 193.411C158.261 191.53 157.863 190.197 157.236 188.943L157.773 188.674C158.44 190.008 158.848 191.421 158.997 193.362L158.4 193.411Z" fill="#FFBA38"/>
<path d="M5.04199 34.959H60.0756V49.0906H5.04199V34.959Z" fill="#352B1F"/>
<path fill-rule="evenodd" clip-rule="evenodd" d="M142.696 57.5293C142.825 57.6388 142.955 57.7383 143.084 57.8378C142.666 58.3553 141.631 59.1912 141.82 58.4449C141.86 58.2259 142.228 57.6985 142.696 57.5293Z" fill="#221B12"/>
<path d="M4.94287 178.762H60.076V181.847H4.94287V178.762Z" fill="#352B1F"/>
<path d="M4.94287 184.933H60.076V188.018H4.94287V184.933Z" fill="#352B1F"/>
<path d="M214.568 162.76C213.861 160.461 213.603 159.217 214.09 156.929L202.486 155.476C202.039 156.889 202.029 158.461 203.014 160.551C204.736 176.683 205.96 183.639 206.965 188.814C209.522 191.919 211.483 191.611 214.578 190.456C213.891 179.828 217.145 173.2 214.568 162.76Z" fill="#7A431D"/>
<path d="M197.909 45.2092C195.938 45.866 195.63 46.2939 195.968 46.6024C197.66 48.1449 193.888 47.1995 193.58 47.7469C193.082 48.6425 195.918 54.9122 197.71 53.0213L211.941 67.2027C215.732 69.0836 219.355 60.5847 219.206 57.8977C220.44 56.0168 220.012 55.5192 218.33 53.5985L218.31 53.5687C222.181 46.4631 207.164 42.1241 197.909 45.2092Z" fill="#2B65EC"/>
<path d="M218.957 140.298C220.35 136.915 219.803 128.456 218.658 126.416L200.197 127.311C199.272 136.855 199.252 149.952 200.496 154.878C202.486 156.868 209.602 158.082 213.533 157.465C218.31 156.719 218.708 154.33 217.912 152.838C217.434 151.942 218.389 144.11 218.957 140.298Z" fill="white"/>
<path d="M208.806 54.3151C208.477 52.0461 203.869 52.7328 197.759 53.0214C197.361 53.0214 196.445 57.838 197.261 59.1915C199.023 62.1273 192.485 62.9234 197.013 65.909C196.236 66.8942 197.56 67.8595 197.46 68.1979C197.202 69.0737 197.182 69.8897 197.46 70.7356C197.878 72.0293 201.143 74.4178 204.128 72.5269C206.049 73.1838 206.676 73.9899 206.915 76.3086L211.99 73.3231C210.806 71.9298 210.796 71.1536 210.935 69.7703C211.99 69.1533 212.12 68.3969 211.891 66.6554C218.658 64.9138 212.637 56.9026 211.244 61.9282C210.179 60.1568 208.129 56.4747 208.407 55.9572C208.756 55.3103 208.407 55.2605 207.462 54.8625C206.706 54.544 208.039 54.3649 208.806 54.3151Z" fill="#7A431D"/>
<path d="M204.875 78.1996C204.795 77.0054 209.98 73.9004 212.687 72.4773C213.135 72.2384 214.21 73.5819 213.782 74.3184C220.111 80.797 221.992 86.7084 219.952 91.7341C221.673 96.909 219.056 110.991 219.703 117.211C220.25 117.907 220.897 118.952 220.4 119.251C219.604 119.729 222.042 120.395 221.196 124.127C219.056 129.8 206.169 131.392 200.148 128.257C197.172 126.705 198.177 124.107 198.754 123.431C197.749 122.057 197.998 121.351 199.003 120.146L199.202 111.687L194.077 111.09C192.495 110.772 192.763 108.463 192.684 105.368C191.589 104.423 190.345 104.293 190.047 103.179C189.818 102.333 190.614 98.3222 192.117 96.71C192.883 95.8939 196.058 96.1626 197.013 95.1177C200.745 91.0374 204.954 79.3938 204.875 78.1996Z" fill="#221B12"/>
<path d="M200.596 60.1368C200.596 60.6841 200.347 61.132 200.048 61.132C199.75 61.132 199.501 60.6841 199.501 60.1368C199.501 59.5894 199.75 59.1416 200.048 59.1416C200.347 59.1416 200.596 59.5894 200.596 60.1368Z" fill="#221B12"/>
<path d="M198.506 65.4113C198.506 65.5805 198.287 65.7099 198.008 65.7099C197.73 65.7099 197.511 65.5805 197.511 65.4113C197.511 65.2422 197.73 65.1128 198.008 65.1128C198.287 65.1128 198.506 65.2422 198.506 65.4113Z" fill="#4C2910"/>
<path fill-rule="evenodd" clip-rule="evenodd" d="M212.647 61.9676C212.508 62.0074 212.329 62.087 212.09 62.2363L211.782 61.7287C212.03 61.5794 212.269 61.4501 212.488 61.3904C212.717 61.3306 212.956 61.3307 213.175 61.4302C213.394 61.5297 213.553 61.7188 213.682 61.9477C213.812 62.1765 213.941 62.4751 214.061 62.8334L213.493 63.0225C213.384 62.6841 213.274 62.4353 213.175 62.2562C213.075 62.077 212.986 62.0074 212.916 61.9775C212.866 61.9377 212.787 61.9278 212.647 61.9676ZM211.533 65.4905C211.413 65.3412 211.314 65.1521 211.214 64.9233L211.772 64.7043C211.851 64.9133 211.931 65.0327 211.991 65.1123C212.05 65.182 212.08 65.182 212.09 65.182C212.12 65.182 212.18 65.182 212.299 65.1123C212.418 65.0427 212.558 64.9432 212.747 64.7839L213.135 65.2417C212.946 65.4009 212.757 65.5403 212.588 65.6298C212.418 65.7194 212.229 65.7891 212.04 65.7692C211.821 65.7592 211.662 65.6497 211.533 65.4905ZM199.073 68.9338C198.546 69.0234 197.998 68.8841 197.282 68.685L197.441 68.1078C198.177 68.3168 198.605 68.4064 198.974 68.3467C199.332 68.287 199.68 68.078 200.247 67.5406L200.655 67.9685C200.068 68.5258 199.61 68.8443 199.073 68.9338ZM207.88 71.5512C206.696 72.1881 205.85 72.6558 204.268 73.1136L204.099 72.5364C205.611 72.0985 206.408 71.6706 207.572 71.0337C207.94 70.8346 208.348 70.6157 208.826 70.3669L209.105 70.8943C208.637 71.1332 208.239 71.3521 207.88 71.5512ZM204.885 158.898C204.875 158.112 204.984 157.406 205.084 156.988L205.661 157.137C205.572 157.505 205.462 158.152 205.472 158.888C205.482 159.625 205.601 160.431 205.93 161.108C205.99 161.237 206.039 161.426 206.089 161.635C206.139 161.854 206.189 162.143 206.238 162.471C206.338 163.128 206.437 163.994 206.537 165.009C206.736 167.049 206.945 169.706 207.144 172.582C207.542 178.344 207.91 184.992 208.149 189.281L207.552 189.311C207.323 185.022 206.955 178.374 206.557 172.622C206.358 169.746 206.149 167.089 205.95 165.058C205.85 164.043 205.751 163.188 205.651 162.551C205.601 162.232 205.552 161.963 205.512 161.754C205.462 161.536 205.422 161.416 205.402 161.356C205.014 160.59 204.885 159.694 204.885 158.898Z" fill="#4C2910"/>
<path d="M214.578 190.058C211.185 190.028 209.761 189.7 207.562 188.914C207.512 188.535 206.816 187.869 206.517 188.018C205.89 188.327 201.153 191.113 197.71 191.601C196.516 191.77 195.918 194.487 197.809 194.337C197.212 196.427 199.103 196.427 204.577 196.427C207.612 196.427 213.463 196.626 214.578 196.427C215.872 196.129 215.404 195.104 215.125 194.586C216.22 193.939 215.772 190.068 214.578 190.058Z" fill="#2B604C"/>
<path fill-rule="evenodd" clip-rule="evenodd" d="M206.855 189.391C207.184 189.162 207.393 188.953 207.512 188.764L208.03 189.062C207.85 189.361 207.562 189.629 207.204 189.878C206.845 190.127 206.407 190.376 205.93 190.615C205.024 191.063 203.939 191.51 202.875 191.938C202.805 191.968 202.735 191.998 202.666 192.018C201.531 192.476 200.446 192.924 199.64 193.371C199.232 193.59 198.914 193.799 198.685 193.998C198.456 194.207 198.366 194.357 198.356 194.466L197.759 194.396C197.799 194.068 198.018 193.789 198.287 193.551C198.565 193.312 198.934 193.073 199.352 192.844C200.197 192.386 201.312 191.928 202.437 191.471C202.506 191.441 202.566 191.421 202.636 191.391C203.701 190.953 204.775 190.525 205.651 190.077C206.129 189.848 206.527 189.62 206.855 189.391Z" fill="#1A4132"/>
<path fill-rule="evenodd" clip-rule="evenodd" d="M206.647 77.8609C208.697 76.4179 209.99 75.7412 212.608 74.9849L212.777 75.5621C210.219 76.3085 208.995 76.9454 206.995 78.3585L206.647 77.8609ZM203.193 95.3961C205.363 92.3508 206.696 90.9774 209.224 89.0567L209.582 89.5344C207.104 91.4054 205.811 92.7389 203.671 95.7344L203.193 95.3961ZM209.393 103.109C210.826 101.248 212.439 99.1678 214.459 96.9585L214.897 97.3665C212.886 99.5559 211.304 101.606 209.871 103.467C209.742 103.636 209.602 103.815 209.473 103.984C210.16 103.606 210.936 103.208 211.682 102.89C212.319 102.611 212.936 102.372 213.464 102.233C213.722 102.163 213.981 102.123 214.2 102.114C214.419 102.104 214.638 102.133 214.817 102.233C214.926 102.293 215.026 102.392 215.066 102.532C215.106 102.661 215.086 102.79 215.046 102.89C214.976 103.079 214.817 103.278 214.628 103.467C214.25 103.855 213.643 104.323 212.936 104.801C211.722 105.627 210.199 106.542 208.995 107.219C209.712 107.507 210.518 107.896 211.065 108.284C211.244 108.413 211.404 108.542 211.533 108.682C211.652 108.821 211.762 108.98 211.802 109.169C211.841 109.378 211.772 109.577 211.612 109.727C211.473 109.866 211.264 109.966 211.025 110.045C210.219 110.294 209.712 110.841 209.393 111.448C209.075 112.055 208.955 112.702 208.945 113.1L208.348 113.09C208.358 112.613 208.488 111.866 208.866 111.17C209.244 110.463 209.861 109.786 210.856 109.478C211.055 109.418 211.155 109.348 211.204 109.309C211.224 109.279 211.224 109.279 211.224 109.279C211.224 109.259 211.195 109.189 211.105 109.1C211.015 109.01 210.896 108.901 210.737 108.791C210.09 108.333 209.015 107.866 208.209 107.567L207.592 107.338L208.169 107.02C209.423 106.333 211.234 105.278 212.608 104.323C213.304 103.845 213.872 103.407 214.21 103.059C214.349 102.91 214.429 102.8 214.469 102.731C214.419 102.711 214.339 102.711 214.22 102.711C214.061 102.721 213.852 102.75 213.613 102.81C213.135 102.93 212.548 103.158 211.921 103.427C210.697 103.975 209.373 104.701 208.508 105.218C205.85 108.572 203.452 111.09 199.372 112.035L199.232 111.458C203.124 110.563 205.413 108.174 208.07 104.81C208.498 104.263 208.935 103.696 209.393 103.109ZM193.799 103.258C194.276 102.78 194.814 102.472 195.52 102.203L195.729 102.76C195.073 103.009 194.615 103.278 194.227 103.676C193.829 104.084 193.48 104.641 193.062 105.497L192.525 105.238C192.943 104.353 193.331 103.736 193.799 103.258ZM217.404 121.868C213.961 122.983 211.981 123.142 208.428 122.823L208.478 122.226C211.951 122.545 213.852 122.385 217.215 121.291L217.404 121.868Z" fill="#352B1F"/>
<path fill-rule="evenodd" clip-rule="evenodd" d="M214.02 130.646C215.513 130.428 216.936 130.01 217.981 129.263L218.329 129.751C217.165 130.587 215.632 131.015 214.1 131.244C212.567 131.472 211.015 131.502 209.791 131.502V130.905C211.015 130.895 212.537 130.865 214.02 130.646ZM202.436 155.994L201.143 140.419L201.74 140.369L203.033 155.944L202.436 155.994Z" fill="#C4C4C4"/>
<path d="M44.9482 166.621H69.8278L65.9963 198.367C65.9963 199.761 48.0831 199.81 48.0831 198.367L44.9482 166.621Z" fill="white"/>
<path d="M198.256 57.5503C198.535 56.4556 202.287 57.8886 201.043 57.7493C199.251 57.5503 198.077 58.2469 198.256 57.5503Z" fill="#221B12"/>
<path fill-rule="evenodd" clip-rule="evenodd" d="M69.829 166.621L65.9976 198.367C65.9976 199.741 48.6018 199.81 48.0942 198.427L69.829 166.621Z" fill="#C4C4C4"/>
<path d="M53.1099 169.707C53.1099 169.159 53.5577 168.711 54.105 168.711H60.6732C61.2206 168.711 61.6684 169.159 61.6684 169.707V171.1C61.6684 171.647 61.2206 172.095 60.6732 172.095H54.105C53.5577 172.095 53.1099 171.647 53.1099 171.1V169.707Z" fill="#C4C4C4"/>
<path d="M54.9109 169.687V171.1H54.6223V169.687H54.9109ZM55.3487 169.687V169.916H54.1943V169.687H55.3487Z" fill="white"/>
<path d="M55.5078 169.687H56.0353C56.1447 169.687 56.2343 169.707 56.3139 169.737C56.3935 169.767 56.4532 169.816 56.493 169.876C56.5329 169.936 56.5528 170.015 56.5528 170.115C56.5528 170.195 56.5428 170.254 56.5129 170.314C56.4831 170.364 56.4532 170.413 56.4035 170.453C56.3537 170.493 56.304 170.513 56.2442 170.543L56.1547 170.593H55.6969V170.364H56.0353C56.085 170.364 56.1248 170.354 56.1646 170.334C56.1945 170.314 56.2243 170.294 56.2442 170.254C56.2642 170.224 56.2741 170.185 56.2741 170.145C56.2741 170.105 56.2642 170.055 56.2442 170.025C56.2243 169.996 56.2044 169.966 56.1646 169.946C56.1348 169.926 56.085 169.916 56.0353 169.916H55.7964V171.1H55.5078V169.687ZM56.304 171.1L55.9855 170.473H56.294L56.6224 171.09V171.1H56.304Z" fill="white"/>
<path d="M57.3592 169.926L56.9711 171.1H56.6626L57.19 169.687H57.3891L57.3592 169.926ZM57.6777 171.1L57.2896 169.926L57.2597 169.687H57.4587L57.9862 171.1H57.6777ZM57.6677 170.573V170.802H56.9213V170.573H57.6677Z" fill="white"/>
<path d="M58.8616 170.732C58.8616 170.712 58.8616 170.682 58.8516 170.662C58.8417 170.642 58.8317 170.622 58.8118 170.602C58.7919 170.582 58.7621 170.562 58.7322 170.553C58.6924 170.533 58.6526 170.523 58.5929 170.503C58.5332 170.483 58.4635 170.463 58.4137 170.433C58.354 170.403 58.3043 170.373 58.2645 170.344C58.2247 170.304 58.1849 170.264 58.1649 170.224C58.145 170.174 58.1251 170.125 58.1251 170.065C58.1251 170.005 58.1351 169.955 58.1649 169.906C58.1948 169.856 58.2247 169.816 58.2744 169.786C58.3242 169.756 58.3739 169.727 58.4436 169.707C58.5033 169.687 58.5829 169.677 58.6526 169.677C58.7521 169.677 58.8516 169.697 58.9213 169.736C59.0009 169.776 59.0606 169.826 59.1004 169.896C59.1402 169.965 59.1701 170.035 59.1701 170.115H58.8815C58.8815 170.075 58.8715 170.035 58.8516 170.005C58.8317 169.975 58.8118 169.945 58.772 169.926C58.7422 169.906 58.6924 169.896 58.6426 169.896C58.5929 169.896 58.5531 169.906 58.5133 169.916C58.4834 169.926 58.4536 169.945 58.4336 169.975C58.4137 170.005 58.4038 170.025 58.4038 170.065C58.4038 170.085 58.4137 170.115 58.4237 170.135C58.4337 170.154 58.4536 170.174 58.4735 170.184C58.4934 170.204 58.5232 170.214 58.563 170.234C58.6028 170.244 58.6426 170.264 58.6824 170.274C58.7621 170.294 58.8317 170.324 58.8815 170.353C58.9412 170.383 58.991 170.413 59.0308 170.453C59.0706 170.493 59.1004 170.533 59.1203 170.572C59.1402 170.622 59.1502 170.672 59.1502 170.732C59.1502 170.791 59.1402 170.851 59.1104 170.901C59.0905 170.951 59.0507 170.99 59.0109 171.02C58.9611 171.05 58.9113 171.08 58.8516 171.1C58.7919 171.12 58.7222 171.13 58.6426 171.13C58.573 171.13 58.5033 171.12 58.4336 171.1C58.364 171.08 58.3043 171.05 58.2446 171.02C58.1849 170.98 58.145 170.931 58.1152 170.881C58.0853 170.821 58.0654 170.752 58.0654 170.672H58.354C58.354 170.712 58.364 170.752 58.3739 170.781C58.3839 170.811 58.4038 170.841 58.4336 170.851C58.4635 170.871 58.4934 170.881 58.5232 170.891C58.563 170.901 58.5929 170.901 58.6426 170.901C58.6924 170.901 58.7322 170.891 58.7621 170.881C58.7919 170.871 58.8218 170.851 58.8317 170.821C58.8516 170.791 58.8616 170.762 58.8616 170.732Z" fill="white"/>
<path d="M60.2945 170.264V170.493H59.5581V170.264H60.2945ZM59.6377 169.687V171.1H59.3491V169.687H59.6377ZM60.5035 169.687V171.1H60.2149V169.687H60.5035Z" fill="white"/>
</svg>
