<svg width="24" height="24" viewBox="0 0 24 24" fill="none" xmlns="http://www.w3.org/2000/svg">
<path d="M13.8674 5.58888C13.8675 5.83416 13.8193 6.07706 13.7255 6.3037C13.6317 6.53034 13.4942 6.73629 13.3208 6.90979C13.1474 7.08329 12.9415 7.22093 12.715 7.31487C12.4884 7.40881 12.2455 7.4572 12.0002 7.45728C11.755 7.45736 11.5121 7.40912 11.2854 7.31533C11.0588 7.22154 10.8528 7.08402 10.6793 6.91064C10.5058 6.73725 10.3682 6.53139 10.2742 6.30481C10.1803 6.07823 10.1319 5.83536 10.1318 5.59008C10.1317 5.09471 10.3283 4.61956 10.6785 4.26917C11.0286 3.91878 11.5037 3.72184 11.999 3.72168C12.4944 3.72152 12.9696 3.91815 13.3199 4.26832C13.6703 4.61849 13.8673 5.09351 13.8674 5.58888Z" fill="#A7A9B7"/>
<path d="M12 13.8662C13.0312 13.8662 13.8672 13.0303 13.8672 11.999C13.8672 10.9678 13.0312 10.1318 12 10.1318C10.9688 10.1318 10.1328 10.9678 10.1328 11.999C10.1328 13.0303 10.9688 13.8662 12 13.8662Z" fill="#A7A9B7"/>
<path d="M12 20.2779C13.0312 20.2779 13.8672 19.4419 13.8672 18.4107C13.8672 17.3794 13.0312 16.5435 12 16.5435C10.9688 16.5435 10.1328 17.3794 10.1328 18.4107C10.1328 19.4419 10.9688 20.2779 12 20.2779Z" fill="#A7A9B7"/>
</svg>
