<svg width="390" height="390" viewBox="0 0 390 390" fill="none" xmlns="http://www.w3.org/2000/svg">
<path d="M324.776 368.285C345.781 368.285 362.809 358.454 362.809 346.328C362.809 334.201 345.781 324.371 324.776 324.371C303.771 324.371 286.743 334.201 286.743 346.328C286.743 358.454 303.771 368.285 324.776 368.285Z" fill="#EBEBEB"/>
<path d="M81.7282 229.46C101.704 229.46 117.897 220.112 117.897 208.58C117.897 197.048 101.704 187.699 81.7282 187.699C61.7528 187.699 45.5596 197.048 45.5596 208.58C45.5596 220.112 61.7528 229.46 81.7282 229.46Z" fill="#EBEBEB"/>
<path d="M138.801 262.696C158.776 262.696 174.97 253.348 174.97 241.816C174.97 230.284 158.776 220.935 138.801 220.935C118.826 220.935 102.632 230.284 102.632 241.816C102.632 253.348 118.826 262.696 138.801 262.696Z" fill="#EBEBEB"/>
<path d="M196.599 296.478C216.574 296.478 232.767 287.129 232.767 275.597C232.767 264.065 216.574 254.717 196.599 254.717C176.623 254.717 160.43 264.065 160.43 275.597C160.43 287.129 176.623 296.478 196.599 296.478Z" fill="#EBEBEB"/>
<path d="M255.364 329.909C275.339 329.909 291.533 320.56 291.533 309.028C291.533 297.496 275.339 288.148 255.364 288.148C235.389 288.148 219.195 297.496 219.195 309.028C219.195 320.56 235.389 329.909 255.364 329.909Z" fill="#EBEBEB"/>
<path d="M292.68 44.9203L299.645 48.9451C299.645 48.6331 299.59 48.3211 299.59 48.0247V46.0201C299.59 42.4243 302.11 40.9657 305.222 42.7597C306.565 43.5905 307.712 44.7029 308.584 46.0201C309.091 41.4961 312.64 39.7801 316.945 42.2995C321.625 44.9905 325.377 51.5268 325.377 56.901V59.9275C325.406 61.1333 325.164 62.3303 324.667 63.4297L330.455 66.7681C331.363 67.3628 332.118 68.1626 332.66 69.1029C333.202 70.0431 333.515 71.0976 333.575 72.1813C333.575 74.1781 332.171 74.9893 330.455 73.9909L292.68 52.1509C291.769 51.5588 291.012 50.7597 290.47 49.8189C289.927 48.878 289.616 47.8222 289.56 46.7377C289.552 44.7331 290.94 43.9219 292.68 44.9203Z" fill="#EBEBEB"/>
<path d="M262.86 65.2313L268.117 68.2733C268.117 68.0315 268.078 67.8053 268.078 67.5713V66.0503C268.078 63.3359 269.981 62.2361 272.329 63.5933C273.341 64.2134 274.207 65.0465 274.864 66.0347C275.246 62.6183 277.922 61.3547 281.174 63.2267C284.692 65.2547 287.539 70.1921 287.539 74.2481V76.5257C287.562 77.4365 287.378 78.3407 287.001 79.1699L291.369 81.6971C292.052 82.146 292.619 82.7492 293.025 83.4578C293.432 84.1664 293.666 84.9607 293.709 85.7765C293.709 87.2819 292.648 87.8981 291.369 87.1415L262.86 70.6835C262.177 70.2329 261.61 69.6284 261.203 68.9185C260.797 68.2086 260.563 67.4132 260.52 66.5963C260.52 65.0909 261.542 64.4825 262.86 65.2313Z" fill="#EBEBEB"/>
<path d="M338.559 335.883C340.447 333.653 345.532 331.632 351.897 331.203C358.262 330.774 364.713 330.002 363.808 326.211C362.833 322.124 357.123 321.11 351.172 322.6C344.674 324.222 339.238 329.799 338.59 333.699L338.559 335.883Z" fill="#37474F"/>
<path d="M338.645 334.526C338.729 334.538 338.814 334.526 338.891 334.491C338.968 334.457 339.034 334.401 339.082 334.331C345.213 325.26 356.39 325.26 359.767 326.274C359.824 326.292 359.883 326.298 359.942 326.293C360.001 326.288 360.058 326.271 360.11 326.244C360.163 326.216 360.209 326.178 360.247 326.133C360.284 326.087 360.312 326.034 360.329 325.977C360.363 325.864 360.351 325.741 360.296 325.636C360.24 325.531 360.146 325.452 360.033 325.416C356.46 324.332 344.76 324.316 338.333 333.84C338.269 333.94 338.247 334.061 338.27 334.177C338.293 334.293 338.361 334.396 338.458 334.464C338.515 334.497 338.579 334.518 338.645 334.526Z" fill="white"/>
<path d="M338.559 335.883C338.559 335.883 343.2 324.62 351.585 319.418C354.073 317.858 356.78 315.876 358.667 314.504C362.716 311.555 361.787 307.577 356.85 306.93C349.518 305.978 343.278 311.368 339.799 319.09C336.32 326.812 338.559 335.883 338.559 335.883Z" fill="#455A64"/>
<path d="M338.629 330.525C338.737 330.542 338.848 330.517 338.939 330.457C339.03 330.396 339.095 330.304 339.121 330.197C342.42 316.399 354.12 310.908 357.131 310.58C357.188 310.574 357.244 310.557 357.295 310.53C357.346 310.502 357.391 310.465 357.427 310.42C357.463 310.375 357.49 310.323 357.506 310.268C357.522 310.212 357.527 310.154 357.521 310.097C357.507 309.982 357.449 309.877 357.358 309.806C357.267 309.734 357.152 309.701 357.037 309.715C353.387 310.105 341.663 315.861 338.27 329.995C338.256 330.05 338.254 330.108 338.262 330.165C338.271 330.222 338.29 330.277 338.32 330.326C338.35 330.375 338.389 330.418 338.435 330.453C338.482 330.487 338.534 330.511 338.59 330.525H338.629Z" fill="white"/>
<path d="M340.961 201.24C344.698 200.359 347.123 203.51 349.541 209.383C351.959 215.257 356.242 229.562 357.24 233.485C357.692 235.24 346.562 250.973 347.038 250.739C347.186 250.669 342.693 243.157 342.693 243.157L348.153 232.705L344.253 223.205L340.961 201.24Z" fill="#FFA8A7"/>
<path d="M346.273 333.84C346.78 334.035 346.905 334.994 346.983 336.913C347.038 338.372 347.35 340.907 345.649 341.414C343.949 341.921 341.46 341.655 340.368 340.29C339.003 338.582 338.083 337.077 336.149 334.994C334.464 333.185 332.639 331.492 331.96 328.957C331.344 326.664 331.859 325.673 333.419 325.002C335.571 324.09 338.949 327.085 340.634 327.553C342.084 327.92 345.766 333.606 346.273 333.84Z" fill="#263238"/>
<path d="M346.273 330.72V334.402C345.389 334.969 344.367 335.285 343.317 335.314C342.266 335.343 341.228 335.084 340.314 334.565C340.213 334.339 339.917 330.72 339.917 330.72H346.273Z" fill="#FFA8A7"/>
<path d="M328.739 346.32C328.739 346.32 329.409 348.363 329.776 350.157C330.065 351.585 330.478 353.964 329.979 355.032C329.48 356.101 327.537 356.795 324.519 356.772C322.569 356.772 319.519 358.09 317.436 359.252C315.354 360.414 312.944 360.461 310.666 360.188C307.983 359.876 305.206 358.316 304.769 357.209C304.332 356.101 304.894 355.563 311.22 352.864C311.274 352.864 317.889 349.853 320.946 346.476L328.739 346.32Z" fill="#263238"/>
<path d="M328.739 343.777C328.739 343.777 328.739 345.524 328.739 346.523C328.739 347.521 327.561 349.011 324.511 348.902C322.366 348.824 320.861 348.247 320.947 346.484V343.933L328.739 343.777Z" fill="#FFA8A7"/>
<path d="M350.22 303.49C350.025 295.69 348.426 292.305 348.426 292.305C348.426 292.305 349.019 282.703 350.314 270.956C352.279 253.055 351.375 249.592 347.841 241.535C347.841 241.535 317.718 238.485 316.805 251.004C315.658 266.604 315.518 294.239 315.939 299.746C316.36 305.253 316.345 304.231 317.679 315.346C318.739 324.16 320.923 343.902 320.923 343.902C322.136 344.518 323.483 344.827 324.843 344.8C326.203 344.772 327.536 344.41 328.723 343.746C328.723 343.746 331.18 318.677 330.923 312.327C330.611 304.566 330.143 302.593 330.143 302.593C330.143 302.593 333.669 279.669 334.215 275.621C334.215 275.621 334.706 282.859 335.119 288.366C335.533 293.873 335.494 296.119 336.679 307.507C337.592 316.438 339.799 331.687 339.799 331.687C340.859 332.118 342.003 332.298 343.144 332.214C344.284 332.13 345.39 331.784 346.375 331.203C346.375 331.203 350.407 309.777 350.22 303.49Z" fill="#2B65EC"/>
<path d="M325.533 197.184L326.945 208.822L337.179 207.901L336.009 194.977L325.533 197.184Z" fill="#FFA8A7"/>
<path d="M347.162 206.864C346.039 203.806 343.458 200.624 339.526 201.326C338.497 201.521 337.6 201.669 336.632 201.864C336.547 204.539 331.492 205.928 326.453 204.305C324.94 204.742 323.552 205.179 322.296 205.631C318.693 206.918 317.249 212.901 317.164 222.908C317.078 232.916 316.025 257.883 316.025 257.883L320.237 259.209L322.202 251.901L322.982 260.652C327.768 261.768 332.748 261.744 337.522 260.582C348.348 258.242 351.71 252.377 351.71 252.377C349.925 245.314 347.021 238.583 343.107 232.44C348.535 218.033 348.832 211.38 347.162 206.864Z" fill="url(#paint0_linear_41_6135)"/>
<path d="M317.928 182.395C317.315 181.005 317.065 179.482 317.201 177.969C317.338 176.456 317.856 175.003 318.708 173.745C322.14 168.355 328.762 167.435 336.648 169.533C339.387 170.374 341.8 172.039 343.557 174.302C345.315 176.565 346.331 179.315 346.468 182.177C346.843 187.933 330.79 192.176 331.157 196.115L317.928 182.395Z" fill="black"/>
<path d="M317.585 184.587C317.585 184.587 315.401 188.074 315.713 188.432C316.252 188.767 316.846 189.004 317.468 189.134L317.585 184.587Z" fill="#F28F8F"/>
<path d="M324.223 173.519C322.046 174.72 318.295 176.935 317.53 185.086C316.75 193.456 318.685 196.31 319.87 197.371C320.65 198.089 324.628 198.253 326.672 197.551C329.238 196.677 334.768 193.76 337.28 189.384C340.228 184.228 340.688 177.458 337.046 174.907C331.913 171.319 326.04 172.505 324.223 173.519Z" fill="#FFA8A7"/>
<path d="M324.215 174.509C322.943 177.572 322.154 180.814 321.875 184.119C320.872 184.129 319.875 183.968 318.926 183.643C318.926 183.643 318.887 180.133 319.831 178.136C318.925 179.745 318.342 181.515 318.115 183.347C317.105 183.264 316.138 182.902 315.323 182.301C314.543 178.55 316.883 170.812 323.552 169.58L324.215 174.509Z" fill="black"/>
<path d="M323.583 173.885C323.583 173.885 321.867 181.553 324.301 186.303C324.301 186.303 325.564 183.292 328.146 184.08C330.728 184.868 330.595 188.3 328.622 190.109C328.117 190.624 327.478 190.986 326.777 191.154C326.077 191.323 325.343 191.29 324.659 191.061C325.529 193.227 326.829 195.193 328.481 196.841C328.481 196.841 336.11 200.241 342.716 192.785C348.715 186.022 347.599 174.221 338.419 171.444C329.238 168.667 323.583 173.885 323.583 173.885Z" fill="black"/>
<path d="M348.98 191.162C350.79 193.081 350.447 196.342 348.2 198.448C345.954 200.554 342.693 200.71 340.884 198.799C339.074 196.888 339.417 193.612 341.664 191.506C343.91 189.4 347.163 189.244 348.98 191.162Z" fill="black"/>
<path d="M345.844 187.808C345.391 187.955 345.014 188.275 344.796 188.699C344.578 189.123 344.537 189.616 344.682 190.07L348.106 188.971C347.959 188.517 347.639 188.14 347.215 187.922C346.791 187.704 346.298 187.664 345.844 187.808Z" fill="black"/>
<path d="M296.4 224.063C294.911 222.37 294.669 218.603 292.687 216.044C290.706 213.486 291.065 210.865 289.825 212.02C288.585 213.174 289.513 217.409 289.513 217.409C289.513 217.409 287.212 221.684 287.009 223.868C286.806 226.052 292.61 231.551 292.61 231.551L296.4 224.063Z" fill="#FFA8A7"/>
<path d="M289.825 217.113C289.825 217.113 287.485 220.389 276.923 216.107C274.006 214.929 275.972 221.2 279.552 223.797C282.859 226.2 287.001 226.917 290.316 229.187C290.324 228.867 289.825 217.113 289.825 217.113Z" fill="#FFA8A7"/>
<path d="M323.193 205.319C320.182 206.365 317.554 207.581 314.746 212.854C311.134 219.64 304.606 232.916 304.606 232.916L296.4 224.063C296.4 224.063 295.207 222.386 292.992 226.044C290.776 229.702 291.759 230.724 291.759 230.724C291.759 230.724 301.275 243.461 303.015 245.084C304.754 246.706 307.632 245.443 309.504 242.9C311.376 240.357 321.056 222.815 321.056 222.815C321.056 222.815 327.444 211.731 323.193 205.319Z" fill="#FFA8A7"/>
<path opacity="0.2" d="M334.253 275.652L334.823 269.568C338.09 269.079 341.213 267.893 343.98 266.089C343.98 266.089 342.022 269.209 336.656 270.652L335.439 276.58L335.127 288.397L334.253 275.652Z" fill="black"/>
<path d="M317.031 229.819C317.031 229.819 320.814 223.197 321.056 222.799L316.727 239.592L317.031 229.819Z" fill="#2B65EC"/>
<path d="M272.142 190.094C273.249 191.256 275.878 192.153 292.897 193.393C295.375 193.634 297.875 193.306 300.206 192.434C302.503 191.528 304.475 189.955 305.869 187.917C306.197 187.469 306.44 186.964 306.586 186.428C306.719 185.898 306.638 185.338 306.36 184.868C306.026 184.425 305.545 184.115 305.003 183.994C303.931 183.751 302.809 183.871 301.813 184.337C300.253 184.946 299.036 185.156 299.153 184.836C299.27 184.517 300.222 184.228 301.197 183.128C302.172 182.028 302.421 180.484 301.789 180.008C301.158 179.532 301.267 179.634 300.144 180.57C299.02 181.506 297.726 181.982 296.244 183.417C295.307 184.484 294.123 185.306 292.796 185.811C291.088 186.49 289.473 186.287 284.731 185.531C280.636 184.875 279.06 184.641 277.095 183.549C274.981 180.336 269.88 166.756 267.664 163.035C265.324 159.096 260.566 158.979 260.566 158.979C260.609 163.829 261.42 168.642 262.969 173.238C264.607 177.84 271.042 188.947 272.142 190.094Z" fill="#B16668"/>
<path d="M259.28 158.535C261.24 158.209 263.252 158.564 264.982 159.541C267.563 161.163 269.248 164.166 270.878 167.926C272.875 172.497 275.278 178.612 275.278 178.612C272.957 180.869 269.924 182.248 266.698 182.512L259.015 169.743L259.28 158.535Z" fill="url(#paint1_linear_41_6135)"/>
<path d="M241.114 305.003H247.744V293.654H241.114V305.003Z" fill="#B16668"/>
<path d="M259.459 296.509L266.089 296.735L266.417 284.731L259.459 284.497V296.509Z" fill="#B16668"/>
<path d="M238.29 208.907C238.29 215.241 239.413 252.065 239.413 252.065C239.257 253.882 237.502 257.119 237.369 263.687C237.167 273.203 240.833 299.325 240.833 299.325C241.977 299.888 243.231 300.193 244.506 300.218C245.78 300.244 247.045 299.989 248.211 299.473C248.211 299.473 251.222 264.053 252.408 254.639C253.445 246.418 255.2 224.086 255.2 224.086L258.32 250.918C257.551 254.375 257.273 257.922 257.493 261.456C257.805 265.816 259.053 292.789 259.053 292.789C260.209 293.443 261.494 293.834 262.818 293.935C264.142 294.036 265.472 293.844 266.713 293.374C266.713 293.374 271.393 254.92 271.463 250.918C271.549 246.363 269.732 199.844 269.732 199.844L238.29 208.907Z" fill="url(#paint2_linear_41_6135)"/>
<path d="M242.65 162.334C241.192 162.982 240.044 164.174 239.452 165.656C238.773 167.49 238.445 169.435 238.485 171.389V184.376L238.29 208.907C247.806 213.923 259.904 214.258 270.059 206.84C270.059 206.84 269.49 175.274 269.49 170.11C269.49 169.876 269.49 169.642 269.49 169.4C269.116 162.022 261.854 156.92 254.67 158.8L248.664 160.36L242.635 162.349L242.65 162.334Z" fill="url(#paint3_linear_41_6135)"/>
<path d="M266.117 144.62C269.675 141.062 269.675 135.294 266.117 131.736C262.559 128.178 256.791 128.178 253.233 131.736C249.675 135.294 249.675 141.062 253.233 144.62C256.791 148.178 262.559 148.178 266.117 144.62Z" fill="black"/>
<path d="M243.921 144.651C243.921 144.651 245.396 151.585 245.988 152.732C246.383 153.434 247.034 153.957 247.806 154.19L247.704 149.315L243.921 144.651Z" fill="black"/>
<path d="M245.77 134.714C245.255 134.654 244.732 134.712 244.243 134.885C243.753 135.059 243.31 135.341 242.947 135.712C241.73 136.952 242.408 140.845 243.922 144.651L246.698 144.971L245.77 134.714Z" fill="black"/>
<path d="M247.533 144.971C246.979 145.306 246.183 144.238 245.497 143.512C244.81 142.787 242.564 141.812 241.441 144.175C240.318 146.539 242.431 149.752 244.194 150.306C247.244 151.265 247.704 149.315 247.704 149.315L247.923 160.633C251.713 165.493 262.22 165.079 257.844 160.009V156.663C259.2 156.881 260.576 156.952 261.947 156.874C264.186 156.53 265.597 154.76 266.276 152.334C267.368 148.434 267.781 145.314 266.861 137.639C265.839 129.246 256.081 129.152 250.809 132.475C245.536 135.798 247.533 144.971 247.533 144.971Z" fill="#B16668"/>
<path d="M247.533 145.915C247.252 145.915 246.191 144.144 245.497 143.512C244.53 142.639 245.77 134.714 245.77 134.714C245.518 134.028 245.472 133.283 245.637 132.571C245.802 131.859 246.17 131.21 246.698 130.705C248.016 129.254 249.451 128.365 253.25 128.138C255.855 128.126 258.458 128.249 261.05 128.505C264.802 128.755 266.182 127.834 268.343 127.226C269.989 126.766 270.176 132.686 266.003 134.69C266.003 134.69 264.646 135.564 261.081 136.001C257.786 136.244 254.475 136.181 251.191 135.814C250.161 135.673 249.943 136.672 249.381 139.409C248.882 141.82 248.476 145.86 247.533 145.915Z" fill="black"/>
<path d="M245.778 135.33L242.408 133.52C242.516 133.294 242.668 133.091 242.857 132.925C243.045 132.758 243.265 132.632 243.503 132.553C243.742 132.475 243.994 132.445 244.244 132.466C244.494 132.488 244.737 132.56 244.959 132.678C245.41 132.93 245.746 133.347 245.899 133.84C246.051 134.334 246.008 134.867 245.778 135.33Z" fill="black"/>
<path d="M257.837 156.663C257.837 156.663 252.837 155.657 251.09 154.729C250.061 154.193 249.218 153.358 248.672 152.334C248.935 153.358 249.402 154.318 250.045 155.158C251.324 156.788 257.845 157.997 257.845 157.997L257.837 156.663Z" fill="#9A4A4D"/>
<path d="M257.587 143.723C257.578 143.918 257.512 144.106 257.396 144.264C257.281 144.422 257.122 144.543 256.939 144.611C256.756 144.68 256.557 144.693 256.367 144.649C256.176 144.605 256.003 144.507 255.868 144.366C255.733 144.224 255.642 144.046 255.607 143.854C255.572 143.662 255.595 143.464 255.672 143.284C255.748 143.104 255.876 142.951 256.039 142.843C256.202 142.735 256.393 142.678 256.589 142.677C256.723 142.679 256.856 142.708 256.979 142.762C257.102 142.816 257.214 142.894 257.307 142.991C257.4 143.088 257.472 143.203 257.52 143.329C257.569 143.454 257.591 143.588 257.587 143.723Z" fill="#263238"/>
<path d="M256.526 139.94L254.381 141.125C254.23 140.831 254.198 140.49 254.291 140.172C254.384 139.854 254.595 139.584 254.88 139.417C255.022 139.34 255.178 139.291 255.338 139.276C255.499 139.26 255.661 139.277 255.815 139.326C255.969 139.375 256.111 139.455 256.233 139.56C256.356 139.666 256.455 139.795 256.526 139.94Z" fill="#263238"/>
<path d="M257.4 150.641L259.685 151.507C259.638 151.663 259.559 151.808 259.454 151.933C259.348 152.058 259.219 152.16 259.073 152.233C258.927 152.306 258.768 152.348 258.605 152.358C258.442 152.367 258.278 152.343 258.125 152.287C257.813 152.162 257.563 151.92 257.427 151.612C257.292 151.304 257.282 150.956 257.4 150.641Z" fill="#9A4A4D"/>
<path d="M266.237 140.774L264.279 139.269C264.371 139.136 264.488 139.023 264.625 138.938C264.762 138.852 264.914 138.796 265.074 138.772C265.233 138.747 265.396 138.756 265.552 138.798C265.707 138.839 265.853 138.912 265.98 139.012C266.24 139.217 266.412 139.514 266.46 139.842C266.508 140.17 266.428 140.503 266.237 140.774Z" fill="#263238"/>
<path d="M265.636 143.434C265.649 143.573 265.632 143.713 265.587 143.845C265.542 143.978 265.471 144.099 265.376 144.202C265.282 144.305 265.167 144.387 265.04 144.444C264.912 144.5 264.774 144.529 264.634 144.529C264.495 144.529 264.356 144.5 264.229 144.444C264.101 144.387 263.986 144.305 263.892 144.202C263.798 144.099 263.726 143.978 263.681 143.845C263.636 143.713 263.62 143.573 263.632 143.434C263.628 143.3 263.65 143.166 263.699 143.041C263.747 142.916 263.82 142.802 263.913 142.705C264.006 142.609 264.117 142.531 264.24 142.478C264.363 142.426 264.496 142.398 264.63 142.397C264.764 142.399 264.897 142.427 265.02 142.48C265.143 142.534 265.255 142.611 265.348 142.707C265.442 142.803 265.515 142.917 265.565 143.042C265.614 143.167 265.638 143.3 265.636 143.434Z" fill="#263238"/>
<path d="M260.528 142.49L260.855 148.512L264.007 147.443L260.528 142.49Z" fill="#9A4A4D"/>
<path d="M247.744 301.727V300.783C248.375 301.056 249.85 306.68 252.486 309.083C254.576 310.986 257.431 313.193 258.157 315.323C258.882 317.452 254.179 318.755 252.229 318.443C249.959 318.037 245.989 316.438 245.037 314.956C244.085 313.474 243.586 311.29 242.783 310.206C241.979 309.122 240.131 307.905 239.663 306.649C239.429 305.963 239.71 304.449 240.045 303.17C240.38 301.891 240.685 300.713 241.082 300.83V301.548C242.025 302.293 243.196 302.69 244.397 302.671C245.396 302.64 247.751 302.468 247.744 301.727Z" fill="#263238"/>
<path d="M266.159 294.692C266.502 294.692 266.783 295.191 267.54 296.01C268.673 297.158 269.992 298.107 271.44 298.818C273.92 300.058 278.748 301.938 280.932 302.96C282.297 303.576 282.235 305.222 280.823 306.158C279.411 307.094 276.011 307.772 271.916 306.86C269.693 306.361 266.791 304.301 264.958 304.411C263.125 304.52 259.685 304.496 258.328 303.56C256.971 302.624 257.548 300.635 257.899 298.919C258.32 297.055 258.843 294.138 259.459 294.239V294.887C260.239 296.088 264.373 296.579 266.12 295.667L266.159 294.692Z" fill="#263238"/>
<path d="M255.2 224.086C258.624 223.018 261.772 221.21 264.42 218.79C264.42 218.79 262.641 222.128 257.337 225.233L258.047 248.633L255.2 224.086Z" fill="#D84F1A"/>
<path d="M227.495 195.289C231.746 170.407 236.075 162.841 243.227 162.583C245.427 164.962 245.224 172.497 242.167 177.208C242.167 177.208 235.615 193.019 234.718 198.572C233.938 203.447 233.072 209.57 233.345 213.72C233.405 214.452 233.73 215.136 234.257 215.647C235.669 217.035 235.732 218.197 236.675 219.757C237.416 220.982 238.181 221.411 237.986 221.707C237.721 222.02 237.349 222.221 236.943 222.272C236.537 222.322 236.127 222.218 235.794 221.98C235.145 221.558 234.559 221.046 234.055 220.459C234.366 221.987 234.891 223.462 235.615 224.843C237.284 228.15 237.011 229.897 232.37 228.922C229.468 228.306 227.549 226.005 226.777 219.141C226.447 216.615 226.296 214.068 226.325 211.52C226.59 204.953 226.824 199.204 227.495 195.289Z" fill="#B16668"/>
<path d="M244.967 161.569C242.799 161.967 237.237 162.162 234.382 167.91C232.51 171.693 230.623 177.621 228.603 184.719C228.603 184.719 232.776 189.041 238.93 188.424L242.377 178.487C245.646 174.26 246.48 164.751 244.967 161.569Z" fill="url(#paint4_linear_41_6135)"/>
<path d="M205.483 159.9C199.423 135.494 192.496 129.831 198.97 126.539C205.624 125.892 209.056 129.823 210.21 136.828C210.779 140.26 212.012 154.331 213.556 159.845C214.921 164.689 216.747 170.726 218.775 174.431C219.14 175.087 219.734 175.584 220.444 175.828C222.339 176.506 222.901 177.559 224.437 178.597C225.646 179.377 226.535 179.478 226.481 179.829C226.374 180.232 226.118 180.579 225.765 180.801C225.411 181.022 224.987 181.102 224.578 181.022C223.797 180.909 223.036 180.688 222.316 180.367C223.248 181.645 224.356 182.784 225.607 183.752C228.571 186.092 229.063 187.84 224.359 188.916C221.411 189.587 218.658 188.284 214.999 182.27C213.61 180.076 212.379 177.785 211.318 175.414C208.775 169.26 206.458 163.862 205.483 159.9Z" fill="#FFA8A7"/>
<path d="M184.571 268.749V267.805C184.946 268.913 186.677 273.694 189.306 276.089C191.396 278 194.243 280.199 194.969 282.329C195.694 284.458 191.006 285.277 189.049 284.934C186.787 284.536 183.854 283.249 182.255 281.284C181.132 279.903 180.414 278.273 179.611 277.189C178.807 276.104 176.966 274.888 176.491 273.632C176.257 272.945 176.537 271.432 176.873 270.161C177.208 268.889 177.512 267.696 177.91 267.821V268.538C178.856 269.278 180.025 269.674 181.225 269.662C182.231 269.677 184.579 269.49 184.571 268.749Z" fill="#263238"/>
<path d="M191.194 277.766C190.546 277.189 189.899 276.627 189.306 276.081C187.473 274.412 186.069 271.573 185.266 269.63C184.807 268.528 184.571 267.346 184.571 266.152V262.376H177.949V268.515V268.679C178.269 270.052 181.311 273.71 183.035 276.097C184.189 277.696 186.389 279.731 189.017 280.082C191.545 280.441 192.816 279.653 191.194 277.766Z" fill="#FFA8A7"/>
<path d="M210.405 262.22V261.3C210.772 262.408 212.511 267.189 215.132 269.584C217.222 271.495 220.077 273.694 220.795 275.824C221.512 277.953 216.832 278.772 214.882 278.429C212.613 278.031 209.68 276.744 208.081 274.778C206.958 273.398 206.248 271.768 205.444 270.683C204.641 269.599 202.792 268.382 202.363 267.127C202.122 266.44 202.402 264.927 202.738 263.656C203.073 262.384 203.377 261.199 203.783 261.316V262.033C204.725 262.774 205.892 263.17 207.09 263.156C208.057 263.149 210.413 262.961 210.405 262.22Z" fill="#263238"/>
<path d="M217.027 271.237C216.38 270.66 215.725 270.098 215.132 269.56C213.299 267.883 211.903 265.044 211.099 263.102C210.64 262 210.404 260.817 210.405 259.623V255.84H203.783V261.979V262.142C204.103 263.515 207.137 267.173 208.868 269.56C210.023 271.159 212.222 273.195 214.851 273.546C217.37 273.913 218.642 273.125 217.027 271.237Z" fill="#FFA8A7"/>
<path d="M179.267 165.836C174.135 177.045 179.455 216.536 179.455 216.536C179.299 218.353 177.216 221.941 176.444 229.944C175.523 239.406 177.879 263.172 177.879 263.172C178.889 263.758 180.026 264.088 181.192 264.134C182.359 264.181 183.519 263.941 184.571 263.437C184.571 263.437 190.882 227.651 192.067 218.244C193.105 210.031 195.094 191.974 195.094 191.974L200.741 218.197C199.915 220.843 199.318 223.554 198.955 226.302C198.416 231.832 203.783 257.603 203.783 257.603C203.783 257.603 206.068 258.438 210.405 257.798C210.405 257.798 212.3 223.611 212.8 216.942C213.634 205.749 210.662 170.812 208.611 164.182L179.267 165.836Z" fill="#2B65EC"/>
<path d="M195.094 191.982L196.763 181.569C196.763 181.569 203.783 180.11 207.012 177.099C207.012 177.099 203.658 181.28 198.674 182.645L196.802 190.663L200.07 214.937L195.094 191.982Z" fill="#2B65EC"/>
<path d="M188.323 126.875C181.74 127.327 181.303 130.51 179.634 133.988C178.426 136.665 178.314 139.709 179.322 142.467L183.909 155.727C182.039 158.95 180.485 162.346 179.268 165.867C190.78 172.286 205.148 168.909 208.611 164.221C208.759 163.231 207.87 155.454 207.316 150.376C209.344 145.291 209.883 142.069 209.025 138.676C207.465 132.436 201.279 126.36 198.549 126.578L188.323 126.875Z" fill="url(#paint5_linear_41_6135)"/>
<path d="M196.146 120.83H191.295C189.687 120.837 188.094 120.527 186.606 119.918C185.117 119.31 183.764 118.413 182.622 117.281C181.481 116.149 180.573 114.803 179.952 113.32C179.331 111.837 179.008 110.246 179.002 108.638C178.985 104.749 180.514 101.011 183.252 98.2483C185.991 95.4853 189.714 93.9228 193.604 93.9042C195.53 93.896 197.44 94.2673 199.223 94.9971C201.006 95.7268 202.628 96.8007 203.997 98.1573C205.365 99.5139 206.452 101.127 207.197 102.904C207.942 104.681 208.33 106.587 208.338 108.514C208.348 110.123 208.041 111.719 207.433 113.21C206.826 114.701 205.93 116.057 204.798 117.201C203.665 118.345 202.318 119.255 200.834 119.877C199.349 120.5 197.756 120.824 196.146 120.83Z" fill="black"/>
<path d="M189.805 90.4801C191.903 93.6001 189.68 95.6749 186.592 97.7731C183.503 99.8713 180.734 101.15 178.636 98.0695C176.537 94.9885 177.692 91.5409 180.781 89.4895C183.869 87.4381 187.715 87.3991 189.805 90.4801Z" fill="black"/>
<path d="M182.255 100.027L179.135 102.32C178.975 102.124 178.857 101.897 178.787 101.653C178.718 101.41 178.698 101.155 178.729 100.903C178.761 100.652 178.842 100.41 178.97 100.191C179.097 99.9718 179.267 99.7808 179.47 99.6294C179.895 99.3188 180.423 99.1866 180.944 99.261C181.464 99.3353 181.935 99.6103 182.255 100.027Z" fill="black"/>
<path d="M202.675 100.464C204.235 101.369 206.162 105.261 206.006 113.436C205.873 120.362 203.666 122.078 202.512 122.577C201.357 123.076 199.212 122.788 197.098 122.445L197.223 126.649C197.223 126.649 200.78 129.566 200.608 131.469C200.437 133.372 195.671 134.254 192.925 132.405C191.136 131.161 189.479 129.736 187.98 128.154C187.909 128.075 187.87 127.972 187.871 127.866V117.382C187.871 117.382 186.631 118.599 184.517 116.758C182.77 115.245 182.177 112.679 183.519 111.298C183.868 110.968 184.292 110.727 184.754 110.593C185.216 110.46 185.703 110.438 186.175 110.53C186.647 110.623 187.09 110.826 187.468 111.124C187.845 111.421 188.147 111.805 188.347 112.242C188.347 112.242 191.724 112.351 196.201 109.863C197.944 108.916 199.438 107.571 200.563 105.938C201.688 104.305 202.412 102.43 202.675 100.464Z" fill="#FFA8A7"/>
<path d="M198.268 111.727C198.271 111.899 198.223 112.067 198.131 112.211C198.039 112.356 197.906 112.47 197.75 112.54C197.593 112.609 197.419 112.631 197.25 112.603C197.081 112.575 196.924 112.497 196.799 112.381C196.674 112.264 196.585 112.113 196.545 111.946C196.505 111.779 196.515 111.605 196.573 111.443C196.632 111.282 196.737 111.142 196.874 111.04C197.012 110.938 197.177 110.878 197.348 110.869C197.583 110.863 197.811 110.949 197.984 111.11C198.156 111.27 198.258 111.492 198.268 111.727Z" fill="#263238"/>
<path d="M198.526 117.593L200.554 118.232C200.517 118.368 200.453 118.495 200.367 118.606C200.28 118.716 200.172 118.809 200.049 118.877C199.926 118.945 199.791 118.988 199.651 119.004C199.512 119.019 199.37 119.006 199.235 118.966C198.964 118.871 198.739 118.676 198.607 118.421C198.475 118.165 198.446 117.869 198.526 117.593Z" fill="#F28F8F"/>
<path d="M205.398 109.021L203.627 107.812C203.7 107.692 203.797 107.588 203.911 107.506C204.026 107.425 204.155 107.368 204.293 107.339C204.43 107.31 204.572 107.309 204.71 107.337C204.847 107.364 204.978 107.42 205.093 107.5C205.328 107.667 205.491 107.917 205.547 108.2C205.604 108.482 205.55 108.776 205.398 109.021Z" fill="#263238"/>
<path d="M205 111.072C205.001 111.243 204.952 111.411 204.859 111.554C204.766 111.698 204.632 111.811 204.476 111.879C204.319 111.948 204.145 111.969 203.977 111.939C203.808 111.91 203.652 111.832 203.527 111.715C203.403 111.598 203.315 111.447 203.276 111.28C203.237 111.114 203.247 110.939 203.306 110.779C203.364 110.618 203.469 110.478 203.607 110.376C203.744 110.275 203.908 110.216 204.079 110.206C204.316 110.2 204.545 110.288 204.718 110.45C204.89 110.612 204.991 110.836 205 111.072Z" fill="#263238"/>
<path d="M201.076 110.152L201.053 115.83L203.806 114.964L201.076 110.152Z" fill="#F28F8F"/>
<path d="M197.098 122.46C194.867 122.172 190.281 120.9 189.563 119.067C189.846 119.996 190.41 120.813 191.178 121.407C192.551 122.569 197.137 123.888 197.137 123.888L197.098 122.46Z" fill="#F28F8F"/>
<path d="M191.264 167.076C190.363 166.868 189.512 166.483 188.762 165.943C188.012 165.402 187.377 164.718 186.894 163.929C186.412 163.14 186.092 162.263 185.953 161.349C185.814 160.435 185.859 159.502 186.085 158.605C186.117 158.481 186.156 158.359 186.202 158.239C186.358 157.753 186.675 157.334 187.1 157.051C187.525 156.768 188.033 156.636 188.542 156.679C187.845 156.144 187.262 155.477 186.825 154.715C186.389 153.953 186.108 153.112 185.999 152.24L184.267 144.074C184.1 142.72 184.22 141.346 184.618 140.041L179.993 134.69L179.143 135.283C178.44 137.632 178.505 140.143 179.33 142.451L183.916 155.711C182.019 158.92 180.463 162.318 179.275 165.851C183.02 167.865 187.153 169.052 191.396 169.332C195.639 169.612 199.892 168.978 203.869 167.474C199.68 168.143 195.402 168.008 191.264 167.076Z" fill="#2B65EC"/>
<path d="M188.76 186.654L172.021 177.06C172.021 177.06 163.878 188.245 169.423 191.404C174.969 194.563 180.468 197.785 185.991 200.975C192.246 198.557 188.76 186.654 188.76 186.654Z" fill="url(#paint6_linear_41_6135)"/>
<path d="M185.991 188.245L172.895 180.671V181.397L185.991 189.049V188.245Z" fill="white"/>
<path d="M188.76 186.654C187.684 190.164 184.447 200.109 185.999 201.006C187.551 201.903 192.348 198.814 192.239 196.95C191.966 191.701 188.76 186.654 188.76 186.654Z" fill="#2B65EC"/>
<path d="M184.135 126.844C184.819 126.776 185.508 126.927 186.101 127.276C186.694 127.626 187.161 128.154 187.434 128.786C190.109 133.872 188.269 186.381 188.269 186.381L186.459 185.344C186.459 185.344 187.091 168.418 187.028 153.005C186.982 141.687 186.56 131.001 186.077 129.839C185.846 129.17 185.394 128.599 184.796 128.221C184.198 127.842 183.489 127.679 182.785 127.756C182.93 127.515 183.126 127.308 183.359 127.15C183.592 126.993 183.857 126.888 184.135 126.844Z" fill="black"/>
<path d="M167.489 159.9C172.606 138.98 176.576 130.003 182.177 127.92C182.596 127.757 183.046 127.691 183.495 127.725C183.943 127.759 184.379 127.893 184.768 128.118C185.158 128.342 185.493 128.651 185.748 129.022C186.002 129.393 186.171 129.816 186.24 130.26C186.724 134.482 185.68 138.737 183.3 142.256C183.3 142.256 175.835 158.012 174.642 163.613C173.597 168.511 172.419 174.673 172.481 178.901C172.497 179.663 172.791 180.392 173.308 180.952C174.681 182.434 174.681 183.628 175.57 185.266C176.256 186.545 177.013 187.028 176.802 187.309C176.519 187.616 176.13 187.805 175.713 187.837C175.296 187.869 174.883 187.741 174.556 187.481C173.92 187.018 173.35 186.469 172.863 185.851C173.095 187.417 173.546 188.943 174.205 190.382C175.765 193.838 175.367 195.601 170.703 194.368C167.778 193.588 165.945 191.162 165.508 184.135C165.291 181.54 165.265 178.933 165.43 176.335C166.077 169.697 166.522 163.839 167.489 159.9Z" fill="#FFA8A7"/>
<path d="M164.065 130.26C164.533 125.689 164.533 123.755 164.393 123.185C163.753 120.588 161.943 118.505 160.04 115.385C156.78 109.98 151.85 101.54 149.58 98.28C147.786 95.7216 145.852 94.224 142.896 94.38C140.837 94.497 142.436 102.648 144.456 108.521L155.337 123.536C155.695 124.027 155.859 124.633 155.797 125.237L154.736 135.938L158.207 140.579C158.207 140.579 163.464 136.087 164.065 130.26Z" fill="#FFA8A7"/>
<path d="M164.128 129.605C163.972 128.825 163.426 128.131 161.998 128.185C160.571 128.24 159.456 130.081 159.456 130.081L163.48 131.867C163.691 131.337 163.894 130.791 164.065 130.245C164.089 130.026 164.112 129.816 164.128 129.605Z" fill="#F28F8F"/>
<path d="M141.703 94.3022C141.703 94.3022 146.172 93.7406 148.652 96.4394C151.133 99.1382 152.342 101.392 154.744 105.378C157.638 110.183 158.894 112.648 158.894 112.648C158.894 112.648 154.37 118.693 147.701 117.905L141.703 94.3022Z" fill="url(#paint7_linear_41_6135)"/>
<path d="M149.429 79.8661C153.039 76.2565 153.039 70.4042 149.429 66.7945C145.82 63.1849 139.967 63.1849 136.358 66.7945C132.748 70.4042 132.748 76.2565 136.358 79.8661C139.967 83.4757 145.82 83.4757 149.429 79.8661Z" fill="black"/>
<path d="M120.767 240.841H127.28V229.695H120.767V240.841Z" fill="#FFA8A7"/>
<path d="M143.34 233.041L149.846 233.267L150.173 221.473L143.668 221.255L143.34 233.041Z" fill="#FFA8A7"/>
<path d="M121.196 141.36C121.196 147.6 120.416 185.25 120.416 185.25C120.26 187.036 118.591 190.336 118.95 197.208C119.441 206.568 120.252 230.794 120.252 230.794C120.252 230.794 123.302 233.821 127.608 230.794C127.608 230.794 133.505 197.254 134.675 187.988C135.689 179.915 137.42 157.989 137.42 157.989L141.024 188.409C141.024 188.409 139.963 194.478 139.729 198.76C139.495 203.042 143.262 224.773 143.262 224.773C144.316 225.433 145.525 225.805 146.767 225.853C148.01 225.901 149.243 225.623 150.345 225.046C150.345 225.046 153.153 191.904 153.824 188.035C154.494 184.166 151.663 141.344 151.663 141.344L121.196 141.36Z" fill="url(#paint8_linear_41_6135)"/>
<path d="M127.452 96.3924C126.066 96.6359 124.784 97.2844 123.766 98.2562C122.748 99.2279 122.042 100.479 121.735 101.852C121.375 103.476 121.194 105.134 121.196 106.798V141.352C125.759 146.32 141.671 148.637 151.616 141.352C151.616 141.352 151.421 110.83 150.68 105.815C149.378 97.1022 145.22 93.9978 141.024 94.3176L130.97 95.7606L127.452 96.3924Z" fill="url(#paint9_linear_41_6135)"/>
<path d="M126.921 79.8955C126.921 79.8955 128.419 86.9155 129.02 88.0933C129.42 88.8053 130.079 89.3359 130.86 89.5753L130.759 84.6223L126.921 79.8955Z" fill="black"/>
<path d="M128.801 69.818C128.277 69.7583 127.746 69.8186 127.249 69.9943C126.752 70.17 126.301 70.4564 125.931 70.832C124.698 72.0878 125.393 76.0346 126.921 79.8956L129.745 80.2232L128.801 69.818Z" fill="black"/>
<path d="M130.588 80.2232C130.026 80.5664 129.223 79.4432 128.521 78.749C127.819 78.0548 125.549 77.0174 124.41 79.412C123.271 81.8066 125.416 85.0748 127.202 85.652C130.322 86.627 130.759 84.638 130.759 84.638L130.993 95.7842C131.676 97.2791 132.719 98.5815 134.029 99.575C135.338 100.569 136.873 101.222 138.497 101.478C143.957 102.219 142.849 97.703 141.047 95.4878V92.1026C142.424 92.3208 143.821 92.3914 145.213 92.3132C147.482 91.9622 148.91 90.1682 149.604 87.7112C150.712 83.7566 151.164 80.5664 150.189 72.7976C149.159 64.2878 139.269 64.2176 133.91 67.5638C128.552 70.91 130.588 80.2232 130.588 80.2232Z" fill="#FFA8A7"/>
<path d="M130.587 81.1747C130.306 81.1747 129.222 79.3885 128.52 78.7489C127.545 77.8597 128.801 69.8179 128.801 69.8179C128.546 69.1222 128.499 68.3671 128.667 67.6452C128.834 66.9233 129.209 66.2661 129.745 65.7541C131.079 64.2799 133.317 64.1161 137.131 63.5233C139.128 63.2035 142.162 62.6497 144.151 62.2753C146.538 61.8307 148.512 61.3627 150.196 62.8291C150.858 63.4001 151.325 64.1622 151.535 65.0103C151.744 65.8583 151.685 66.7505 151.366 67.5637C151.196 67.9357 150.967 68.278 150.688 68.5777C150.233 69.1185 149.64 69.5256 148.972 69.7555C148.972 69.7555 147.934 70.6837 144.292 71.1205C140.95 71.3717 137.591 71.3091 134.261 70.9333C133.216 70.7929 132.99 71.8069 132.428 74.5837C131.96 77.0251 131.547 81.1591 130.587 81.1747Z" fill="black"/>
<path d="M128.809 70.4419L125.393 68.6401C125.5 68.4094 125.654 68.203 125.844 68.0336C126.034 67.8642 126.257 67.7354 126.499 67.6551C126.74 67.5748 126.996 67.5446 127.25 67.5665C127.503 67.5883 127.75 67.6617 127.974 67.7821C128.426 68.0362 128.763 68.4526 128.918 68.9468C129.073 69.4409 129.034 69.9756 128.809 70.4419Z" fill="black"/>
<path d="M141.039 92.087C141.039 92.087 135.969 91.0652 134.191 90.1214C133.149 89.5771 132.296 88.7318 131.742 87.6956C132.012 88.7333 132.486 89.7066 133.138 90.5582C134.433 92.2118 141.039 93.4364 141.039 93.4364V92.087Z" fill="#F28F8F"/>
<path d="M139.822 78.9595C139.835 79.1007 139.818 79.2429 139.772 79.377C139.727 79.5112 139.654 79.6345 139.558 79.739C139.462 79.8434 139.346 79.9269 139.216 79.9839C139.086 80.041 138.946 80.0705 138.805 80.0705C138.663 80.0705 138.523 80.041 138.393 79.9839C138.263 79.9269 138.147 79.8434 138.051 79.739C137.955 79.6345 137.882 79.5112 137.837 79.377C137.791 79.2429 137.774 79.1007 137.787 78.9595C137.784 78.8236 137.807 78.6885 137.857 78.5619C137.906 78.4353 137.98 78.3197 138.074 78.2218C138.169 78.1239 138.281 78.0457 138.406 77.9915C138.531 77.9374 138.665 77.9085 138.801 77.9065C139.075 77.9126 139.336 78.0265 139.527 78.2236C139.719 78.4206 139.825 78.685 139.822 78.9595Z" fill="#263238"/>
<path d="M138.738 75.122L136.57 76.3232C136.413 76.0254 136.377 75.6779 136.472 75.3546C136.567 75.0313 136.784 74.7576 137.077 74.5916C137.22 74.5129 137.377 74.4641 137.54 74.4483C137.702 74.4325 137.866 74.4499 138.022 74.4995C138.177 74.5492 138.321 74.63 138.444 74.737C138.567 74.844 138.667 74.975 138.738 75.122Z" fill="#263238"/>
<path d="M140.579 85.9795L142.919 86.8453C142.871 87.0008 142.792 87.145 142.686 87.2692C142.581 87.3933 142.451 87.4948 142.306 87.5677C142.16 87.6405 142.001 87.6832 141.838 87.6931C141.676 87.703 141.513 87.6799 141.359 87.6253C141.039 87.5089 140.777 87.2709 140.631 86.9627C140.485 86.6546 140.466 86.3013 140.579 85.9795Z" fill="#F28F8F"/>
<path d="M148.886 75.9643L146.897 74.4043C146.991 74.2708 147.111 74.1576 147.249 74.0718C147.388 73.986 147.543 73.9293 147.704 73.9053C147.865 73.8812 148.03 73.8902 148.188 73.9317C148.345 73.9733 148.493 74.0465 148.621 74.1469C148.893 74.3559 149.073 74.6625 149.122 75.0019C149.172 75.3412 149.087 75.6864 148.886 75.9643Z" fill="#263238"/>
<path d="M148.27 78.6709C148.261 78.8692 148.194 79.0605 148.077 79.2209C147.96 79.3814 147.799 79.5041 147.613 79.5737C147.427 79.6433 147.225 79.6568 147.031 79.6126C146.838 79.5683 146.661 79.4683 146.524 79.3248C146.387 79.1813 146.295 79.0007 146.259 78.8053C146.224 78.61 146.247 78.4086 146.325 78.226C146.403 78.0434 146.532 77.8878 146.698 77.7783C146.863 77.6688 147.058 77.6103 147.256 77.6101C147.392 77.6131 147.527 77.643 147.651 77.698C147.776 77.7529 147.889 77.8319 147.983 77.9304C148.077 78.0289 148.151 78.145 148.2 78.2721C148.249 78.3991 148.273 78.5347 148.27 78.6709Z" fill="#263238"/>
<path d="M143.091 77.7036L143.426 83.8188L146.616 82.7268L143.091 77.7036Z" fill="#F28F8F"/>
<path d="M127.28 237.627V236.699C127.904 236.972 129.347 242.487 131.96 244.842C134.02 246.714 136.82 248.883 137.53 250.965C138.239 253.048 133.63 254.343 131.711 253.999C129.48 253.602 125.619 252.034 124.691 250.583C123.763 249.132 123.263 246.979 122.476 245.903C121.688 244.827 119.87 243.649 119.441 242.416C119.207 241.738 119.488 240.256 119.816 239C120.143 237.744 120.448 236.582 120.838 236.66V237.37C121.766 238.094 122.913 238.482 124.09 238.47C124.979 238.54 127.288 238.353 127.28 237.627Z" fill="#263238"/>
<path d="M149.916 231.262C150.251 231.262 150.524 231.746 151.273 232.557C152.385 233.684 153.68 234.615 155.103 235.311C157.537 236.535 162.279 238.431 164.463 239.374C165.805 239.975 165.734 241.597 164.354 242.494C162.973 243.391 159.627 244.054 155.61 243.181C153.418 242.689 150.571 240.669 148.769 240.778C146.968 240.888 143.598 240.864 142.264 239.944C140.93 239.023 141.484 237.073 141.843 235.389C142.256 233.556 142.841 230.709 143.45 230.865V231.45C144.23 232.627 148.216 233.111 149.932 232.23L149.916 231.262Z" fill="#263238"/>
<path d="M137.397 157.989C140.761 156.94 143.855 155.167 146.461 152.794C146.461 152.794 144.706 156.07 139.511 159.112L141.001 188.425L137.397 157.989Z" fill="#D84F1A"/>
<path d="M111.119 151.148C111.327 154.103 111.718 157.041 112.289 159.947C114.239 167.466 116.735 169.72 120.089 169.939C125.401 170.297 125.432 168.309 123.053 164.884C122.015 163.391 121.225 161.739 120.713 159.994C121.493 160.644 122.349 161.197 123.263 161.639C123.671 161.851 124.143 161.902 124.587 161.782C125.03 161.662 125.413 161.38 125.658 160.992C125.83 160.633 124.878 160.274 123.887 159.034C122.593 157.474 121.93 156.187 120.136 154.869C119.538 154.282 119.159 153.509 119.059 152.677C118.794 151.609 118.607 134.558 119.574 131.032L124.137 114.652C127.858 112.102 131.812 99.4813 126.165 96.7981C120.861 97.3987 116.992 104.333 111.212 125.752C110.136 129.519 110.518 145.314 111.119 151.148Z" fill="#FFA8A7"/>
<path d="M127.281 96.4628C128.007 97.1081 128.588 97.9012 128.983 98.7891C129.379 99.6769 129.58 100.639 129.574 101.611C129.722 105.183 128.014 110.331 127.039 113.553C126.064 116.774 123.919 122.601 123.919 122.601C123.919 122.601 115.191 121.602 113.202 116.478C113.202 116.478 117.297 103.218 121.228 98.9432C121.978 98.0923 122.915 97.4258 123.964 96.9956C125.014 96.5655 126.149 96.3831 127.281 96.4628Z" fill="url(#paint10_linear_41_6135)"/>
<path d="M163.02 124.636L162.326 124.043C162.222 123.975 162.104 123.932 161.98 123.918C161.857 123.905 161.732 123.921 161.616 123.965L154.159 125.993C153.783 126.117 153.439 126.32 153.15 126.59C152.86 126.859 152.632 127.188 152.482 127.553L147.108 143.044C147.045 143.17 147.021 143.311 147.039 143.45C147.057 143.589 147.116 143.719 147.209 143.824L147.919 144.44V143.926H147.974L155.438 141.898C155.814 141.774 156.158 141.571 156.448 141.301C156.737 141.032 156.965 140.703 157.115 140.338C158.168 137.288 161.429 127.858 162.489 124.839C162.518 124.75 162.536 124.659 162.544 124.566L163.02 124.636Z" fill="#455A64"/>
<path d="M147.771 143.66L153.138 128.162C153.289 127.797 153.517 127.468 153.806 127.199C154.096 126.93 154.44 126.726 154.815 126.602L162.279 124.574C162.973 124.387 163.34 124.784 163.106 125.455C162.053 128.505 158.793 137.935 157.74 140.954C157.587 141.318 157.359 141.646 157.069 141.915C156.78 142.184 156.437 142.388 156.063 142.514L148.598 144.542C147.904 144.729 147.537 144.3 147.771 143.66Z" fill="#263238"/>
<path d="M160.922 131.695C160.399 133.255 158.52 134.324 155.462 135.057C152.404 135.79 150.673 139.059 151.172 140.057C151.671 141.055 156.632 141.976 158.637 141.695C160.641 141.414 162.638 138.528 163.239 137.639C163.839 136.75 164.549 130.518 163.909 129.667C163.653 129.406 163.341 129.205 162.997 129.079C162.653 128.954 162.285 128.907 161.92 128.942L160.922 131.695Z" fill="#FFA8A7"/>
<path d="M103.685 109.2L84.5051 98.2334C84.5051 98.2334 75.1451 111.064 81.5255 114.691C87.9059 118.318 94.1927 122 100.518 125.658C107.694 122.842 103.685 109.2 103.685 109.2Z" fill="#BA68C8"/>
<path d="M103.685 109.2L84.5051 98.2334C84.5051 98.2334 75.1451 111.064 81.5255 114.691C87.9059 118.318 94.1927 122 100.518 125.658C107.694 122.842 103.685 109.2 103.685 109.2Z" fill="url(#paint11_linear_41_6135)"/>
<path d="M100.518 111.025L87.8589 103.709V104.544L100.518 111.938V111.025Z" fill="white"/>
<path d="M103.685 109.2C102.453 113.233 98.7403 124.629 100.519 125.658C102.297 126.688 107.804 123.147 107.695 120.978C107.375 114.98 103.685 109.2 103.685 109.2Z" fill="#2B65EC"/>
<path d="M75.4104 27.0115H77.883C81.5652 27.0115 85.0967 28.4742 87.7004 31.078C90.3042 33.6818 91.767 37.2132 91.767 40.8955V70.3951H61.5264V40.8955C61.5264 37.2132 62.9891 33.6818 65.5929 31.078C68.1967 28.4742 71.7281 27.0115 75.4104 27.0115Z" fill="black"/>
<path d="M103.872 94.4659C105.682 92.7811 104.941 90.8155 102.429 85.4257C99.9178 80.0359 93.943 67.5715 92.4454 64.8961C89.8324 60.2161 86.767 59.9821 82.1572 59.9977C80.3008 59.9977 85.0042 65.3173 87.1258 70.4731C89.0368 75.1531 96.4858 90.4021 96.4858 90.4021L103.872 94.4659Z" fill="#B16668"/>
<path d="M74.4118 215.28C73.7488 214.687 73.078 214.102 72.4696 213.548C70.582 211.832 69.1468 208.915 68.32 206.926C67.8508 205.791 67.6096 204.574 67.6102 203.346V199.446H60.8398V205.748V205.92H60.8788C61.2064 207.332 64.3264 211.091 66.097 213.541C67.2826 215.186 69.5446 217.277 72.2434 217.636C74.7628 217.987 76.0732 217.175 74.4118 215.28Z" fill="#B16668"/>
<path d="M94.0601 204.898C94.2493 204.787 94.4139 204.638 94.5437 204.461C95.0741 203.736 94.6529 203.338 94.2707 202.761C93.8024 201.952 93.4107 201.1 93.1007 200.218C92.7887 199.438 92.3753 198.065 92.3753 198.065C92.3753 198.065 92.3753 197.044 92.3753 196.638V192.738H85.5737V199.22C85.9247 200.725 87.2975 202.192 88.2023 203.393C88.8965 204.321 90.6983 204.797 91.7825 205.031C92.2615 205.151 92.7585 205.183 93.2489 205.124C93.532 205.105 93.808 205.028 94.0601 204.898Z" fill="#B16668"/>
<path d="M62.166 100.308C56.8932 111.821 62.3532 152.381 62.3532 152.381C62.1972 154.245 60.06 157.927 59.2332 166.148C58.2894 175.867 60.7074 200.257 60.7074 200.257C61.7439 200.859 62.9118 201.199 64.1095 201.246C65.3071 201.294 66.4983 201.048 67.5792 200.53C67.5792 200.53 74.1 163.8 75.309 154.128C76.3698 145.696 78.429 127.163 78.429 127.163L82.485 154.12C81.6371 156.834 81.0239 159.616 80.652 162.435C80.0982 168.121 85.605 194.579 85.605 194.579C85.605 194.579 87.945 195.437 92.4066 194.782C92.4066 194.782 94.3488 159.682 94.8636 152.825C95.7294 141.328 94.419 105.433 92.3052 98.6233L62.166 100.308Z" fill="#2B65EC"/>
<path d="M78.4131 127.14L80.1213 116.446C80.1213 116.446 87.3675 114.949 90.6513 111.86C90.6513 111.86 87.2037 116.142 82.0713 117.546L80.1525 125.783L81.8685 150.197L78.4131 127.14Z" fill="#2B65EC"/>
<path d="M67.6259 204.719V203.736C68.2811 204.017 69.8021 209.812 72.5087 212.277C74.6615 214.235 77.5943 216.505 78.3353 218.689C79.0763 220.873 74.2559 222.214 72.2435 221.863C69.9035 221.45 65.8631 219.804 64.8491 218.283C63.8351 216.762 63.3593 214.508 62.5091 213.392C61.6589 212.277 59.7869 211.052 59.3345 209.742C59.0927 209.032 59.3813 207.472 59.7245 206.162C60.0677 204.851 60.3875 203.627 60.8009 203.744V204.524C61.7698 205.285 62.9697 205.692 64.2017 205.678C65.2157 205.678 67.6337 205.475 67.6259 204.719Z" fill="#263238"/>
<path d="M92.3752 198.065C92.7262 198.065 93.1084 198.611 93.8884 199.454C95.0556 200.631 96.4105 201.607 97.8976 202.34C100.448 203.619 105.409 205.585 107.655 206.599C109.059 207.23 108.997 208.939 107.546 209.882C106.095 210.826 102.593 211.544 98.389 210.608C96.0958 210.093 93.1162 207.979 91.2286 208.088C89.341 208.198 85.8154 208.182 84.4192 207.215C83.023 206.248 83.5846 204.204 83.9746 202.449C84.4036 200.522 84.9418 197.527 85.5814 197.652V198.315C86.3614 199.555 90.628 200.062 92.4298 199.15L92.3752 198.065Z" fill="#263238"/>
<path d="M71.4635 60.3097C64.7009 60.7777 64.2328 64.0381 62.5402 67.6105C61.2532 70.3249 61.6745 73.5697 62.6573 76.4089L66.9316 89.9419C66.9316 89.9419 64.7398 95.2771 62.1658 100.308C73.9828 106.907 88.7405 103.428 92.2895 98.6233C92.4455 97.6015 91.5095 89.6221 90.9635 84.4117C93.0461 79.1857 93.5999 75.8785 92.7185 72.4231C91.0883 66.0193 84.7625 59.7793 81.9623 60.0055L71.4635 60.3097Z" fill="url(#paint12_linear_41_6135)"/>
<path d="M60.7929 33.2515L62.8365 36.5431C62.6272 36.6874 62.3908 36.788 62.1416 36.8388C61.8924 36.8895 61.6355 36.8894 61.3864 36.8384C61.1373 36.7874 60.901 36.6866 60.6918 36.542C60.4826 36.3974 60.3047 36.2121 60.1689 35.9971C59.9011 35.5467 59.8165 35.0106 59.9327 34.4997C60.0488 33.9887 60.3568 33.5419 60.7929 33.2515Z" fill="black"/>
<path d="M86.8061 33.1267C88.3661 34.0705 90.3785 38.0875 90.1835 46.5115C90.0119 53.6485 87.7031 55.3801 86.5799 55.9261C85.4567 56.4721 83.1791 56.1211 80.9951 55.7623V60.0601C80.9951 60.0601 84.0059 63.5545 83.8187 65.5201C83.6315 67.4857 79.4741 67.9459 76.6505 66.0271C74.8258 64.7142 73.2601 63.0745 72.0329 61.1911V50.8171C72.0329 50.8171 70.5587 52.7827 68.1329 51.1837C65.7071 49.5847 65.6369 45.6301 67.0331 44.2105C68.4293 42.7909 71.4323 43.2433 71.9939 45.2401C71.9939 45.2401 75.4649 45.3727 80.0903 42.8299C81.8944 41.8553 83.443 40.4685 84.61 38.7824C85.777 37.0963 86.5294 35.1585 86.8061 33.1267Z" fill="#B16668"/>
<path d="M81.4082 44.7174C81.4177 44.8375 81.4032 44.9583 81.3654 45.0727C81.3276 45.1872 81.2674 45.2929 81.1882 45.3837C81.109 45.4745 81.0124 45.5486 80.9042 45.6016C80.796 45.6546 80.6783 45.6855 80.558 45.6924C80.3222 45.6862 80.0974 45.5912 79.9286 45.4264C79.7598 45.2617 79.6595 45.0392 79.6477 44.8036C79.6358 44.568 79.7134 44.3367 79.8648 44.1558C80.0163 43.975 80.2304 43.8579 80.4644 43.8282C80.5849 43.824 80.705 43.8438 80.8178 43.8863C80.9307 43.9289 81.0339 43.9933 81.1217 44.076C81.2094 44.1587 81.28 44.2579 81.3291 44.368C81.3783 44.4781 81.4052 44.5968 81.4082 44.7174Z" fill="#263238"/>
<path d="M82.446 50.7703L84.5364 51.4333C84.5033 51.5764 84.4411 51.7111 84.3535 51.8291C84.266 51.9471 84.1551 52.0458 84.0278 52.119C83.9004 52.1922 83.7593 52.2383 83.6133 52.2545C83.4673 52.2708 83.3195 52.2567 83.1792 52.2133C82.891 52.1187 82.652 51.9137 82.5145 51.6432C82.3771 51.3728 82.3525 51.0589 82.446 50.7703Z" fill="#9A4A4D"/>
<path d="M88.7715 41.964L86.9541 40.7004C87.0306 40.5789 87.131 40.4742 87.2492 40.3926C87.3674 40.311 87.5009 40.2543 87.6416 40.2259C87.7824 40.1974 87.9275 40.1978 88.068 40.2271C88.2086 40.2564 88.3418 40.3139 88.4595 40.3962C88.7038 40.5668 88.8726 40.8252 88.9308 41.1173C88.9889 41.4095 88.9318 41.7129 88.7715 41.964Z" fill="#263238"/>
<path d="M88.3506 44.0702C88.3601 44.1903 88.3456 44.3111 88.3078 44.4255C88.27 44.54 88.2098 44.6457 88.1306 44.7365C88.0514 44.8273 87.9548 44.9014 87.8466 44.9544C87.7384 45.0074 87.6207 45.0383 87.5004 45.0452C87.2646 45.039 87.0398 44.944 86.871 44.7792C86.7022 44.6144 86.6019 44.392 86.59 44.1564C86.5782 43.9208 86.6558 43.6895 86.8072 43.5086C86.9586 43.3277 87.1728 43.2107 87.4068 43.181C87.5273 43.1768 87.6474 43.1966 87.7602 43.2391C87.873 43.2816 87.9763 43.3461 88.0641 43.4288C88.1518 43.5115 88.2223 43.6107 88.2715 43.7208C88.3207 43.8309 88.3476 43.9496 88.3506 44.0702Z" fill="#263238"/>
<path d="M83.9668 43.5552L84.1072 48.9606L86.9542 48.0792L83.9668 43.5552Z" fill="#9A4A4D"/>
<path d="M80.9558 55.7622C78.6626 55.458 73.9358 54.1008 73.2026 52.2366C73.5051 53.1782 74.0907 54.0035 74.8796 54.6C76.2914 55.809 80.9792 57.174 80.9792 57.174L80.9558 55.7622Z" fill="#9A4A4D"/>
<path d="M74.4819 101.587C71.2683 100.807 68.0001 97.305 69.4743 93.873C69.8917 92.9061 70.6152 92.1031 71.5335 91.5876C71.8694 91.3949 72.2575 91.313 72.6426 91.3536C73.0277 91.3942 73.3902 91.5553 73.6785 91.8138C72.1185 90.7998 69.4743 85.8624 69.1155 84.0606L67.2903 78C67.1191 76.6095 67.2414 75.1985 67.6491 73.8582L62.8989 68.3982L62.0253 69.0066C61.2453 71.3466 61.8303 74.0766 62.6571 76.4556L66.9315 89.9886C66.9315 89.9886 64.7397 95.277 62.1657 100.308C66.0102 102.375 70.253 103.594 74.6082 103.883C78.9635 104.173 83.3302 103.525 87.4143 101.985C83.117 102.669 78.729 102.534 74.4819 101.587Z" fill="#2B65EC"/>
<path d="M51.4018 92.672C56.5186 71.7602 60.1846 64.3658 64.2328 61.9244C65.7406 61.0546 67.453 60.6023 69.1936 60.614C69.7463 61.3099 70.0802 62.1541 70.153 63.0398C70.6385 67.2534 69.604 71.5018 67.2358 75.0206C67.2358 75.0206 59.7712 90.7766 58.5778 96.377C57.5326 101.275 56.3548 107.437 56.4172 111.665C56.4331 112.427 56.7272 113.156 57.244 113.716C58.6168 115.198 58.6168 116.392 59.506 118.03C60.1924 119.309 60.949 119.785 60.7384 120.073C60.455 120.381 60.0649 120.569 59.6476 120.6C59.2303 120.63 58.8171 120.501 58.492 120.237C57.8538 119.779 57.2839 119.233 56.7994 118.615C57.0306 120.181 57.4822 121.707 58.141 123.147C59.701 126.602 59.3032 128.365 54.6388 127.132C51.7138 126.352 49.8808 123.927 49.444 116.899C49.2266 114.304 49.2005 111.697 49.366 109.099C49.99 102.461 50.4346 96.6032 51.4018 92.672Z" fill="#B16668"/>
<path d="M80.4956 90.995C81.8996 91.4006 83.2646 91.2212 85.1756 91.9466C86.6111 92.5565 88.1315 92.9432 89.684 93.0932C91.3688 93.2336 93.0224 91.4552 97.3358 89.006C101.431 86.666 106.477 91.4864 103.857 94.466C102.933 95.3542 101.851 96.0607 100.666 96.5486C98.7086 97.3286 96.7664 97.742 91.751 99.263C90.9067 99.5515 90.0876 99.9089 89.3018 100.332C88.3285 100.772 87.3249 101.142 86.2988 101.439C83.9566 102.209 81.4556 102.362 79.037 101.884C77.5401 101.639 76.1602 100.923 75.098 99.8402C74.201 98.8262 73.3898 96.8996 73.694 95.5424C73.7738 95.1316 73.9911 94.7601 74.3102 94.4894C75.0902 93.8732 76.2992 94.2632 77.1806 94.4036C78.2072 94.6159 79.2523 94.7256 80.3006 94.7312C81.9854 94.661 83.1632 94.3802 82.9292 94.1306C82.6952 93.881 81.7124 93.998 80.3786 93.3506C79.0448 92.7032 78.218 91.424 78.6002 90.7376C78.9824 90.0512 79.0916 90.5894 80.4956 90.995Z" fill="#B16668"/>
<path d="M96.0488 89.7001C96.0488 89.7001 98.342 89.3179 99.8318 91.9231C101.322 94.5283 102.102 108.303 102.102 108.303L100.542 107.39C100.542 107.39 100.011 96.3691 98.6852 93.2257C98.3434 92.4269 97.7563 91.7576 97.0089 91.3145C96.2616 90.8715 95.3927 90.6776 94.5278 90.7609C94.6905 90.4853 94.9104 90.248 95.1729 90.065C95.4353 89.8819 95.7341 89.7575 96.0488 89.7001Z" fill="black"/>
<path d="M43.1966 126.641H36.3794V232.955C36.4083 233.254 36.516 233.54 36.6914 233.784C36.8667 234.028 37.1036 234.221 37.3778 234.343C38.1242 234.724 38.9501 234.923 39.788 234.923C40.6259 234.923 41.4518 234.724 42.1982 234.343C42.4724 234.221 42.7093 234.028 42.8846 233.784C43.06 233.54 43.1676 233.254 43.1966 232.955V126.641Z" fill="#37474F"/>
<path d="M39.788 128.606C41.6705 128.606 43.1966 127.726 43.1966 126.641C43.1966 125.555 41.6705 124.675 39.788 124.675C37.9055 124.675 36.3794 125.555 36.3794 126.641C36.3794 127.726 37.9055 128.606 39.788 128.606Z" fill="#455A64"/>
<path d="M41.8394 139.784C66.0584 162.763 95.3552 179.182 128.919 190.063V183.3C95.3786 172.38 66.0584 156 41.8394 133.029V139.784Z" fill="#BA68C8"/>
<path opacity="0.7" d="M41.8394 139.784C66.0584 162.763 95.3552 179.182 128.919 190.063V183.3C95.3786 172.38 66.0584 156 41.8394 133.029V139.784Z" fill="white"/>
<path d="M130.393 177.255H123.583V283.561C123.61 283.862 123.716 284.15 123.892 284.396C124.067 284.642 124.306 284.836 124.582 284.958C125.328 285.335 126.152 285.531 126.988 285.531C127.824 285.531 128.648 285.335 129.394 284.958C129.671 284.836 129.909 284.642 130.085 284.396C130.26 284.15 130.367 283.862 130.393 283.561V177.255Z" fill="#37474F"/>
<path d="M124.582 178.62C125.328 178.997 126.152 179.194 126.988 179.194C127.824 179.194 128.648 178.997 129.394 178.62C130.728 177.84 130.728 176.608 129.394 175.835C128.648 175.458 127.824 175.262 126.988 175.262C126.152 175.262 125.328 175.458 124.582 175.835C123.24 176.631 123.24 177.84 124.582 178.62Z" fill="#455A64"/>
<path d="M128.63 189.766C152.849 212.745 182.146 229.164 215.709 240.045V233.298C182.169 222.378 152.849 205.998 128.63 183.019V189.766Z" fill="#BA68C8"/>
<path opacity="0.7" d="M128.63 189.766C152.849 212.745 182.146 229.164 215.709 240.045V233.298C182.169 222.378 152.849 205.998 128.63 183.019V189.766Z" fill="white"/>
<path d="M217.62 227.862H210.803V334.176C210.83 334.476 210.937 334.764 211.112 335.01C211.288 335.255 211.526 335.449 211.802 335.572C212.549 335.949 213.375 336.145 214.212 336.145C215.049 336.145 215.875 335.949 216.622 335.572C216.897 335.448 217.134 335.253 217.309 335.008C217.485 334.763 217.592 334.476 217.62 334.176V227.862Z" fill="#37474F"/>
<path d="M214.188 229.827C216.071 229.827 217.597 228.947 217.597 227.862C217.597 226.776 216.071 225.896 214.188 225.896C212.306 225.896 210.78 226.776 210.78 227.862C210.78 228.947 212.306 229.827 214.188 229.827Z" fill="#455A64"/>
<defs>
<linearGradient id="paint0_linear_41_6135" x1="333.867" y1="201.227" x2="333.867" y2="261.472" gradientUnits="userSpaceOnUse">
<stop stop-color="#1B5876"/>
<stop offset="1" stop-color="#1380B7"/>
</linearGradient>
<linearGradient id="paint1_linear_41_6135" x1="267.146" y1="158.417" x2="267.146" y2="182.512" gradientUnits="userSpaceOnUse">
<stop stop-color="#1B5876"/>
<stop offset="1" stop-color="#1380B7"/>
</linearGradient>
<linearGradient id="paint2_linear_41_6135" x1="254.414" y1="199.844" x2="254.414" y2="300.22" gradientUnits="userSpaceOnUse">
<stop stop-color="#DA5826"/>
<stop offset="1" stop-color="#ED6C3B"/>
</linearGradient>
<linearGradient id="paint3_linear_41_6135" x1="254.175" y1="158.408" x2="254.175" y2="212.559" gradientUnits="userSpaceOnUse">
<stop stop-color="#1B5876"/>
<stop offset="1" stop-color="#1380B7"/>
</linearGradient>
<linearGradient id="paint4_linear_41_6135" x1="237.149" y1="161.569" x2="237.149" y2="188.485" gradientUnits="userSpaceOnUse">
<stop stop-color="#1B5876"/>
<stop offset="1" stop-color="#1380B7"/>
</linearGradient>
<linearGradient id="paint5_linear_41_6135" x1="194.028" y1="126.573" x2="194.028" y2="169.411" gradientUnits="userSpaceOnUse">
<stop stop-color="#1B5876"/>
<stop offset="1" stop-color="#1380B7"/>
</linearGradient>
<linearGradient id="paint6_linear_41_6135" x1="178.609" y1="177.06" x2="178.609" y2="200.975" gradientUnits="userSpaceOnUse">
<stop stop-color="#1B5876"/>
<stop offset="1" stop-color="#1380B7"/>
</linearGradient>
<linearGradient id="paint7_linear_41_6135" x1="150.298" y1="94.2537" x2="150.298" y2="117.976" gradientUnits="userSpaceOnUse">
<stop stop-color="#1B5876"/>
<stop offset="1" stop-color="#1380B7"/>
</linearGradient>
<linearGradient id="paint8_linear_41_6135" x1="136.413" y1="141.344" x2="136.413" y2="232.139" gradientUnits="userSpaceOnUse">
<stop stop-color="#DA5826"/>
<stop offset="1" stop-color="#ED6C3B"/>
</linearGradient>
<linearGradient id="paint9_linear_41_6135" x1="136.406" y1="94.2954" x2="136.406" y2="145.987" gradientUnits="userSpaceOnUse">
<stop stop-color="#1B5876"/>
<stop offset="1" stop-color="#1380B7"/>
</linearGradient>
<linearGradient id="paint10_linear_41_6135" x1="121.392" y1="96.4446" x2="121.392" y2="122.601" gradientUnits="userSpaceOnUse">
<stop stop-color="#1B5876"/>
<stop offset="1" stop-color="#1380B7"/>
</linearGradient>
<linearGradient id="paint11_linear_41_6135" x1="92.0503" y1="98.2334" x2="92.0503" y2="125.658" gradientUnits="userSpaceOnUse">
<stop stop-color="#1B5876"/>
<stop offset="1" stop-color="#1380B7"/>
</linearGradient>
<linearGradient id="paint12_linear_41_6135" x1="77.4288" y1="59.9995" x2="77.4288" y2="103.95" gradientUnits="userSpaceOnUse">
<stop stop-color="#1B5876"/>
<stop offset="1" stop-color="#1380B7"/>
</linearGradient>
</defs>
</svg>
