<svg width="362" height="183" viewBox="0 0 362 183" fill="none" xmlns="http://www.w3.org/2000/svg">
<g clip-path="url(#clip0_41_6294)">
<path d="M275.808 164.78C250.66 163.92 172.639 162.486 124.535 171.947C35.3548 189.434 -33.1919 144.266 16.9782 102.314C30.9991 90.5921 -1.36665 11.5947 92.4558 1.3378C174.801 -7.64497 255.302 30.8981 294.408 47.7806C333.514 64.6631 350.237 90.6877 358.026 102.442C364.894 112.762 363.749 167.806 275.808 164.78Z" fill="#F7F8FC"/>
<path d="M281.086 148.056C255.937 147.833 178.075 146.846 130.798 143.915C43.1439 138.468 -28.4549 147.578 18.5675 157.931C31.6982 160.83 -6.19954 178.222 86.5737 182.108C168.028 185.516 251.041 178.094 291.228 174.909C331.415 171.724 349.95 166.086 358.566 163.569C366.133 161.339 368.931 148.821 281.086 148.056Z" fill="#E9F6FF"/>
<path d="M286.745 140.475C296.601 134.359 289.034 131.429 279.909 130.855C284.424 126.236 281.785 121.363 271.007 115.342C266.175 112.635 260.197 113.591 254.316 116.234C249.992 106.296 244.046 99.2882 236.956 102.378C231.106 104.926 226.719 108.207 223.953 111.839C222.172 110.915 220.265 110.023 218.198 109.195C213.715 107.379 210.345 108.303 207.897 110.915C199.186 104.544 190.284 100.562 184.942 104.162C175.659 110.437 174.323 116.203 180.173 122.414C171.08 122.127 164.181 124.93 175.881 133.595C165.103 131.556 157.377 132.257 161.829 139.774C171.78 156.498 220.138 162.55 256.446 157.74C279.305 157.963 298.381 154.65 302.197 146.75C305.026 140.953 297.046 139.679 286.65 140.411L286.745 140.475Z" fill="#D4EDFF"/>
<path d="M347.597 156.052C349.251 152.771 347.28 149.776 339.681 147.833C331.351 145.731 323.371 146.432 316.821 148.152C332.4 138.755 350.618 125.345 334.181 122.796C329.062 122 321.114 124.962 312.275 129.804C322.195 119.452 327.727 110.787 321.813 108.812C316.345 106.965 304.994 115.215 292.881 126.332C299.812 116.84 303.882 108.462 300.861 104.257C298.413 100.817 293.04 104.321 286.808 111.042C287.158 104.863 285.314 101.04 280.958 101.55C276.857 102.028 273.455 109.035 270.975 117.477C267.224 103.939 256.986 95.2427 246.494 98.7148C234.159 102.824 243.601 135.283 248.879 150.764L347.566 156.052H347.597Z" fill="#D4EDFF"/>
<path d="M344.832 157.135C346.072 155.542 344.546 154.172 338.632 153.44C332.178 152.643 326.042 153.185 320.955 154.141C332.909 149.331 346.835 142.578 334.117 141.749C330.143 141.495 324.039 143.087 317.267 145.572C324.834 140.443 328.999 136.239 324.42 135.442C320.16 134.71 311.48 138.883 302.229 144.393C307.506 139.743 310.558 135.697 308.206 133.786C306.266 132.225 302.165 134.009 297.428 137.322C297.65 134.391 296.188 132.639 292.818 132.99C289.67 133.308 287.095 136.685 285.283 140.73C282.262 134.423 274.282 130.569 266.207 132.48C256.732 134.71 264.331 149.808 268.559 156.976L344.864 157.103L344.832 157.135Z" fill="#ACD4F8"/>
<path d="M297.364 148.407L296.982 148.248C300.957 139.169 307.729 126.014 317.394 114.897C323.18 108.271 327.313 105.468 327.377 105.436L327.599 105.786C327.599 105.786 323.435 108.59 317.68 115.183C312.37 121.267 304.517 132.002 297.332 148.407H297.364Z" fill="#ACD4F8"/>
<path d="M302.864 147.26L302.451 147.165C304.422 137.831 309.159 132.321 312.784 129.39C316.726 126.173 320.223 125.185 320.287 125.154L320.414 125.568C320.414 125.568 316.917 126.555 313.07 129.741C309.509 132.639 304.835 138.054 302.896 147.292L302.864 147.26Z" fill="#ACD4F8"/>
<path d="M329.634 103.238C332.114 105.468 333.354 108.112 332.464 109.099C331.574 110.087 328.839 109.099 326.36 106.869C323.88 104.64 322.64 101.996 323.53 101.008C324.42 100.021 327.154 101.008 329.634 103.238Z" fill="#ACD4F8"/>
<path d="M328.521 104.48C329.316 105.181 329.698 106.041 329.412 106.328C329.125 106.646 328.267 106.328 327.472 105.627C326.677 104.926 326.296 104.066 326.582 103.78C326.868 103.461 327.727 103.78 328.521 104.48Z" fill="#2B65EC"/>
<path d="M321.463 124.644C322.417 126.141 322.703 127.702 322.099 128.084C321.495 128.466 320.223 127.574 319.238 126.077C318.284 124.58 317.998 123.019 318.602 122.637C319.206 122.255 320.478 123.147 321.463 124.644Z" fill="#ACD4F8"/>
<path d="M320.7 125.122C321.018 125.599 321.082 126.077 320.891 126.205C320.7 126.332 320.287 126.045 320.001 125.568C319.715 125.09 319.619 124.612 319.81 124.485C320.001 124.357 320.414 124.644 320.7 125.122Z" fill="#2B65EC"/>
<path d="M315.391 146.4C315.391 146.4 315.486 146.336 315.518 146.304C315.518 146.304 315.486 146.304 315.455 146.304C314.851 146.081 314.469 145.635 314.596 145.317C314.723 144.998 315.296 144.935 315.868 145.19C315.932 145.19 315.963 145.221 316.027 145.253C316.027 145.253 316.027 145.221 316.027 145.19C315.932 144.552 316.122 144.011 316.44 143.979C316.758 143.915 317.108 144.393 317.203 145.03C317.203 145.094 317.203 145.126 317.203 145.19C317.203 145.19 317.235 145.19 317.267 145.158C317.776 144.775 318.316 144.648 318.539 144.903C318.729 145.158 318.539 145.699 318.03 146.081C317.998 146.113 317.935 146.145 317.903 146.177C317.903 146.177 317.935 146.177 317.966 146.177C318.57 146.4 318.92 146.846 318.825 147.164C318.698 147.483 318.125 147.547 317.553 147.292C317.489 147.292 317.458 147.26 317.394 147.228C317.394 147.228 317.394 147.26 317.394 147.292C317.489 147.929 317.299 148.47 316.981 148.502C316.663 148.566 316.313 148.088 316.218 147.451C316.218 147.387 316.218 147.356 316.218 147.292C316.218 147.292 316.186 147.292 316.154 147.324C315.645 147.706 315.105 147.833 314.882 147.579C314.692 147.324 314.882 146.782 315.391 146.4ZM316.79 146.846C317.14 146.782 317.362 146.464 317.299 146.145C317.235 145.795 316.917 145.572 316.599 145.635C316.249 145.699 316.027 146.018 316.091 146.336C316.154 146.687 316.472 146.91 316.79 146.846Z" fill="white"/>
<path d="M260.665 155.958C298.16 147.174 321.45 109.6 312.683 72.033C303.916 34.4662 266.413 11.1327 228.917 19.9163C191.421 28.6998 168.132 66.2743 176.899 103.841C185.666 141.408 223.169 164.741 260.665 155.958Z" fill="#FF9900"/>
<path d="M309.35 87.9482C309.35 123.656 280.45 152.643 244.778 152.643C209.105 152.643 180.205 123.688 180.205 87.9482C180.205 52.2083 209.105 23.2532 244.778 23.2532C280.45 23.2532 309.35 52.2083 309.35 87.9482Z" fill="black"/>
<path d="M306.743 87.9483C306.743 122.255 278.988 150.031 244.778 150.031C210.568 150.031 182.812 122.223 182.812 87.9483C182.812 53.6736 210.568 25.8652 244.778 25.8652C278.988 25.8652 306.743 53.6736 306.743 87.9483Z" fill="#D4EDFF"/>
<path d="M306.743 87.9483C306.743 53.6417 278.988 25.8652 244.778 25.8652C233.459 25.8652 222.872 28.8913 213.748 34.1791L244.778 87.9483H306.743Z" fill="#E9F6FF"/>
<path d="M244.778 87.9482L275.554 141.845C294.185 131.142 306.743 111.01 306.743 87.9482H244.778Z" fill="white"/>
<path d="M243.729 31.5352C243.729 32.1322 244.212 32.6182 244.809 32.6182C245.406 32.6182 245.89 32.1322 245.89 31.5352C245.89 30.9382 245.406 30.4521 244.809 30.4521C244.212 30.4521 243.729 30.9382 243.729 31.5352Z" fill="#2B65EC"/>
<path d="M245.89 42.686V31.6923C245.89 31.0953 245.406 30.6113 244.809 30.6113C244.212 30.6113 243.729 31.0953 243.729 31.6923V42.686C243.729 43.283 244.212 43.7669 244.809 43.7669C245.406 43.7669 245.89 43.283 245.89 42.686Z" fill="#2B65EC"/>
<path d="M223.127 48.0855C223.425 48.6034 223.247 49.265 222.73 49.5639C222.211 49.8632 221.548 49.6852 221.25 49.1665L215.781 39.6716C215.483 39.1537 215.661 38.4921 216.178 38.1932C216.697 37.8939 217.359 38.0719 217.658 38.5906L223.127 48.0855Z" fill="#2B65EC"/>
<path d="M206.133 64.3124C206.651 64.6118 206.829 65.2738 206.531 65.7923C206.232 66.312 205.568 66.4906 205.049 66.1912L195.564 60.723C195.037 60.4195 194.86 59.7445 195.17 59.2216C195.475 58.7068 196.137 58.5333 196.655 58.8328L206.133 64.3124Z" fill="#2B65EC"/>
<path d="M199.398 86.803L188.465 86.8221C187.867 86.8231 187.383 87.3089 187.384 87.907C187.385 88.5051 187.871 88.9892 188.469 88.9881L199.402 88.969C200 88.968 200.484 88.4822 200.483 87.8841C200.482 87.286 199.996 86.8019 199.398 86.803Z" fill="#2B65EC"/>
<path d="M205.017 109.705C205.536 109.406 206.2 109.584 206.499 110.104C206.797 110.623 206.62 111.285 206.102 111.584L196.623 117.064C196.105 117.363 195.443 117.19 195.138 116.675C194.829 116.152 195.006 115.477 195.532 115.173L205.017 109.705Z" fill="#2B65EC"/>
<path d="M221.219 126.723C221.517 126.209 222.176 126.035 222.688 126.336C223.195 126.634 223.367 127.284 223.073 127.793L217.594 137.307C217.296 137.825 216.633 138.003 216.116 137.704C215.598 137.405 215.421 136.743 215.72 136.225L221.219 126.723Z" fill="#2B65EC"/>
<path d="M245.795 144.363V133.402C245.795 132.805 245.311 132.321 244.714 132.321C244.117 132.321 243.633 132.805 243.633 133.402V144.363C243.633 144.96 244.117 145.444 244.714 145.444C245.311 145.444 245.795 144.96 245.795 144.363Z" fill="#2B65EC"/>
<path d="M273.828 136.228L268.363 126.733C268.065 126.216 267.404 126.038 266.887 126.337C266.37 126.636 266.192 127.298 266.49 127.815L271.955 137.31C272.253 137.827 272.913 138.005 273.431 137.706C273.948 137.407 274.126 136.745 273.828 136.228Z" fill="#2B65EC"/>
<path d="M283.419 111.552C282.903 111.252 282.725 110.591 283.023 110.073C283.322 109.553 283.987 109.375 284.506 109.676L294.012 115.183C294.529 115.482 294.706 116.144 294.409 116.661C294.109 117.181 293.445 117.36 292.926 117.059L283.419 111.552Z" fill="#2B65EC"/>
<path d="M301.018 86.897H290.085C289.487 86.897 289.002 87.3819 289.002 87.98C289.002 88.5781 289.487 89.063 290.085 89.063H301.018C301.616 89.063 302.101 88.5781 302.101 87.98C302.101 87.3819 301.616 86.897 301.018 86.897Z" fill="#2B65EC"/>
<path d="M293.047 58.8735L283.552 64.3723C283.035 64.6719 282.858 65.3346 283.157 65.8524C283.455 66.3703 284.117 66.5472 284.634 66.2476L294.129 60.7488C294.646 60.4492 294.824 59.7865 294.525 59.2687C294.226 58.7508 293.564 58.5739 293.047 58.8735Z" fill="#2B65EC"/>
<path d="M271.952 38.6327L266.479 48.1222C266.18 48.6396 266.358 49.3017 266.874 49.6009C267.391 49.9002 268.052 49.7233 268.351 49.2059L273.824 39.7164C274.122 39.199 273.945 38.537 273.428 38.2377C272.911 37.9385 272.25 38.1153 271.952 38.6327Z" fill="#2B65EC"/>
<path d="M237.862 31.9551C237.924 32.5488 238.456 32.9817 239.049 32.9194C239.643 32.8571 240.074 32.3232 240.012 31.7294C239.95 31.1356 239.418 30.7028 238.824 30.7651C238.23 30.8274 237.8 31.3613 237.862 31.9551Z" fill="#2B65EC"/>
<path d="M234.163 32.5596C234.283 33.138 233.914 33.705 233.336 33.8278C232.755 33.9512 232.184 33.579 232.063 32.9976L232.056 32.9634C231.935 32.3851 232.305 31.8181 232.883 31.6953C233.464 31.5718 234.034 31.944 234.156 32.5255L234.163 32.5596Z" fill="#2B65EC"/>
<path d="M226.396 34.5934C226.58 35.1612 227.191 35.4727 227.759 35.2873C228.326 35.1019 228.636 34.4897 228.451 33.9219C228.266 33.3541 227.656 33.0425 227.088 33.228C226.521 33.4134 226.211 34.0256 226.396 34.5934Z" fill="#2B65EC"/>
<path d="M220.947 36.8363C221.19 37.3819 221.829 37.628 222.375 37.3845C222.92 37.1409 223.164 36.4999 222.922 35.9543C222.679 35.4087 222.039 35.1626 221.494 35.4061C220.949 35.6497 220.704 36.2907 220.947 36.8363Z" fill="#2B65EC"/>
<path d="M217.603 38.5425C217.897 39.0543 217.724 39.7078 217.215 40.0068C216.704 40.307 216.046 40.1373 215.744 39.6272L215.732 39.6067C215.427 39.0913 215.601 38.4259 216.12 38.1264C216.635 37.8289 217.294 38.006 217.591 38.5218L217.603 38.5425Z" fill="#2B65EC"/>
<path d="M212.604 41.6503C212.954 42.1332 212.848 42.8092 212.366 43.1606C211.882 43.5129 211.204 43.4054 210.853 42.9212C210.502 42.4384 210.609 41.7623 211.091 41.4109C211.574 41.0586 212.252 41.1661 212.604 41.6503Z" fill="#2B65EC"/>
<path d="M206.316 46.7134C206.715 47.1581 207.398 47.1944 207.842 46.7944C208.286 46.3944 208.322 45.7095 207.923 45.2649C207.524 44.8203 206.84 44.7839 206.396 45.1839C205.953 45.5839 205.917 46.2688 206.316 46.7134Z" fill="#2B65EC"/>
<path d="M203.71 49.3823C204.145 49.7834 204.177 50.46 203.781 50.9003C203.385 51.3421 202.705 51.3813 202.26 50.988C201.81 50.5898 201.771 49.9007 202.173 49.454C202.576 49.0064 203.267 48.9741 203.71 49.3823Z" fill="#2B65EC"/>
<path d="M198.614 55.634C199.095 55.988 199.772 55.8837 200.125 55.4018C200.478 54.9199 200.374 54.2418 199.893 53.8879C199.412 53.534 198.735 53.6382 198.382 54.1201C198.029 54.602 198.132 55.2801 198.614 55.634Z" fill="#2B65EC"/>
<path d="M196.596 58.7712C197.113 59.0699 197.291 59.7321 196.993 60.2499C196.694 60.769 196.031 60.9482 195.512 60.6488C194.995 60.35 194.817 59.6879 195.115 59.17C195.414 58.6509 196.078 58.4717 196.596 58.7712Z" fill="#2B65EC"/>
<path d="M192.938 65.974C193.483 66.2179 194.123 65.9721 194.366 65.4266C194.609 64.8811 194.365 64.24 193.82 63.9961C193.275 63.7523 192.635 63.9981 192.392 64.5435C192.149 65.089 192.393 65.7302 192.938 65.974Z" fill="#2B65EC"/>
<path d="M190.961 71.5117C191.529 71.698 192.14 71.3874 192.325 70.8199C192.511 70.2524 192.202 69.6397 191.635 69.4534C191.067 69.2671 190.456 69.5777 190.271 70.1452C190.085 70.7127 190.394 71.3254 190.961 71.5117Z" fill="#2B65EC"/>
<path d="M189.493 77.2425C190.077 77.3673 190.651 76.9933 190.776 76.4094C190.9 75.8254 190.528 75.249 189.944 75.1241C189.36 74.9993 188.786 75.3732 188.661 75.9572C188.537 76.5411 188.909 77.1176 189.493 77.2425Z" fill="#2B65EC"/>
<path d="M188.718 83.0734C189.311 83.1377 189.845 82.7067 189.909 82.1131C189.973 81.5195 189.544 80.9842 188.95 80.9199C188.357 80.8556 187.823 81.2867 187.759 81.8803C187.695 82.4739 188.124 83.0091 188.718 83.0734Z" fill="#2B65EC"/>
<path d="M187.422 87.9163C187.422 88.5133 187.906 88.9993 188.503 88.9993C189.1 88.9993 189.584 88.5133 189.584 87.9163C189.584 87.3193 189.1 86.8333 188.503 86.8333C187.906 86.8333 187.422 87.3193 187.422 87.9163Z" fill="#2B65EC"/>
<path d="M188.678 92.7281C189.277 92.6575 189.825 93.0901 189.887 93.6902C189.948 94.2838 189.509 94.8152 188.916 94.8765C188.323 94.9377 187.785 94.5074 187.723 93.9143C187.662 93.3262 188.091 92.7973 188.678 92.7281Z" fill="#2B65EC"/>
<path d="M188.649 99.8775C188.771 100.462 189.344 100.838 189.929 100.716C190.513 100.594 190.888 100.019 190.766 99.4342C190.644 98.8497 190.071 98.4733 189.486 98.5957C188.902 98.7181 188.527 99.293 188.649 99.8775Z" fill="#2B65EC"/>
<path d="M190.219 105.662C190.403 106.23 191.013 106.542 191.581 106.357C192.148 106.173 192.459 105.561 192.275 104.993C192.091 104.425 191.481 104.112 190.913 104.297C190.345 104.482 190.035 105.094 190.219 105.662Z" fill="#2B65EC"/>
<path d="M192.371 111.277C192.612 111.823 193.251 112.071 193.797 111.829C194.343 111.587 194.59 110.947 194.349 110.401C194.107 109.854 193.469 109.606 192.923 109.848C192.377 110.09 192.13 110.73 192.371 111.277Z" fill="#2B65EC"/>
<path d="M195.48 115.184C195.999 114.885 196.663 115.064 196.961 115.583C197.259 116.101 197.082 116.763 196.564 117.062C196.046 117.361 195.382 117.182 195.084 116.663C194.786 116.145 194.963 115.483 195.48 115.184Z" fill="#2B65EC"/>
<path d="M198.343 121.747C198.692 122.231 199.368 122.34 199.852 121.99C200.336 121.64 200.444 120.962 200.095 120.478C199.746 119.993 199.07 119.884 198.586 120.234C198.102 120.585 197.993 121.262 198.343 121.747Z" fill="#2B65EC"/>
<path d="M202.233 124.841C202.675 124.45 203.351 124.489 203.746 124.928C204.143 125.37 204.107 126.049 203.667 126.446L203.651 126.461C203.206 126.863 202.518 126.824 202.121 126.374C201.729 125.928 201.771 125.249 202.216 124.856L202.233 124.841Z" fill="#2B65EC"/>
<path d="M206.391 130.626C206.833 131.028 207.517 130.994 207.918 130.552C208.319 130.109 208.286 129.424 207.844 129.022C207.401 128.62 206.718 128.653 206.317 129.096C205.916 129.539 205.949 130.224 206.391 130.626Z" fill="#2B65EC"/>
<path d="M211.051 134.421C211.534 134.772 212.21 134.665 212.561 134.181C212.912 133.698 212.805 133.02 212.322 132.669C211.839 132.317 211.163 132.424 210.812 132.908C210.462 133.391 210.568 134.069 211.051 134.421Z" fill="#2B65EC"/>
<path d="M215.686 136.224C215.984 135.705 216.648 135.526 217.166 135.825C217.684 136.124 217.861 136.786 217.563 137.304C217.265 137.823 216.601 138.002 216.082 137.703C215.565 137.404 215.388 136.742 215.686 136.224Z" fill="#2B65EC"/>
<path d="M220.877 138.992C221.12 138.454 221.755 138.212 222.298 138.445C222.854 138.684 223.113 139.335 222.864 139.888C222.621 140.426 221.986 140.668 221.443 140.435C220.887 140.196 220.628 139.544 220.877 138.992Z" fill="#2B65EC"/>
<path d="M226.356 141.216C226.539 140.649 227.147 140.337 227.714 140.521C228.286 140.706 228.597 141.323 228.404 141.892L228.397 141.915C228.207 142.476 227.601 142.779 227.038 142.594C226.475 142.409 226.167 141.803 226.349 141.238L226.356 141.216Z" fill="#2B65EC"/>
<path d="M231.998 142.871C232.12 142.287 232.693 141.912 233.277 142.035C233.867 142.158 234.242 142.74 234.11 143.328L234.105 143.35C233.976 143.928 233.406 144.294 232.827 144.171C232.245 144.047 231.872 143.476 231.994 142.894L231.998 142.871Z" fill="#2B65EC"/>
<path d="M237.799 143.916C237.86 143.319 238.394 142.882 238.991 142.944C239.588 143.005 240.022 143.541 239.961 144.138C239.899 144.735 239.365 145.171 238.768 145.11C238.171 145.048 237.737 144.513 237.799 143.916Z" fill="#2B65EC"/>
<path d="M243.697 144.311C243.697 143.723 244.174 143.246 244.762 143.246C245.35 143.246 245.827 143.723 245.827 144.311V144.347C245.827 144.936 245.35 145.412 244.762 145.412C244.174 145.412 243.697 144.936 243.697 144.347V144.311Z" fill="#2B65EC"/>
<path d="M249.596 144.103C249.657 144.697 250.188 145.131 250.782 145.07C251.376 145.009 251.808 144.476 251.747 143.882C251.686 143.288 251.155 142.854 250.561 142.916C249.967 142.977 249.535 143.51 249.596 144.103Z" fill="#2B65EC"/>
<path d="M255.396 143.325C255.274 142.737 255.65 142.159 256.238 142.036C256.827 141.913 257.404 142.292 257.527 142.881C257.649 143.469 257.273 144.047 256.685 144.17C256.096 144.293 255.519 143.914 255.396 143.325Z" fill="#2B65EC"/>
<path d="M261.128 141.903C260.947 141.342 261.253 140.741 261.813 140.557C262.377 140.371 262.984 140.68 263.167 141.245L263.177 141.277C263.358 141.838 263.052 142.439 262.492 142.623C261.928 142.809 261.321 142.5 261.138 141.935L261.128 141.903Z" fill="#2B65EC"/>
<path d="M266.675 139.917C266.916 140.464 267.555 140.711 268.101 140.469C268.647 140.226 268.893 139.586 268.651 139.04C268.41 138.494 267.771 138.246 267.225 138.488C266.679 138.731 266.433 139.371 266.675 139.917Z" fill="#2B65EC"/>
<path d="M271.96 137.336C271.662 136.818 271.839 136.156 272.357 135.857C272.875 135.558 273.539 135.737 273.838 136.256C274.135 136.774 273.958 137.436 273.441 137.735C272.922 138.034 272.259 137.855 271.96 137.336Z" fill="#2B65EC"/>
<path d="M276.961 134.232C277.309 134.717 277.985 134.829 278.47 134.48C278.955 134.131 279.065 133.454 278.717 132.968C278.369 132.483 277.693 132.372 277.209 132.72C276.724 133.069 276.613 133.746 276.961 134.232Z" fill="#2B65EC"/>
<path d="M281.615 130.594C282.013 131.04 282.697 131.078 283.142 130.679C283.587 130.281 283.625 129.596 283.227 129.15C282.83 128.704 282.146 128.666 281.701 129.064C281.256 129.463 281.218 130.148 281.615 130.594Z" fill="#2B65EC"/>
<path d="M285.868 126.49C285.423 126.087 285.391 125.398 285.797 124.956C286.198 124.518 286.877 124.486 287.318 124.884C287.758 125.28 287.797 125.957 287.405 126.402C287.007 126.854 286.315 126.894 285.868 126.49Z" fill="#2B65EC"/>
<path d="M289.671 121.985C289.184 121.628 289.073 120.937 289.433 120.453C289.792 119.971 290.483 119.877 290.964 120.237C291.441 120.593 291.551 121.272 291.202 121.753C290.848 122.241 290.157 122.341 289.671 121.985Z" fill="#2B65EC"/>
<path d="M292.988 117.101C292.458 116.8 292.277 116.123 292.587 115.6C292.891 115.087 293.552 114.914 294.069 115.213C294.589 115.513 294.769 116.178 294.469 116.698C294.171 117.217 293.508 117.396 292.988 117.101Z" fill="#2B65EC"/>
<path d="M295.732 111.897C296.277 112.142 296.917 111.898 297.161 111.353C297.405 110.808 297.163 110.166 296.618 109.921C296.073 109.676 295.433 109.92 295.189 110.465C294.945 111.01 295.188 111.652 295.732 111.897Z" fill="#2B65EC"/>
<path d="M297.975 106.405C297.41 106.222 297.101 105.615 297.286 105.05C297.47 104.489 298.073 104.182 298.635 104.364L298.661 104.372C299.226 104.555 299.535 105.162 299.35 105.726C299.166 106.288 298.563 106.595 298 106.413L297.975 106.405Z" fill="#2B65EC"/>
<path d="M299.619 100.753C299.04 100.63 298.671 100.054 298.792 99.4751C298.915 98.8868 299.498 98.5057 300.084 98.6392C300.656 98.7695 301.016 99.3426 300.894 99.9168C300.772 100.498 300.199 100.876 299.619 100.753Z" fill="#2B65EC"/>
<path d="M300.662 94.9393C300.07 94.8782 299.64 94.3393 299.701 93.7468C299.761 93.1534 300.293 92.713 300.887 92.7751C301.472 92.8364 301.9 93.365 301.848 93.9515C301.795 94.5513 301.261 95.0011 300.662 94.9393Z" fill="#2B65EC"/>
<path d="M300.003 87.98C300.003 88.577 300.487 89.063 301.084 89.063C301.681 89.063 302.165 88.577 302.165 87.98C302.165 87.383 301.681 86.897 301.084 86.897C300.487 86.897 300.003 87.383 300.003 87.98Z" fill="#2B65EC"/>
<path d="M300.9 83.1375C300.302 83.208 299.761 82.773 299.7 82.1736C299.639 81.5812 300.069 81.0495 300.661 80.9875C301.248 80.9261 301.776 81.3494 301.846 81.9355C301.916 82.5281 301.493 83.0676 300.9 83.1375Z" fill="#2B65EC"/>
<path d="M300.089 77.2916C299.499 77.4238 298.916 77.0461 298.792 76.4549C298.671 75.8715 299.043 75.2977 299.626 75.1738C300.205 75.0508 300.776 75.4175 300.907 75.9946C301.039 76.5784 300.673 77.1606 300.089 77.2916Z" fill="#2B65EC"/>
<path d="M297.293 70.8718C297.479 71.4394 298.09 71.7502 298.657 71.564C299.224 71.3779 299.534 70.7653 299.348 70.1978C299.163 69.6302 298.552 69.3194 297.984 69.5055C297.417 69.6916 297.108 70.3042 297.293 70.8718Z" fill="#2B65EC"/>
<path d="M296.663 66.0016C296.121 66.2468 295.48 66.0068 295.236 65.4646C294.99 64.9183 295.24 64.275 295.789 64.0353C296.327 63.8008 296.955 64.039 297.2 64.5722C297.448 65.1142 297.206 65.7558 296.663 66.0016Z" fill="#2B65EC"/>
<path d="M292.61 60.3294C292.909 60.8467 293.571 61.0242 294.087 60.7248C294.604 60.4253 294.781 59.7624 294.482 59.2451C294.183 58.7278 293.522 58.5502 293.005 58.8497C292.488 59.1491 292.312 59.8121 292.61 60.3294Z" fill="#2B65EC"/>
<path d="M289.728 53.9051L289.704 53.9231C289.221 54.2753 289.114 54.9528 289.465 55.4364C289.817 55.92 290.493 56.0265 290.976 55.6743L291.001 55.6563C291.484 55.3041 291.59 54.6266 291.239 54.143C290.888 53.6594 290.211 53.5529 289.728 53.9051Z" fill="#2B65EC"/>
<path d="M287.358 51.0357C286.915 51.4368 286.229 51.4014 285.829 50.9569C285.424 50.507 285.467 49.8123 285.924 49.4158L285.942 49.4005C286.388 49.014 287.061 49.056 287.455 49.4949C287.853 49.9383 287.818 50.6204 287.376 51.02L287.358 51.0357Z" fill="#2B65EC"/>
<path d="M283.277 46.7801C282.875 47.2268 282.186 47.2621 281.74 46.859C281.292 46.4543 281.26 45.7618 281.668 45.3171C282.068 44.8809 282.745 44.8459 283.189 45.2382C283.641 45.6383 283.681 46.3311 283.277 46.7801Z" fill="#2B65EC"/>
<path d="M278.777 42.9762C278.42 43.4643 277.734 43.5674 277.249 43.2056C276.769 42.847 276.67 42.1673 277.028 41.6865L277.042 41.6677C277.397 41.1897 278.072 41.0873 278.553 41.4381C279.039 41.7918 279.145 42.4723 278.791 42.9572L278.777 42.9762Z" fill="#2B65EC"/>
<path d="M272.414 40.0449C272.931 40.3446 273.593 40.1674 273.892 39.6502C274.19 39.1331 274.014 38.47 273.498 38.1703C272.981 37.8706 272.319 38.0478 272.021 38.5649C271.722 39.0821 271.898 39.7452 272.414 40.0449Z" fill="#2B65EC"/>
<path d="M267.296 37.4348C267.841 37.6785 268.48 37.4327 268.723 36.8871C268.966 36.3416 268.722 35.7005 268.177 35.4568C267.632 35.213 266.992 35.4589 266.749 36.0044C266.506 36.5499 266.751 37.191 267.296 37.4348Z" fill="#2B65EC"/>
<path d="M263.231 34.6485C263.048 35.2159 262.439 35.5273 261.872 35.3437C261.3 35.1586 260.99 34.5418 261.183 33.9723L261.19 33.9501C261.38 33.3891 261.986 33.0859 262.549 33.2708C263.112 33.4561 263.42 34.0617 263.238 34.6262L263.231 34.6485Z" fill="#2B65EC"/>
<path d="M257.563 33.0341C257.437 33.6002 256.882 33.9621 256.313 33.8498C255.723 33.7335 255.345 33.1543 255.476 32.5678L255.487 32.521C255.613 31.9549 256.168 31.593 256.737 31.7053C257.327 31.8216 257.705 32.4008 257.574 32.9873L257.563 33.0341Z" fill="#2B65EC"/>
<path d="M250.591 32.9389C251.185 32.9987 251.715 32.5635 251.775 31.9695C251.834 31.3754 251.401 30.8434 250.807 30.7837C250.213 30.724 249.683 31.1591 249.624 31.7532C249.564 32.3472 249.997 32.8792 250.591 32.9389Z" fill="#2B65EC"/>
<path d="M238.15 82.947C238.668 83.2464 238.845 83.9081 238.547 84.4262C238.248 84.9461 237.584 85.1246 237.065 84.8245L219.28 74.5483C218.755 74.2444 218.578 73.5696 218.887 73.047C219.192 72.5318 219.855 72.3585 220.373 72.6584L238.15 82.947Z" fill="#2B65EC"/>
<path d="M238.756 84.0949L238.47 84.5916L242.987 87.2012L243.273 86.7045L238.756 84.0949Z" fill="#2B65EC"/>
<path d="M256.305 80.6963C255.822 81.0419 255.149 80.9283 254.806 80.443C254.464 79.9607 254.577 79.2932 255.058 78.9497L284.978 57.581C285.461 57.2355 286.134 57.3491 286.477 57.8343C286.819 58.3166 286.706 58.9842 286.225 59.3276L256.305 80.6963Z" fill="#2B65EC"/>
<path d="M246.367 86.674L246.049 86.1962L255.238 79.6343L255.556 80.1121L246.367 86.674Z" fill="#2B65EC"/>
<path d="M244.714 89.4455C243.601 89.4455 242.679 88.5217 242.679 87.4068C242.679 86.2919 243.569 85.3682 244.714 85.3682C245.859 85.3682 246.717 86.2919 246.717 87.4068C246.717 88.5217 245.795 89.4455 244.714 89.4455ZM244.714 85.9415C243.887 85.9415 243.251 86.6105 243.251 87.4068C243.251 88.2032 243.919 88.8721 244.714 88.8721C245.509 88.8721 246.176 88.2032 246.176 87.4068C246.176 86.6105 245.509 85.9415 244.714 85.9415Z" fill="#73A9FF"/>
<path d="M244.714 88.8083C243.951 88.8083 243.347 88.1712 243.347 87.4386C243.347 86.7059 243.983 86.0688 244.714 86.0688C245.445 86.0688 246.081 86.6741 246.081 87.4386C246.081 88.2031 245.477 88.8083 244.714 88.8083ZM244.714 86.6104C244.269 86.6104 243.887 86.9926 243.887 87.4386C243.887 87.8845 244.237 88.2349 244.714 88.2349C245.191 88.2349 245.509 87.8845 245.509 87.4386C245.509 86.9926 245.159 86.6104 244.714 86.6104Z" fill="#FF9900"/>
<path d="M244.968 88.6172H244.555V135.697H244.968V88.6172Z" fill="#FF9900"/>
<path d="M244.968 79.8574H244.555V86.3237H244.968V79.8574Z" fill="#FF9900"/>
<path d="M59.7079 117.349L62.0288 117.126L63.8092 117.254C63.8092 117.254 62.9508 118.082 60.916 118.177C59.994 118.241 57.2598 119.006 57.2598 119.006L57.3869 117.604L59.7079 117.381V117.349Z" fill="#FFC6AC"/>
<path d="M43.4617 109.258L46.3549 118.496L58.2138 117.445L57.2918 119.706L45.0195 123.019C45.0195 123.019 41.4587 117.063 41.5858 116.011C41.713 114.96 41.0454 108.08 43.4299 109.258H43.4617Z" fill="#DD000B"/>
<path d="M41.1724 157.74L42.3805 165.831L48.2305 166.691L51.2827 166.563L44.3517 163.983L42.9846 157.612L41.1724 157.74Z" fill="#FFC6AC"/>
<path d="M42.4123 167.073H43.6204L44.1927 166.34L48.8664 167.137L52.777 167.041C52.777 167.041 52.777 166.786 52.5862 166.691C51.9821 166.309 49.0571 165.767 49.0571 165.767C49.0571 165.767 49.2479 166.5 48.8664 166.595C48.5166 166.691 44.8922 166.022 44.0338 165.831C42.5713 165.449 42.1897 165.098 42.1262 165.162C41.9036 165.353 42.4123 167.105 42.4123 167.105V167.073Z" fill="black"/>
<path d="M63.3643 156.211L67.0523 163.76L73.5699 164.971L75.9227 164.493L68.7691 161.785L65.399 156.147L63.3643 156.211Z" fill="#FFC6AC"/>
<path d="M66.8933 164.939H68.1014L68.6737 164.206L73.5063 165.448L77.2579 164.907C77.2579 164.907 77.2579 164.652 77.0672 164.557C76.4631 164.174 73.5381 163.633 73.5381 163.633C73.5381 163.633 73.9832 164.588 73.5699 164.652C73.1884 164.716 69.3731 163.919 68.5147 163.696C67.0522 163.314 66.6707 162.964 66.6071 163.028C66.3846 163.219 66.8933 164.971 66.8933 164.971V164.939Z" fill="black"/>
<path d="M40.5685 107.825C40.791 110.246 38.947 112.412 36.4671 112.635C33.9872 112.858 31.7935 111.074 31.5709 108.621C31.3484 106.2 33.1924 104.034 35.6723 103.811C38.1522 103.588 40.3459 105.372 40.5685 107.825Z" fill="#282723"/>
<path d="M43.7797 104.226C43.9386 106.105 42.5715 107.761 40.6957 107.921L39.7101 106.392C37.8343 106.551 36.181 105.181 36.0221 103.302L35.8949 102.028C35.7359 100.148 37.103 98.4919 38.9789 98.3326L39.8373 98.2689C41.7131 98.1097 43.3663 99.4794 43.5253 101.359L43.7797 104.226Z" fill="#282723"/>
<path d="M41.8721 99.3518C41.8721 99.6703 41.9039 99.9889 41.8721 100.307C41.7767 102.505 40.6322 104.289 39.2015 104.671C39.265 105.659 39.1697 106.551 39.0107 107.347C38.8199 108.239 37.9297 110.15 37.9297 110.15C37.8343 111.679 40.0599 112.571 42.2854 112.762C42.8577 112.794 43.43 109.895 42.2218 109.195C41.6495 108.876 41.0455 108.43 40.9183 108.143C40.505 107.029 40.7911 106.678 41.1409 105.977C41.8403 104.958 43.0167 104.831 43.0167 104.831C43.1438 104.831 43.2392 104.767 43.3028 104.671C43.3346 104.448 43.3664 104.194 43.3028 103.939L43.0167 101.136C42.9213 100.371 42.508 99.7022 41.8721 99.3518Z" fill="#FFC6AC"/>
<path d="M41.2362 114.833C41.4905 117.859 39.2332 120.535 36.1492 120.79C33.0653 121.076 30.3628 118.846 30.0767 115.82C29.8223 112.794 32.0797 110.119 35.1636 109.864C38.2476 109.577 40.95 111.807 41.2362 114.833Z" fill="#282723"/>
<path d="M279.941 63.4844C277.175 64.8859 32.016 125.854 32.016 125.854C32.016 125.854 22.2872 134.2 22.9867 140.475C23.6861 146.75 31.3165 148.821 29.9494 157.198L279.941 63.4844Z" stroke="#2B65EC" stroke-width="0.33" stroke-miterlimit="10"/>
<path d="M88.5129 115.374L94.0131 112.603L94.1403 111.584L86.7324 112.89L88.5129 115.374Z" fill="#E9D6B8"/>
<path d="M75.5096 113.973L86.0968 112.38L86.7327 112.921L87.1142 112.221L89.8166 115.725L87.7819 118.974L73.284 120.885C73.284 120.885 69.1191 120.885 67.3387 116.84C66.4485 114.801 74.6194 114.164 75.4778 113.973H75.5096Z" fill="#D1DBEA"/>
<path d="M69.5135 109.983L65.7246 111.075L67.4289 117.014L71.2178 115.922L69.5135 109.983Z" fill="#E9D6B8"/>
<path d="M84.7931 156.083L83.0127 157.771L84.9839 159.651L87.4956 157.644L84.7931 156.083Z" fill="#7EB3FF"/>
<path d="M86.987 158.504L88.3541 160.479C88.3541 160.479 91.7878 160.575 92.1057 161.116C92.4236 161.626 92.0103 162.167 92.0103 162.167L85.2383 162.263L82.1226 158.409L83.1717 156.943C83.1717 156.943 85.3655 159.969 87.0188 158.504H86.987Z" fill="black"/>
<path d="M74.6828 127.128L101.739 134.009C101.739 134.009 109.02 135.251 106.095 139.838C103.17 144.425 88.6083 158.823 88.6083 158.823L81.5184 154.873L95.6664 139.87L73.1885 131.333L74.651 127.16L74.6828 127.128Z" fill="#2B65EC"/>
<path d="M136.076 158.504L128.064 154.969L127.142 157.358L132.77 160.575C132.77 160.575 137.348 161.499 136.108 158.504H136.076Z" fill="#9AC7F7"/>
<path d="M128.891 154.937L100.181 139.615L74.9054 129.613L65.5264 128.052C65.5264 128.052 67.4022 135.569 77.0674 139.01C86.7326 142.45 97.6695 146.527 97.6695 146.527L126.379 161.849L128.891 154.968V154.937Z" fill="#2B65EC"/>
<path d="M131.815 160.352L132.133 161.403H143.484C143.484 161.403 143.261 159.842 141.926 159.524C140.559 159.205 138.492 158.6 138.492 158.6L135.567 157.549C135.567 157.549 135.885 159.428 131.815 160.352Z" fill="black"/>
<path d="M74.9054 118.145L76.2726 127.925L79.3883 131.683L69.8185 135.952C69.8185 135.952 64.509 128.339 64.509 126.459C64.509 124.58 62.8239 117.126 67.4022 116.202L74.9054 118.177V118.145Z" fill="#D1DBEA"/>
<path d="M66.162 116.585L65.6533 114.705L70.327 113.559L72.2981 114.61L71.8848 115.852L66.162 116.585Z" fill="#D1DBEA"/>
<path d="M75.3823 126.364C75.5413 126.619 80.7872 128.625 80.7872 128.625L80.3421 129.772L76.8766 129.677L75.4141 126.364H75.3823Z" fill="#D1DBEA"/>
<path d="M68.487 104.577L64.9235 106.546C64.493 106.784 64.3365 107.326 64.574 107.758L67.4915 113.057C67.729 113.488 68.2705 113.645 68.701 113.407L72.2644 111.438C72.6949 111.2 72.8514 110.658 72.614 110.226L69.6964 104.927C69.459 104.495 68.9175 104.339 68.487 104.577Z" fill="#E9D6B8"/>
<path d="M70.2952 106.009C70.2952 106.009 70.4859 105.245 70.3906 104.862C70.3588 104.671 69.8501 104.162 69.3414 104.162C68.8327 104.162 68.7373 104.767 68.7373 104.767C68.7373 104.767 69.5639 104.767 69.6593 104.894C69.7547 105.022 70.2952 106.041 70.2952 106.041V106.009Z" fill="black"/>
<path d="M65.4946 110.341C65.4946 110.341 63.8413 108.621 63.6188 107.952C63.3962 107.315 63.2372 106.869 63.9049 106.391C64.9223 105.691 65.0813 105.914 65.431 105.308C65.7807 104.703 66.2894 103.365 66.5756 103.11C67.0525 102.665 68.0063 102.378 68.5785 103.397C69.0237 104.13 69.5959 104.066 69.5959 104.098C69.5959 104.225 69.4688 104.416 69.2144 104.767C68.515 105.818 67.9745 106.232 67.0843 106.455C66.2258 106.678 64.5726 107.028 64.7315 107.666C64.8587 108.303 65.8761 109.991 65.8761 110.15C65.8761 110.309 65.6853 110.341 65.4946 110.309V110.341Z" fill="black"/>
<path d="M67.4977 111.297C67.4977 111.297 67.4977 111.615 67.3706 111.711L66.6075 112.125C66.6075 112.125 66.2896 112.125 66.1942 111.998L65.4312 110.596C65.4312 110.596 65.4312 110.277 65.5583 110.182L66.3214 109.768C66.3214 109.768 66.6393 109.768 66.7347 109.895L67.4977 111.297Z" fill="#E9D6B8"/>
<path d="M72.0758 108.78C72.0758 108.78 72.0758 109.099 71.9487 109.195L71.1856 109.609C71.1856 109.609 70.8677 109.609 70.7723 109.481L70.0093 108.08C70.0093 108.08 70.0093 107.761 70.1364 107.666L70.8995 107.251C70.8995 107.251 71.2174 107.251 71.3128 107.379L72.0758 108.78Z" fill="#E9D6B8"/>
<path d="M66.0986 110.596C66.0986 110.596 67.2432 112.667 67.6247 113.367C67.9744 114.005 68.96 115.215 72.4891 113.272C74.5875 112.125 73.6655 110.628 73.3793 110.118C73.1568 109.736 72.1076 108.812 71.7579 108.717L72.2348 109.577C72.2348 109.577 71.3445 108.972 70.3589 109.545C68.7693 110.437 68.9282 111.584 68.197 111.934C67.6565 112.221 66.7663 111.552 66.0986 110.596Z" fill="black"/>
<path d="M70.4545 111.265L71.5355 110.66C71.5355 110.66 71.7262 110.405 71.6626 110.246L71.5673 110.086L69.9458 110.978L70.0412 111.138C70.0412 111.138 70.2955 111.329 70.4545 111.265Z" fill="#E9D6B8"/>
<path d="M127.873 95.1791C127.873 95.1791 131.18 91.8026 127.714 87.4386C125.807 85.0177 125.679 77.8188 131.084 79.4433C136.489 81.0679 134.741 78.4877 137.793 79.3796C140.845 80.2715 142.371 81.9916 142.244 84.0302C142.117 86.1007 142.88 89.8913 144.755 90.4329C146.631 90.9744 152.863 95.3702 148.062 101.199C143.261 107.029 125.648 104.194 127.905 95.1472L127.873 95.1791Z" fill="black"/>
<path d="M131.116 79.4434C136.203 80.9724 134.931 78.7426 137.348 79.2841C137.125 79.7938 136.807 80.3034 136.33 80.8449C134.486 83.0747 130.735 84.2214 126.919 84.2851C126.57 81.3865 127.237 78.2966 131.084 79.4434H131.116Z" fill="black"/>
<path d="M149.493 129.836L165.962 152.197C165.962 152.197 165.644 152.675 160.525 148.789C155.152 144.712 149.811 140.826 147.903 138.723C145.995 136.621 144.438 130.027 145.042 129.677C145.646 129.358 149.493 129.804 149.493 129.804V129.836Z" fill="#F7B68B"/>
<path d="M130.862 95.3384L133.787 112.985L140.273 111.01C140.273 111.01 144.024 101.55 143.865 99.8298C143.865 99.5113 142.594 91.6115 142.117 91.4522C140.845 90.9426 139.605 91.3567 139.382 91.3567C135.472 91.7071 133.819 92.6308 133.819 92.6308L130.894 95.3066L130.862 95.3384Z" fill="#2B65EC"/>
<path d="M137.793 132.48L143.102 154.809C143.102 154.809 136.203 148.024 134.327 143.469C132.451 138.914 130.925 131.206 131.943 130.6C132.928 129.995 137.793 132.48 137.793 132.48Z" fill="#F7B68B"/>
<path d="M131.974 130.569C132.96 129.963 137.824 132.448 137.824 132.448L138.937 137.162C137.443 137.353 135.917 137.385 134.422 137.226C133.564 137.131 132.865 136.844 132.292 136.462C131.656 133.467 131.434 130.919 131.974 130.569Z" fill="#FF9900"/>
<path d="M145.9 134.614C145.105 132.257 144.724 129.868 145.074 129.677C145.678 129.358 149.525 129.804 149.525 129.804L151.114 132.002C150.669 132.289 148.666 133.435 145.9 134.582V134.614Z" fill="#FF9900"/>
<path d="M140.018 110.182L150.606 130.983C150.606 130.983 140.813 137.067 132.261 136.079C123.708 135.092 128.923 116.266 128.923 116.266C128.923 116.266 131.879 109.004 133.469 108.048C135.09 107.124 140.05 110.15 140.05 110.15L140.018 110.182Z" fill="#2B65EC"/>
<path d="M142.117 91.6433L152.1 97.2496C152.1 97.2496 152.354 97.2814 152.704 97.4088C153.753 97.7592 153.244 98.0778 151.814 101.295C151.273 102.505 143.643 98.683 143.643 98.683L142.148 91.6433H142.117Z" fill="#2B65EC"/>
<path d="M130.767 95.402L140.813 102.824C140.813 102.824 143.929 100.69 144.183 101.263C144.438 101.805 144.183 103.652 144.183 103.652C144.183 103.652 145.074 104.671 141.354 106.837C140.209 107.506 131.943 101.677 131.943 101.677L130.926 99.7978C130.353 98.8422 129.845 97.7592 130.226 96.708L130.735 95.3701L130.767 95.402Z" fill="#2B65EC"/>
<path d="M158.331 95.9116C158.331 95.9116 164.626 92.1847 165.389 91.4839C166.152 90.7513 168.155 89.8912 165.453 89.8594C162.75 89.8594 156.773 93.0129 155.215 93.65C153.657 94.2871 156.169 96.485 158.299 95.9116H158.331Z" fill="#F7B68B"/>
<path d="M134.772 87.4706C134.232 85.4001 133.151 88.2669 133.151 88.2669C133.151 88.2669 134.359 90.8471 133.978 92.9813C134.295 93.1087 137.602 96.0393 138.429 92.7265C136.521 90.9745 135.122 88.8403 134.741 87.4706H134.772Z" fill="#F7B68B"/>
<path d="M133.819 90.1464C134.295 90.5287 134.868 90.8153 135.535 90.9428C135.98 91.0383 136.394 91.0383 136.807 90.9428C135.758 89.6686 135.027 88.3626 134.772 87.4388C134.232 85.3684 133.151 88.2352 133.151 88.2352C133.151 88.2352 133.532 89.0634 133.787 90.1464H133.819Z" fill="#FF9900"/>
<path d="M135.154 82.7244C135.154 82.7244 137.125 84.8267 137.475 86.292C137.825 87.7573 138.365 89.5729 136.934 89.987C135.79 90.3056 134.168 88.8721 133.278 88.3306C132.42 87.7891 133.691 86.3238 131.657 84.1896C130.925 83.4252 134.613 83.8074 135.122 82.7244H135.154Z" fill="#F7B68B"/>
<path d="M144.342 101.04L147.808 96.4531L149.143 97.6636C149.143 97.6636 146.377 105.5 142.562 105.181C142.435 104.257 143.134 102.665 144.342 101.04Z" fill="#F7B68B"/>
<path d="M138.301 157.899L143.865 155.924L142.911 153.535C142.911 153.535 142.053 153.089 141.958 153.535C141.576 155.478 136.298 157.708 138.301 157.899Z" fill="#F7B68B"/>
<path d="M139.033 156.498C139.033 156.498 139.509 157.517 143.388 154.714L143.929 155.892C143.929 155.892 139.764 158.441 137.284 157.995C136.394 157.836 138.047 157.167 139.033 156.498Z" fill="#212957"/>
<path d="M163.164 150.541C163.355 150.764 163.386 151.688 163.386 151.688C163.386 151.688 169.109 154.427 170.635 153.886C171.271 153.663 170.635 153.217 169.173 152.484C167.774 151.815 165.326 150.605 164.499 149.936C163.673 149.267 160.97 147.993 163.196 150.509L163.164 150.541Z" fill="#F7B68B"/>
<path d="M169.046 152.42C169.427 153.758 165.262 152.516 163.228 151.051C163.228 151.051 162.973 152.484 163.323 152.516C166.566 152.803 168.092 154.809 170.635 153.886C171.176 153.694 170.794 153.121 169.046 152.42Z" fill="#212957"/>
<path d="M155.216 93.6501C155.216 93.6501 157.918 96.071 158.3 95.9118C158.681 95.7844 158.936 96.8355 157.473 98.0141C155.979 99.1927 153.022 101.422 151.401 101.518C148.317 101.741 149.366 96.74 150.51 96.5807C151.655 96.4214 155.216 93.6501 155.216 93.6501Z" fill="#2B65EC"/>
<path d="M151.75 95.1473C151.75 95.1473 151.21 95.5295 151.845 96.1985C152.163 96.5489 152.958 96.6763 152.767 96.963C152.577 97.2815 152.354 97.823 151.909 97.823C151.464 97.823 150.415 98.4601 150.415 98.4601C150.415 98.4601 149.62 98.046 148.984 97.823C148.348 97.6 147.744 96.4851 147.744 96.4851C147.744 96.4851 149.652 95.4658 150.415 95.0836C151.305 94.6376 151.75 95.1154 151.75 95.1154V95.1473Z" fill="#F7B68B"/>
<path d="M170.603 92.6626L167.488 92.9493C167.011 92.9812 166.566 92.6308 166.502 92.1211C166.47 91.6433 166.82 91.1974 167.329 91.1337L170.444 90.847C170.921 90.8151 171.366 91.1655 171.43 91.6752C171.462 92.153 171.112 92.5989 170.603 92.6626Z" fill="#FF9900"/>
<path d="M164.626 90.1143C164.849 89.5409 168.601 89.7639 168.601 89.7639L170.317 90.178L171.144 91.4521C171.144 91.4521 170.413 91.9299 170.095 91.6114C169.777 91.2929 168.664 91.1654 168.664 91.1654C168.664 91.1654 167.965 92.0892 167.043 91.8662C166.121 91.6114 164.118 91.3566 164.626 90.1143Z" fill="#F7B68B"/>
<path d="M92.1055 119.388L102.248 109.991L104.632 109.609C104.632 109.609 102.566 110.947 102.438 111.361C101.834 113.145 99.0046 118.974 97.3196 120.726C95.2212 122.892 92.7731 124.453 92.7731 124.453L92.1373 119.388H92.1055Z" fill="#E9D6B8"/>
<path d="M78.2757 116.617L91.0249 118.846L91.5336 119.706L92.2648 119.069L94.0134 124.102L90.4526 127.001L73.1252 123.624C73.1252 123.624 68.3561 122.032 67.911 116.744C67.6885 114.1 77.2901 116.489 78.3393 116.617H78.2757Z" fill="#B0BFDE"/>
<path d="M91.2153 124.867C91.2153 124.867 91.3107 121.235 91.2789 119.324L91.5015 119.706L92.2327 119.069L92.805 120.821L93.2819 123.433L92.3917 124.007L92.0738 123.274L91.2153 124.899V124.867Z" fill="#D1DBEA"/>
<path d="M94.1402 111.584C93.8222 111.584 93.5679 111.329 93.5679 111.01V109.959C93.5679 109.641 93.8222 109.386 94.1402 109.386C94.4581 109.386 94.7124 109.641 94.7124 109.959V111.01C94.7124 111.329 94.4581 111.584 94.1402 111.584Z" fill="#E9D6B8"/>
<path d="M95.2212 111.106C94.9033 111.106 94.6489 110.851 94.6489 110.533V109.481C94.6489 109.163 94.9033 108.908 95.2212 108.908C95.5391 108.908 95.7935 109.163 95.7935 109.481V110.533C95.7935 110.851 95.5391 111.106 95.2212 111.106Z" fill="#E9D6B8"/>
<path d="M96.2705 110.628C95.9526 110.628 95.6982 110.373 95.6982 110.055V109.004C95.6982 108.685 95.9526 108.43 96.2705 108.43C96.5885 108.43 96.8428 108.685 96.8428 109.004V110.055C96.8428 110.373 96.5885 110.628 96.2705 110.628Z" fill="#E9D6B8"/>
<path d="M97.3511 110.15C97.0332 110.15 96.7788 109.895 96.7788 109.577V108.526C96.7788 108.207 97.0332 107.952 97.3511 107.952C97.669 107.952 97.9234 108.207 97.9234 108.526V109.577C97.9234 109.895 97.669 110.15 97.3511 110.15Z" fill="#E9D6B8"/>
<path d="M94.6173 112.444C94.6173 112.444 98.7504 111.616 98.814 110.469C98.814 110.023 97.3515 109.545 97.3515 109.545L93.8224 110.628C93.8224 110.628 92.3281 113.463 94.6173 112.444Z" fill="#E9D6B8"/>
<path d="M106.381 108.048C106.635 107.857 106.699 107.506 106.508 107.252L105.904 106.392C105.713 106.137 105.364 106.073 105.109 106.264C104.855 106.455 104.791 106.806 104.982 107.061L105.586 107.921C105.777 108.175 106.127 108.239 106.381 108.048Z" fill="#E9D6B8"/>
<path d="M105.236 108.271C105.491 108.08 105.554 107.729 105.364 107.475L104.759 106.615C104.569 106.36 104.219 106.296 103.965 106.487C103.71 106.678 103.647 107.029 103.837 107.283L104.442 108.144C104.632 108.398 104.982 108.462 105.236 108.271Z" fill="#E9D6B8"/>
<path d="M104.092 108.526C104.346 108.335 104.41 107.984 104.219 107.729L103.615 106.869C103.424 106.615 103.074 106.551 102.82 106.742C102.566 106.933 102.502 107.284 102.693 107.538L103.297 108.398C103.488 108.653 103.838 108.717 104.092 108.526Z" fill="#E9D6B8"/>
<path d="M102.947 108.749C103.202 108.558 103.265 108.207 103.074 107.952L102.47 107.092C102.28 106.837 101.93 106.774 101.676 106.965C101.421 107.156 101.358 107.506 101.548 107.761L102.152 108.621C102.343 108.876 102.693 108.94 102.947 108.749Z" fill="#E9D6B8"/>
<path d="M105.141 109.545C104.41 110.118 102.693 110.755 101.962 109.864C101.676 109.513 102.629 108.271 102.629 108.271L106.127 107.092C106.127 107.092 107.144 107.984 105.173 109.577L105.141 109.545Z" fill="#E9D6B8"/>
<path d="M43.6525 120.312L56.5289 137.895L69.0873 160.161L65.1449 160.957C65.1449 160.957 56.3699 147.61 54.5577 143.915C53.2223 141.176 42.3172 133.021 41.8085 130.25C41.268 127.447 42.0629 119.197 43.6525 120.312Z" fill="#2B65EC"/>
<path d="M44.1294 131.874L43.5571 142.768L44.6063 161.69L41.586 162.04C41.586 162.04 37.8979 148.47 38.1523 145.444C38.4066 142.418 38.5338 141.08 38.5338 141.08L36.8487 129.454C36.7534 129.039 36.0857 126.873 36.1493 126.491C36.3718 125.058 37.0395 120.439 38.1841 119.706C39.6466 118.814 43.4618 119.133 43.4618 119.133L44.1294 131.843V131.874Z" fill="#2B65EC"/>
<path d="M40.6637 108.94C40.6637 108.94 36.4351 109.577 35.386 111.424C34.146 113.654 35.9582 117.827 35.9582 117.827L38.2156 119.802C38.2156 119.802 41.7129 118.846 43.2707 119.356C44.8604 119.898 43.1436 109.131 43.1436 109.131L40.6637 108.908V108.94Z" fill="#FD2227"/>
<path d="M36.2126 110.564C36.2126 110.564 32.5246 113.75 30.5534 117.031C28.5822 120.344 25.4028 126.81 25.4028 127.734C25.4028 128.657 28.614 129.804 30.9667 129.422C33.3512 129.04 32.2384 125.886 32.3974 125.217C32.5246 124.548 37.0074 116.107 37.0074 116.107C37.0074 116.107 38.0566 110.947 36.2126 110.564Z" fill="#DD000B"/>
<path d="M29.218 126.3C29.9174 125.631 33.7008 123.784 37.9294 123.274C42.1579 122.764 43.4614 122.35 43.4614 122.35C43.4614 122.35 44.7649 123.083 41.0769 124.994C40.1867 125.472 35.5449 128.307 32.3655 128.817C29.1862 129.358 27.3421 128.02 29.1862 126.3H29.218Z" fill="#FFC6AC"/>
<path d="M43.4617 122.318L46.3867 121.076L48.0081 122.191L47.3087 124.007C47.3087 124.007 44.9878 124.357 44.4155 123.879C43.8432 123.402 42.9848 123.242 43.4617 122.35V122.318Z" fill="#FFC6AC"/>
<path d="M59.3585 119.324L59.9944 119.898L61.8384 119.738L63.3009 118.623C63.3009 118.623 62.2517 117.477 62.0291 117.126C61.8066 116.776 58.9134 118.177 59.3585 119.324Z" fill="#FFC6AC"/>
</g>
<defs>
<clipPath id="clip0_41_6294">
<rect width="362" height="183" fill="white"/>
</clipPath>
</defs>
</svg>
