<svg width="115" height="22" viewBox="0 0 115 22" fill="none" xmlns="http://www.w3.org/2000/svg">
<rect opacity="0.4" width="21" height="21" rx="2" fill="#5B4214"/>
<path d="M8.407 7.609V6.19H11.157V14H9.573V7.609H8.407Z" fill="white"/>
<path d="M33.12 1.928L28.752 19.72H27.312L31.68 1.928H33.12ZM35.457 6.936V5.64H38.193V17H36.769V6.936H35.457ZM40.6616 15.8C41.1736 15.352 41.5576 15.0213 41.8136 14.808C42.891 13.88 43.739 13.1173 44.3576 12.52C44.987 11.9227 45.5096 11.2987 45.9256 10.648C46.3416 9.98667 46.5496 9.34133 46.5496 8.712C46.5496 8.04 46.3736 7.50133 46.0216 7.096C45.6803 6.69067 45.131 6.488 44.3736 6.488C43.6483 6.488 43.0883 6.71733 42.6936 7.176C42.299 7.624 42.0856 8.22133 42.0536 8.968H40.6616C40.7043 7.77333 41.0616 6.856 41.7336 6.216C42.4163 5.56533 43.291 5.24 44.3576 5.24C45.4563 5.24 46.331 5.54933 46.9816 6.168C47.643 6.776 47.9736 7.608 47.9736 8.664C47.9736 9.432 47.7603 10.184 47.3336 10.92C46.9176 11.6453 46.4163 12.3067 45.8296 12.904C45.2536 13.4907 44.5336 14.1627 43.6696 14.92C43.0936 15.4213 42.8323 15.6507 42.8856 15.608H48.3256V16.84H40.6616V15.8ZM50.0872 11.144C50.0872 12.968 50.3806 14.3973 50.9673 15.432C51.5539 16.4667 52.5993 16.984 54.1033 16.984C55.6073 16.984 56.6526 16.4667 57.2393 15.432C57.8259 14.3973 58.1193 12.968 58.1193 11.144C58.1193 9.30933 57.8259 7.88 57.2393 6.856C56.6526 5.82133 55.6073 5.304 54.1033 5.304C52.5993 5.304 51.5539 5.82133 50.9673 6.856C50.3806 7.89067 50.0872 9.32 50.0872 11.144ZM56.7113 11.144C56.7113 12.0613 56.6473 12.8453 56.5193 13.496C56.4019 14.136 56.1513 14.664 55.7673 15.08C55.3939 15.4853 54.8393 15.688 54.1033 15.688C53.3673 15.688 52.8073 15.4853 52.4233 15.08C52.0499 14.664 51.8046 14.136 51.6873 13.496C51.5699 12.856 51.5113 12.072 51.5113 11.144C51.5113 10.216 51.5699 9.432 51.6873 8.792C51.8046 8.14133 52.0499 7.61333 52.4233 7.208C52.8073 6.80267 53.3673 6.6 54.1033 6.6C54.8393 6.6 55.3939 6.80267 55.7673 7.208C56.1513 7.61333 56.4019 8.14133 56.5193 8.792C56.6473 9.432 56.7113 10.216 56.7113 11.144ZM69.904 8.072C70.6933 8.072 71.4027 8.25867 72.032 8.632C72.672 9.00533 73.1733 9.53333 73.536 10.216C73.9093 10.888 74.096 11.6667 74.096 12.552C74.096 13.4373 73.9093 14.232 73.536 14.936C73.1733 15.6293 72.672 16.1733 72.032 16.568C71.4027 16.952 70.6933 17.144 69.904 17.144C69.1573 17.144 68.5013 16.968 67.936 16.616C67.3813 16.2533 66.9547 15.784 66.656 15.208V21.16H65.2V8.216H66.656V9.976C66.9547 9.41067 67.3813 8.952 67.936 8.6C68.5013 8.248 69.1573 8.072 69.904 8.072ZM69.616 9.336C69.0933 9.336 68.6027 9.46933 68.144 9.736C67.696 10.0027 67.3333 10.3867 67.056 10.888C66.7893 11.3787 66.656 11.9547 66.656 12.616C66.656 13.2773 66.7893 13.8587 67.056 14.36C67.3333 14.8507 67.696 15.2293 68.144 15.496C68.6027 15.7627 69.0933 15.896 69.616 15.896C70.1387 15.896 70.6293 15.7627 71.088 15.496C71.5467 15.2187 71.9093 14.824 72.176 14.312C72.4533 13.8 72.592 13.2133 72.592 12.552C72.592 11.8907 72.4533 11.32 72.176 10.84C71.9093 10.3493 71.5467 9.976 71.088 9.72C70.64 9.464 70.1493 9.336 69.616 9.336ZM79.5348 8.072C80.2814 8.072 80.9321 8.248 81.4868 8.6C82.0521 8.952 82.4788 9.41067 82.7668 9.976V8.216H84.2388V17H82.7668V15.208C82.4788 15.784 82.0521 16.2533 81.4868 16.616C80.9321 16.968 80.2814 17.144 79.5348 17.144C78.7454 17.144 78.0308 16.952 77.3908 16.568C76.7614 16.1733 76.2601 15.6293 75.8868 14.936C75.5241 14.232 75.3428 13.4373 75.3428 12.552C75.3428 11.6667 75.5241 10.888 75.8868 10.216C76.2601 9.53333 76.7614 9.00533 77.3908 8.632C78.0308 8.25867 78.7454 8.072 79.5348 8.072ZM79.7908 9.336C79.2681 9.336 78.7774 9.464 78.3188 9.72C77.8708 9.976 77.5081 10.3493 77.2308 10.84C76.9641 11.32 76.8307 11.8907 76.8307 12.552C76.8307 13.2133 76.9641 13.8 77.2308 14.312C77.5081 14.8133 77.8708 15.2027 78.3188 15.48C78.7774 15.7573 79.2681 15.896 79.7908 15.896C80.3241 15.896 80.8148 15.7627 81.2628 15.496C81.7214 15.2293 82.0841 14.8507 82.3508 14.36C82.6281 13.8587 82.7668 13.2773 82.7668 12.616C82.7668 11.9547 82.6281 11.3787 82.3508 10.888C82.0841 10.3867 81.7214 10.0027 81.2628 9.736C80.8148 9.46933 80.3241 9.336 79.7908 9.336ZM90.2535 8.072C91.0002 8.072 91.6508 8.248 92.2055 8.6C92.7708 8.952 93.1975 9.41067 93.4855 9.976V8.216H94.9575V17.224C94.9575 18.024 94.7815 18.7333 94.4295 19.352C94.0775 19.9707 93.5815 20.4507 92.9415 20.792C92.3015 21.144 91.5602 21.32 90.7175 21.32C89.9815 21.32 89.3095 21.192 88.7015 20.936C88.0935 20.6907 87.5975 20.3387 87.2135 19.88C86.8295 19.4213 86.6002 18.8987 86.5255 18.312H87.9495C88.0882 18.8133 88.4135 19.2293 88.9255 19.56C89.4375 19.8907 90.0348 20.056 90.7175 20.056C91.5495 20.056 92.2162 19.8053 92.7175 19.304C93.2295 18.8133 93.4855 18.12 93.4855 17.224V15.208C93.1975 15.784 92.7708 16.2533 92.2055 16.616C91.6508 16.968 91.0002 17.144 90.2535 17.144C89.4642 17.144 88.7495 16.952 88.1095 16.568C87.4802 16.1733 86.9788 15.6293 86.6055 14.936C86.2428 14.232 86.0615 13.4373 86.0615 12.552C86.0615 11.6667 86.2428 10.888 86.6055 10.216C86.9788 9.53333 87.4802 9.00533 88.1095 8.632C88.7495 8.25867 89.4642 8.072 90.2535 8.072ZM90.5095 9.336C89.9868 9.336 89.4962 9.464 89.0375 9.72C88.5895 9.976 88.2268 10.3493 87.9495 10.84C87.6828 11.32 87.5495 11.8907 87.5495 12.552C87.5495 13.2133 87.6828 13.8 87.9495 14.312C88.2268 14.8133 88.5895 15.2027 89.0375 15.48C89.4962 15.7573 89.9868 15.896 90.5095 15.896C91.0428 15.896 91.5335 15.7627 91.9815 15.496C92.4402 15.2293 92.8028 14.8507 93.0695 14.36C93.3468 13.8587 93.4855 13.2773 93.4855 12.616C93.4855 11.9547 93.3468 11.3787 93.0695 10.888C92.8028 10.3867 92.4402 10.0027 91.9815 9.736C91.5335 9.46933 91.0428 9.336 90.5095 9.336ZM105.324 12.248C105.324 12.5573 105.303 12.8453 105.26 13.112H98.2682C98.3109 13.9867 98.5829 14.68 99.0843 15.192C99.5963 15.6933 100.247 15.944 101.036 15.944C101.634 15.944 102.135 15.8107 102.54 15.544C102.956 15.2773 103.26 14.9253 103.452 14.488H105.02C104.743 15.256 104.263 15.8907 103.58 16.392C102.908 16.8933 102.06 17.144 101.036 17.144C100.215 17.144 99.4789 16.9573 98.8283 16.584C98.1883 16.2107 97.6869 15.6827 97.3243 15C96.9616 14.3067 96.7803 13.512 96.7803 12.616C96.7803 11.7093 96.9616 10.9147 97.3243 10.232C97.6869 9.53867 98.1989 9.00533 98.8603 8.632C99.5216 8.25867 100.284 8.072 101.148 8.072C101.97 8.072 102.695 8.25333 103.324 8.616C103.954 8.97867 104.444 9.47467 104.796 10.104C105.148 10.7333 105.324 11.448 105.324 12.248ZM103.804 12.056C103.804 11.4907 103.682 11 103.436 10.584C103.191 10.1573 102.855 9.832 102.428 9.608C102.012 9.384 101.548 9.272 101.036 9.272C100.279 9.272 99.6443 9.52267 99.1323 10.024C98.6203 10.5147 98.3376 11.192 98.2843 12.056H103.804ZM110.161 8.072C111.111 8.072 111.863 8.32267 112.418 8.824C112.972 9.31467 113.276 9.992 113.33 10.856H111.826C111.804 10.3653 111.639 9.97067 111.33 9.672C111.02 9.37333 110.594 9.224 110.049 9.224C109.495 9.224 109.058 9.35733 108.738 9.624C108.428 9.88 108.274 10.2053 108.274 10.6C108.274 10.9307 108.37 11.1973 108.562 11.4C108.764 11.592 109.01 11.736 109.298 11.832C109.596 11.928 109.996 12.0293 110.498 12.136C111.138 12.2853 111.65 12.4347 112.034 12.584C112.428 12.7227 112.764 12.9627 113.042 13.304C113.319 13.6347 113.458 14.088 113.458 14.664C113.458 15.144 113.319 15.576 113.042 15.96C112.764 16.3333 112.375 16.6267 111.874 16.84C111.372 17.0427 110.796 17.144 110.146 17.144C109.164 17.144 108.375 16.8987 107.778 16.408C107.191 15.9173 106.871 15.24 106.818 14.376H108.322C108.343 14.8667 108.514 15.2613 108.834 15.56C109.164 15.848 109.602 15.992 110.146 15.992C110.743 15.992 111.202 15.8693 111.522 15.624C111.852 15.3787 112.018 15.0533 112.018 14.648C112.018 14.3173 111.916 14.056 111.714 13.864C111.522 13.6613 111.276 13.512 110.978 13.416C110.679 13.3093 110.268 13.1973 109.746 13.08C109.116 12.9413 108.604 12.8027 108.21 12.664C107.826 12.5147 107.495 12.2853 107.218 11.976C106.951 11.6667 106.818 11.24 106.818 10.696C106.818 10.216 106.951 9.77867 107.218 9.384C107.495 8.97867 107.884 8.65867 108.386 8.424C108.898 8.18933 109.49 8.072 110.161 8.072Z" fill="#5B4214"/>
</svg>
