<svg width="348" height="348" viewBox="0 0 348 348" fill="none" xmlns="http://www.w3.org/2000/svg">
<mask id="mask0_67_4708" style="mask-type:alpha" maskUnits="userSpaceOnUse" x="0" y="0" width="348" height="348">
<rect width="347.715" height="347.715" fill="#D9D9D9"/>
</mask>
<g mask="url(#mask0_67_4708)">
<path d="M29 101.441V29H101.441V57.9763H57.9763V101.441H29ZM29 318.763V246.322H57.9763V289.786H101.441V318.763H29ZM246.322 318.763V289.786H289.786V246.322H318.763V318.763H246.322ZM289.786 101.441V57.9763H246.322V29H318.763V101.441H289.786ZM253.566 253.566H275.298V275.298H253.566V253.566ZM253.566 210.102H275.298V231.834H253.566V210.102ZM231.834 231.834H253.566V253.566H231.834V231.834ZM210.102 253.566H231.834V275.298H210.102V253.566ZM188.37 231.834H210.102V253.566H188.37V231.834ZM231.834 188.37H253.566V210.102H231.834V188.37ZM210.102 210.102H231.834V231.834H210.102V210.102ZM188.37 188.37H210.102V210.102H188.37V188.37ZM275.298 72.4644V159.393H188.37V72.4644H275.298ZM159.393 188.37V275.298H72.4644V188.37H159.393ZM159.393 72.4644V159.393H72.4644V72.4644H159.393ZM137.661 253.566V210.102H94.1966V253.566H137.661ZM137.661 137.661V94.1966H94.1966V137.661H137.661ZM253.566 137.661V94.1966H210.102V137.661H253.566Z" fill="white"/>
</g>
</svg>
