<svg width="24" height="24" viewBox="0 0 24 24" fill="none" xmlns="http://www.w3.org/2000/svg">
<path d="M18.031 14.617L22.314 18.899L20.899 20.314L16.617 16.031C15.0237 17.3082 13.042 18.0029 11 18C6.032 18 2 13.968 2 9C2 4.032 6.032 0 11 0C15.968 0 20 4.032 20 9C20.0029 11.042 19.3082 13.0237 18.031 14.617ZM16.025 13.875C17.2941 12.5699 18.0029 10.8204 18 9C18 5.133 14.867 2 11 2C7.133 2 4 5.133 4 9C4 12.867 7.133 16 11 16C12.8204 16.0029 14.5699 15.2941 15.875 14.025L16.025 13.875Z" fill="#00B900"/>
</svg>
