<svg width="333" height="409" viewBox="0 0 333 409" fill="none" xmlns="http://www.w3.org/2000/svg">
<mask id="mask0_28_1559" style="mask-type:alpha" maskUnits="userSpaceOnUse" x="0" y="0" width="333" height="409">
<path d="M0 204.5C0 317.442 79.0938 409 205.156 409C303.371 409 213.72 277.211 272.662 204.5C398.608 83.8197 303.371 0 205.156 0C56.4236 0 0 91.5578 0 204.5Z" fill="#D9D9D9"/>
</mask>
<g mask="url(#mask0_28_1559)">
<path d="M94.5459 93.3025H243.729V320.944H94.5459V93.3025Z" fill="#E6A545"/>
<path d="M105.548 188.458H243.729V227.071H105.548V188.458Z" fill="#5B4214"/>
<path d="M105.548 282.364H243.729V320.977H105.548V282.364Z" fill="#5B4214"/>
<path d="M105.548 235.324H243.729V273.937H105.548V235.324Z" fill="#5B4214"/>
<path d="M105.548 140.169H243.729V178.782H105.548V140.169Z" fill="#5B4214"/>
<path d="M105.548 93.3025H243.729V131.915H105.548V93.3025Z" fill="#5B4214"/>
<path fill-rule="evenodd" clip-rule="evenodd" d="M243.729 320.977H236.671V289.595H105.546V282.364H243.729V320.977Z" fill="#5B4214"/>
<path fill-rule="evenodd" clip-rule="evenodd" d="M243.729 273.937H236.671V242.555H105.546V235.324H243.729V273.937Z" fill="#5B4214"/>
<path fill-rule="evenodd" clip-rule="evenodd" d="M243.729 131.915H236.671V100.533H105.546V93.3025H243.729V131.915Z" fill="#5B4214"/>
<path fill-rule="evenodd" clip-rule="evenodd" d="M243.729 178.782H236.671V147.402H105.546V140.169H243.729V178.782Z" fill="#5B4214"/>
<path fill-rule="evenodd" clip-rule="evenodd" d="M243.729 227.069H236.671V195.689H105.546V188.458H243.729V227.069Z" fill="#5B4214"/>
<path d="M231.057 142.977H240.733V178.782H231.057V142.977Z" fill="#F7E26C"/>
<path d="M231.057 146.188H240.733V147.464H231.057V146.188Z" fill="white"/>
<path d="M231.057 174.377H240.733V175.651H231.057V174.377Z" fill="white"/>
<path d="M219.784 142.977H229.459V178.782H219.784V142.977Z" fill="#F5CB4C"/>
<path d="M219.784 146.188H229.459V147.464H219.784V146.188Z" fill="white"/>
<path d="M219.784 174.377H229.459V175.651H219.784V174.377Z" fill="white"/>
<path d="M208.261 142.977H217.936V178.782H208.261V142.977Z" fill="#F5CB4C"/>
<path d="M208.261 146.188H217.936V147.464H208.261V146.188Z" fill="white"/>
<path d="M208.261 174.377H217.936V175.651H208.261V174.377Z" fill="white"/>
<path d="M196.987 142.977H206.663V178.782H196.987V142.977Z" fill="#F7E26C"/>
<path d="M196.987 146.188H206.663V147.464H196.987V146.188Z" fill="white"/>
<path d="M196.987 174.377H206.663V175.651H196.987V174.377Z" fill="white"/>
<path d="M169.8 142.977H179.475V178.782H169.8V142.977Z" fill="#F7E26C"/>
<path d="M169.8 146.188H179.475V147.464H169.8V146.188Z" fill="white"/>
<path d="M169.8 174.377H179.475V175.651H169.8V174.377Z" fill="white"/>
<path d="M158.527 142.977H168.202V178.782H158.527V142.977Z" fill="#F5CB4C"/>
<path d="M158.527 146.188H168.202V147.464H158.527V146.188Z" fill="white"/>
<path d="M158.527 174.377H168.202V175.651H158.527V174.377Z" fill="white"/>
<path d="M147.004 142.977H156.679V178.782H147.004V142.977Z" fill="#F5CB4C"/>
<path d="M147.004 146.188H156.679V147.464H147.004V146.188Z" fill="white"/>
<path d="M147.004 174.377H156.679V175.651H147.004V174.377Z" fill="white"/>
<path d="M137.652 142.445L146.287 146.811L130.134 178.764L121.5 174.398L137.652 142.445Z" fill="#F7E26C"/>
<path d="M136.207 145.298L144.842 149.664L144.266 150.803L135.631 146.437L136.207 145.298Z" fill="white"/>
<path d="M123.494 170.437L132.128 174.802L131.553 175.941L122.918 171.576L123.494 170.437Z" fill="white"/>
<path d="M219.784 96.1285H229.459V131.933H219.784V96.1285Z" fill="#FCD574"/>
<path d="M219.784 99.3392H229.459V100.616H219.784V99.3392Z" fill="white"/>
<path d="M219.784 127.526H229.459V128.8H219.784V127.526Z" fill="white"/>
<path d="M208.261 96.1285H217.936V131.933H208.261V96.1285Z" fill="#FCD574"/>
<path d="M208.261 99.3392H217.936V100.616H208.261V99.3392Z" fill="white"/>
<path d="M208.261 127.526H217.936V128.8H208.261V127.526Z" fill="white"/>
<path d="M196.987 96.1285H206.663V131.933H196.987V96.1285Z" fill="#F7BB54"/>
<path d="M196.987 99.3392H206.663V100.616H196.987V99.3392Z" fill="white"/>
<path d="M196.987 127.526H206.663V128.8H196.987V127.526Z" fill="white"/>
<path d="M118.845 96.1285H128.52V131.933H118.845V96.1285Z" fill="#FCD574"/>
<path d="M118.845 99.3392H128.52V100.616H118.845V99.3392Z" fill="white"/>
<path d="M118.845 127.526H128.52V128.8H118.845V127.526Z" fill="white"/>
<path d="M107.571 96.1285H117.247V131.933H107.571V96.1285Z" fill="#FCD574"/>
<path d="M107.571 99.3392H117.247V100.616H107.571V99.3392Z" fill="white"/>
<path d="M107.571 127.526H117.247V128.8H107.571V127.526Z" fill="white"/>
<path d="M137.622 95.5609L154.136 127.329L145.552 131.792L129.038 100.025L137.622 95.5609Z" fill="#F7BB54"/>
<path d="M139.159 98.3819L139.747 99.5125L131.161 103.975L130.574 102.844L139.159 98.3819Z" fill="white"/>
<path d="M152.158 123.387L152.747 124.52L144.161 128.982L143.573 127.85L152.158 123.387Z" fill="white"/>
<path d="M141.81 191.293H151.486V227.098H141.81V191.293Z" fill="#FCD574"/>
<path d="M141.81 194.504H151.486V195.778H141.81V194.504Z" fill="white"/>
<path d="M141.81 222.691H151.486V223.967H141.81V222.691Z" fill="white"/>
<path d="M130.537 191.293H140.212V227.098H130.537V191.293Z" fill="#F7BB54"/>
<path d="M130.537 194.504H140.212V195.778H130.537V194.504Z" fill="white"/>
<path d="M130.537 222.691H140.212V223.967H130.537V222.691Z" fill="white"/>
<path d="M119.012 191.293H128.687V227.098H119.012V191.293Z" fill="#F7BB54"/>
<path d="M119.012 194.504H128.687V195.778H119.012V194.504Z" fill="white"/>
<path d="M119.012 222.691H128.687V223.967H119.012V222.691Z" fill="white"/>
<path d="M107.738 191.293H117.414V227.098H107.738V191.293Z" fill="#FCD574"/>
<path d="M107.738 194.504H117.414V195.778H107.738V194.504Z" fill="white"/>
<path d="M107.738 222.691H117.414V223.967H107.738V222.691Z" fill="white"/>
<path d="M191.472 191.293H201.147V227.098H191.472V191.293Z" fill="#FCD574"/>
<path d="M191.472 194.504H201.147V195.778H191.472V194.504Z" fill="white"/>
<path d="M191.472 222.691H201.147V223.967H191.472V222.691Z" fill="white"/>
<path d="M180.198 191.293H189.873V227.098H180.198V191.293Z" fill="#F7BB54"/>
<path d="M180.198 194.504H189.873V195.778H180.198V194.504Z" fill="white"/>
<path d="M180.198 222.691H189.873V223.967H180.198V222.691Z" fill="white"/>
<path d="M168.675 191.293H178.35V227.098H168.675V191.293Z" fill="#F7BB54"/>
<path d="M168.675 194.504H178.35V195.778H168.675V194.504Z" fill="white"/>
<path d="M168.675 222.691H178.35V223.967H168.675V222.691Z" fill="white"/>
<path d="M157.402 191.293H167.077V227.098H157.402V191.293Z" fill="#FCD574"/>
<path d="M157.402 194.504H167.077V195.778H157.402V194.504Z" fill="white"/>
<path d="M157.402 222.691H167.077V223.967H157.402V222.691Z" fill="white"/>
<path d="M209.253 192.299L230.209 221.328L222.365 226.992L201.408 197.964L209.253 192.299Z" fill="#FCD574"/>
<path d="M211.136 194.904L211.882 195.937L204.038 201.601L203.292 200.568L211.136 194.904Z" fill="white"/>
<path d="M227.63 217.759L228.377 218.794L220.532 224.458L219.785 223.423L227.63 217.759Z" fill="white"/>
<path d="M231.057 238.077H240.733V273.882H231.057V238.077Z" fill="#F7E26C"/>
<path d="M231.057 241.29H240.733V242.564H231.057V241.29Z" fill="white"/>
<path d="M231.057 269.477H240.733V270.753H231.057V269.477Z" fill="white"/>
<path d="M219.784 238.077H229.459V273.882H219.784V238.077Z" fill="#F5CB4C"/>
<path d="M219.784 241.29H229.459V242.564H219.784V241.29Z" fill="white"/>
<path d="M219.784 269.477H229.459V270.753H219.784V269.477Z" fill="white"/>
<path d="M211.995 239.313L219.839 244.977L198.883 274.006L191.038 268.342L211.995 239.313Z" fill="#F7E26C"/>
<path d="M210.111 241.947L217.956 247.61L217.211 248.643L209.366 242.98L210.111 241.947Z" fill="white"/>
<path d="M193.616 264.792L201.46 270.456L200.713 271.491L192.869 265.827L193.616 264.792Z" fill="white"/>
<path d="M130.537 238.082H140.212V273.886H130.537V238.082Z" fill="#F7E26C"/>
<path d="M130.537 241.292H140.212V242.566H130.537V241.292Z" fill="white"/>
<path d="M130.537 269.481H140.212V270.758H130.537V269.481Z" fill="white"/>
<path d="M119.012 238.082H128.687V273.886H119.012V238.082Z" fill="#F7E26C"/>
<path d="M119.012 241.292H128.687V242.566H119.012V241.292Z" fill="white"/>
<path d="M119.012 269.481H128.687V270.758H119.012V269.481Z" fill="white"/>
<path d="M107.738 238.082H117.414V273.886H107.738V238.082Z" fill="#F5CB4C"/>
<path d="M107.738 241.292H117.414V242.566H107.738V241.292Z" fill="white"/>
<path d="M107.738 269.481H117.414V270.758H107.738V269.481Z" fill="white"/>
<path d="M231.057 285.15H240.733V320.955H231.057V285.15Z" fill="#FCD574"/>
<path d="M231.057 288.361H240.733V289.635H231.057V288.361Z" fill="white"/>
<path d="M231.057 316.55H240.733V317.826H231.057V316.55Z" fill="white"/>
<path d="M219.784 285.15H229.459V320.955H219.784V285.15Z" fill="#FCD574"/>
<path d="M219.784 288.361H229.459V289.635H219.784V288.361Z" fill="white"/>
<path d="M219.784 316.55H229.459V317.826H219.784V316.55Z" fill="white"/>
<path d="M208.261 285.15H217.936V320.955H208.261V285.15Z" fill="#F7BB54"/>
<path d="M208.261 288.361H217.936V289.635H208.261V288.361Z" fill="white"/>
<path d="M208.261 316.55H217.936V317.826H208.261V316.55Z" fill="white"/>
<path d="M196.987 285.15H206.663V320.955H196.987V285.15Z" fill="#FCD574"/>
<path d="M196.987 288.361H206.663V289.635H196.987V288.361Z" fill="white"/>
<path d="M196.987 316.55H206.663V317.826H196.987V316.55Z" fill="white"/>
<path d="M172.403 285.15H182.079V320.955H172.403V285.15Z" fill="#FCD574"/>
<path d="M172.403 288.361H182.079V289.635H172.403V288.361Z" fill="white"/>
<path d="M172.403 316.55H182.079V317.826H172.403V316.55Z" fill="white"/>
<path d="M161.132 285.15H170.807V320.955H161.132V285.15Z" fill="#F7BB54"/>
<path d="M161.132 288.361H170.807V289.635H161.132V288.361Z" fill="white"/>
<path d="M161.132 316.55H170.807V317.826H161.132V316.55Z" fill="white"/>
<path d="M152.836 285.367L160.998 290.562L141.779 320.769L133.616 315.574L152.836 285.367Z" fill="#F7BB54"/>
<path d="M151.113 288.073L159.276 293.267L158.591 294.344L150.428 289.149L151.113 288.073Z" fill="white"/>
<path d="M135.981 311.863L144.144 317.058L143.459 318.135L135.296 312.94L135.981 311.863Z" fill="white"/>
<path fill-rule="evenodd" clip-rule="evenodd" d="M117.425 298.06C117.863 298.06 118.216 298.413 118.216 298.851C118.216 299.289 117.863 299.643 117.425 299.643C116.987 299.643 116.633 299.289 116.633 298.851C116.633 298.413 116.987 298.06 117.425 298.06Z" fill="white"/>
<path fill-rule="evenodd" clip-rule="evenodd" d="M147.813 262.964C148.687 262.964 149.396 263.674 149.396 264.547C149.396 265.421 148.687 266.131 147.813 266.131C146.939 266.131 146.23 265.421 146.23 264.547C146.23 263.674 146.939 262.964 147.813 262.964Z" fill="white"/>
<path fill-rule="evenodd" clip-rule="evenodd" d="M134.903 254.624C135.341 254.624 135.695 254.978 135.695 255.416C135.695 255.854 135.341 256.207 134.903 256.207C134.465 256.207 134.112 255.854 134.112 255.416C134.112 254.978 134.465 254.624 134.903 254.624Z" fill="white"/>
<path fill-rule="evenodd" clip-rule="evenodd" d="M160.925 249.134C161.363 249.134 161.717 249.488 161.717 249.926C161.717 250.364 161.363 250.717 160.925 250.717C160.487 250.717 160.134 250.364 160.134 249.926C160.134 249.488 160.487 249.134 160.925 249.134Z" fill="white"/>
<path fill-rule="evenodd" clip-rule="evenodd" d="M136.259 209.554C136.706 209.554 137.066 209.917 137.066 210.362C137.066 210.806 136.704 211.169 136.259 211.169C135.815 211.169 135.452 210.806 135.452 210.362C135.452 209.917 135.815 209.554 136.259 209.554Z" fill="white"/>
<path fill-rule="evenodd" clip-rule="evenodd" d="M179.157 208.387C179.604 208.387 179.964 208.749 179.964 209.194C179.964 209.639 179.602 210.001 179.157 210.001C178.713 210.001 178.35 209.639 178.35 209.194C178.35 208.749 178.713 208.387 179.157 208.387Z" fill="white"/>
<path fill-rule="evenodd" clip-rule="evenodd" d="M200.716 269.868C201.163 269.868 201.523 270.231 201.523 270.675C201.523 271.12 201.16 271.482 200.716 271.482C200.271 271.482 199.909 271.12 199.909 270.675C199.909 270.231 200.271 269.868 200.716 269.868Z" fill="white"/>
<path fill-rule="evenodd" clip-rule="evenodd" d="M131.161 156.829C132.035 156.829 132.744 157.539 132.744 158.412C132.744 159.286 132.035 159.995 131.161 159.995C130.288 159.995 129.579 159.286 129.579 158.412C129.579 157.539 130.288 156.829 131.161 156.829Z" fill="white"/>
<path fill-rule="evenodd" clip-rule="evenodd" d="M120.194 157.583C120.804 157.583 121.299 158.077 121.299 158.688C121.299 159.3 120.806 159.793 120.194 159.793C119.583 159.793 119.089 159.297 119.089 158.688C119.089 158.079 119.585 157.583 120.194 157.583Z" fill="white"/>
<path fill-rule="evenodd" clip-rule="evenodd" d="M168.202 173.272C168.811 173.272 169.307 173.765 169.307 174.377C169.307 174.988 168.811 175.482 168.202 175.482C167.593 175.482 167.097 174.986 167.097 174.377C167.097 173.768 167.593 173.272 168.202 173.272Z" fill="white"/>
<path fill-rule="evenodd" clip-rule="evenodd" d="M219.613 211.453C220.222 211.453 220.718 211.949 220.718 212.558C220.718 213.168 220.222 213.663 219.613 213.663C219.003 213.663 218.508 213.168 218.508 212.558C218.508 211.949 219.003 211.453 219.613 211.453Z" fill="white"/>
<path d="M-55.4536 93.3025H93.73V320.944H-55.4536V93.3025Z" fill="#E6A545"/>
<path d="M-44.4512 188.458H93.73V227.071H-44.4512V188.458Z" fill="#5B4214"/>
<path d="M-44.4512 282.364H93.73V320.977H-44.4512V282.364Z" fill="#5B4214"/>
<path d="M-44.4512 235.324H93.73V273.937H-44.4512V235.324Z" fill="#5B4214"/>
<path d="M-44.4512 140.169H93.73V178.782H-44.4512V140.169Z" fill="#5B4214"/>
<path d="M-44.4512 93.3025H93.73V131.915H-44.4512V93.3025Z" fill="#5B4214"/>
<path fill-rule="evenodd" clip-rule="evenodd" d="M93.73 320.977H86.6714V289.595H-44.4512V282.364H93.73V320.977Z" fill="#5B4214"/>
<path fill-rule="evenodd" clip-rule="evenodd" d="M93.73 273.937H86.6714V242.555H-44.4512V235.324H93.73V273.937Z" fill="#5B4214"/>
<path fill-rule="evenodd" clip-rule="evenodd" d="M93.73 131.915H86.6714V100.533H-44.4512V93.3025H93.73V131.915Z" fill="#5B4214"/>
<path fill-rule="evenodd" clip-rule="evenodd" d="M93.73 178.782H86.6714V147.402H-44.4512V140.169H93.73V178.782Z" fill="#5B4214"/>
<path fill-rule="evenodd" clip-rule="evenodd" d="M93.73 227.069H86.6714V195.689H-44.4512V188.458H93.73V227.069Z" fill="#5B4214"/>
<path d="M81.0601 142.977H90.7354V178.782H81.0601V142.977Z" fill="#F7E26C"/>
<path d="M81.0601 146.188H90.7354V147.464H81.0601V146.188Z" fill="white"/>
<path d="M81.0601 174.377H90.7354V175.651H81.0601V174.377Z" fill="white"/>
<path d="M69.7865 142.977H79.4617V178.782H69.7865V142.977Z" fill="#F5CB4C"/>
<path d="M69.7865 146.188H79.4617V147.464H69.7865V146.188Z" fill="white"/>
<path d="M69.7865 174.377H79.4617V175.651H69.7865V174.377Z" fill="white"/>
<path d="M58.2615 142.977H67.9368V178.782H58.2615V142.977Z" fill="#F5CB4C"/>
<path d="M58.2615 146.188H67.9368V147.464H58.2615V146.188Z" fill="white"/>
<path d="M58.2615 174.377H67.9368V175.651H58.2615V174.377Z" fill="white"/>
<path d="M46.99 142.977H56.6653V178.782H46.99V142.977Z" fill="#F7E26C"/>
<path d="M46.99 146.188H56.6653V147.464H46.99V146.188Z" fill="white"/>
<path d="M46.99 174.377H56.6653V175.651H46.99V174.377Z" fill="white"/>
<path d="M19.8028 142.977H29.478V178.782H19.8028V142.977Z" fill="#F7E26C"/>
<path d="M19.8028 146.188H29.478V147.464H19.8028V146.188Z" fill="white"/>
<path d="M19.8028 174.377H29.478V175.651H19.8028V174.377Z" fill="white"/>
<path d="M8.52935 142.977H18.2046V178.782H8.52935V142.977Z" fill="#F5CB4C"/>
<path d="M8.52935 146.188H18.2046V147.464H8.52935V146.188Z" fill="white"/>
<path d="M8.52935 174.377H18.2046V175.651H8.52935V174.377Z" fill="white"/>
<path d="M-2.9958 142.977H6.67944V178.782H-2.9958V142.977Z" fill="#F5CB4C"/>
<path d="M-2.9958 146.188H6.67944V147.464H-2.9958V146.188Z" fill="white"/>
<path d="M-2.9958 174.377H6.67944V175.651H-2.9958V174.377Z" fill="white"/>
<path d="M69.7865 96.1285H79.4617V131.933H69.7865V96.1285Z" fill="#FCD574"/>
<path d="M69.7865 99.3392H79.4617V100.616H69.7865V99.3392Z" fill="white"/>
<path d="M69.7865 127.526H79.4617V128.8H69.7865V127.526Z" fill="white"/>
<path d="M58.2615 96.1285H67.9368V131.933H58.2615V96.1285Z" fill="#FCD574"/>
<path d="M58.2615 99.3392H67.9368V100.616H58.2615V99.3392Z" fill="white"/>
<path d="M58.2615 127.526H67.9368V128.8H58.2615V127.526Z" fill="white"/>
<path d="M46.99 96.1285H56.6653V131.933H46.99V96.1285Z" fill="#F7BB54"/>
<path d="M46.99 99.3392H56.6653V100.616H46.99V99.3392Z" fill="white"/>
<path d="M46.99 127.526H56.6653V128.8H46.99V127.526Z" fill="white"/>
<path d="M-12.3859 95.5678L4.12793 127.335L-4.45645 131.799L-20.9703 100.031L-12.3859 95.5678Z" fill="#F7BB54"/>
<path d="M2.17108 123.382L2.75952 124.515L-5.82563 128.977L-6.41408 127.844L2.17108 123.382Z" fill="white"/>
<path d="M-8.18916 191.293H1.48608V227.098H-8.18916V191.293Z" fill="#FCD574"/>
<path d="M-8.18916 194.504H1.48608V195.778H-8.18916V194.504Z" fill="white"/>
<path d="M-8.18916 222.691H1.48608V223.967H-8.18916V222.691Z" fill="white"/>
<path d="M41.4744 191.293H51.1497V227.098H41.4744V191.293Z" fill="#FCD574"/>
<path d="M41.4744 194.504H51.1497V195.778H41.4744V194.504Z" fill="white"/>
<path d="M41.4744 222.691H51.1497V223.967H41.4744V222.691Z" fill="white"/>
<path d="M30.2005 191.293H39.8757V227.098H30.2005V191.293Z" fill="#F7BB54"/>
<path d="M30.2005 194.504H39.8757V195.778H30.2005V194.504Z" fill="white"/>
<path d="M30.2005 222.691H39.8757V223.967H30.2005V222.691Z" fill="white"/>
<path d="M18.6758 191.293H28.3511V227.098H18.6758V191.293Z" fill="#F7BB54"/>
<path d="M18.6758 194.504H28.3511V195.778H18.6758V194.504Z" fill="white"/>
<path d="M18.6758 222.691H28.3511V223.967H18.6758V222.691Z" fill="white"/>
<path d="M7.40435 191.293H17.0796V227.098H7.40435V191.293Z" fill="#FCD574"/>
<path d="M7.40435 194.504H17.0796V195.778H7.40435V194.504Z" fill="white"/>
<path d="M7.40435 222.691H17.0796V223.967H7.40435V222.691Z" fill="white"/>
<path d="M59.2515 192.304L80.208 221.333L72.3637 226.997L51.4072 197.968L59.2515 192.304Z" fill="#FCD574"/>
<path d="M61.133 194.907L61.8787 195.939L54.0344 201.604L53.2887 200.571L61.133 194.907Z" fill="white"/>
<path d="M77.627 217.762L78.374 218.797L70.5297 224.461L69.7827 223.426L77.627 217.762Z" fill="white"/>
<path d="M81.0601 238.077H90.7354V273.882H81.0601V238.077Z" fill="#F7E26C"/>
<path d="M81.0601 241.29H90.7354V242.564H81.0601V241.29Z" fill="white"/>
<path d="M81.0601 269.477H90.7354V270.753H81.0601V269.477Z" fill="white"/>
<path d="M69.7865 238.077H79.4617V273.882H69.7865V238.077Z" fill="#F5CB4C"/>
<path d="M69.7865 241.29H79.4617V242.564H69.7865V241.29Z" fill="white"/>
<path d="M69.7865 269.477H79.4617V270.753H69.7865V269.477Z" fill="white"/>
<path d="M62.0024 239.307L69.8467 244.971L48.8902 274L41.0459 268.336L62.0024 239.307Z" fill="#F7E26C"/>
<path d="M60.1081 241.952L67.9534 247.615L67.2078 248.648L59.3626 242.985L60.1081 241.952Z" fill="white"/>
<path d="M43.615 264.795L51.4592 270.459L50.7122 271.494L42.868 265.83L43.615 264.795Z" fill="white"/>
<path d="M81.0601 285.15H90.7354V320.955H81.0601V285.15Z" fill="#FCD574"/>
<path d="M81.0601 288.361H90.7354V289.635H81.0601V288.361Z" fill="white"/>
<path d="M81.0601 316.55H90.7354V317.826H81.0601V316.55Z" fill="white"/>
<path d="M69.7865 285.15H79.4617V320.955H69.7865V285.15Z" fill="#FCD574"/>
<path d="M69.7865 288.361H79.4617V289.635H69.7865V288.361Z" fill="white"/>
<path d="M69.7865 316.55H79.4617V317.826H69.7865V316.55Z" fill="white"/>
<path d="M58.2615 285.15H67.9368V320.955H58.2615V285.15Z" fill="#F7BB54"/>
<path d="M58.2615 288.361H67.9368V289.635H58.2615V288.361Z" fill="white"/>
<path d="M58.2615 316.55H67.9368V317.826H58.2615V316.55Z" fill="white"/>
<path d="M46.99 285.15H56.6653V320.955H46.99V285.15Z" fill="#FCD574"/>
<path d="M46.99 288.361H56.6653V289.635H46.99V288.361Z" fill="white"/>
<path d="M46.99 316.55H56.6653V317.826H46.99V316.55Z" fill="white"/>
<path d="M22.4063 285.15H32.0815V320.955H22.4063V285.15Z" fill="#FCD574"/>
<path d="M22.4063 288.361H32.0815V289.635H22.4063V288.361Z" fill="white"/>
<path d="M22.4063 316.55H32.0815V317.826H22.4063V316.55Z" fill="white"/>
<path d="M11.1324 285.15H20.8076V320.955H11.1324V285.15Z" fill="#F7BB54"/>
<path d="M11.1324 288.361H20.8076V289.635H11.1324V288.361Z" fill="white"/>
<path d="M11.1324 316.55H20.8076V317.826H11.1324V316.55Z" fill="white"/>
<path d="M2.83487 285.372L10.9976 290.567L-8.2218 320.774L-16.3845 315.579L2.83487 285.372Z" fill="#F7BB54"/>
<path d="M1.11265 288.074L9.27539 293.269L8.5903 294.346L0.427563 289.151L1.11265 288.074Z" fill="white"/>
<path fill-rule="evenodd" clip-rule="evenodd" d="M10.9281 249.134C11.366 249.134 11.7195 249.488 11.7195 249.926C11.7195 250.364 11.366 250.717 10.9281 250.717C10.4901 250.717 10.1366 250.364 10.1366 249.926C10.1366 249.488 10.4901 249.134 10.9281 249.134Z" fill="white"/>
<path fill-rule="evenodd" clip-rule="evenodd" d="M29.1602 208.387C29.6071 208.387 29.9673 208.749 29.9673 209.194C29.9673 209.639 29.6049 210.001 29.1602 210.001C28.7156 210.001 28.3533 209.639 28.3533 209.194C28.3533 208.749 28.7156 208.387 29.1602 208.387Z" fill="white"/>
<path fill-rule="evenodd" clip-rule="evenodd" d="M50.716 269.868C51.1628 269.868 51.5229 270.231 51.5229 270.675C51.5229 271.12 51.1606 271.482 50.716 271.482C50.2713 271.482 49.9089 271.12 49.9089 270.675C49.9089 270.231 50.2713 269.868 50.716 269.868Z" fill="white"/>
<path fill-rule="evenodd" clip-rule="evenodd" d="M18.2044 173.272C18.8136 173.272 19.3093 173.765 19.3093 174.377C19.3093 174.988 18.8136 175.482 18.2044 175.482C17.5953 175.482 17.0995 174.986 17.0995 174.377C17.0995 173.768 17.5953 173.272 18.2044 173.272Z" fill="white"/>
<path fill-rule="evenodd" clip-rule="evenodd" d="M69.6153 211.453C70.2245 211.453 70.7202 211.949 70.7202 212.558C70.7202 213.168 70.2245 213.663 69.6153 213.663C69.0062 213.663 68.5103 213.168 68.5103 212.558C68.5103 211.949 69.0062 211.453 69.6153 211.453Z" fill="white"/>
<path d="M94.5459 -136H243.729V91.6411H94.5459V-136Z" fill="#E6A545"/>
<path d="M105.548 53.0615H243.729V91.6743H105.548V53.0615Z" fill="#5B4214"/>
<path d="M105.548 6.02185H243.729V44.6346H105.548V6.02185Z" fill="#5B4214"/>
<path fill-rule="evenodd" clip-rule="evenodd" d="M243.729 91.6743H236.671V60.2923H105.546V53.0615H243.729V91.6743Z" fill="#5B4214"/>
<path fill-rule="evenodd" clip-rule="evenodd" d="M243.729 44.6346H236.671V13.2526H105.546V6.02185H243.729V44.6346Z" fill="#5B4214"/>
<path d="M231.057 8.77454H240.733V44.5791H231.057V8.77454Z" fill="#F7E26C"/>
<path d="M231.057 11.9874H240.733V13.2615H231.057V11.9874Z" fill="white"/>
<path d="M231.057 40.1743H240.733V41.4506H231.057V40.1743Z" fill="white"/>
<path d="M219.784 8.77454H229.459V44.5791H219.784V8.77454Z" fill="#F5CB4C"/>
<path d="M219.784 11.9874H229.459V13.2615H219.784V11.9874Z" fill="white"/>
<path d="M219.784 40.1743H229.459V41.4506H219.784V40.1743Z" fill="white"/>
<path d="M211.995 10.0104L219.839 15.6749L198.883 44.7037L191.038 39.0392L211.995 10.0104Z" fill="#F7E26C"/>
<path d="M210.111 12.6441L217.956 18.3073L217.211 19.3403L209.366 13.6772L210.111 12.6441Z" fill="white"/>
<path d="M193.616 35.4895L201.46 41.1539L200.713 42.1887L192.869 36.5242L193.616 35.4895Z" fill="white"/>
<path d="M130.537 8.77905H140.212V44.5836H130.537V8.77905Z" fill="#F7E26C"/>
<path d="M130.537 11.9897H140.212V13.2638H130.537V11.9897Z" fill="white"/>
<path d="M130.537 40.1788H140.212V41.4551H130.537V40.1788Z" fill="white"/>
<path d="M119.012 8.77905H128.687V44.5836H119.012V8.77905Z" fill="#F7E26C"/>
<path d="M119.012 11.9897H128.687V13.2638H119.012V11.9897Z" fill="white"/>
<path d="M119.012 40.1788H128.687V41.4551H119.012V40.1788Z" fill="white"/>
<path d="M107.738 8.77905H117.414V44.5836H107.738V8.77905Z" fill="#F5CB4C"/>
<path d="M107.738 11.9897H117.414V13.2638H107.738V11.9897Z" fill="white"/>
<path d="M107.738 40.1788H117.414V41.4551H107.738V40.1788Z" fill="white"/>
<path d="M231.057 55.8475H240.733V91.6521H231.057V55.8475Z" fill="#FCD574"/>
<path d="M231.057 59.0583H240.733V60.3324H231.057V59.0583Z" fill="white"/>
<path d="M231.057 87.2476H240.733V88.5238H231.057V87.2476Z" fill="white"/>
<path d="M219.784 55.8475H229.459V91.6521H219.784V55.8475Z" fill="#FCD574"/>
<path d="M219.784 59.0583H229.459V60.3324H219.784V59.0583Z" fill="white"/>
<path d="M219.784 87.2476H229.459V88.5238H219.784V87.2476Z" fill="white"/>
<path d="M208.261 55.8475H217.936V91.6521H208.261V55.8475Z" fill="#F7BB54"/>
<path d="M208.261 59.0583H217.936V60.3324H208.261V59.0583Z" fill="white"/>
<path d="M208.261 87.2476H217.936V88.5238H208.261V87.2476Z" fill="white"/>
<path d="M196.987 55.8475H206.663V91.6521H196.987V55.8475Z" fill="#FCD574"/>
<path d="M196.987 59.0583H206.663V60.3324H196.987V59.0583Z" fill="white"/>
<path d="M196.987 87.2476H206.663V88.5238H196.987V87.2476Z" fill="white"/>
<path d="M172.403 55.8475H182.079V91.6521H172.403V55.8475Z" fill="#FCD574"/>
<path d="M172.403 59.0583H182.079V60.3324H172.403V59.0583Z" fill="white"/>
<path d="M172.403 87.2476H182.079V88.5238H172.403V87.2476Z" fill="white"/>
<path d="M161.132 55.8475H170.807V91.6521H161.132V55.8475Z" fill="#F7BB54"/>
<path d="M161.132 59.0583H170.807V60.3324H161.132V59.0583Z" fill="white"/>
<path d="M161.132 87.2476H170.807V88.5238H161.132V87.2476Z" fill="white"/>
<path d="M152.836 56.0646L160.998 61.2595L141.779 91.4668L133.616 86.2719L152.836 56.0646Z" fill="#F7BB54"/>
<path d="M151.113 58.77L159.276 63.965L158.591 65.0417L150.428 59.8468L151.113 58.77Z" fill="white"/>
<path d="M135.981 82.5605L144.144 87.7554L143.459 88.8321L135.296 83.6372L135.981 82.5605Z" fill="white"/>
<path fill-rule="evenodd" clip-rule="evenodd" d="M117.425 68.7571C117.863 68.7571 118.216 69.1106 118.216 69.5486C118.216 69.9867 117.863 70.3402 117.425 70.3402C116.987 70.3402 116.633 69.9867 116.633 69.5486C116.633 69.1106 116.987 68.7571 117.425 68.7571Z" fill="white"/>
<path fill-rule="evenodd" clip-rule="evenodd" d="M147.813 33.6619C148.687 33.6619 149.396 34.3712 149.396 35.245C149.396 36.1188 148.687 36.8281 147.813 36.8281C146.939 36.8281 146.23 36.1188 146.23 35.245C146.23 34.3712 146.939 33.6619 147.813 33.6619Z" fill="white"/>
<path fill-rule="evenodd" clip-rule="evenodd" d="M134.903 25.3217C135.341 25.3217 135.695 25.6752 135.695 26.1132C135.695 26.5512 135.341 26.9048 134.903 26.9048C134.465 26.9048 134.112 26.5512 134.112 26.1132C134.112 25.6752 134.465 25.3217 134.903 25.3217Z" fill="white"/>
<path fill-rule="evenodd" clip-rule="evenodd" d="M160.925 19.8318C161.363 19.8318 161.717 20.1853 161.717 20.6233C161.717 21.0614 161.363 21.4149 160.925 21.4149C160.487 21.4149 160.134 21.0614 160.134 20.6233C160.134 20.1853 160.487 19.8318 160.925 19.8318Z" fill="white"/>
<path fill-rule="evenodd" clip-rule="evenodd" d="M200.716 40.5657C201.163 40.5657 201.523 40.9281 201.523 41.3728C201.523 41.8175 201.16 42.1799 200.716 42.1799C200.271 42.1799 199.909 41.8175 199.909 41.3728C199.909 40.9281 200.271 40.5657 200.716 40.5657Z" fill="white"/>
<path d="M-55.4536 -136H93.73V91.6411H-55.4536V-136Z" fill="#E6A545"/>
<path d="M-44.4512 53.0615H93.73V91.6743H-44.4512V53.0615Z" fill="#5B4214"/>
<path d="M-44.4512 6.02185H93.73V44.6346H-44.4512V6.02185Z" fill="#5B4214"/>
<path fill-rule="evenodd" clip-rule="evenodd" d="M93.73 91.6743H86.6714V60.2923H-44.4512V53.0615H93.73V91.6743Z" fill="#5B4214"/>
<path fill-rule="evenodd" clip-rule="evenodd" d="M93.73 44.6346H86.6714V13.2526H-44.4512V6.02185H93.73V44.6346Z" fill="#5B4214"/>
<path d="M81.0601 8.77454H90.7354V44.5791H81.0601V8.77454Z" fill="#F7E26C"/>
<path d="M81.0601 11.9874H90.7354V13.2615H81.0601V11.9874Z" fill="white"/>
<path d="M81.0601 40.1743H90.7354V41.4506H81.0601V40.1743Z" fill="white"/>
<path d="M69.7865 8.77454H79.4617V44.5791H69.7865V8.77454Z" fill="#F5CB4C"/>
<path d="M69.7865 11.9874H79.4617V13.2615H69.7865V11.9874Z" fill="white"/>
<path d="M69.7865 40.1743H79.4617V41.4506H69.7865V40.1743Z" fill="white"/>
<path d="M62.0024 10.0043L69.8467 15.6688L48.8902 44.6976L41.0459 39.0331L62.0024 10.0043Z" fill="#F7E26C"/>
<path d="M60.1081 12.6491L67.9534 18.3123L67.2078 19.3453L59.3626 13.6822L60.1081 12.6491Z" fill="white"/>
<path d="M43.615 35.4923L51.4592 41.1567L50.7122 42.1915L42.868 36.527L43.615 35.4923Z" fill="white"/>
<path d="M81.0601 55.8475H90.7354V91.6521H81.0601V55.8475Z" fill="#FCD574"/>
<path d="M81.0601 59.0583H90.7354V60.3324H81.0601V59.0583Z" fill="white"/>
<path d="M81.0601 87.2476H90.7354V88.5238H81.0601V87.2476Z" fill="white"/>
<path d="M69.7865 55.8475H79.4617V91.6521H69.7865V55.8475Z" fill="#FCD574"/>
<path d="M69.7865 59.0583H79.4617V60.3324H69.7865V59.0583Z" fill="white"/>
<path d="M69.7865 87.2476H79.4617V88.5238H69.7865V87.2476Z" fill="white"/>
<path d="M58.2615 55.8475H67.9368V91.6521H58.2615V55.8475Z" fill="#F7BB54"/>
<path d="M58.2615 59.0583H67.9368V60.3324H58.2615V59.0583Z" fill="white"/>
<path d="M58.2615 87.2476H67.9368V88.5238H58.2615V87.2476Z" fill="white"/>
<path d="M46.99 55.8475H56.6653V91.6521H46.99V55.8475Z" fill="#FCD574"/>
<path d="M46.99 59.0583H56.6653V60.3324H46.99V59.0583Z" fill="white"/>
<path d="M46.99 87.2476H56.6653V88.5238H46.99V87.2476Z" fill="white"/>
<path d="M22.4063 55.8475H32.0815V91.6521H22.4063V55.8475Z" fill="#FCD574"/>
<path d="M22.4063 59.0583H32.0815V60.3324H22.4063V59.0583Z" fill="white"/>
<path d="M22.4063 87.2476H32.0815V88.5238H22.4063V87.2476Z" fill="white"/>
<path d="M11.1324 55.8475H20.8076V91.6521H11.1324V55.8475Z" fill="#F7BB54"/>
<path d="M11.1324 59.0583H20.8076V60.3324H11.1324V59.0583Z" fill="white"/>
<path d="M11.1324 87.2476H20.8076V88.5238H11.1324V87.2476Z" fill="white"/>
<path d="M2.83487 56.0695L10.9976 61.2644L-8.2218 91.4717L-16.3845 86.2768L2.83487 56.0695Z" fill="#F7BB54"/>
<path d="M1.11265 58.7715L9.27539 63.9664L8.5903 65.0432L0.427563 59.8483L1.11265 58.7715Z" fill="white"/>
<path fill-rule="evenodd" clip-rule="evenodd" d="M10.9281 19.8318C11.366 19.8318 11.7195 20.1853 11.7195 20.6233C11.7195 21.0614 11.366 21.4149 10.9281 21.4149C10.4901 21.4149 10.1366 21.0614 10.1366 20.6233C10.1366 20.1853 10.4901 19.8318 10.9281 19.8318Z" fill="white"/>
<path fill-rule="evenodd" clip-rule="evenodd" d="M50.716 40.5657C51.1628 40.5657 51.5229 40.9281 51.5229 41.3728C51.5229 41.8175 51.1606 42.1799 50.716 42.1799C50.2713 42.1799 49.9089 41.8175 49.9089 41.3728C49.9089 40.9281 50.2713 40.5657 50.716 40.5657Z" fill="white"/>
<path d="M-52 321H542V341H-52V321Z" fill="#C2B8B8"/>
<path d="M-52 332H542V352H-52V332Z" fill="#A89B9B"/>
<path d="M-52 345H542V365H-52V345Z" fill="#918282"/>
<path d="M-46 361H542V382H-46V361Z" fill="#786666"/>
<path d="M-34 381H542V407H-34V381Z" fill="#5C4B4B"/>
<path d="M79.4395 398.287C26.8223 398.287 -15.8323 393.323 -15.8323 387.201C-15.8323 381.078 26.8223 376.115 79.4395 376.115C132.057 376.115 174.711 381.078 174.711 387.201C174.711 393.323 132.057 398.287 79.4395 398.287Z" fill="#362E2E"/>
<path fill-rule="evenodd" clip-rule="evenodd" d="M187.792 366.12C211.231 366.12 230.233 370.449 230.233 375.792C230.233 376.984 229.285 378.125 227.554 379.178C239.768 381.193 247.718 384.468 247.718 388.166C247.718 394.289 225.935 399.252 199.066 399.252C172.197 399.252 150.414 394.287 150.414 388.166C150.414 386.096 152.904 384.161 157.235 382.503C149.876 380.764 145.35 378.398 145.35 375.792C145.35 370.451 164.351 366.12 187.79 366.12H187.792Z" fill="#362E2E"/>
<path fill-rule="evenodd" clip-rule="evenodd" d="M187.003 362.847C183.757 356.09 182.136 352.71 182.136 352.71C193.168 353.798 194.791 357.177 187.003 362.847Z" fill="#381E0A"/>
<path fill-rule="evenodd" clip-rule="evenodd" d="M187.739 360.726C185.374 355.799 184.191 353.335 184.191 353.335C192.234 354.129 193.417 356.592 187.739 360.726Z" fill="#5E3716"/>
<path fill-rule="evenodd" clip-rule="evenodd" d="M160.458 371.207C162.553 370.398 164.851 370.267 167.023 370.832C170.576 371.032 172.352 371.132 172.352 371.132C174.304 371.859 175.438 373.9 175.025 375.943C174.611 377.987 172.773 379.425 170.689 379.334C171.725 380.604 172.246 381.237 172.246 381.237C173.219 382.247 173.468 383.752 172.877 385.024C172.283 386.296 170.972 387.072 169.571 386.976C170.105 387.654 170.145 388.599 169.667 389.32C169.189 390.04 168.304 390.371 167.473 390.145C167.719 391.11 167.361 392.13 166.565 392.728C165.77 393.326 164.689 393.386 163.831 392.88C162.673 393.827 160.968 393.656 160.02 392.499C155.674 393.366 151.023 393.602 146.068 393.206C140.65 392.773 136.184 391.763 131.175 391.405C125.995 391.034 121.031 392.019 115.971 391.394C109.117 390.549 105.415 387.292 104.87 381.624C126.917 364.693 145.448 361.22 160.458 371.21V371.207Z" fill="#FCB772"/>
<path fill-rule="evenodd" clip-rule="evenodd" d="M162.023 370.736C163.035 370.514 164.073 370.44 165.107 370.516C158.031 379.826 146.005 383.892 134.734 380.793C121.215 386.329 114.454 389.097 114.454 389.097C109.959 388.815 106.346 385.282 105.962 380.793C139.99 368.833 158.675 365.48 162.023 370.736Z" fill="#F27A24"/>
<path fill-rule="evenodd" clip-rule="evenodd" d="M148.144 328.303C150.981 327.823 152.4 327.583 152.4 327.583C161.281 327.892 169.093 333.542 172.168 341.88C175.243 350.218 172.971 359.59 166.417 365.591C162.826 371.192 157.142 375.118 150.634 376.495C144.127 377.871 137.34 376.582 131.789 372.913C110.895 380.215 82.3675 395.975 61.9788 389.56C52.9771 329.133 71.6696 314.838 148.144 328.303Z" fill="#F2ECA9"/>
<path d="M161.439 372.179C162.942 373.522 164.098 375.17 164.849 376.986C164.985 377.313 165.107 377.644 165.214 377.98C166.054 378.296 166.921 378.534 167.801 378.692C168.753 378.861 169.718 378.936 170.678 378.914C170.912 378.909 171.103 379.094 171.107 379.327C171.112 379.561 170.927 379.752 170.694 379.757C169.669 379.779 168.651 379.701 167.655 379.523C166.923 379.392 166.199 379.21 165.492 378.974C165.787 380.21 165.905 381.498 165.832 382.794C165.823 382.965 165.81 383.134 165.794 383.303C165.825 383.336 165.85 383.376 165.87 383.421C166.21 384.219 166.734 384.911 167.386 385.451C168.037 385.991 168.815 386.378 169.662 386.567C169.889 386.618 170.034 386.843 169.982 387.07C169.931 387.296 169.707 387.441 169.48 387.39C168.497 387.172 167.599 386.725 166.848 386.102C166.361 385.7 165.936 385.222 165.589 384.684C165.416 385.531 165.163 386.356 164.831 387.145C164.851 387.183 164.865 387.223 164.871 387.265C164.985 387.926 165.312 388.508 165.776 388.939C166.241 389.373 166.846 389.658 167.51 389.724C167.741 389.747 167.91 389.953 167.888 390.185C167.866 390.416 167.659 390.585 167.428 390.563C166.572 390.478 165.798 390.111 165.2 389.555C164.816 389.197 164.505 388.762 164.293 388.27C163.806 389.182 163.213 390.036 162.524 390.814C162.535 390.843 162.541 390.874 162.544 390.907C162.584 391.285 162.742 391.632 162.984 391.908C163.224 392.181 163.549 392.381 163.922 392.468C164.149 392.521 164.291 392.748 164.238 392.975C164.184 393.202 163.958 393.344 163.731 393.291C163.184 393.162 162.706 392.868 162.35 392.466C162.117 392.201 161.937 391.888 161.823 391.545C161.743 391.623 161.663 391.699 161.581 391.772C161.41 391.93 161.143 391.919 160.985 391.748C160.827 391.577 160.839 391.31 161.01 391.152C162.19 390.067 163.139 388.768 163.818 387.336C164.491 385.913 164.896 384.357 164.987 382.747C165.071 381.275 164.891 379.819 164.473 378.442C164.469 378.431 164.467 378.42 164.462 378.407C164.347 378.033 164.216 377.664 164.067 377.304C163.362 375.605 162.281 374.06 160.874 372.804C160.701 372.648 160.685 372.384 160.841 372.21C160.996 372.037 161.261 372.021 161.434 372.177L161.439 372.179Z" fill="#D93F07"/>
<path fill-rule="evenodd" clip-rule="evenodd" d="M100.884 333.339C124.785 331.872 136.737 331.14 136.737 331.14C144.04 329.148 149.26 327.961 152.399 327.583C161.621 327.903 169.651 333.973 172.472 342.76C156.497 352.292 151.648 335.098 137.151 338.298C124.414 341.108 125.884 354.151 109.359 357.346C99.5613 359.241 94.697 354.042 86.7759 355.667C83.181 356.406 79.844 358.313 77.3563 361.224C72.9366 366.396 72.0585 373.718 75.1353 379.788C70.1221 379.816 67.6144 379.83 67.6144 379.83C58.7662 369.546 58.0947 354.545 65.9915 343.514C73.8859 332.481 88.301 328.281 100.886 333.342L100.884 333.339Z" fill="#B8A960"/>
<path fill-rule="evenodd" clip-rule="evenodd" d="M232.551 331.87L238.294 356.868C238.372 357.213 238.158 357.555 237.814 357.633C237.469 357.711 237.127 357.497 237.049 357.153L234.995 348.206L185.018 354.596C182.681 355.819 181.249 356.143 180.723 355.57C180.723 355.57 178.909 347.67 175.278 331.87C175.278 331.87 194.115 331.71 231.789 331.389C232.133 331.312 232.476 331.525 232.554 331.87H232.551Z" fill="#DEB892"/>
<path fill-rule="evenodd" clip-rule="evenodd" d="M181.959 336.975L228.165 336.619C228.474 336.555 228.781 336.73 228.852 337.008L234.001 357.277C234.072 357.555 233.879 357.833 233.57 357.898C233.261 357.962 232.954 357.786 232.883 357.509L231.04 350.256L186.232 355.436C184.135 356.428 182.852 356.69 182.379 356.226C182.379 356.226 180.752 349.82 177.499 337.008C179.378 335.016 180.318 334.018 180.318 334.018C181.058 335.207 181.605 336.192 181.959 336.973V336.975Z" fill="#9E724C"/>
<path fill-rule="evenodd" clip-rule="evenodd" d="M231.669 334.02L236.818 354.289C236.889 354.567 236.695 354.845 236.386 354.909C236.077 354.974 235.77 354.798 235.699 354.52L233.856 347.265L189.048 352.446C186.952 353.437 185.669 353.7 185.196 353.235C185.196 353.235 183.568 346.829 180.316 334.018C180.316 334.018 197.203 333.889 230.98 333.628C231.289 333.564 231.595 333.74 231.666 334.018L231.669 334.02Z" fill="white"/>
<path d="M174.511 331.389C174.856 331.312 175.198 331.525 175.276 331.87L181.018 356.868C181.096 357.213 180.883 357.555 180.538 357.633C180.193 357.711 179.851 357.497 179.773 357.153L174.031 332.154C173.953 331.81 174.166 331.467 174.511 331.389Z" fill="#9E724C"/>
<path d="M229.083 335.456C229.252 335.543 229.381 335.69 229.432 335.872L233.99 352.352L234.001 352.401C234.034 352.572 233.99 352.739 233.89 352.877C233.799 353.002 233.656 353.102 233.485 353.148C233.463 353.155 233.441 353.159 233.419 353.164C233.227 353.199 233.034 353.168 232.876 353.086C232.707 352.999 232.578 352.853 232.527 352.67L230.951 346.974L191.523 351.161C190.594 351.563 189.84 351.819 189.262 351.928C188.615 352.05 188.155 351.988 187.886 351.745L187.832 351.696C186.365 346.36 184.882 341.028 183.408 335.694L228.563 335.376C228.748 335.345 228.934 335.376 229.083 335.458V335.456ZM188.266 351.416C188.43 351.516 188.733 351.525 189.173 351.443C189.724 351.338 190.454 351.089 191.365 350.694L191.401 350.678C204.704 349.259 218.01 347.85 231.315 346.44L233.003 352.541C233.014 352.586 233.052 352.624 233.105 352.65C233.17 352.684 233.247 352.697 233.33 352.681L233.356 352.675C233.419 352.657 233.465 352.626 233.496 352.586C233.516 352.557 233.527 352.526 233.521 352.492L228.961 336.001C228.95 335.956 228.912 335.919 228.859 335.892C228.794 335.859 228.714 335.845 228.634 335.861L228.614 335.865L184.053 336.179L188.266 351.416Z" fill="#9E724C"/>
<path fill-rule="evenodd" clip-rule="evenodd" d="M252.647 342.567C252.856 342.683 252.982 342.903 252.982 343.141C252.982 343.378 252.853 343.599 252.647 343.714C252.362 343.748 252.129 343.763 251.944 343.761L244.132 357.044H229.728L238.243 342.567H252.647Z" fill="#9E724C"/>
<path fill-rule="evenodd" clip-rule="evenodd" d="M252.647 343.714L244.132 358.191H229.726L238.241 343.714H252.647Z" fill="#DEB892"/>
<path fill-rule="evenodd" clip-rule="evenodd" d="M203.261 343.352L194.746 357.826H180.342L188.857 343.352H203.261Z" fill="#DEB892"/>
<path fill-rule="evenodd" clip-rule="evenodd" d="M188.686 343.352C188.837 343.156 188.93 342.989 189.193 342.989H200.218C200.491 342.989 200.704 343.234 200.691 343.534C200.68 343.834 200.447 344.079 200.173 344.079H189.406L180.58 357.615C180.418 357.864 180.107 357.931 179.887 357.764C179.667 357.597 179.62 357.257 179.782 357.008L188.686 343.352Z" fill="#9E724C"/>
<path fill-rule="evenodd" clip-rule="evenodd" d="M190.033 362.782C184.804 370.811 182.188 374.827 182.188 374.827C182.188 374.827 182.11 374.111 181.954 372.681C181.954 372.681 184.251 367.899 188.844 358.333C191.854 359.223 192.25 360.706 190.033 362.782Z" fill="#4D280B"/>
<path fill-rule="evenodd" clip-rule="evenodd" d="M194.689 374.874C194.689 374.874 190.522 374.858 182.188 374.827C182.188 374.827 184.064 370.969 187.817 363.256C193.268 368.586 195.558 372.459 194.689 374.874Z" fill="#99662F"/>
<path fill-rule="evenodd" clip-rule="evenodd" d="M247.191 342.387V344.572C246.159 344.942 245.363 345.188 244.803 345.313L234.181 358.333C229.183 361.42 214.75 361.504 190.889 358.587C190.796 358.967 190.115 359.61 188.846 360.519V358.333C188.846 358.333 192.29 353.075 199.179 342.56C199.179 342.56 215.184 342.502 247.191 342.385V342.387Z" fill="#381E0A"/>
<path fill-rule="evenodd" clip-rule="evenodd" d="M247.191 344.572C247.191 344.572 242.854 349.889 234.181 360.519C229.041 363.692 213.93 363.692 188.846 360.519C188.846 360.519 192.29 355.261 199.179 344.746C199.179 344.746 215.184 344.688 247.191 344.57V344.572Z" fill="#5E3716"/>
<path fill-rule="evenodd" clip-rule="evenodd" d="M190.2 363.256H233.151L246.108 393.073C246.679 393.124 247.506 393.329 248.591 393.687C248.591 393.687 248.249 394.598 247.564 396.424C240.254 396.408 236.602 396.401 236.602 396.401C231.428 380.166 208.219 378.72 209.232 394.053C209.63 394.185 210.182 394.489 210.889 394.967C210.204 396.791 209.861 397.704 209.861 397.704C202.123 397.713 200.557 397.822 198.657 397.709C198.657 397.709 195.373 386.956 187.819 363.258C188.503 361.435 188.846 360.521 188.846 360.521C189.573 361.733 190.024 362.645 190.202 363.258L190.2 363.256Z" fill="#4D280B"/>
<path fill-rule="evenodd" clip-rule="evenodd" d="M248.592 393.687C241.282 393.671 237.629 393.664 237.629 393.664C232.076 376.235 205.731 375.848 210.889 394.967C203.15 394.976 201.585 395.085 199.684 394.972C199.684 394.972 196.4 384.219 188.846 360.521H234.181C243.789 382.632 248.594 393.687 248.594 393.687H248.592Z" fill="#99662F"/>
<path fill-rule="evenodd" clip-rule="evenodd" d="M144.198 312.472C155.387 314.82 160.983 315.994 160.983 315.994C163.953 316.121 166.888 316.692 169.687 317.691C177.737 319.478 181.763 320.372 181.763 320.372C184.133 320.021 186.418 321.397 187.217 323.656C190.307 326.531 192.014 327.852 192.014 327.852C192.534 328.592 192.786 329.553 192.628 330.444C193.528 331.598 193.499 333.326 192.599 334.482C194.115 336.497 195.642 338.691 197.005 340.897C197.225 342.184 195.709 343.316 194.513 342.613C190.525 338.771 188.53 336.85 188.53 336.85C187.517 337.208 187.01 337.386 187.01 337.386C186.496 337.577 186.018 337.626 185.574 337.533C186.1 338.511 185.898 339.721 185.08 340.474C184.262 341.226 183.039 341.328 182.108 340.721C179.578 338.898 178.315 337.986 178.315 337.986C175.196 335.294 174.582 334.602 171.51 332.192C168.064 330.971 164.847 328.932 161.857 326.077C161.857 326.077 157.041 326.756 147.408 328.112C124.99 327.961 123.916 322.749 144.194 312.474L144.198 312.472Z" fill="#FCB772"/>
<path fill-rule="evenodd" clip-rule="evenodd" d="M142.702 313.444C142.464 319.723 147.951 323.071 153.922 321.099C154.645 320.861 155.381 320.617 156.157 320.445C159.967 319.603 163.702 321.215 165.641 324.623C167.008 327.025 167.546 329.713 170.872 331.214C167.653 329.797 164.774 327.705 162.433 325.079C151.446 326.834 145.952 327.71 145.952 327.71C142.955 330.387 138.48 330.553 135.292 328.108C132.104 325.662 131.11 321.293 132.92 317.706C134.732 314.12 138.838 312.33 142.7 313.444H142.702Z" fill="#F27A24"/>
<path fill-rule="evenodd" clip-rule="evenodd" d="M84.1058 379.59C89.3013 379.383 94.2257 381.909 97.0891 386.249C85.2707 390.1 75.9334 391.657 69.0794 390.923C68.3324 388.348 68.8859 384.668 70.7445 379.883C79.6528 379.688 84.1058 379.59 84.1058 379.59Z" fill="#FFFCD6"/>
<path d="M132.08 371.957L145.179 367.834C145.512 367.73 145.868 367.917 145.97 368.25C146.075 368.584 145.888 368.939 145.554 369.042L132.455 373.164C132.122 373.268 131.766 373.082 131.664 372.748C131.559 372.415 131.746 372.059 132.08 371.957Z" fill="#A38F4D"/>
<path d="M63.6125 360.648C66.0113 360.826 68.3812 361.244 70.6866 361.891C72.9298 362.522 75.1174 363.372 77.2139 364.435L136.192 360.717C136.324 360.446 136.448 360.168 136.561 359.888C137.259 358.18 137.629 356.337 137.631 354.456C137.631 354.107 137.913 353.824 138.262 353.824C138.611 353.824 138.894 354.107 138.894 354.456C138.894 356.501 138.491 358.505 137.731 360.363C137.695 360.452 137.657 360.539 137.62 360.626L142.842 360.297C144.8 359.921 146.795 359.985 148.687 360.457C150.436 360.893 152.097 361.678 153.566 362.785C155.254 359.652 156.11 356.028 155.872 352.232C155.852 351.883 156.116 351.583 156.465 351.563C156.814 351.543 157.115 351.808 157.135 352.157C157.393 356.283 156.434 360.219 154.556 363.605C155.839 364.775 156.872 366.171 157.617 367.705L157.628 367.728C158.268 367.298 158.878 366.825 159.451 366.313C162.499 363.601 164.578 359.801 165.058 355.467C165.096 355.12 165.409 354.869 165.756 354.907C166.103 354.945 166.354 355.258 166.316 355.605C165.801 360.261 163.566 364.346 160.294 367.258C159.616 367.861 158.893 368.412 158.133 368.91C158.664 370.342 158.955 371.87 158.98 373.435C158.984 373.784 158.704 374.071 158.355 374.073C158.006 374.078 157.719 373.798 157.717 373.449C157.697 372.114 157.461 370.809 157.03 369.575C154.356 371.065 151.277 371.901 148.022 371.879C147.673 371.879 147.39 371.594 147.393 371.245C147.393 371.225 147.393 371.205 147.395 371.185C144.918 372.746 142.077 373.809 138.998 374.22C138.651 374.265 138.335 374.022 138.289 373.675C138.244 373.328 138.487 373.013 138.833 372.966C143.953 372.283 148.375 369.678 151.434 365.955C151.975 365.297 152.473 364.606 152.924 363.883C151.563 362.834 150.014 362.091 148.382 361.682C146.652 361.251 144.829 361.193 143.037 361.542C143.011 361.546 142.984 361.551 142.957 361.551L136.979 361.929C136.295 363.185 135.434 364.352 134.414 365.391C134.169 365.64 133.769 365.642 133.52 365.397C133.271 365.153 133.267 364.753 133.513 364.504C134.258 363.745 134.912 362.912 135.463 362.024L77.1205 365.702C77.0116 365.709 76.8982 365.686 76.7937 365.633C74.7328 364.575 72.5697 363.73 70.3421 363.103C68.1189 362.478 65.8334 362.076 63.5191 361.904C63.1701 361.88 62.9078 361.577 62.9322 361.228C62.9567 360.879 63.259 360.617 63.6081 360.641L63.6125 360.648ZM152.415 366.763C151.212 368.226 149.814 369.526 148.251 370.62C151.254 370.6 154.089 369.8 156.55 368.399C156.528 368.352 156.505 368.303 156.481 368.257C155.843 366.943 154.971 365.742 153.898 364.719C153.444 365.431 152.948 366.113 152.415 366.763Z" fill="#A38F4D"/>
<path fill-rule="evenodd" clip-rule="evenodd" d="M141.041 326.282C145.901 327.736 148.144 328.303 148.144 328.303C140.732 330.102 136.737 331.14 136.737 331.14C135.33 329.555 136.764 327.936 141.041 326.284V326.282Z" fill="#FFBF7F"/>
<path fill-rule="evenodd" clip-rule="evenodd" d="M66.6829 229.23C73.7793 225.023 81.4292 223.46 89.6372 224.543C89.6372 224.543 90.8177 225.419 93.1787 227.173C105.188 231.022 106.36 232.687 103.314 245.59C104.893 246.604 104.939 247.816 106.622 252.221C106.671 252.35 109.15 255.282 109.915 257.221C113.983 267.536 119.463 291.825 123.509 306.987C134.654 310.155 144.2 312.472 144.2 312.472C140.345 314.731 135.806 319.36 133.927 323.416C138.671 325.326 141.044 326.282 141.044 326.282C139.941 328.168 138.48 329.817 136.739 331.138C128.847 334.006 116.933 339.216 109.132 340.895C103.672 342.069 98.3587 341.586 94.6771 336.154C83.8325 343.265 74.1417 351.999 65.9471 362.049C73.039 379.714 72.461 391.074 64.2108 396.126C37.7528 388.622 21.7038 376.186 16.0613 358.818C11.5038 344.784 14.5607 333.531 18.2734 319.921C26.9482 288.114 44.9914 242.09 66.6829 229.23Z" fill="#367A33"/>
<path d="M192.296 330.691L185.682 323.625C185.525 323.456 185.533 323.189 185.702 323.031C185.871 322.874 186.138 322.882 186.296 323.051L192.91 330.118C193.068 330.287 193.059 330.553 192.89 330.711C192.721 330.869 192.454 330.86 192.296 330.691Z" fill="#D93F07"/>
<path d="M184.727 325.479C184.444 324.957 184.062 324.499 183.608 324.128C183.148 323.752 182.617 323.465 182.039 323.292C181.816 323.225 181.687 322.989 181.754 322.767C181.821 322.544 182.057 322.415 182.279 322.482C182.966 322.689 183.599 323.027 184.142 323.474C184.671 323.907 185.12 324.446 185.458 325.061L190.845 331.427L190.863 331.449L192.914 334.213C193.052 334.4 193.015 334.665 192.828 334.802C192.641 334.94 192.377 334.903 192.239 334.716L190.2 331.968L184.793 325.575C184.769 325.546 184.747 325.513 184.731 325.479H184.727Z" fill="#D93F07"/>
<path d="M156.81 323.194L162.044 325.697C162.252 325.797 162.341 326.049 162.241 326.258C162.141 326.467 161.89 326.556 161.681 326.456L156.448 323.952C156.239 323.852 156.15 323.601 156.25 323.392C156.35 323.183 156.601 323.094 156.81 323.194Z" fill="#D93F07"/>
<path d="M174.329 323.814C174.524 323.687 174.787 323.745 174.911 323.941L178.259 329.126L180.367 331.258L181.81 330.874L180.324 329.631L178.915 329.177C178.693 329.106 178.573 328.868 178.644 328.648C178.715 328.425 178.953 328.303 179.173 328.374L180.64 328.848C180.698 328.864 180.754 328.892 180.805 328.932L182.97 330.742L182.983 330.753L183.735 331.38L183.766 331.407L188.835 336.55C188.997 336.717 188.995 336.984 188.83 337.146C188.664 337.308 188.397 337.306 188.234 337.141L185.244 334.106L183.91 334.536C183.821 334.564 183.728 334.562 183.646 334.536L183.504 334.487L185.898 337.255C186.051 337.431 186.031 337.697 185.856 337.849C185.68 338 185.413 337.982 185.262 337.806L182.459 334.567L181.761 333.862C181.761 333.862 181.741 333.842 181.729 333.831L179.953 332.034C179.953 332.034 179.938 332.019 179.931 332.012L177.63 329.684C177.61 329.662 177.592 329.639 177.577 329.617L174.204 324.397C174.077 324.201 174.135 323.939 174.331 323.814H174.329ZM182.272 333.184L183.786 333.695L184.582 333.439L183.183 332.021L182.605 331.538L181.054 331.952L182.274 333.186L182.272 333.184Z" fill="#D93F07"/>
<path fill-rule="evenodd" clip-rule="evenodd" d="M122.98 256.956C116.542 249.479 113.409 252.454 108.414 254.626C108.414 254.626 104.884 249.875 101.404 245.023C100.651 237.73 98.5275 232.183 93.1763 227.173C97.9672 225.717 101.551 223.52 105.591 220.645C126.139 211.2 131.937 224.376 122.98 256.956Z" fill="#FCB772"/>
<path fill-rule="evenodd" clip-rule="evenodd" d="M120.426 229.644C126.364 241.528 125.735 249.332 118.545 253.052C117.189 252.283 115.79 252.018 114.347 252.256C113.216 252.41 111.237 253.199 108.416 254.629C107.062 252.799 105.931 251.26 105.019 250.015L113.774 227.482C121.571 219.24 123.787 219.96 120.428 229.644H120.426Z" fill="#F27A24"/>
<path fill-rule="evenodd" clip-rule="evenodd" d="M118.749 253.168C118.749 253.168 118.681 253.128 118.545 253.05C117.331 252.312 115.931 252.047 114.348 252.254C111.62 246.148 111.48 239.656 113.93 232.77C117.144 246.366 118.752 253.165 118.752 253.165L118.749 253.168Z" fill="#CC2E0A"/>
<path d="M143.818 235.158L143.836 235.131L143.842 235.122C144.641 233.892 145.772 233.036 146.959 232.647C148.187 232.243 149.476 232.334 150.536 233.012L150.563 233.03C151.608 233.71 152.219 234.837 152.364 236.114C152.506 237.368 152.195 238.766 151.397 240.014L151.379 240.04L151.372 240.049C150.574 241.279 149.443 242.135 148.255 242.524C147.028 242.929 145.739 242.838 144.678 242.159L144.652 242.142C143.609 241.461 142.995 240.334 142.851 239.06C142.709 237.806 143.02 236.407 143.818 235.16V235.158ZM143.687 238.964C143.805 240 144.296 240.91 145.132 241.446H145.136C145.972 241.981 147.004 242.048 147.995 241.721C149.014 241.386 149.99 240.641 150.683 239.565L150.688 239.556C151.381 238.475 151.65 237.272 151.53 236.203C151.412 235.167 150.921 234.257 150.085 233.721L150.078 233.717C149.243 233.183 148.213 233.119 147.222 233.446C146.203 233.781 145.227 234.526 144.534 235.602L144.529 235.611C143.836 236.692 143.567 237.895 143.687 238.964Z" fill="white"/>
<path fill-rule="evenodd" clip-rule="evenodd" d="M136.837 209.468C145.765 208.816 154.129 213.875 157.697 222.086C156.784 226.286 155.688 229.548 154.411 231.874C153.295 233.908 152.611 234.493 151.701 235.082C150.098 236.123 148.018 237.277 147.909 239.42C144.171 245.924 140.81 250.048 137.82 251.791C136.788 253.515 135.746 254.6 134.687 255.049C126.413 267.725 114.779 249.377 113.181 242.597C112.044 237.775 113.134 232.174 118.025 224.983C120.364 216.343 127.905 210.121 136.833 209.468H136.837Z" fill="#FFBF7F"/>
<path fill-rule="evenodd" clip-rule="evenodd" d="M144.652 219.934C135.405 220.939 139.976 230.33 135.072 233.566C129.058 237.532 115.79 229.857 120.17 250.546C120.799 251.54 120.408 252.069 118.996 252.132C112.164 241.873 112.751 234.486 120.368 225.352C128.803 218.664 136.897 216.858 144.649 219.936L144.652 219.934Z" fill="#F7812D"/>
<path fill-rule="evenodd" clip-rule="evenodd" d="M132.807 224.785C136.408 229.466 138.209 231.807 138.209 231.807C137.097 233.321 136.799 235.287 137.409 237.063C138.02 238.84 139.463 240.205 141.272 240.716C139.027 241.119 136.742 240.249 135.33 238.455C133.918 236.661 133.609 234.237 134.527 232.147C130.999 226.864 129.236 224.225 129.236 224.225C131.615 224.601 132.807 224.787 132.807 224.787V224.785Z" fill="#CC2E0A"/>
<path fill-rule="evenodd" clip-rule="evenodd" d="M134.443 253.326C135.403 252.694 136.235 251.44 136.942 249.561C139.572 247.311 142.142 242.653 144.652 235.585C144.376 233.454 146.215 231.947 147.606 230.637C148.396 229.895 148.965 229.197 149.698 226.995C150.536 224.481 151.03 221.074 151.179 216.778C149.329 214.017 146.908 211.802 144.149 210.221C150.094 211.918 155.134 216.189 157.697 222.088C156.784 226.288 155.688 229.55 154.411 231.876C153.295 233.91 152.611 234.495 151.701 235.084C150.098 236.125 148.018 237.279 147.909 239.422C144.171 245.926 140.81 250.05 137.82 251.794C136.788 253.517 135.746 254.602 134.687 255.051C131.295 260.25 127.335 260.229 123.736 257.928C127.84 259.783 131.942 259.265 134.441 253.328L134.443 253.326Z" fill="#FFE1AD"/>
<path fill-rule="evenodd" clip-rule="evenodd" d="M106.489 212.685C116.64 207.102 130.608 208.567 148.393 217.076C141.517 224.423 135.748 217.806 131.933 227.707C131.604 228.594 130.594 228.983 129.687 228.785C128.78 228.587 128.124 227.798 128.096 226.869C125.755 222.708 122.718 221.739 118.983 223.967C116.62 226.775 113.654 227.922 110.497 227.98C107.14 228.04 100.208 226.922 100.671 222.353C101.004 219.042 104.597 215.222 106.489 212.687V212.685Z" fill="#452C2C"/>
<path fill-rule="evenodd" clip-rule="evenodd" d="M106.489 212.685C110.635 210.404 115.421 209.301 120.842 209.372C119.443 209.852 118.107 210.442 116.829 211.144C114.937 213.679 111.344 217.499 111.011 220.81C110.702 223.874 113.716 225.386 116.746 226.03C114.855 227.356 112.723 227.938 110.495 227.978C107.138 228.038 100.206 226.92 100.669 222.351C101.002 219.04 104.595 215.22 106.487 212.685H106.489Z" fill="#301C1C"/>
<path fill-rule="evenodd" clip-rule="evenodd" d="M115.744 192.731C126.879 187.331 155.398 192.096 158.935 206.086C159.945 210.081 159.058 215.008 157.697 222.086C140.007 215.313 122.518 212.222 106.489 212.685C108.618 207.56 109.719 200.987 112.02 196.569C113.069 194.555 114.221 193.467 115.741 192.729L115.744 192.731Z" fill="#FFF8E8"/>
<path fill-rule="evenodd" clip-rule="evenodd" d="M149.067 236.518C149.509 236.474 149.903 236.799 149.945 237.241C149.99 237.683 149.665 238.077 149.223 238.119C148.78 238.164 148.387 237.839 148.344 237.397C148.3 236.954 148.625 236.561 149.067 236.518Z" fill="black"/>
<path d="M134.563 244.714C134.898 244.81 135.094 245.159 135.001 245.495C134.701 246.548 134.823 247.631 135.274 248.55C135.725 249.466 136.506 250.224 137.522 250.629C137.846 250.758 138.004 251.124 137.875 251.449C137.746 251.774 137.379 251.931 137.055 251.803C135.739 251.278 134.725 250.295 134.14 249.103C133.556 247.911 133.396 246.513 133.785 245.15C133.88 244.814 134.229 244.619 134.565 244.712L134.563 244.714Z" fill="#CC2E0A"/>
<path d="M143.627 228.176C145.319 228.043 146.995 228.305 148.535 228.914C150.076 229.526 151.477 230.484 152.619 231.742C152.853 232 152.833 232.401 152.575 232.636C152.317 232.87 151.917 232.85 151.683 232.592C150.674 231.478 149.436 230.631 148.075 230.09C146.715 229.55 145.23 229.319 143.731 229.439C143.382 229.466 143.078 229.205 143.051 228.859C143.024 228.509 143.284 228.205 143.631 228.178L143.627 228.176Z" fill="#452C2C"/>
<path d="M154.331 232.916C154.545 233.068 154.736 233.243 154.902 233.441C155.069 233.639 155.212 233.859 155.325 234.095C155.476 234.411 155.343 234.786 155.027 234.938C154.711 235.089 154.336 234.955 154.184 234.64C154.118 234.502 154.035 234.373 153.938 234.257C153.84 234.142 153.726 234.037 153.602 233.948C153.317 233.746 153.248 233.352 153.451 233.068C153.653 232.783 154.047 232.714 154.331 232.916Z" fill="#452C2C"/>
<path d="M132.884 249.288C133.02 249.312 133.111 249.441 133.089 249.577C133.013 250.004 133.104 250.426 133.318 250.769C133.531 251.111 133.869 251.378 134.287 251.498C134.42 251.536 134.498 251.674 134.46 251.807C134.423 251.94 134.285 252.018 134.151 251.98C133.611 251.827 133.173 251.48 132.895 251.033C132.617 250.589 132.497 250.042 132.597 249.49C132.622 249.354 132.751 249.263 132.886 249.286L132.884 249.288Z" fill="#CC2E0A"/>
<path fill-rule="evenodd" clip-rule="evenodd" d="M144.387 234.128C144.829 234.084 145.223 234.408 145.265 234.851C145.31 235.293 144.985 235.687 144.543 235.729C144.1 235.773 143.707 235.449 143.665 235.006C143.62 234.564 143.945 234.17 144.387 234.128Z" fill="black"/>
<path fill-rule="evenodd" clip-rule="evenodd" d="M140.957 243.656C141.586 243.242 142.397 243.222 143.047 243.605C145.459 238.882 146.664 236.521 146.664 236.521C147.457 234.958 148.118 234.622 148.34 235.489C148.671 236.787 148.249 247.987 147.413 249.37C147.079 249.924 146.515 250.224 145.543 249.993C144.816 249.819 143.951 249.357 142.984 248.616C142.935 247.785 142.229 247.147 141.397 247.178C140.686 246.931 140.174 246.302 140.081 245.555C139.988 244.808 140.328 244.072 140.957 243.656Z" fill="#F7812D"/>
<path d="M116.633 215.564L127.733 216.254C127.858 216.26 127.978 216.323 128.056 216.434L138.218 231.129C139.134 229.939 140.323 229.103 141.566 228.694C143.009 228.22 144.523 228.321 145.77 229.103C145.774 229.103 145.821 229.134 145.828 229.141C147.066 229.946 147.793 231.282 147.964 232.796C148.106 234.039 147.871 235.404 147.237 236.685C147.504 236.734 147.762 236.812 148.009 236.916C148.426 237.094 148.811 237.35 149.138 237.67C149.305 237.832 149.307 238.102 149.145 238.266C148.982 238.433 148.713 238.435 148.549 238.273C148.295 238.024 148 237.828 147.682 237.692C147.399 237.572 147.097 237.499 146.788 237.475C145.836 238.942 144.489 239.963 143.073 240.427C141.63 240.901 140.116 240.801 138.869 240.018C138.865 240.018 138.816 239.985 138.811 239.98C137.573 239.175 136.848 237.839 136.675 236.327C136.513 234.9 136.846 233.312 137.709 231.876L127.478 217.083L116.582 216.407C116.351 216.394 116.173 216.194 116.186 215.962C116.199 215.731 116.399 215.553 116.631 215.567L116.633 215.564ZM137.513 236.234C137.657 237.497 138.251 238.604 139.263 239.267L139.285 239.276L139.316 239.302C140.343 239.949 141.601 240.027 142.813 239.629C144.06 239.218 145.254 238.306 146.099 236.988C146.944 235.667 147.275 234.197 147.126 232.89C146.981 231.627 146.388 230.52 145.376 229.857L145.354 229.848L145.323 229.821C144.296 229.174 143.038 229.096 141.826 229.494C140.579 229.906 139.385 230.817 138.54 232.136C137.695 233.459 137.364 234.926 137.513 236.234Z" fill="white"/>
<path fill-rule="evenodd" clip-rule="evenodd" d="M125.199 212.898C128.772 213.012 131.555 216.641 131.415 221.001C131.275 225.361 128.267 228.805 124.694 228.692C121.122 228.578 118.338 224.95 118.478 220.589C118.616 216.227 121.626 212.785 125.199 212.898Z" fill="#FFBF7F"/>
<path fill-rule="evenodd" clip-rule="evenodd" d="M123.827 215.609C126.188 215.684 128.029 218.083 127.938 220.967C127.847 223.851 125.857 226.128 123.496 226.052C121.135 225.977 119.294 223.578 119.385 220.694C119.477 217.81 121.466 215.533 123.827 215.609Z" fill="#F7812D"/>
<path fill-rule="evenodd" clip-rule="evenodd" d="M125.323 217.083C126.748 217.128 127.86 218.577 127.804 220.318C127.749 222.059 126.548 223.433 125.121 223.389C123.696 223.344 122.584 221.895 122.64 220.154C122.696 218.413 123.896 217.039 125.323 217.083Z" fill="#CC2E0A"/>
<path fill-rule="evenodd" clip-rule="evenodd" d="M144.745 231.24C145.334 231.182 145.859 231.613 145.917 232.203C145.974 232.792 145.543 233.317 144.954 233.374C144.365 233.432 143.84 233.001 143.782 232.412C143.725 231.822 144.156 231.298 144.745 231.24Z" fill="white"/>
<path fill-rule="evenodd" clip-rule="evenodd" d="M126.615 248.77C124.963 250.457 124.472 252.968 125.366 255.153C126.259 257.339 128.369 258.784 130.73 258.831C128.927 261.799 125.168 262.918 122.038 261.417C118.905 259.916 117.42 256.287 118.603 253.021C119.786 249.755 123.249 247.918 126.615 248.77Z" fill="#452C2C"/>
<path fill-rule="evenodd" clip-rule="evenodd" d="M155.972 221.023C154.416 220.427 152.862 219.862 151.31 219.327C152.88 219.758 154.454 220.223 156.032 220.716L155.974 221.021L155.972 221.023Z" fill="#F5D7BF"/>
<path fill-rule="evenodd" clip-rule="evenodd" d="M116.849 193.648C123.409 190.466 136.439 191.068 145.979 195.235C138.229 193.657 130.09 193.977 125.341 196.28C123.921 196.97 122.849 197.983 121.871 199.86C120.081 203.295 119.07 208.129 117.631 212.412C114.443 212.218 111.302 212.165 108.221 212.254C110.206 207.475 111.233 201.345 113.381 197.227C114.359 195.349 115.433 194.335 116.851 193.648H116.849Z" fill="#F5D7BF"/>
<path fill-rule="evenodd" clip-rule="evenodd" d="M69.6752 269.268C73.9504 275.353 79.3505 275.389 84.6261 276.094C92.4694 277.143 97.8384 282.382 99.4524 288.692C101.322 296.005 97.0269 301.241 95.2906 306.8C93.3875 312.883 96.0954 318.571 100.684 321.82C109.812 328.281 114.861 321.006 124.183 323.754C128.438 325.008 132.191 327.874 134.487 331.979C134.487 331.979 132.58 332.717 128.767 334.195C128.767 334.195 126.306 334.791 121.386 335.985C116.384 337.199 108.272 339.879 103.376 338.982C101.051 338.556 99.3568 337.466 97.9695 336.025C90.0706 327.818 74.5484 297.513 68.8371 286.807C61.0471 277.741 60.6625 264.463 67.9122 254.962C66.0803 259.727 66.7407 265.09 69.6752 269.266V269.268Z" fill="#1E4F1C"/>
<path fill-rule="evenodd" clip-rule="evenodd" d="M43.7953 312.97C45.4627 306.549 52.5658 302.762 56.4408 297.375C59.1864 293.557 60.3135 288.934 56.7297 281.997C54.2375 277.17 52.2145 272.59 58.9329 269.061C59.3598 275.854 62.012 282.317 66.4783 287.451C74.5774 304.159 83.3389 319.896 92.7673 334.66C75.56 347.763 65.867 357.68 63.6927 364.412C57.7813 366.818 50.9495 362.507 51.4319 356.145C51.7921 351.401 56.0606 348.586 56.3029 343.458C56.4563 340.217 54.7378 337.302 51.6787 332.695C47.4258 326.291 42.0479 319.685 43.7931 312.968L43.7953 312.97Z" fill="#1E4F1C"/>
<path fill-rule="evenodd" clip-rule="evenodd" d="M104.79 261.672C103.721 274.513 111.144 278.913 114.901 285.228C118.667 291.556 116.208 296.227 115.455 300.886C114.343 307.752 119.39 314.075 126.435 314.022C130.23 313.993 133.771 312.757 136.935 316.494C135.572 317.875 134.234 319.796 132.92 322.258C120.686 316.935 114.568 314.273 114.568 314.273C108.425 290.055 105.355 277.944 105.355 277.944C101.055 259.667 98.9077 250.531 98.9077 250.531C98.9077 250.531 99.1456 249.483 99.6213 247.391C105.731 251.585 105.23 256.376 104.79 261.672Z" fill="#1E4F1C"/>
<path fill-rule="evenodd" clip-rule="evenodd" d="M17.4041 323.12C21.6058 307.136 26.9615 291.578 33.4665 276.448C40.5139 260.301 47.8215 247.847 55.3892 239.087C61.3339 231.898 70.2377 227.82 79.5617 228.018C84.9729 228.116 90.1173 230.395 93.8255 234.337C97.5338 238.279 99.4946 243.553 99.2634 248.961C99.2634 248.961 99.2856 250.915 99.3279 254.826C98.8166 242.713 83.9813 235.262 74.6529 245.532C71.9318 248.527 69.5796 252.123 66.0114 253.982C63.0991 255.5 60.1756 255.202 57.2344 255.087C50.7271 254.835 45.7695 258.335 43.2951 263.256C38.3041 273.179 47.0233 286.011 41.7944 297.435C37.5704 306.662 26.5413 309.068 22.2772 316.861C14.774 330.571 34.6247 340.79 17.1662 361.847C13.9448 353.935 13.0133 345.577 14.3717 336.77C15.1409 332.056 16.1524 327.507 17.4041 323.125V323.12Z" fill="#55A846"/>
<path fill-rule="evenodd" clip-rule="evenodd" d="M91 232.454C96.8002 235.991 99.866 242.702 98.7455 249.403C101.362 260.825 102.672 266.535 102.672 266.535C110.602 298.36 114.568 314.271 114.568 314.271C114.568 314.271 117.322 315.469 122.829 317.866C109.546 322.547 98.8367 310.929 103.452 296.367C105.015 291.436 106.849 286.131 104.521 279.4C103.345 275.998 101.642 273.579 99.7015 271.647C95.2729 267.236 89.2148 265.17 85.7867 259.676C84.4817 257.586 83.5145 254.973 83.0788 251.5C82.1606 244.198 85.1731 236.954 91 232.456V232.454Z" fill="#55A846"/>
<path fill-rule="evenodd" clip-rule="evenodd" d="M116.606 279.852C118.894 288.946 121.139 297.788 123.345 306.377C124.025 306.949 124.365 307.236 124.365 307.236C130.661 309.01 137.271 310.756 144.198 312.472C143.131 313.108 142.117 313.826 141.163 314.622C137.757 310.18 133.916 311.941 129.69 311.925C120.826 311.892 118.311 304.392 118.978 296.779C119.23 293.911 119.447 290.838 118.227 287.38C114.761 277.566 104.906 272.852 110.219 258.021C111.898 262.497 114.025 269.775 116.604 279.854L116.606 279.852Z" fill="#55A846"/>
<path d="M94.3947 321.768C94.159 321.782 93.9367 321.662 93.8167 321.462C93.6966 321.259 93.6988 321.008 93.8211 320.808C95.8464 317.017 99.1901 314.367 102.992 313.135C106.4 312.03 110.177 312.065 113.705 313.442C113.056 310.889 112.282 307.856 111.515 304.846C109.692 297.697 107.872 290.562 106.093 283.414C106.071 283.358 106.055 283.298 106.049 283.238C103.29 272.141 100.633 261.014 98.2252 249.761C98.2097 249.69 98.2074 249.621 98.2163 249.552C98.5365 246.94 98.2964 244.325 97.5494 241.866C96.8002 239.407 95.5441 237.101 93.8256 235.111C92.107 233.123 90.0106 231.542 87.6829 230.444C85.3553 229.345 82.8031 228.727 80.1775 228.665C79.8285 228.656 79.5528 228.367 79.5617 228.018C79.5706 227.669 79.8596 227.393 80.2086 227.402C83.0165 227.469 85.7421 228.129 88.2232 229.301C90.7065 230.473 92.9452 232.16 94.7815 234.286C96.6156 236.409 97.9584 238.873 98.7588 241.501C99.548 244.098 99.8081 246.855 99.488 249.604C101.651 259.709 104.021 269.735 106.489 279.74L108.781 262.106C108.825 261.759 109.143 261.517 109.49 261.561C109.837 261.606 110.079 261.924 110.035 262.271L107.325 283.113C109.101 290.255 110.922 297.388 112.745 304.537C113.274 306.611 113.801 308.674 114.388 310.985C115.157 309.611 116.257 308.483 117.558 307.683C119.385 306.558 121.606 306.075 123.858 306.455C124.203 306.513 124.436 306.838 124.379 307.183C124.321 307.527 123.996 307.761 123.652 307.703C121.709 307.374 119.794 307.79 118.223 308.757C116.698 309.697 115.49 311.156 114.89 312.961L115.177 314.095L134.189 322.847L133.66 323.996L114.361 315.114C110.804 313.382 106.878 313.208 103.379 314.344C99.8792 315.478 96.8024 317.917 94.9371 321.408C94.8393 321.622 94.6303 321.764 94.3969 321.775L94.3947 321.768Z" fill="#0C240B"/>
<path d="M42.2746 334.111C38.8998 332.957 36.3031 329.297 34.4801 323.131C32.7038 317.126 31.6389 308.681 31.281 297.795C31.2699 297.446 31.5433 297.155 31.8923 297.143C32.2414 297.132 32.5327 297.406 32.5438 297.755C32.8973 308.528 33.9466 316.868 35.694 322.776C37.3925 328.521 39.7224 331.901 42.6814 332.912C43.0127 333.024 43.1905 333.384 43.0771 333.715C42.966 334.046 42.6058 334.224 42.2746 334.111Z" fill="#0C240B"/>
<path d="M91.86 287.714L106.364 295.196C106.675 295.356 106.795 295.738 106.635 296.047C106.475 296.359 106.093 296.479 105.784 296.318L91.2798 288.837C90.9686 288.676 90.8485 288.294 91.0063 287.985C91.1664 287.674 91.5488 287.554 91.8578 287.714H91.86Z" fill="#0C240B"/>
<path d="M18.2579 347.516C18.5869 347.401 18.947 347.576 19.0626 347.905C21.0368 353.566 26.7392 354.769 36.1721 351.512C40.0627 350.169 44.5691 348.074 49.6868 345.233C49.9758 344.43 50.4027 343.661 50.8896 342.903C55.7539 335.305 54.6044 333.008 53.4551 330.707C52.6036 329.001 51.7499 327.296 52.7215 323.99C52.926 323.294 53.1972 322.449 53.544 321.417C53.9042 320.35 54.3199 319.151 54.8112 317.76C55.0602 317.055 55.3292 316.303 55.6182 315.507C55.8761 314.796 56.154 314.044 56.4497 313.255L56.6742 312.652L56.901 312.056C58.3705 308.192 59.9379 304.359 61.6008 300.565C63.2281 296.857 64.9356 293.201 66.7252 289.606C66.4606 289.086 66.1961 288.563 65.9315 288.036C65.06 286.969 64.2664 285.848 63.5505 284.688C59.2576 283.013 55.4315 280.445 52.2946 277.21C49.1088 273.926 46.6322 269.953 45.0937 265.526C44.9781 265.197 45.1538 264.837 45.4828 264.721C45.8118 264.605 46.172 264.781 46.2876 265.11C47.7637 269.359 50.1426 273.175 53.2016 276.327C55.845 279.053 58.9974 281.286 62.5189 282.878C61.7542 281.426 61.105 279.918 60.5803 278.369C59.3887 274.86 58.8263 271.136 58.9463 267.369C58.9575 267.02 59.2487 266.746 59.5977 266.758C59.9467 266.769 60.2202 267.06 60.2091 267.409C60.0935 271.02 60.6337 274.593 61.7787 277.964C62.4701 280.001 63.3816 281.962 64.4976 283.812C64.5131 283.834 64.5265 283.856 64.5376 283.878C65.2534 285.057 66.0538 286.188 66.9364 287.267C66.9742 287.309 67.0075 287.356 67.0342 287.407C67.3521 288.038 67.67 288.663 67.9835 289.286C67.9946 289.308 68.0057 289.328 68.0168 289.35C73.3458 299.852 78.2234 308.903 82.6497 316.508C87.3384 324.561 91.5158 330.985 95.1818 335.774C95.393 336.052 95.3396 336.448 95.0639 336.661C94.786 336.872 94.3903 336.819 94.1769 336.543C90.4775 331.712 86.2713 325.244 81.556 317.144C77.2741 309.786 72.5699 301.077 67.4455 291.016C65.8026 294.349 64.2419 297.702 62.7635 301.072C61.1117 304.841 59.5532 308.652 58.0882 312.503L57.6369 313.697C57.3723 314.404 57.0966 315.151 56.8098 315.939C56.5564 316.639 56.2874 317.386 56.0073 318.182C55.4915 319.645 55.0713 320.852 54.7445 321.822C54.4066 322.827 54.1398 323.656 53.9353 324.35C53.1038 327.183 53.8441 328.666 54.5844 330.146C55.8961 332.77 57.2055 335.389 51.9544 343.59C51.8344 343.776 51.7188 343.963 51.6099 344.15C58.9174 339.954 67.4033 334.318 77.0674 327.24C77.3497 327.034 77.7455 327.096 77.9522 327.376C78.159 327.658 78.0967 328.054 77.8166 328.261C67.4588 335.843 58.435 341.786 50.7473 346.089C50.5694 346.727 50.5072 347.383 50.6072 348.074C50.8518 349.746 52.0478 351.685 54.8957 354.12C55.1624 354.349 55.4382 354.574 55.7227 354.794C58.684 352.506 61.8098 349.864 65.1001 346.867C65.3579 346.631 65.7581 346.651 65.9938 346.909C66.2294 347.167 66.2094 347.567 65.9515 347.803C62.7413 350.727 59.6822 353.319 56.7743 355.579C58.475 356.793 60.3558 357.902 62.1544 358.965C63.635 359.839 65.06 360.681 66.305 361.531C66.594 361.729 66.6674 362.122 66.4717 362.409C66.2739 362.698 65.8804 362.771 65.5936 362.576C64.3864 361.751 62.9769 360.917 61.5118 360.054C59.5821 358.914 57.5568 357.72 55.7294 356.383C51.532 359.567 47.6571 362.044 44.1067 363.81C37.7328 366.978 32.3683 367.872 28.0109 366.494C27.6774 366.389 27.4929 366.033 27.5974 365.7C27.7019 365.366 28.0576 365.182 28.3933 365.286C32.4283 366.562 37.4794 365.693 43.5487 362.678C46.9523 360.986 50.665 358.625 54.6889 355.59C54.4822 355.423 54.2776 355.256 54.0776 355.085C50.9673 352.423 49.6468 350.222 49.36 348.261C49.2911 347.785 49.28 347.327 49.32 346.885C44.5357 349.491 40.2939 351.432 36.5901 352.712C26.3635 356.243 20.1253 354.783 17.8777 348.328C17.7621 347.999 17.9377 347.639 18.2667 347.523L18.2579 347.516Z" fill="#0C240B"/>
<path d="M84.846 267.122C85.0994 266.882 85.4995 266.891 85.7396 267.145L105.813 288.345C106.053 288.599 106.044 288.999 105.79 289.239C105.537 289.479 105.137 289.47 104.897 289.217L84.8237 268.016C84.5836 267.763 84.5925 267.362 84.846 267.122Z" fill="#0C240B"/>
<path fill-rule="evenodd" clip-rule="evenodd" d="M261.931 339.705C262.804 339.705 263.513 340.415 263.513 341.288C263.513 342.162 262.804 342.871 261.931 342.871C261.057 342.871 260.348 342.162 260.348 341.288C260.348 340.415 261.057 339.705 261.931 339.705Z" fill="white"/>
<path fill-rule="evenodd" clip-rule="evenodd" d="M247.373 336.724C247.956 336.724 248.427 337.195 248.427 337.778C248.427 338.36 247.956 338.831 247.373 338.831C246.791 338.831 246.322 338.36 246.322 337.778C246.322 337.195 246.793 336.724 247.373 336.724Z" fill="white"/>
<path fill-rule="evenodd" clip-rule="evenodd" d="M255.855 332.145C256.435 332.145 256.906 332.617 256.906 333.197C256.906 333.777 256.435 334.251 255.855 334.251C255.274 334.251 254.801 333.78 254.801 333.197C254.801 332.614 255.272 332.145 255.855 332.145Z" fill="white"/>
<path fill-rule="evenodd" clip-rule="evenodd" d="M228.705 317.001C229.183 317.001 229.57 317.388 229.57 317.866C229.57 318.344 229.183 318.731 228.705 318.731C228.227 318.731 227.84 318.344 227.84 317.866C227.84 317.388 228.227 317.001 228.705 317.001Z" fill="white"/>
<path fill-rule="evenodd" clip-rule="evenodd" d="M218.219 324.635C218.697 324.635 219.083 325.021 219.083 325.499C219.083 325.978 218.697 326.364 218.219 326.364C217.741 326.364 217.354 325.978 217.354 325.499C217.354 325.021 217.741 324.635 218.219 324.635Z" fill="white"/>
<path fill-rule="evenodd" clip-rule="evenodd" d="M283.284 336.005C283.664 336.005 283.973 336.314 283.973 336.695C283.973 337.075 283.664 337.384 283.284 337.384C282.904 337.384 282.595 337.075 282.595 336.695C282.595 336.314 282.904 336.005 283.284 336.005Z" fill="white"/>
<path fill-rule="evenodd" clip-rule="evenodd" d="M291.367 317.599C291.748 317.599 292.057 317.908 292.057 318.289C292.057 318.669 291.748 318.978 291.367 318.978C290.987 318.978 290.678 318.669 290.678 318.289C290.678 317.908 290.987 317.599 291.367 317.599Z" fill="white"/>
<path fill-rule="evenodd" clip-rule="evenodd" d="M315.898 322.64C316.772 322.64 317.481 323.349 317.481 324.223C317.481 325.097 316.772 325.806 315.898 325.806C315.024 325.806 314.315 325.097 314.315 324.223C314.315 323.349 315.024 322.64 315.898 322.64Z" fill="white"/>
<path d="M136.217 299.276C135.343 299.276 134.634 298.567 134.634 297.693C134.634 296.818 135.343 296.11 136.217 296.11C137.091 296.11 137.8 296.818 137.8 297.693C137.8 298.567 137.091 299.276 136.217 299.276Z" fill="white"/>
<path fill-rule="evenodd" clip-rule="evenodd" d="M129.278 303.174C129.716 303.174 130.07 303.527 130.07 303.965C130.07 304.403 129.716 304.757 129.278 304.757C128.84 304.757 128.487 304.403 128.487 303.965C128.487 303.527 128.84 303.174 129.278 303.174Z" fill="white"/>
<path fill-rule="evenodd" clip-rule="evenodd" d="M119.341 301.032C119.561 301.032 119.739 301.21 119.739 301.43C119.739 301.651 119.561 301.828 119.341 301.828C119.121 301.828 118.943 301.651 118.943 301.43C118.943 301.21 119.121 301.032 119.341 301.032Z" fill="white"/>
<path fill-rule="evenodd" clip-rule="evenodd" d="M127.117 311.194C127.338 311.194 127.515 311.371 127.515 311.592C127.515 311.812 127.338 311.99 127.117 311.99C126.897 311.99 126.719 311.812 126.719 311.592C126.719 311.371 126.897 311.194 127.117 311.194Z" fill="white"/>
<path fill-rule="evenodd" clip-rule="evenodd" d="M95.0017 267.242C95.4796 267.242 95.8643 267.629 95.8643 268.105C95.8643 268.581 95.4774 268.968 95.0017 268.968C94.5259 268.968 94.1391 268.581 94.1391 268.105C94.1391 267.629 94.5259 267.242 95.0017 267.242Z" fill="white"/>
<path fill-rule="evenodd" clip-rule="evenodd" d="M169.782 325.502C170.271 325.502 170.669 325.897 170.669 326.389C170.669 326.88 170.274 327.274 169.782 327.274C169.291 327.274 168.895 326.878 168.895 326.389C168.895 325.9 169.291 325.502 169.782 325.502Z" fill="white"/>
<path fill-rule="evenodd" clip-rule="evenodd" d="M98.7655 267.135C99.0033 267.135 99.1968 267.329 99.1968 267.567C99.1968 267.805 99.0033 267.998 98.7655 267.998C98.5276 267.998 98.3342 267.805 98.3342 267.567C98.3342 267.329 98.5276 267.135 98.7655 267.135Z" fill="white"/>
<path fill-rule="evenodd" clip-rule="evenodd" d="M112.38 278.046C112.618 278.046 112.812 278.24 112.812 278.477C112.812 278.715 112.618 278.909 112.38 278.909C112.142 278.909 111.949 278.715 111.949 278.477C111.949 278.24 112.142 278.046 112.38 278.046Z" fill="white"/>
<path fill-rule="evenodd" clip-rule="evenodd" d="M88.0118 255.536C88.2497 255.536 88.4431 255.729 88.4431 255.967C88.4431 256.205 88.2497 256.398 88.0118 256.398C87.7739 256.398 87.5805 256.205 87.5805 255.967C87.5805 255.729 87.7739 255.536 88.0118 255.536Z" fill="white"/>
<path fill-rule="evenodd" clip-rule="evenodd" d="M91.3357 200.849C91.8136 200.849 92.1982 201.236 92.1982 201.712C92.1982 202.188 91.8114 202.575 91.3357 202.575C90.8599 202.575 90.4731 202.188 90.4731 201.712C90.4731 201.236 90.8599 200.849 91.3357 200.849Z" fill="white"/>
<path d="M266.199 362.534C265.325 362.534 264.616 361.825 264.616 360.95C264.616 360.076 265.325 359.367 266.199 359.367C267.073 359.367 267.782 360.076 267.782 360.95C267.782 361.825 267.073 362.534 266.199 362.534Z" fill="white"/>
<path fill-rule="evenodd" clip-rule="evenodd" d="M326.7 360.95C327.138 360.95 327.492 361.304 327.492 361.742C327.492 362.18 327.138 362.534 326.7 362.534C326.262 362.534 325.909 362.18 325.909 361.742C325.909 361.304 326.262 360.95 326.7 360.95Z" fill="white"/>
<path fill-rule="evenodd" clip-rule="evenodd" d="M263.429 314.847C263.907 314.847 264.294 315.234 264.294 315.712C264.294 316.19 263.907 316.577 263.429 316.577C262.951 316.577 262.564 316.19 262.564 315.712C262.564 315.234 262.951 314.847 263.429 314.847Z" fill="white"/>
<path d="M242.891 93.3025H392.075V320.944H242.891V93.3025Z" fill="#E6A545"/>
<path d="M253.894 188.458H392.075V227.071H253.894V188.458Z" fill="#5B4214"/>
<path d="M253.894 282.364H392.075V320.977H253.894V282.364Z" fill="#5B4214"/>
<path d="M253.894 235.324H392.075V273.937H253.894V235.324Z" fill="#5B4214"/>
<path d="M253.894 140.169H392.075V178.782H253.894V140.169Z" fill="#5B4214"/>
<path d="M253.894 93.3025H392.075V131.915H253.894V93.3025Z" fill="#5B4214"/>
<path fill-rule="evenodd" clip-rule="evenodd" d="M392.075 320.977H385.016V289.595H253.892V282.364H392.075V320.977Z" fill="#5B4214"/>
<path fill-rule="evenodd" clip-rule="evenodd" d="M392.075 273.937H385.016V242.555H253.892V235.324H392.075V273.937Z" fill="#5B4214"/>
<path fill-rule="evenodd" clip-rule="evenodd" d="M392.075 131.915H385.016V100.533H253.892V93.3025H392.075V131.915Z" fill="#5B4214"/>
<path fill-rule="evenodd" clip-rule="evenodd" d="M392.075 178.782H385.016V147.402H253.892V140.169H392.075V178.782Z" fill="#5B4214"/>
<path fill-rule="evenodd" clip-rule="evenodd" d="M392.075 227.069H385.016V195.689H253.892V188.458H392.075V227.069Z" fill="#5B4214"/>
<path d="M318.146 142.977H327.821V178.782H318.146V142.977Z" fill="#F7E26C"/>
<path d="M318.146 146.188H327.821V147.464H318.146V146.188Z" fill="white"/>
<path d="M318.146 174.377H327.821V175.651H318.146V174.377Z" fill="white"/>
<path d="M306.872 142.977H316.547V178.782H306.872V142.977Z" fill="#F5CB4C"/>
<path d="M306.872 146.188H316.547V147.464H306.872V146.188Z" fill="white"/>
<path d="M306.872 174.377H316.547V175.651H306.872V174.377Z" fill="white"/>
<path d="M295.347 142.977H305.022V178.782H295.347V142.977Z" fill="#F5CB4C"/>
<path d="M295.347 146.188H305.022V147.464H295.347V146.188Z" fill="white"/>
<path d="M295.347 174.377H305.022V175.651H295.347V174.377Z" fill="white"/>
<path d="M285.996 142.443L294.63 146.809L278.478 178.762L269.843 174.396L285.996 142.443Z" fill="#F7E26C"/>
<path d="M284.551 145.299L293.185 149.665L292.609 150.804L283.975 146.438L284.551 145.299Z" fill="white"/>
<path d="M271.835 170.444L280.47 174.81L279.894 175.949L271.26 171.583L271.835 170.444Z" fill="white"/>
<path d="M267.191 96.1285H276.866V131.933H267.191V96.1285Z" fill="#FCD574"/>
<path d="M267.191 99.3392H276.866V100.616H267.191V99.3392Z" fill="white"/>
<path d="M267.191 127.526H276.866V128.8H267.191V127.526Z" fill="white"/>
<path d="M255.917 96.1285H265.592V131.933H255.917V96.1285Z" fill="#FCD574"/>
<path d="M255.917 99.3392H265.592V100.616H255.917V99.3392Z" fill="white"/>
<path d="M255.917 127.526H265.592V128.8H255.917V127.526Z" fill="white"/>
<path d="M285.979 95.5557L302.493 127.323L293.908 131.787L277.394 100.019L285.979 95.5557Z" fill="#F7BB54"/>
<path d="M287.493 98.3866L288.08 99.5171L279.495 103.979L278.908 102.849L287.493 98.3866Z" fill="white"/>
<path d="M300.492 123.394L301.08 124.527L292.495 128.989L291.907 127.856L300.492 123.394Z" fill="white"/>
<path d="M290.156 191.293H299.831V227.098H290.156V191.293Z" fill="#FCD574"/>
<path d="M290.156 194.504H299.831V195.778H290.156V194.504Z" fill="white"/>
<path d="M290.156 222.691H299.831V223.967H290.156V222.691Z" fill="white"/>
<path d="M278.882 191.293H288.557V227.098H278.882V191.293Z" fill="#F7BB54"/>
<path d="M278.882 194.504H288.557V195.778H278.882V194.504Z" fill="white"/>
<path d="M278.882 222.691H288.557V223.967H278.882V222.691Z" fill="white"/>
<path d="M267.357 191.293H277.032V227.098H267.357V191.293Z" fill="#F7BB54"/>
<path d="M267.357 194.504H277.032V195.778H267.357V194.504Z" fill="white"/>
<path d="M267.357 222.691H277.032V223.967H267.357V222.691Z" fill="white"/>
<path d="M256.084 191.293H265.759V227.098H256.084V191.293Z" fill="#FCD574"/>
<path d="M256.084 194.504H265.759V195.778H256.084V194.504Z" fill="white"/>
<path d="M256.084 222.691H265.759V223.967H256.084V222.691Z" fill="white"/>
<path d="M328.543 191.293H338.219V227.098H328.543V191.293Z" fill="#F7BB54"/>
<path d="M328.543 194.504H338.219V195.778H328.543V194.504Z" fill="white"/>
<path d="M328.543 222.691H338.219V223.967H328.543V222.691Z" fill="white"/>
<path d="M317.021 191.293H326.696V227.098H317.021V191.293Z" fill="#F7BB54"/>
<path d="M317.021 194.504H326.696V195.778H317.021V194.504Z" fill="white"/>
<path d="M317.021 222.691H326.696V223.967H317.021V222.691Z" fill="white"/>
<path d="M305.747 191.293H315.422V227.098H305.747V191.293Z" fill="#FCD574"/>
<path d="M305.747 194.504H315.422V195.778H305.747V194.504Z" fill="white"/>
<path d="M305.747 222.691H315.422V223.967H305.747V222.691Z" fill="white"/>
<path d="M278.882 238.082H288.557V273.886H278.882V238.082Z" fill="#F7E26C"/>
<path d="M278.882 241.292H288.557V242.566H278.882V241.292Z" fill="white"/>
<path d="M278.882 269.481H288.557V270.758H278.882V269.481Z" fill="white"/>
<path d="M267.357 238.082H277.032V273.886H267.357V238.082Z" fill="#F7E26C"/>
<path d="M267.357 241.292H277.032V242.566H267.357V241.292Z" fill="white"/>
<path d="M267.357 269.481H277.032V270.758H267.357V269.481Z" fill="white"/>
<path d="M256.084 238.082H265.759V273.886H256.084V238.082Z" fill="#F5CB4C"/>
<path d="M256.084 241.292H265.759V242.566H256.084V241.292Z" fill="white"/>
<path d="M256.084 269.481H265.759V270.758H256.084V269.481Z" fill="white"/>
<path d="M320.749 285.15H330.424V320.955H320.749V285.15Z" fill="#FCD574"/>
<path d="M320.749 288.361H330.424V289.635H320.749V288.361Z" fill="white"/>
<path d="M320.749 316.55H330.424V317.826H320.749V316.55Z" fill="white"/>
<path d="M309.475 285.15H319.15V320.955H309.475V285.15Z" fill="#F7BB54"/>
<path d="M309.475 288.361H319.15V289.635H309.475V288.361Z" fill="white"/>
<path d="M309.475 316.55H319.15V317.826H309.475V316.55Z" fill="white"/>
<path d="M301.185 285.363L309.348 290.557L290.128 320.765L281.966 315.57L301.185 285.363Z" fill="#F7BB54"/>
<path d="M299.46 288.07L307.623 293.265L306.938 294.342L298.775 289.147L299.46 288.07Z" fill="white"/>
<path d="M284.328 311.858L292.491 317.053L291.806 318.13L283.643 312.935L284.328 311.858Z" fill="white"/>
<path fill-rule="evenodd" clip-rule="evenodd" d="M265.77 298.06C266.208 298.06 266.562 298.413 266.562 298.851C266.562 299.289 266.208 299.643 265.77 299.643C265.332 299.643 264.979 299.289 264.979 298.851C264.979 298.413 265.332 298.06 265.77 298.06Z" fill="white"/>
<path fill-rule="evenodd" clip-rule="evenodd" d="M296.158 262.964C297.032 262.964 297.741 263.674 297.741 264.547C297.741 265.421 297.032 266.131 296.158 266.131C295.285 266.131 294.575 265.421 294.575 264.547C294.575 263.674 295.285 262.964 296.158 262.964Z" fill="white"/>
<path fill-rule="evenodd" clip-rule="evenodd" d="M283.249 254.624C283.687 254.624 284.04 254.978 284.04 255.416C284.04 255.854 283.687 256.207 283.249 256.207C282.811 256.207 282.457 255.854 282.457 255.416C282.457 254.978 282.811 254.624 283.249 254.624Z" fill="white"/>
<path fill-rule="evenodd" clip-rule="evenodd" d="M309.271 249.134C309.709 249.134 310.062 249.488 310.062 249.926C310.062 250.364 309.709 250.717 309.271 250.717C308.833 250.717 308.479 250.364 308.479 249.926C308.479 249.488 308.833 249.134 309.271 249.134Z" fill="white"/>
<path fill-rule="evenodd" clip-rule="evenodd" d="M284.605 209.554C285.051 209.554 285.412 209.917 285.412 210.362C285.412 210.806 285.049 211.169 284.605 211.169C284.16 211.169 283.798 210.806 283.798 210.362C283.798 209.917 284.16 209.554 284.605 209.554Z" fill="white"/>
<path fill-rule="evenodd" clip-rule="evenodd" d="M327.503 208.387C327.95 208.387 328.31 208.749 328.31 209.194C328.31 209.639 327.947 210.001 327.503 210.001C327.058 210.001 326.696 209.639 326.696 209.194C326.696 208.749 327.058 208.387 327.503 208.387Z" fill="white"/>
<path fill-rule="evenodd" clip-rule="evenodd" d="M279.507 156.829C280.381 156.829 281.09 157.539 281.09 158.412C281.09 159.286 280.381 159.995 279.507 159.995C278.633 159.995 277.924 159.286 277.924 158.412C277.924 157.539 278.633 156.829 279.507 156.829Z" fill="white"/>
<path fill-rule="evenodd" clip-rule="evenodd" d="M268.54 157.583C269.149 157.583 269.645 158.077 269.645 158.688C269.645 159.3 269.151 159.793 268.54 159.793C267.929 159.793 267.435 159.297 267.435 158.688C267.435 158.079 267.931 157.583 268.54 157.583Z" fill="white"/>
<path fill-rule="evenodd" clip-rule="evenodd" d="M316.547 173.272C317.156 173.272 317.652 173.765 317.652 174.377C317.652 174.988 317.156 175.482 316.547 175.482C315.938 175.482 315.442 174.986 315.442 174.377C315.442 173.768 315.938 173.272 316.547 173.272Z" fill="white"/>
<path fill-rule="evenodd" clip-rule="evenodd" d="M263.429 85.5443C263.907 85.5443 264.294 85.9312 264.294 86.4092C264.294 86.8873 263.907 87.2742 263.429 87.2742C262.951 87.2742 262.564 86.8873 262.564 86.4092C262.564 85.9312 262.951 85.5443 263.429 85.5443Z" fill="white"/>
<path d="M242.891 -136H392.075V91.6411H242.891V-136Z" fill="#E6A545"/>
<path d="M253.894 53.0615H392.075V91.6743H253.894V53.0615Z" fill="#5B4214"/>
<path d="M253.894 6.02185H392.075V44.6346H253.894V6.02185Z" fill="#5B4214"/>
<path fill-rule="evenodd" clip-rule="evenodd" d="M392.075 91.6743H385.016V60.2923H253.892V53.0615H392.075V91.6743Z" fill="#5B4214"/>
<path fill-rule="evenodd" clip-rule="evenodd" d="M392.075 44.6346H385.016V13.2526H253.892V6.02185H392.075V44.6346Z" fill="#5B4214"/>
<path d="M278.882 8.77905H288.557V44.5836H278.882V8.77905Z" fill="#F7E26C"/>
<path d="M278.882 11.9897H288.557V13.2638H278.882V11.9897Z" fill="white"/>
<path d="M278.882 40.1788H288.557V41.4551H278.882V40.1788Z" fill="white"/>
<path d="M267.357 8.77905H277.032V44.5836H267.357V8.77905Z" fill="#F7E26C"/>
<path d="M267.357 11.9897H277.032V13.2638H267.357V11.9897Z" fill="white"/>
<path d="M267.357 40.1788H277.032V41.4551H267.357V40.1788Z" fill="white"/>
<path d="M256.084 8.77905H265.759V44.5836H256.084V8.77905Z" fill="#F5CB4C"/>
<path d="M256.084 11.9897H265.759V13.2638H256.084V11.9897Z" fill="white"/>
<path d="M256.084 40.1788H265.759V41.4551H256.084V40.1788Z" fill="white"/>
<path d="M320.749 55.8475H330.424V91.6521H320.749V55.8475Z" fill="#FCD574"/>
<path d="M320.749 59.0583H330.424V60.3324H320.749V59.0583Z" fill="white"/>
<path d="M320.749 87.2476H330.424V88.5238H320.749V87.2476Z" fill="white"/>
<path d="M309.475 55.8475H319.15V91.6521H309.475V55.8475Z" fill="#F7BB54"/>
<path d="M309.475 59.0583H319.15V60.3324H309.475V59.0583Z" fill="white"/>
<path d="M309.475 87.2476H319.15V88.5238H309.475V87.2476Z" fill="white"/>
<path d="M301.185 56.0601L309.348 61.255L290.128 91.4623L281.966 86.2674L301.185 56.0601Z" fill="#F7BB54"/>
<path d="M299.46 58.7677L307.623 63.9626L306.938 65.0394L298.775 59.8445L299.46 58.7677Z" fill="white"/>
<path d="M284.328 82.5559L292.491 87.7509L291.806 88.8276L283.643 83.6327L284.328 82.5559Z" fill="white"/>
<path fill-rule="evenodd" clip-rule="evenodd" d="M265.77 68.7571C266.208 68.7571 266.562 69.1106 266.562 69.5486C266.562 69.9867 266.208 70.3402 265.77 70.3402C265.332 70.3402 264.979 69.9867 264.979 69.5486C264.979 69.1106 265.332 68.7571 265.77 68.7571Z" fill="white"/>
<path fill-rule="evenodd" clip-rule="evenodd" d="M296.158 33.6619C297.032 33.6619 297.741 34.3712 297.741 35.245C297.741 36.1188 297.032 36.8281 296.158 36.8281C295.285 36.8281 294.575 36.1188 294.575 35.245C294.575 34.3712 295.285 33.6619 296.158 33.6619Z" fill="white"/>
<path fill-rule="evenodd" clip-rule="evenodd" d="M283.249 25.3217C283.687 25.3217 284.04 25.6752 284.04 26.1132C284.04 26.5512 283.687 26.9048 283.249 26.9048C282.811 26.9048 282.457 26.5512 282.457 26.1132C282.457 25.6752 282.811 25.3217 283.249 25.3217Z" fill="white"/>
<path fill-rule="evenodd" clip-rule="evenodd" d="M309.271 19.8318C309.709 19.8318 310.062 20.1853 310.062 20.6233C310.062 21.0614 309.709 21.4149 309.271 21.4149C308.833 21.4149 308.479 21.0614 308.479 20.6233C308.479 20.1853 308.833 19.8318 309.271 19.8318Z" fill="white"/>
</g>
</svg>
