<svg width="8" height="8" viewBox="0 0 8 8" fill="none" xmlns="http://www.w3.org/2000/svg">
<path d="M4.57664 1.16988L5.1633 2.34322C5.2433 2.50655 5.45664 2.66322 5.63664 2.69322L6.69997 2.86988C7.37997 2.98322 7.53997 3.47655 7.04997 3.96322L6.2233 4.78988C6.0833 4.92988 6.00664 5.19988 6.04997 5.39322L6.28664 6.41655C6.4733 7.22655 6.0433 7.53988 5.32664 7.11655L4.32997 6.52655C4.14997 6.41988 3.8533 6.41988 3.66997 6.52655L2.6733 7.11655C1.95997 7.53988 1.52664 7.22322 1.7133 6.41655L1.94997 5.39322C1.9933 5.19988 1.91664 4.92988 1.77664 4.78988L0.94997 3.96322C0.463303 3.47655 0.61997 2.98322 1.29997 2.86988L2.3633 2.69322C2.53997 2.66322 2.7533 2.50655 2.8333 2.34322L3.41997 1.16988C3.73997 0.533216 4.25997 0.533216 4.57664 1.16988Z" fill="#FFDF00"/>
</svg>
