<svg width="164" height="44" viewBox="0 0 164 44" fill="none" xmlns="http://www.w3.org/2000/svg">
<path d="M0.365547 22.1C0.365547 36.62 5.76555 43.88 16.5655 43.88C27.3255 43.88 32.7055 36.62 32.7055 22.1C32.7055 7.62 27.3255 0.379997 16.5655 0.379997C5.76555 0.379997 0.365547 7.62 0.365547 22.1ZM24.4855 22.1C24.4855 24.94 24.2855 27.36 23.8855 29.36C23.5255 31.36 22.7655 32.98 21.6055 34.22C20.4855 35.46 18.8055 36.08 16.5655 36.08C14.3255 36.08 12.6255 35.46 11.4655 34.22C10.3455 32.98 9.58555 31.36 9.18555 29.36C8.82555 27.36 8.64555 24.94 8.64555 22.1C8.64555 19.26 8.82555 16.86 9.18555 14.9C9.58555 12.9 10.3455 11.28 11.4655 10.04C12.6255 8.8 14.3255 8.18 16.5655 8.18C18.8055 8.18 20.4855 8.8 21.6055 10.04C22.7655 11.28 23.5255 12.9 23.8855 14.9C24.2855 16.86 24.4855 19.26 24.4855 22.1ZM43.4746 33.08C46.9946 30.04 49.7546 27.56 51.7546 25.64C53.7946 23.68 55.4746 21.68 56.7946 19.64C58.1546 17.56 58.8346 15.54 58.8346 13.58C58.8346 11.58 58.3546 10.02 57.3946 8.9C56.4346 7.78 54.9546 7.22 52.9546 7.22C51.0346 7.22 49.5346 7.86 48.4546 9.14C47.3746 10.42 46.8146 12.18 46.7746 14.42H38.6146C38.6546 11.26 39.3146 8.62 40.5946 6.5C41.8746 4.34 43.5946 2.74 45.7546 1.7C47.9146 0.619997 50.3146 0.0799968 52.9546 0.0799968C56.0346 0.0799968 58.6546 0.659998 60.8146 1.82C62.9746 2.98 64.5946 4.56 65.6746 6.56C66.7546 8.52 67.2946 10.72 67.2946 13.16C67.2946 15.8 66.6346 18.32 65.3146 20.72C64.0346 23.12 62.4746 25.28 60.6346 27.2C58.8346 29.12 56.4546 31.42 53.4946 34.1L50.8546 36.5H68.3146V43.4H38.7346V37.22L43.4746 33.08ZM74.8677 14.66C74.8677 13.3 75.3277 12.16 76.2477 11.24C77.1677 10.28 78.3077 9.8 79.6677 9.8C81.0277 9.8 82.1677 10.28 83.0877 11.24C84.0077 12.16 84.4677 13.3 84.4677 14.66C84.4677 15.98 84.0077 17.1 83.0877 18.02C82.1677 18.94 81.0277 19.4 79.6677 19.4C78.3077 19.4 77.1677 18.94 76.2477 18.02C75.3277 17.1 74.8677 15.98 74.8677 14.66ZM74.8677 39.2C74.8677 37.84 75.3277 36.7 76.2477 35.78C77.1677 34.86 78.3077 34.4 79.6677 34.4C81.0277 34.4 82.1677 34.86 83.0877 35.78C84.0077 36.7 84.4677 37.84 84.4677 39.2C84.4677 40.56 84.0077 41.7 83.0877 42.62C82.1677 43.54 81.0277 44 79.6677 44C78.3077 44 77.1677 43.54 76.2477 42.62C75.3277 41.7 74.8677 40.56 74.8677 39.2ZM92.4163 22.1C92.4163 36.62 97.8163 43.88 108.616 43.88C119.376 43.88 124.756 36.62 124.756 22.1C124.756 7.62 119.376 0.379997 108.616 0.379997C97.8163 0.379997 92.4163 7.62 92.4163 22.1ZM116.536 22.1C116.536 24.94 116.336 27.36 115.936 29.36C115.576 31.36 114.816 32.98 113.656 34.22C112.536 35.46 110.856 36.08 108.616 36.08C106.376 36.08 104.676 35.46 103.516 34.22C102.396 32.98 101.636 31.36 101.236 29.36C100.876 27.36 100.696 24.94 100.696 22.1C100.696 19.26 100.876 16.86 101.236 14.9C101.636 12.9 102.396 11.28 103.516 10.04C104.676 8.8 106.376 8.18 108.616 8.18C110.856 8.18 112.536 8.8 113.656 10.04C114.816 11.28 115.576 12.9 115.936 14.9C116.336 16.86 116.536 19.26 116.536 22.1ZM131.205 22.1C131.205 36.62 136.605 43.88 147.405 43.88C158.165 43.88 163.545 36.62 163.545 22.1C163.545 7.62 158.165 0.379997 147.405 0.379997C136.605 0.379997 131.205 7.62 131.205 22.1ZM155.325 22.1C155.325 24.94 155.125 27.36 154.725 29.36C154.365 31.36 153.605 32.98 152.445 34.22C151.325 35.46 149.645 36.08 147.405 36.08C145.165 36.08 143.465 35.46 142.305 34.22C141.185 32.98 140.425 31.36 140.025 29.36C139.665 27.36 139.485 24.94 139.485 22.1C139.485 19.26 139.665 16.86 140.025 14.9C140.425 12.9 141.185 11.28 142.305 10.04C143.465 8.8 145.165 8.18 147.405 8.18C149.645 8.18 151.325 8.8 152.445 10.04C153.605 11.28 154.365 12.9 154.725 14.9C155.125 16.86 155.325 19.26 155.325 22.1Z" fill="#00B900"/>
</svg>
