<svg width="50" height="50" viewBox="0 0 50 50" fill="none" xmlns="http://www.w3.org/2000/svg">
<rect width="50" height="50" rx="10" fill="#F2F4F9"/>
<path fill-rule="evenodd" clip-rule="evenodd" d="M17.428 29.5582H14.8067L12.841 22.0851C12.7477 21.7413 12.5496 21.4374 12.2582 21.2942C11.531 20.9342 10.7297 20.6478 9.85547 20.5033V20.2156H14.0782C14.661 20.2156 15.0981 20.6478 15.1709 21.1497L16.1908 26.5403L18.8109 20.2156H21.3593L17.428 29.5582ZM22.8157 29.5582H20.3401L22.3786 20.2156H24.8542L22.8157 29.5582ZM28.0582 22.8036C28.131 22.3005 28.5681 22.0127 29.0781 22.0127C29.8794 21.9405 30.7523 22.085 31.4808 22.4437L31.9179 20.4322C31.1894 20.1445 30.3881 20 29.6609 20C27.2581 20 25.5097 21.2941 25.5097 23.0901C25.5097 24.4564 26.7482 25.1739 27.6223 25.6061C28.5681 26.037 28.9324 26.3247 28.8595 26.7557C28.8595 27.4021 28.131 27.6898 27.4038 27.6898C26.5296 27.6898 25.6554 27.4743 24.8553 27.1144L24.4182 29.1271C25.2924 29.4858 26.2382 29.6303 27.1124 29.6303C29.8066 29.7013 31.4808 28.4085 31.4808 26.4679C31.4808 24.0243 28.0582 23.881 28.0582 22.8036ZM40.1442 29.5582L38.1786 20.2156H36.0672C35.6301 20.2156 35.193 20.5033 35.0473 20.9342L31.4074 29.5582H33.9559L34.4645 28.1931H37.5958L37.8872 29.5582H40.1442ZM36.432 22.7311L37.1592 26.2521H35.1207L36.432 22.7311Z" fill="#172B85"/>
</svg>
