<svg width="46" height="50" viewBox="0 0 46 50" fill="none" xmlns="http://www.w3.org/2000/svg">
<g filter="url(#filter0_d_479_382)">
<path d="M25.25 18.75C25.6478 18.75 26.0294 18.908 26.3107 19.1893C26.592 19.4706 26.75 19.8522 26.75 20.25V32.25L21.5 30L16.25 32.25V20.25C16.25 19.8522 16.408 19.4706 16.6893 19.1893C16.9706 18.908 17.3522 18.75 17.75 18.75H25.25ZM20.75 15.75H28.25C28.6478 15.75 29.0294 15.908 29.3107 16.1893C29.592 16.4706 29.75 16.8522 29.75 17.25V29.25L28.25 28.5975V17.25H19.25C19.25 16.8522 19.408 16.4706 19.6893 16.1893C19.9706 15.908 20.3522 15.75 20.75 15.75Z" fill="white"/>
</g>
<defs>
<filter id="filter0_d_479_382" x="-2" y="0" width="50" height="50" filterUnits="userSpaceOnUse" color-interpolation-filters="sRGB">
<feFlood flood-opacity="0" result="BackgroundImageFix"/>
<feColorMatrix in="SourceAlpha" type="matrix" values="0 0 0 0 0 0 0 0 0 0 0 0 0 0 0 0 0 0 127 0" result="hardAlpha"/>
<feOffset dy="1"/>
<feGaussianBlur stdDeviation="8"/>
<feComposite in2="hardAlpha" operator="out"/>
<feColorMatrix type="matrix" values="0 0 0 0 0 0 0 0 0 0 0 0 0 0 0 0 0 0 0.15 0"/>
<feBlend mode="normal" in2="BackgroundImageFix" result="effect1_dropShadow_479_382"/>
<feBlend mode="normal" in="SourceGraphic" in2="effect1_dropShadow_479_382" result="shape"/>
</filter>
</defs>
</svg>
